<?xml version="1.0" encoding="UTF-8" standalone="no"?><!DOCTYPE svg PUBLIC "-//W3C//DTD SVG 1.1//EN" "http://www.w3.org/Graphics/SVG/1.1/DTD/svg11.dtd"><svg width="100%" height="100%" viewBox="0 0 150 150" version="1.1" xmlns="http://www.w3.org/2000/svg" xmlns:xlink="http://www.w3.org/1999/xlink" xml:space="preserve" xmlns:serif="http://www.serif.com/" style="fill-rule:evenodd;clip-rule:evenodd;stroke-linecap:round;stroke-linejoin:round;stroke-miterlimit:1.5;"><g><path d="M62,111l-2,23" style="fill:none;stroke:#5b629b;stroke-width:2px;"/><path d="M70,141l-3,-30l-7,0c-0.631,-8.633 -0.26,-20.287 4,-24c2.06,-1.796 4.344,-3 7,-3l10,0c0,0 4.311,0.543 7,4c4.516,5.806 3,23 3,23l-7,0l-3,30" style="fill:none;stroke:#5b629b;stroke-width:2px;"/><path d="M41.202,6.145l0.277,0.003l0.277,0.004l0.278,0.006l0.277,0.008l0.277,0.008l0.278,0.011l0.278,0.012l0.277,0.013l0.278,0.015l0.277,0.017l0.278,0.018l0.277,0.02l0.278,0.021l0.277,0.023l0.277,0.024l0.278,0.026l0.277,0.028l0.277,0.029l0.277,0.03l0.276,0.033l0.277,0.033l0.277,0.036l0.276,0.036l0.276,0.039l0.276,0.04l0.276,0.041l0.276,0.044l0.275,0.044l0.275,0.047l0.275,0.047l0.275,0.05l0.274,0.051l0.274,0.052l0.274,0.055l0.274,0.055l0.273,0.058l0.273,0.059l0.273,0.06l0.272,0.062l0.272,0.064l0.272,0.066l0.271,0.067l0.271,0.068l0.27,0.07l0.27,0.072l0.27,0.073l0.269,0.075l0.269,0.077l0.268,0.078l0.268,0.08l0.267,0.081l0.267,0.083l0.266,0.085l0.266,0.086l0.265,0.088l0.265,0.09l0.265,0.091l0.263,0.093l0.263,0.094l0.263,0.096l0.262,0.098l0.261,0.099l0.261,0.101l0.26,0.102l0.26,0.105l0.259,0.105l0.258,0.108l0.257,0.109l0.257,0.111l0.257,0.112l0.255,0.114l0.255,0.116l0.254,0.118l0.253,0.119l0.253,0.12l0.252,0.123l0.251,0.124l0.25,0.125l0.249,0.128l0.249,0.129l0.248,0.13l0.247,0.133l0.246,0.134l0.246,0.136l0.244,0.137l0.244,0.139l0.242,0.141l0.242,0.142l0.241,0.144l0.24,0.146l0.239,0.147l0.239,0.15l0.237,0.15l0.236,0.153l0.235,0.154l0.235,0.156l0.233,0.158l0.232,0.159l0.232,0.161l0.23,0.163l0.229,0.164l0.228,0.166l0.227,0.168l0.227,0.169l0.224,0.172l0.224,0.173l0.223,0.174l0.222,0.177l0.22,0.178l0.22,0.18l0.218,0.181l0.217,0.183l0.216,0.185l0.214,0.187l0.214,0.188l0.212,0.191l0.211,0.191l0.21,0.194l0.209,0.195l0.207,0.198l0.206,0.198l0.205,0.201l0.204,0.202l0.202,0.204l0.201,0.206l0.199,0.208l0.199,0.209l0.196,0.211l0.196,0.213l0.194,0.214l0.193,0.217l0.191,0.218l0.19,0.219l0.189,0.222l0.187,0.223l0.186,0.225l0.186,-0.225l0.187,-0.223l0.189,-0.222l0.19,-0.219l0.191,-0.218l0.193,-0.217l0.194,-0.214l0.196,-0.213l0.196,-0.211l0.199,-0.209l0.199,-0.208l0.201,-0.206l0.202,-0.204l0.204,-0.202l0.205,-0.201l0.206,-0.198l0.207,-0.198l0.209,-0.195l0.21,-0.194l0.211,-0.191l0.212,-0.191l0.214,-0.188l0.214,-0.187l0.216,-0.185l0.217,-0.183l0.218,-0.181l0.22,-0.18l0.22,-0.178l0.222,-0.177l0.223,-0.174l0.224,-0.173l0.224,-0.172l0.227,-0.169l0.227,-0.168l0.228,-0.166l0.229,-0.164l0.23,-0.163l0.232,-0.161l0.232,-0.159l0.233,-0.158l0.235,-0.156l0.235,-0.154l0.236,-0.153l0.237,-0.15l0.239,-0.15l0.239,-0.147l0.24,-0.146l0.241,-0.144l0.242,-0.142l0.242,-0.141l0.244,-0.139l0.244,-0.137l0.246,-0.136l0.246,-0.134l0.247,-0.133l0.248,-0.13l0.249,-0.129l0.249,-0.128l0.25,-0.125l0.251,-0.124l0.252,-0.123l0.253,-0.12l0.253,-0.119l0.254,-0.118l0.255,-0.116l0.255,-0.114l0.257,-0.112l0.257,-0.111l0.257,-0.109l0.258,-0.108l0.259,-0.105l0.26,-0.105l0.26,-0.102l0.261,-0.101l0.261,-0.099l0.262,-0.098l0.263,-0.096l0.263,-0.094l0.263,-0.093l0.265,-0.091l0.265,-0.09l0.265,-0.088l0.266,-0.086l0.266,-0.085l0.267,-0.083l0.267,-0.081l0.268,-0.08l0.268,-0.078l0.269,-0.077l0.269,-0.075l0.27,-0.073l0.27,-0.072l0.27,-0.07l0.271,-0.068l0.271,-0.067l0.272,-0.066l0.272,-0.064l0.272,-0.062l0.273,-0.06l0.273,-0.059l0.273,-0.058l0.274,-0.055l0.274,-0.055l0.274,-0.052l0.274,-0.051l0.275,-0.05l0.275,-0.047l0.275,-0.047l0.275,-0.044l0.276,-0.044l0.276,-0.041l0.276,-0.04l0.276,-0.039l0.276,-0.036l0.277,-0.036l0.277,-0.033l0.276,-0.033l0.277,-0.03l0.277,-0.029l0.277,-0.028l0.278,-0.026l0.277,-0.024l0.277,-0.023l0.278,-0.021l0.277,-0.02l0.278,-0.018l0.277,-0.017l0.278,-0.015l0.277,-0.013l0.278,-0.012l0.278,-0.011l0.277,-0.008l0.277,-0.008l0.278,-0.006l0.277,-0.004l0.277,-0.003l0.277,-0.001l0.278,0l0.276,0.002l0.277,0.003l0.277,0.005l0.276,0.006l0.277,0.008l0.276,0.01l0.276,0.011l0.276,0.012l0.275,0.014l0.276,0.015l0.275,0.017l0.275,0.019l0.275,0.02l0.274,0.021l0.274,0.023l0.274,0.024l0.274,0.026l0.273,0.028l0.273,0.029l0.273,0.03l0.272,0.032l0.272,0.034l0.271,0.034l0.272,0.037l0.27,0.038l0.271,0.039l0.27,0.041l0.27,0.042l0.269,0.044l0.268,0.045l0.269,0.047l0.268,0.048l0.267,0.05l0.267,0.051l0.266,0.052l0.266,0.054l0.265,0.056l0.265,0.057l0.264,0.058l0.264,0.06l0.263,0.061l0.263,0.063l0.262,0.064l0.261,0.066l0.261,0.067l0.26,0.069l0.26,0.07l0.259,0.071l0.258,0.073l0.257,0.075l0.257,0.075l0.256,0.078l0.256,0.078l0.255,0.08l0.254,0.082l0.253,0.083l0.253,0.084l0.251,0.086l0.252,0.087l0.25,0.089l0.249,0.09l0.249,0.091l0.248,0.093l0.247,0.095l0.246,0.095l0.245,0.097l0.245,0.099l0.244,0.1l0.242,0.101l0.242,0.103l0.241,0.104l0.24,0.106l0.239,0.107l0.238,0.108l0.238,0.11l0.236,0.111l0.235,0.112l0.235,0.114l0.233,0.116l0.232,0.116l0.232,0.118l0.23,0.12l0.229,0.121l0.228,0.122l0.227,0.124l0.226,0.125l0.225,0.126l0.224,0.128l0.223,0.129l0.222,0.13l0.22,0.132l0.22,0.133l0.218,0.135l0.217,0.136l0.216,0.137l0.214,0.139l0.214,0.14l0.212,0.141l0.211,0.143l0.21,0.144l0.209,0.145l0.207,0.147l0.206,0.148l0.205,0.149l0.203,0.151l0.203,0.152l0.201,0.154l0.199,0.155l0.198,0.156l0.197,0.157l0.196,0.159l0.194,0.16l0.193,0.162l0.191,0.163l0.19,0.164l0.189,0.165l0.187,0.167l0.186,0.168l0.184,0.169l0.183,0.171l0.182,0.172l0.18,0.173l0.178,0.175l0.177,0.176l0.176,0.177l0.174,0.179l0.173,0.18l0.171,0.181l0.17,0.182l0.168,0.183l0.167,0.185l0.166,0.186l0.164,0.188l0.163,0.188l0.161,0.19l0.159,0.191l0.159,0.192l0.157,0.194l0.155,0.194l0.154,0.196l0.152,0.198l0.152,0.198l0.149,0.199l0.148,0.201l0.147,0.202l0.145,0.203l0.144,0.204l0.143,0.206l0.141,0.206l0.139,0.208l0.138,0.209l0.137,0.21l0.135,0.211l0.134,0.212l0.132,0.214l0.131,0.214l0.129,0.216l0.128,0.217l0.127,0.218l0.125,0.219l0.123,0.22l0.122,0.221l0.121,0.222l0.119,0.224l0.118,0.224l0.116,0.226l0.115,0.226l0.114,0.228l0.112,0.229l0.111,0.23l0.109,0.231l0.107,0.232l0.107,0.232l0.104,0.234l0.104,0.235l0.102,0.237l0.1,0.237l0.099,0.238l0.098,0.239l0.096,0.24l0.095,0.241l0.093,0.242l0.092,0.243l0.09,0.244l0.089,0.245l0.087,0.246l0.086,0.247l0.085,0.248l0.083,0.249l0.082,0.25l0.08,0.251l0.079,0.251l0.077,0.253l0.076,0.254l0.074,0.254l0.073,0.256l0.072,0.256l0.07,0.257l0.069,0.258l0.067,0.26l0.066,0.26l0.064,0.26l0.063,0.262l0.061,0.263l0.06,0.263l0.059,0.265l0.057,0.265l0.056,0.266l0.054,0.267l0.053,0.268l0.051,0.269l0.05,0.269l0.048,0.27l0.047,0.272l0.046,0.272l0.044,0.272l0.043,0.274l0.041,0.274l0.04,0.276l0.038,0.276l0.037,0.277l0.035,0.277l0.034,0.279l0.033,0.279l0.031,0.28l0.029,0.28l0.029,0.282l0.026,0.282l0.026,0.283l0.023,0.284l0.023,0.284l0.021,0.286l0.019,0.286l0.018,0.286l0.017,0.288l0.015,0.288l0.014,0.289l0.012,0.289l0.011,0.29l0.009,0.291l0.008,0.292l0.007,0.292l0.005,0.293l0.004,0.294l0.002,0.294l0,0.295l0,0.296l-0.002,0.296l-0.004,0.297l-0.005,0.297l-0.007,0.299l-0.008,0.299l-0.009,0.299l-0.011,0.3l-0.012,0.301l-0.014,0.301l-0.015,0.302l-0.017,0.303l-0.018,0.303l-0.019,0.304l-0.021,0.304l-0.023,0.305l-0.023,0.305l-0.026,0.306l-0.026,0.307l-0.029,0.307l-0.029,0.308l-0.031,0.308l-0.033,0.309l-0.034,0.309l-0.035,0.31l-0.037,0.311l-0.038,0.311l-0.04,0.311l-0.041,0.312l-0.043,0.313l-0.044,0.313l-0.046,0.313l-0.047,0.314l-0.048,0.315l-0.05,0.315l-0.051,0.315l-0.053,0.316l-0.054,0.317l-0.056,0.317l-0.057,0.317l-0.059,0.318l-0.06,0.318l-0.061,0.319l-0.063,0.319l-0.064,0.319l-0.066,0.32l-0.067,0.321l-0.069,0.32l-0.07,0.322l-0.072,0.321l-0.073,0.322l-0.074,0.323l-0.076,0.323l-0.077,0.323l-0.079,0.323l-0.08,0.324l-0.082,0.325l-0.083,0.324l-0.085,0.325l-0.086,0.326l-0.087,0.326l-0.089,0.326l-0.09,0.326l-0.092,0.327l-0.093,0.327l-0.095,0.328l-0.096,0.327l-0.098,0.328l-0.099,0.329l-0.1,0.328l-0.102,0.329l-0.104,0.33l-0.104,0.329l-0.107,0.33l-0.107,0.33l-0.109,0.331l-0.111,0.33l-0.112,0.331l-0.114,0.331l-0.115,0.332l-0.116,0.332l-0.118,0.332l-0.119,0.332l-0.121,0.332l-0.122,0.333l-0.123,0.333l-0.125,0.333l-0.127,0.333l-0.128,0.333l-0.129,0.334l-0.131,0.334l-0.132,0.334l-0.134,0.334l-0.135,0.335l-0.137,0.334l-0.138,0.335l-0.139,0.335l-0.141,0.335l-0.143,0.335l-0.144,0.336l-0.145,0.335l-0.147,0.336l-0.148,0.336l-0.149,0.336l-0.152,0.336l-0.152,0.336l-0.154,0.336l-0.155,0.337l-0.157,0.336l-0.159,0.337l-0.159,0.337l-0.161,0.337l-0.163,0.336l-0.164,0.337l-0.166,0.337l-0.167,0.337l-0.168,0.338l-0.17,0.337l-0.171,0.337l-0.173,0.337l-0.174,0.338l-0.176,0.337l-0.177,0.338l-0.178,0.337l-0.18,0.338l-0.182,0.337l-0.183,0.338l-0.184,0.337l-0.13,0.253l-0.132,0.253l-0.134,0.253l-0.135,0.253l-0.136,0.254l-0.139,0.253l-0.139,0.253l-0.141,0.253l-0.143,0.253l-0.144,0.253l-0.146,0.253l-0.148,0.253l-0.148,0.253l-0.151,0.253l-0.151,0.252l-0.154,0.253l-0.154,0.253l-0.156,0.253l-0.158,0.252l-0.159,0.253l-0.16,0.253l-0.162,0.252l-0.164,0.253l-0.164,0.252l-0.166,0.252l-0.168,0.253l-0.169,0.252l-0.17,0.252l-0.172,0.252l-0.173,0.252l-0.174,0.252l-0.176,0.252l-0.177,0.252l-0.178,0.251l-0.18,0.252l-0.181,0.251l-0.182,0.252l-0.184,0.251l-0.185,0.251l-0.186,0.252l-0.187,0.251l-0.189,0.25l-0.19,0.251l-0.191,0.251l-0.193,0.251l-0.193,0.25l-0.195,0.25l-0.196,0.251l-0.198,0.25l-0.198,0.25l-0.2,0.249l-0.201,0.25l-0.202,0.25l-0.203,0.249l-0.205,0.249l-0.205,0.25l-0.207,0.249l-0.208,0.249l-0.209,0.248l-0.21,0.249l-0.211,0.248l-0.213,0.248l-0.213,0.249l-0.215,0.248l-0.215,0.247l-0.217,0.248l-0.218,0.247l-0.219,0.248l-0.22,0.247l-0.221,0.247l-0.222,0.246l-0.223,0.247l-0.224,0.246l-0.225,0.246l-0.226,0.246l-0.227,0.246l-0.228,0.246l-0.229,0.245l-0.23,0.245l-0.231,0.245l-0.232,0.245l-0.233,0.245l-0.233,0.244l-0.235,0.244l-0.236,0.244l-0.236,0.244l-0.238,0.243l-0.238,0.244l-0.24,0.243l-0.24,0.242l-0.241,0.243l-0.242,0.242l-0.242,0.242l-0.244,0.242l-0.245,0.242l-0.245,0.241l-0.246,0.241l-0.247,0.241l-0.496,0.481l-0.5,0.48l-0.503,0.479l-0.506,0.478l-0.508,0.477l-0.512,0.476l-0.515,0.474l-0.517,0.473l-0.521,0.473l-0.522,0.471l-0.526,0.469l-0.528,0.469l-0.531,0.467l-0.533,0.466l-0.535,0.465l-0.538,0.463l-0.54,0.462l-0.542,0.461l-0.544,0.459l-0.547,0.458l-0.548,0.457l-0.55,0.455l-0.553,0.454l-0.554,0.452l-0.555,0.45l-0.558,0.449l-0.559,0.448l-0.56,0.446l-0.562,0.444l-0.564,0.443l-0.565,0.441l-0.566,0.44l-0.567,0.438l-0.569,0.436l-0.569,0.434l-0.571,0.433l-0.572,0.431l-0.572,0.429l-0.574,0.427l-0.574,0.426l-0.575,0.424l-0.576,0.422l-0.576,0.42l-0.577,0.418l-0.577,0.416l-0.578,0.414l-0.578,0.413l-0.578,0.41l-0.579,0.408l-0.579,0.406l-0.579,0.405l-0.579,0.402l-0.578,0.4l-0.579,0.398l-0.579,0.396l-0.578,0.394l-0.578,0.391l-0.578,0.39l-0.577,0.387l-0.577,0.385l-0.577,0.383l-0.575,0.38l-0.576,0.379l-0.574,0.375l-0.574,0.374l-0.572,0.371l-0.572,0.369l-0.571,0.367l-0.57,0.364l-0.569,0.361l-0.567,0.359l-0.566,0.357l-0.565,0.354l-0.564,0.352l-0.562,0.349l-0.561,0.347l-0.559,0.344l-0.558,0.341l-0.556,0.339l-0.556,-0.339l-0.558,-0.341l-0.559,-0.344l-0.561,-0.347l-0.562,-0.349l-0.564,-0.352l-0.565,-0.354l-0.566,-0.357l-0.567,-0.359l-0.569,-0.361l-0.57,-0.364l-0.571,-0.367l-0.572,-0.369l-0.572,-0.371l-0.574,-0.374l-0.574,-0.375l-0.576,-0.379l-0.575,-0.38l-0.577,-0.383l-0.577,-0.385l-0.577,-0.387l-0.578,-0.39l-0.578,-0.391l-0.578,-0.394l-0.579,-0.396l-0.579,-0.398l-0.578,-0.4l-0.579,-0.402l-0.579,-0.405l-0.579,-0.406l-0.579,-0.408l-0.578,-0.41l-0.578,-0.413l-0.578,-0.414l-0.577,-0.416l-0.577,-0.418l-0.576,-0.42l-0.576,-0.422l-0.575,-0.424l-0.574,-0.426l-0.574,-0.427l-0.572,-0.429l-0.572,-0.431l-0.571,-0.433l-0.569,-0.434l-0.569,-0.436l-0.567,-0.438l-0.566,-0.44l-0.565,-0.441l-0.564,-0.443l-0.562,-0.444l-0.56,-0.446l-0.559,-0.448l-0.558,-0.449l-0.555,-0.45l-0.554,-0.452l-0.553,-0.454l-0.55,-0.455l-0.548,-0.457l-0.547,-0.458l-0.544,-0.459l-0.542,-0.461l-0.54,-0.462l-0.538,-0.463l-0.535,-0.465l-0.533,-0.466l-0.531,-0.467l-0.528,-0.469l-0.526,-0.469l-0.522,-0.471l-0.521,-0.473l-0.517,-0.473l-0.515,-0.474l-0.512,-0.476l-0.508,-0.477l-0.506,-0.478l-0.503,-0.479l-0.5,-0.48l-0.496,-0.481l-0.247,-0.241l-0.246,-0.241l-0.245,-0.241l-0.245,-0.242l-0.244,-0.242l-0.242,-0.242l-0.242,-0.242l-0.241,-0.243l-0.24,-0.242l-0.24,-0.243l-0.238,-0.244l-0.238,-0.243l-0.236,-0.244l-0.236,-0.244l-0.235,-0.244l-0.233,-0.244l-0.233,-0.245l-0.232,-0.245l-0.231,-0.245l-0.23,-0.245l-0.229,-0.245l-0.228,-0.246l-0.227,-0.246l-0.226,-0.246l-0.225,-0.246l-0.224,-0.246l-0.223,-0.247l-0.222,-0.246l-0.221,-0.247l-0.22,-0.247l-0.219,-0.248l-0.218,-0.247l-0.217,-0.248l-0.215,-0.247l-0.215,-0.248l-0.213,-0.249l-0.213,-0.248l-0.211,-0.248l-0.21,-0.249l-0.209,-0.248l-0.208,-0.249l-0.207,-0.249l-0.205,-0.25l-0.205,-0.249l-0.203,-0.249l-0.202,-0.25l-0.201,-0.25l-0.2,-0.249l-0.198,-0.25l-0.198,-0.25l-0.196,-0.251l-0.195,-0.25l-0.193,-0.25l-0.193,-0.251l-0.191,-0.251l-0.19,-0.251l-0.189,-0.25l-0.187,-0.251l-0.186,-0.252l-0.185,-0.251l-0.184,-0.251l-0.182,-0.252l-0.181,-0.251l-0.18,-0.252l-0.178,-0.251l-0.177,-0.252l-0.176,-0.252l-0.174,-0.252l-0.173,-0.252l-0.172,-0.252l-0.17,-0.252l-0.169,-0.252l-0.167,-0.253l-0.167,-0.252l-0.164,-0.252l-0.164,-0.253l-0.161,-0.252l-0.161,-0.253l-0.159,-0.253l-0.158,-0.252l-0.156,-0.253l-0.154,-0.253l-0.154,-0.253l-0.151,-0.252l-0.151,-0.253l-0.148,-0.253l-0.148,-0.253l-0.145,-0.253l-0.145,-0.253l-0.142,-0.253l-0.142,-0.253l-0.139,-0.253l-0.139,-0.253l-0.136,-0.254l-0.135,-0.253l-0.134,-0.253l-0.132,-0.253l-0.13,-0.253l-0.184,-0.337l-0.183,-0.338l-0.181,-0.337l-0.18,-0.338l-0.179,-0.337l-0.177,-0.338l-0.176,-0.337l-0.174,-0.338l-0.173,-0.337l-0.171,-0.337l-0.17,-0.337l-0.168,-0.338l-0.167,-0.337l-0.166,-0.337l-0.164,-0.337l-0.162,-0.336l-0.162,-0.337l-0.159,-0.337l-0.159,-0.337l-0.156,-0.336l-0.156,-0.337l-0.154,-0.336l-0.152,-0.336l-0.151,-0.336l-0.15,-0.336l-0.148,-0.336l-0.147,-0.336l-0.145,-0.335l-0.144,-0.336l-0.142,-0.335l-0.141,-0.335l-0.14,-0.335l-0.138,-0.335l-0.136,-0.334l-0.136,-0.335l-0.133,-0.334l-0.133,-0.334l-0.13,-0.334l-0.13,-0.334l-0.128,-0.333l-0.126,-0.333l-0.125,-0.333l-0.124,-0.333l-0.122,-0.333l-0.121,-0.332l-0.119,-0.332l-0.118,-0.332l-0.116,-0.332l-0.115,-0.332l-0.114,-0.331l-0.112,-0.331l-0.11,-0.33l-0.109,-0.331l-0.108,-0.33l-0.106,-0.33l-0.105,-0.329l-0.103,-0.33l-0.102,-0.329l-0.101,-0.328l-0.099,-0.329l-0.097,-0.328l-0.097,-0.327l-0.094,-0.328l-0.093,-0.327l-0.092,-0.327l-0.091,-0.326l-0.089,-0.326l-0.087,-0.326l-0.086,-0.326l-0.085,-0.325l-0.083,-0.324l-0.081,-0.325l-0.081,-0.324l-0.078,-0.323l-0.078,-0.323l-0.076,-0.323l-0.074,-0.323l-0.073,-0.322l-0.072,-0.321l-0.07,-0.322l-0.068,-0.32l-0.068,-0.321l-0.065,-0.32l-0.065,-0.319l-0.063,-0.319l-0.061,-0.319l-0.06,-0.318l-0.059,-0.318l-0.057,-0.317l-0.055,-0.317l-0.055,-0.317l-0.052,-0.316l-0.052,-0.315l-0.049,-0.315l-0.049,-0.315l-0.047,-0.314l-0.045,-0.313l-0.044,-0.313l-0.043,-0.313l-0.041,-0.312l-0.04,-0.311l-0.038,-0.311l-0.037,-0.311l-0.036,-0.31l-0.034,-0.309l-0.032,-0.309l-0.031,-0.308l-0.03,-0.308l-0.028,-0.307l-0.027,-0.307l-0.025,-0.306l-0.024,-0.305l-0.022,-0.305l-0.021,-0.304l-0.02,-0.304l-0.018,-0.303l-0.017,-0.303l-0.015,-0.302l-0.013,-0.301l-0.013,-0.301l-0.011,-0.3l-0.009,-0.299l-0.008,-0.299l-0.006,-0.299l-0.005,-0.297l-0.004,-0.297l-0.002,-0.296l-0.001,-0.296l0.001,-0.295l0.002,-0.294l0.004,-0.294l0.005,-0.293l0.006,-0.292l0.008,-0.292l0.009,-0.291l0.011,-0.29l0.013,-0.289l0.013,-0.289l0.015,-0.288l0.017,-0.288l0.018,-0.286l0.02,-0.286l0.021,-0.286l0.022,-0.284l0.024,-0.284l0.025,-0.283l0.027,-0.282l0.028,-0.282l0.03,-0.28l0.031,-0.28l0.032,-0.279l0.034,-0.279l0.036,-0.277l0.037,-0.277l0.038,-0.276l0.04,-0.276l0.041,-0.274l0.043,-0.274l0.044,-0.272l0.045,-0.272l0.047,-0.272l0.049,-0.27l0.049,-0.269l0.052,-0.269l0.052,-0.268l0.055,-0.267l0.055,-0.266l0.057,-0.265l0.059,-0.265l0.06,-0.263l0.061,-0.263l0.063,-0.262l0.065,-0.26l0.065,-0.26l0.068,-0.26l0.068,-0.258l0.07,-0.257l0.072,-0.256l0.073,-0.256l0.074,-0.254l0.076,-0.254l0.078,-0.253l0.078,-0.251l0.081,-0.251l0.081,-0.25l0.083,-0.249l0.085,-0.248l0.086,-0.247l0.087,-0.246l0.089,-0.245l0.091,-0.244l0.092,-0.243l0.093,-0.242l0.094,-0.241l0.097,-0.24l0.097,-0.239l0.099,-0.238l0.101,-0.237l0.102,-0.237l0.103,-0.235l0.105,-0.234l0.106,-0.232l0.108,-0.232l0.109,-0.231l0.11,-0.23l0.112,-0.229l0.114,-0.228l0.115,-0.226l0.116,-0.226l0.118,-0.224l0.119,-0.224l0.121,-0.222l0.122,-0.221l0.124,-0.22l0.125,-0.219l0.126,-0.218l0.128,-0.217l0.13,-0.216l0.13,-0.214l0.133,-0.214l0.133,-0.212l0.136,-0.211l0.136,-0.21l0.138,-0.209l0.14,-0.208l0.141,-0.206l0.142,-0.206l0.144,-0.204l0.145,-0.203l0.147,-0.202l0.148,-0.201l0.15,-0.199l0.151,-0.198l0.152,-0.198l0.154,-0.196l0.156,-0.194l0.156,-0.194l0.159,-0.192l0.159,-0.191l0.162,-0.19l0.162,-0.188l0.164,-0.188l0.166,-0.186l0.167,-0.185l0.168,-0.183l0.17,-0.182l0.171,-0.181l0.173,-0.18l0.174,-0.179l0.176,-0.177l0.177,-0.176l0.179,-0.175l0.18,-0.173l0.181,-0.172l0.183,-0.171l0.184,-0.169l0.186,-0.168l0.187,-0.167l0.189,-0.165l0.19,-0.164l0.191,-0.163l0.193,-0.162l0.194,-0.16l0.196,-0.159l0.197,-0.157l0.198,-0.156l0.199,-0.155l0.201,-0.154l0.203,-0.152l0.203,-0.151l0.205,-0.149l0.206,-0.148l0.207,-0.147l0.209,-0.145l0.21,-0.144l0.211,-0.143l0.212,-0.141l0.214,-0.14l0.214,-0.139l0.216,-0.137l0.217,-0.136l0.219,-0.135l0.219,-0.133l0.22,-0.132l0.222,-0.13l0.223,-0.129l0.224,-0.128l0.225,-0.126l0.226,-0.125l0.227,-0.124l0.228,-0.122l0.229,-0.121l0.23,-0.12l0.232,-0.118l0.232,-0.116l0.233,-0.116l0.235,-0.114l0.235,-0.112l0.236,-0.111l0.238,-0.11l0.238,-0.108l0.239,-0.107l0.24,-0.106l0.241,-0.104l0.242,-0.103l0.242,-0.101l0.244,-0.1l0.245,-0.099l0.245,-0.097l0.246,-0.095l0.247,-0.095l0.248,-0.093l0.249,-0.091l0.249,-0.09l0.251,-0.089l0.251,-0.087l0.251,-0.086l0.253,-0.084l0.253,-0.083l0.254,-0.082l0.255,-0.08l0.256,-0.078l0.256,-0.078l0.257,-0.075l0.257,-0.075l0.258,-0.073l0.259,-0.071l0.26,-0.07l0.26,-0.069l0.261,-0.067l0.261,-0.066l0.262,-0.064l0.263,-0.063l0.263,-0.061l0.264,-0.06l0.264,-0.058l0.265,-0.057l0.265,-0.056l0.266,-0.054l0.266,-0.052l0.267,-0.051l0.267,-0.05l0.268,-0.048l0.269,-0.047l0.268,-0.045l0.269,-0.044l0.27,-0.042l0.27,-0.041l0.271,-0.039l0.27,-0.038l0.272,-0.037l0.271,-0.034l0.272,-0.034l0.272,-0.032l0.273,-0.03l0.273,-0.029l0.273,-0.028l0.274,-0.026l0.274,-0.024l0.274,-0.023l0.274,-0.021l0.275,-0.02l0.275,-0.019l0.275,-0.017l0.276,-0.015l0.275,-0.014l0.276,-0.012l0.276,-0.011l0.276,-0.01l0.277,-0.008l0.276,-0.006l0.277,-0.005l0.277,-0.003l0.276,-0.002l0.278,0l0.277,0.001Zm67.611,2l-0.266,0.003l-0.267,0.004l-0.266,0.006l-0.266,0.007l-0.267,0.008l-0.266,0.01l-0.267,0.012l-0.266,0.013l-0.267,0.014l-0.266,0.016l-0.266,0.018l-0.267,0.019l-0.266,0.02l-0.266,0.022l-0.267,0.023l-0.266,0.025l-0.266,0.027l-0.266,0.027l-0.265,0.03l-0.266,0.031l-0.266,0.032l-0.265,0.034l-0.265,0.035l-0.265,0.037l-0.265,0.038l-0.264,0.04l-0.265,0.042l-0.264,0.043l-0.264,0.044l-0.263,0.046l-0.264,0.047l-0.263,0.049l-0.263,0.051l-0.262,0.052l-0.263,0.053l-0.262,0.055l-0.261,0.056l-0.261,0.058l-0.261,0.06l-0.261,0.061l-0.26,0.063l-0.26,0.064l-0.259,0.065l-0.259,0.068l-0.259,0.068l-0.258,0.071l-0.258,0.071l-0.257,0.074l-0.257,0.074l-0.256,0.077l-0.256,0.078l-0.255,0.079l-0.255,0.081l-0.254,0.083l-0.254,0.084l-0.253,0.085l-0.253,0.087l-0.252,0.089l-0.251,0.09l-0.251,0.092l-0.251,0.093l-0.249,0.095l-0.249,0.097l-0.249,0.098l-0.248,0.099l-0.247,0.101l-0.246,0.103l-0.246,0.104l-0.245,0.106l-0.245,0.107l-0.244,0.109l-0.243,0.11l-0.242,0.112l-0.242,0.114l-0.241,0.115l-0.24,0.117l-0.239,0.118l-0.238,0.12l-0.238,0.121l-0.237,0.123l-0.236,0.125l-0.236,0.126l-0.234,0.127l-0.234,0.129l-0.233,0.131l-0.231,0.133l-0.232,0.134l-0.23,0.135l-0.229,0.137l-0.228,0.139l-0.228,0.14l-0.226,0.142l-0.226,0.143l-0.225,0.145l-0.223,0.147l-0.223,0.148l-0.222,0.15l-0.221,0.151l-0.219,0.153l-0.219,0.155l-0.218,0.156l-0.217,0.158l-0.215,0.159l-0.215,0.161l-0.213,0.163l-0.213,0.164l-0.211,0.166l-0.211,0.167l-0.209,0.169l-0.208,0.171l-0.207,0.172l-0.206,0.174l-0.205,0.175l-0.204,0.177l-0.202,0.179l-0.201,0.18l-0.201,0.182l-0.199,0.184l-0.197,0.185l-0.197,0.187l-0.195,0.189l-0.194,0.19l-0.193,0.191l-0.192,0.194l-0.19,0.195l-0.19,0.196l-0.187,0.199l-0.187,0.2l-0.185,0.201l-0.184,0.204l-0.183,0.205l-0.181,0.206l-0.18,0.209l-0.179,0.21l-0.178,0.211l-0.18,0.219l-0.223,0.23l-0.257,0.191l-0.283,0.148l-0.304,0.101l-0.316,0.051l-0.32,0l-0.316,-0.051l-0.304,-0.101l-0.283,-0.148l-0.257,-0.191l-0.223,-0.23l-0.18,-0.219l-0.178,-0.211l-0.179,-0.21l-0.18,-0.209l-0.181,-0.206l-0.183,-0.205l-0.184,-0.204l-0.185,-0.201l-0.187,-0.2l-0.188,-0.199l-0.189,-0.196l-0.19,-0.195l-0.192,-0.194l-0.193,-0.191l-0.194,-0.191l-0.195,-0.188l-0.197,-0.187l-0.197,-0.185l-0.199,-0.184l-0.201,-0.182l-0.201,-0.18l-0.202,-0.179l-0.204,-0.177l-0.205,-0.175l-0.206,-0.174l-0.207,-0.172l-0.208,-0.171l-0.209,-0.169l-0.211,-0.167l-0.211,-0.166l-0.213,-0.164l-0.213,-0.163l-0.215,-0.161l-0.215,-0.159l-0.217,-0.158l-0.218,-0.156l-0.219,-0.155l-0.22,-0.153l-0.22,-0.151l-0.222,-0.15l-0.223,-0.148l-0.223,-0.147l-0.225,-0.145l-0.226,-0.143l-0.226,-0.142l-0.228,-0.14l-0.228,-0.139l-0.229,-0.137l-0.23,-0.135l-0.232,-0.134l-0.231,-0.133l-0.233,-0.131l-0.234,-0.129l-0.234,-0.127l-0.236,-0.126l-0.236,-0.125l-0.237,-0.123l-0.238,-0.121l-0.238,-0.12l-0.239,-0.118l-0.24,-0.117l-0.241,-0.115l-0.242,-0.114l-0.242,-0.112l-0.243,-0.11l-0.244,-0.109l-0.245,-0.107l-0.245,-0.106l-0.246,-0.104l-0.246,-0.103l-0.247,-0.101l-0.248,-0.099l-0.249,-0.098l-0.249,-0.097l-0.249,-0.095l-0.251,-0.093l-0.251,-0.092l-0.251,-0.09l-0.252,-0.089l-0.253,-0.087l-0.253,-0.085l-0.254,-0.084l-0.254,-0.083l-0.255,-0.081l-0.255,-0.079l-0.256,-0.078l-0.256,-0.077l-0.257,-0.074l-0.257,-0.074l-0.258,-0.071l-0.258,-0.071l-0.259,-0.068l-0.259,-0.068l-0.259,-0.065l-0.26,-0.064l-0.26,-0.063l-0.261,-0.061l-0.261,-0.06l-0.261,-0.058l-0.261,-0.056l-0.262,-0.055l-0.263,-0.053l-0.262,-0.052l-0.263,-0.051l-0.263,-0.049l-0.264,-0.047l-0.263,-0.046l-0.264,-0.044l-0.264,-0.043l-0.265,-0.042l-0.264,-0.04l-0.265,-0.038l-0.265,-0.037l-0.265,-0.035l-0.265,-0.034l-0.266,-0.032l-0.266,-0.031l-0.265,-0.03l-0.266,-0.027l-0.266,-0.027l-0.266,-0.025l-0.267,-0.023l-0.266,-0.022l-0.266,-0.02l-0.267,-0.019l-0.266,-0.018l-0.266,-0.016l-0.267,-0.014l-0.266,-0.013l-0.267,-0.012l-0.266,-0.01l-0.267,-0.008l-0.266,-0.007l-0.266,-0.006l-0.267,-0.004l-0.266,-0.003l-0.266,-0.001l-0.266,0l-0.266,0.002l-0.266,0.003l-0.266,0.005l-0.265,0.006l-0.265,0.007l-0.266,0.009l-0.265,0.011l-0.264,0.012l-0.265,0.013l-0.264,0.015l-0.265,0.016l-0.264,0.018l-0.263,0.019l-0.264,0.021l-0.263,0.022l-0.263,0.023l-0.262,0.025l-0.263,0.026l-0.262,0.028l-0.261,0.029l-0.262,0.031l-0.261,0.032l-0.26,0.033l-0.26,0.035l-0.26,0.037l-0.26,0.037l-0.259,0.039l-0.258,0.041l-0.258,0.042l-0.258,0.043l-0.257,0.045l-0.257,0.046l-0.256,0.048l-0.256,0.049l-0.255,0.05l-0.255,0.052l-0.254,0.053l-0.254,0.055l-0.253,0.056l-0.253,0.057l-0.252,0.059l-0.251,0.06l-0.251,0.062l-0.25,0.062l-0.25,0.065l-0.249,0.065l-0.248,0.067l-0.248,0.069l-0.247,0.069l-0.246,0.071l-0.246,0.073l-0.245,0.074l-0.244,0.075l-0.243,0.076l-0.243,0.078l-0.242,0.08l-0.241,0.08l-0.241,0.082l-0.239,0.083l-0.239,0.085l-0.238,0.086l-0.238,0.087l-0.236,0.089l-0.236,0.09l-0.235,0.091l-0.234,0.093l-0.233,0.094l-0.232,0.095l-0.231,0.096l-0.23,0.098l-0.23,0.099l-0.228,0.101l-0.228,0.102l-0.226,0.103l-0.226,0.104l-0.225,0.106l-0.224,0.107l-0.222,0.108l-0.222,0.11l-0.221,0.111l-0.219,0.112l-0.219,0.113l-0.217,0.115l-0.217,0.116l-0.215,0.117l-0.215,0.119l-0.213,0.119l-0.212,0.121l-0.211,0.123l-0.21,0.123l-0.209,0.125l-0.208,0.126l-0.206,0.128l-0.205,0.128l-0.205,0.13l-0.203,0.131l-0.201,0.132l-0.201,0.134l-0.199,0.135l-0.198,0.136l-0.197,0.137l-0.196,0.138l-0.194,0.14l-0.193,0.141l-0.192,0.142l-0.19,0.143l-0.19,0.145l-0.188,0.145l-0.186,0.147l-0.185,0.149l-0.184,0.149l-0.183,0.15l-0.181,0.152l-0.18,0.153l-0.178,0.154l-0.177,0.156l-0.176,0.156l-0.174,0.158l-0.173,0.159l-0.172,0.16l-0.17,0.161l-0.168,0.163l-0.168,0.163l-0.166,0.165l-0.165,0.167l-0.163,0.167l-0.162,0.169l-0.161,0.17l-0.159,0.171l-0.158,0.172l-0.157,0.173l-0.155,0.175l-0.154,0.176l-0.153,0.177l-0.151,0.178l-0.15,0.179l-0.149,0.181l-0.147,0.181l-0.146,0.183l-0.145,0.184l-0.143,0.185l-0.142,0.187l-0.14,0.187l-0.14,0.189l-0.138,0.19l-0.136,0.191l-0.136,0.192l-0.133,0.193l-0.133,0.194l-0.131,0.196l-0.13,0.196l-0.129,0.198l-0.127,0.199l-0.126,0.2l-0.125,0.201l-0.123,0.202l-0.122,0.204l-0.121,0.204l-0.119,0.205l-0.118,0.207l-0.116,0.208l-0.116,0.209l-0.114,0.209l-0.112,0.211l-0.112,0.212l-0.11,0.214l-0.108,0.214l-0.107,0.215l-0.106,0.216l-0.105,0.218l-0.103,0.218l-0.102,0.22l-0.101,0.22l-0.099,0.222l-0.098,0.222l-0.097,0.224l-0.095,0.225l-0.094,0.226l-0.092,0.226l-0.091,0.228l-0.09,0.229l-0.089,0.23l-0.087,0.231l-0.086,0.231l-0.084,0.233l-0.083,0.234l-0.082,0.235l-0.081,0.236l-0.079,0.236l-0.077,0.238l-0.077,0.239l-0.075,0.24l-0.073,0.24l-0.073,0.242l-0.071,0.243l-0.069,0.243l-0.069,0.245l-0.066,0.245l-0.066,0.247l-0.064,0.247l-0.063,0.248l-0.061,0.249l-0.061,0.251l-0.058,0.251l-0.058,0.252l-0.056,0.252l-0.054,0.254l-0.053,0.255l-0.052,0.255l-0.051,0.257l-0.049,0.257l-0.048,0.258l-0.046,0.259l-0.045,0.26l-0.044,0.261l-0.042,0.262l-0.041,0.263l-0.04,0.263l-0.038,0.264l-0.037,0.265l-0.035,0.266l-0.034,0.267l-0.033,0.267l-0.031,0.269l-0.03,0.269l-0.028,0.27l-0.027,0.271l-0.026,0.272l-0.025,0.272l-0.023,0.273l-0.021,0.274l-0.02,0.275l-0.019,0.276l-0.018,0.276l-0.016,0.277l-0.014,0.278l-0.013,0.278l-0.012,0.28l-0.011,0.28l-0.009,0.281l-0.008,0.281l-0.006,0.283l-0.005,0.283l-0.003,0.283l-0.002,0.285l-0.001,0.285l0.001,0.286l0.002,0.286l0.003,0.288l0.005,0.288l0.006,0.288l0.008,0.29l0.009,0.29l0.011,0.29l0.012,0.292l0.013,0.291l0.015,0.293l0.016,0.293l0.017,0.294l0.019,0.295l0.021,0.295l0.021,0.296l0.023,0.296l0.025,0.297l0.026,0.298l0.027,0.298l0.029,0.299l0.03,0.299l0.032,0.3l0.033,0.301l0.034,0.301l0.036,0.302l0.037,0.302l0.039,0.303l0.04,0.303l0.042,0.304l0.042,0.305l0.045,0.305l0.045,0.305l0.048,0.306l0.048,0.307l0.05,0.307l0.051,0.308l0.053,0.308l0.054,0.308l0.056,0.31l0.057,0.309l0.059,0.31l0.059,0.311l0.062,0.311l0.063,0.312l0.064,0.312l0.065,0.312l0.067,0.313l0.069,0.313l0.069,0.314l0.072,0.314l0.072,0.315l0.074,0.315l0.076,0.316l0.077,0.315l0.078,0.317l0.08,0.317l0.081,0.317l0.083,0.317l0.084,0.318l0.085,0.318l0.087,0.319l0.088,0.319l0.09,0.319l0.091,0.32l0.093,0.32l0.094,0.321l0.095,0.321l0.097,0.321l0.098,0.321l0.1,0.322l0.101,0.322l0.103,0.323l0.104,0.322l0.105,0.323l0.107,0.324l0.108,0.324l0.11,0.323l0.111,0.325l0.112,0.324l0.114,0.325l0.116,0.325l0.116,0.325l0.119,0.326l0.119,0.326l0.121,0.326l0.123,0.326l0.124,0.327l0.125,0.327l0.127,0.327l0.128,0.327l0.13,0.327l0.131,0.328l0.132,0.328l0.134,0.328l0.136,0.328l0.137,0.329l0.138,0.329l0.14,0.328l0.141,0.329l0.142,0.33l0.144,0.329l0.145,0.329l0.147,0.33l0.148,0.33l0.15,0.33l0.151,0.33l0.153,0.33l0.154,0.33l0.155,0.331l0.157,0.33l0.158,0.331l0.16,0.331l0.161,0.331l0.163,0.331l0.164,0.331l0.165,0.331l0.167,0.331l0.168,0.331l0.17,0.332l0.171,0.331l0.172,0.332l0.174,0.331l0.176,0.332l0.177,0.331l0.178,0.332l0.18,0.332l0.194,0.356l0.139,0.27l0.128,0.245l0.129,0.244l0.13,0.245l0.132,0.244l0.134,0.245l0.135,0.245l0.137,0.245l0.138,0.245l0.14,0.245l0.141,0.245l0.143,0.246l0.144,0.245l0.146,0.245l0.147,0.246l0.149,0.245l0.15,0.245l0.152,0.246l0.153,0.246l0.154,0.245l0.156,0.246l0.158,0.245l0.159,0.246l0.16,0.246l0.162,0.245l0.163,0.246l0.165,0.246l0.166,0.246l0.167,0.245l0.169,0.246l0.17,0.246l0.171,0.246l0.173,0.245l0.174,0.246l0.175,0.246l0.177,0.245l0.178,0.246l0.18,0.246l0.18,0.245l0.182,0.246l0.184,0.245l0.184,0.246l0.186,0.245l0.187,0.245l0.189,0.246l0.189,0.245l0.191,0.245l0.192,0.245l0.194,0.245l0.194,0.245l0.196,0.245l0.197,0.245l0.198,0.245l0.2,0.244l0.2,0.245l0.202,0.244l0.203,0.245l0.204,0.244l0.205,0.244l0.207,0.244l0.207,0.244l0.209,0.244l0.209,0.244l0.211,0.244l0.212,0.243l0.213,0.244l0.214,0.243l0.216,0.243l0.216,0.243l0.217,0.243l0.219,0.243l0.219,0.242l0.221,0.243l0.221,0.242l0.223,0.242l0.223,0.242l0.225,0.242l0.225,0.242l0.227,0.241l0.227,0.242l0.229,0.241l0.229,0.241l0.231,0.241l0.231,0.24l0.232,0.241l0.234,0.24l0.234,0.24l0.235,0.24l0.236,0.24l0.237,0.239l0.238,0.24l0.239,0.239l0.239,0.239l0.241,0.238l0.241,0.239l0.242,0.238l0.243,0.238l0.243,0.237l0.491,0.476l0.494,0.474l0.496,0.473l0.5,0.472l0.503,0.472l0.506,0.47l0.509,0.469l0.511,0.468l0.515,0.467l0.517,0.466l0.52,0.465l0.523,0.463l0.525,0.463l0.527,0.461l0.531,0.46l0.532,0.459l0.535,0.458l0.537,0.456l0.539,0.455l0.541,0.453l0.543,0.453l0.545,0.451l0.548,0.449l0.549,0.448l0.551,0.447l0.552,0.445l0.554,0.444l0.556,0.442l0.557,0.441l0.559,0.439l0.56,0.437l0.562,0.436l0.563,0.434l0.564,0.433l0.565,0.431l0.566,0.429l0.567,0.428l0.569,0.426l0.569,0.424l0.57,0.422l0.571,0.421l0.571,0.419l0.572,0.417l0.573,0.415l0.573,0.413l0.573,0.411l0.574,0.41l0.575,0.407l0.574,0.406l0.575,0.403l0.575,0.402l0.575,0.399l0.575,0.398l0.575,0.395l0.574,0.393l0.575,0.391l0.574,0.389l0.574,0.387l0.574,0.385l0.573,0.382l0.572,0.381l0.572,0.378l0.572,0.375l0.57,0.374l0.57,0.371l0.569,0.369l0.568,0.366l0.568,0.364l0.566,0.362l0.565,0.359l0.564,0.357l0.562,0.355l0.562,0.352l0.56,0.349l0.559,0.347l0.557,0.344l0.556,0.342l0.067,0.041l0.067,-0.041l0.556,-0.342l0.557,-0.344l0.559,-0.347l0.56,-0.349l0.562,-0.352l0.562,-0.355l0.564,-0.357l0.565,-0.359l0.566,-0.362l0.568,-0.364l0.568,-0.366l0.569,-0.369l0.57,-0.371l0.57,-0.374l0.572,-0.375l0.572,-0.378l0.572,-0.381l0.573,-0.382l0.574,-0.385l0.574,-0.387l0.574,-0.389l0.575,-0.391l0.574,-0.393l0.575,-0.395l0.575,-0.398l0.575,-0.399l0.575,-0.402l0.575,-0.403l0.574,-0.406l0.575,-0.407l0.574,-0.41l0.573,-0.411l0.573,-0.413l0.573,-0.415l0.572,-0.417l0.571,-0.419l0.571,-0.421l0.57,-0.422l0.569,-0.424l0.569,-0.426l0.567,-0.428l0.566,-0.429l0.565,-0.431l0.564,-0.433l0.563,-0.434l0.562,-0.436l0.56,-0.437l0.559,-0.439l0.557,-0.441l0.556,-0.442l0.554,-0.444l0.553,-0.445l0.55,-0.447l0.549,-0.448l0.548,-0.449l0.545,-0.451l0.543,-0.453l0.541,-0.453l0.539,-0.455l0.537,-0.456l0.535,-0.458l0.533,-0.459l0.53,-0.46l0.527,-0.461l0.525,-0.463l0.523,-0.463l0.52,-0.465l0.517,-0.466l0.515,-0.467l0.511,-0.468l0.509,-0.469l0.506,-0.47l0.503,-0.472l0.5,-0.472l0.496,-0.473l0.494,-0.474l0.491,-0.476l0.243,-0.237l0.243,-0.238l0.242,-0.238l0.241,-0.239l0.241,-0.238l0.24,-0.239l0.238,-0.239l0.238,-0.24l0.237,-0.239l0.236,-0.24l0.235,-0.24l0.234,-0.24l0.234,-0.24l0.232,-0.241l0.231,-0.24l0.231,-0.241l0.229,-0.241l0.229,-0.241l0.227,-0.242l0.227,-0.241l0.225,-0.242l0.225,-0.242l0.223,-0.242l0.223,-0.242l0.221,-0.242l0.221,-0.243l0.219,-0.242l0.219,-0.243l0.217,-0.243l0.216,-0.243l0.216,-0.243l0.214,-0.243l0.213,-0.244l0.212,-0.243l0.211,-0.244l0.209,-0.244l0.209,-0.244l0.207,-0.244l0.207,-0.244l0.205,-0.244l0.204,-0.244l0.203,-0.245l0.202,-0.244l0.2,-0.245l0.2,-0.244l0.198,-0.245l0.197,-0.245l0.196,-0.245l0.194,-0.245l0.194,-0.245l0.192,-0.245l0.191,-0.245l0.189,-0.245l0.189,-0.246l0.187,-0.245l0.186,-0.245l0.184,-0.246l0.184,-0.245l0.182,-0.246l0.18,-0.245l0.18,-0.246l0.178,-0.246l0.177,-0.245l0.175,-0.246l0.174,-0.246l0.173,-0.245l0.171,-0.246l0.171,-0.246l0.168,-0.246l0.168,-0.245l0.165,-0.246l0.165,-0.246l0.163,-0.246l0.162,-0.245l0.16,-0.246l0.159,-0.246l0.158,-0.245l0.156,-0.246l0.154,-0.245l0.153,-0.246l0.152,-0.246l0.15,-0.245l0.149,-0.245l0.147,-0.246l0.146,-0.245l0.144,-0.245l0.143,-0.246l0.141,-0.245l0.14,-0.245l0.138,-0.245l0.137,-0.245l0.135,-0.245l0.134,-0.245l0.132,-0.244l0.13,-0.245l0.129,-0.244l0.128,-0.245l0.139,-0.27l0.194,-0.356l0.18,-0.332l0.178,-0.332l0.177,-0.331l0.176,-0.332l0.174,-0.331l0.172,-0.332l0.171,-0.331l0.17,-0.332l0.168,-0.331l0.167,-0.331l0.166,-0.331l0.164,-0.331l0.162,-0.331l0.161,-0.331l0.16,-0.331l0.158,-0.331l0.157,-0.33l0.155,-0.331l0.154,-0.33l0.153,-0.33l0.151,-0.33l0.15,-0.33l0.148,-0.33l0.147,-0.33l0.145,-0.329l0.144,-0.329l0.143,-0.33l0.141,-0.329l0.139,-0.328l0.139,-0.329l0.136,-0.329l0.136,-0.328l0.134,-0.328l0.132,-0.328l0.131,-0.328l0.13,-0.327l0.128,-0.327l0.127,-0.327l0.125,-0.327l0.124,-0.327l0.123,-0.326l0.121,-0.326l0.12,-0.326l0.118,-0.326l0.117,-0.325l0.115,-0.325l0.114,-0.325l0.113,-0.324l0.111,-0.325l0.109,-0.323l0.109,-0.324l0.106,-0.324l0.106,-0.323l0.104,-0.322l0.102,-0.323l0.101,-0.322l0.1,-0.322l0.098,-0.321l0.097,-0.321l0.096,-0.321l0.094,-0.321l0.092,-0.32l0.091,-0.32l0.09,-0.319l0.088,-0.319l0.087,-0.319l0.086,-0.318l0.084,-0.318l0.082,-0.317l0.082,-0.317l0.079,-0.317l0.079,-0.317l0.077,-0.315l0.075,-0.316l0.074,-0.315l0.073,-0.315l0.071,-0.314l0.07,-0.314l0.068,-0.313l0.067,-0.313l0.066,-0.312l0.064,-0.312l0.063,-0.312l0.061,-0.311l0.06,-0.311l0.058,-0.31l0.057,-0.309l0.056,-0.31l0.054,-0.308l0.053,-0.308l0.051,-0.308l0.05,-0.307l0.049,-0.307l0.047,-0.306l0.046,-0.305l0.044,-0.305l0.043,-0.305l0.041,-0.304l0.04,-0.303l0.039,-0.303l0.037,-0.302l0.036,-0.302l0.035,-0.301l0.033,-0.301l0.031,-0.3l0.03,-0.299l0.029,-0.299l0.028,-0.298l0.025,-0.298l0.025,-0.297l0.023,-0.296l0.022,-0.296l0.02,-0.295l0.019,-0.295l0.018,-0.294l0.016,-0.293l0.014,-0.293l0.014,-0.291l0.012,-0.292l0.01,-0.29l0.009,-0.29l0.008,-0.29l0.006,-0.288l0.005,-0.288l0.004,-0.288l0.002,-0.286l0,-0.286l0,-0.285l-0.002,-0.285l-0.004,-0.283l-0.005,-0.283l-0.006,-0.283l-0.008,-0.281l-0.009,-0.281l-0.01,-0.28l-0.012,-0.28l-0.013,-0.278l-0.015,-0.278l-0.016,-0.277l-0.017,-0.276l-0.019,-0.276l-0.02,-0.275l-0.022,-0.274l-0.023,-0.273l-0.024,-0.272l-0.026,-0.272l-0.027,-0.271l-0.029,-0.27l-0.03,-0.269l-0.031,-0.269l-0.032,-0.267l-0.034,-0.267l-0.036,-0.266l-0.037,-0.265l-0.038,-0.264l-0.039,-0.263l-0.041,-0.263l-0.043,-0.262l-0.043,-0.261l-0.045,-0.26l-0.047,-0.259l-0.048,-0.258l-0.049,-0.257l-0.05,-0.257l-0.052,-0.255l-0.053,-0.255l-0.055,-0.254l-0.056,-0.252l-0.057,-0.252l-0.059,-0.251l-0.06,-0.251l-0.062,-0.249l-0.062,-0.248l-0.065,-0.247l-0.065,-0.247l-0.067,-0.245l-0.068,-0.245l-0.07,-0.243l-0.071,-0.243l-0.072,-0.242l-0.074,-0.24l-0.075,-0.24l-0.076,-0.239l-0.078,-0.238l-0.079,-0.236l-0.08,-0.236l-0.082,-0.235l-0.083,-0.234l-0.085,-0.233l-0.086,-0.231l-0.087,-0.231l-0.088,-0.23l-0.09,-0.229l-0.091,-0.228l-0.093,-0.226l-0.094,-0.226l-0.095,-0.225l-0.097,-0.224l-0.098,-0.222l-0.099,-0.222l-0.1,-0.22l-0.102,-0.22l-0.104,-0.218l-0.104,-0.218l-0.106,-0.216l-0.107,-0.215l-0.109,-0.214l-0.11,-0.214l-0.111,-0.212l-0.113,-0.211l-0.114,-0.209l-0.115,-0.209l-0.117,-0.208l-0.118,-0.206l-0.119,-0.206l-0.121,-0.204l-0.122,-0.204l-0.123,-0.202l-0.125,-0.201l-0.126,-0.2l-0.127,-0.199l-0.128,-0.198l-0.13,-0.196l-0.132,-0.196l-0.132,-0.194l-0.134,-0.193l-0.135,-0.192l-0.137,-0.191l-0.138,-0.19l-0.139,-0.189l-0.141,-0.187l-0.142,-0.187l-0.143,-0.185l-0.145,-0.184l-0.146,-0.183l-0.147,-0.181l-0.149,-0.181l-0.15,-0.179l-0.151,-0.178l-0.153,-0.177l-0.154,-0.176l-0.155,-0.175l-0.157,-0.173l-0.158,-0.172l-0.159,-0.171l-0.161,-0.17l-0.162,-0.169l-0.163,-0.167l-0.165,-0.167l-0.166,-0.165l-0.167,-0.163l-0.169,-0.163l-0.17,-0.161l-0.172,-0.16l-0.173,-0.159l-0.174,-0.158l-0.176,-0.156l-0.177,-0.156l-0.178,-0.154l-0.18,-0.153l-0.181,-0.152l-0.183,-0.15l-0.184,-0.149l-0.185,-0.149l-0.186,-0.147l-0.188,-0.145l-0.19,-0.145l-0.19,-0.143l-0.192,-0.142l-0.193,-0.141l-0.194,-0.14l-0.196,-0.138l-0.197,-0.137l-0.198,-0.136l-0.199,-0.135l-0.201,-0.134l-0.201,-0.132l-0.203,-0.131l-0.205,-0.13l-0.205,-0.128l-0.206,-0.128l-0.208,-0.126l-0.209,-0.125l-0.21,-0.123l-0.211,-0.123l-0.212,-0.121l-0.213,-0.119l-0.215,-0.119l-0.215,-0.117l-0.216,-0.116l-0.218,-0.115l-0.219,-0.113l-0.219,-0.112l-0.221,-0.111l-0.222,-0.11l-0.222,-0.108l-0.224,-0.107l-0.225,-0.106l-0.225,-0.104l-0.227,-0.103l-0.228,-0.102l-0.228,-0.101l-0.23,-0.099l-0.23,-0.098l-0.231,-0.096l-0.232,-0.095l-0.233,-0.094l-0.234,-0.093l-0.235,-0.091l-0.236,-0.09l-0.236,-0.089l-0.237,-0.087l-0.239,-0.086l-0.238,-0.085l-0.24,-0.083l-0.241,-0.082l-0.241,-0.08l-0.242,-0.08l-0.243,-0.078l-0.243,-0.076l-0.244,-0.075l-0.245,-0.074l-0.246,-0.073l-0.246,-0.071l-0.247,-0.069l-0.248,-0.069l-0.248,-0.067l-0.249,-0.065l-0.25,-0.065l-0.25,-0.062l-0.251,-0.062l-0.251,-0.06l-0.252,-0.059l-0.253,-0.057l-0.253,-0.056l-0.254,-0.055l-0.254,-0.053l-0.255,-0.052l-0.255,-0.05l-0.256,-0.049l-0.256,-0.048l-0.257,-0.046l-0.257,-0.045l-0.258,-0.043l-0.258,-0.042l-0.258,-0.041l-0.259,-0.039l-0.26,-0.037l-0.26,-0.037l-0.26,-0.035l-0.26,-0.033l-0.261,-0.032l-0.262,-0.031l-0.261,-0.029l-0.262,-0.028l-0.263,-0.026l-0.262,-0.025l-0.263,-0.023l-0.263,-0.022l-0.264,-0.021l-0.263,-0.019l-0.264,-0.018l-0.265,-0.016l-0.264,-0.015l-0.265,-0.013l-0.264,-0.012l-0.265,-0.011l-0.266,-0.009l-0.265,-0.007l-0.265,-0.006l-0.266,-0.005l-0.266,-0.003l-0.266,-0.002l-0.266,0l-0.266,0.001Z" style="fill:#5b629b;"/><path d="M48.649,26.001l0.148,0.003l0.147,0.004l0.147,0.007l0.147,0.008l0.146,0.011l0.146,0.012l0.145,0.013l0.145,0.016l0.144,0.017l0.143,0.02l0.143,0.021l0.143,0.022l0.142,0.025l0.141,0.026l0.14,0.028l0.14,0.029l0.14,0.032l0.139,0.033l0.138,0.034l0.137,0.037l0.137,0.038l0.136,0.039l0.135,0.041l0.135,0.043l0.134,0.045l0.133,0.046l0.132,0.047l0.132,0.049l0.131,0.051l0.13,0.053l0.13,0.053l0.128,0.056l0.128,0.057l0.127,0.058l0.126,0.06l0.125,0.061l0.125,0.063l0.123,0.064l0.123,0.066l0.121,0.067l0.121,0.069l0.12,0.07l0.119,0.071l0.118,0.073l0.118,0.074l0.116,0.075l0.115,0.077l0.114,0.078l0.113,0.08l0.113,0.081l0.111,0.082l0.11,0.083l0.109,0.085l0.108,0.086l0.107,0.087l0.106,0.089l0.105,0.09l0.104,0.091l0.103,0.092l0.101,0.093l0.101,0.095l0.099,0.096l0.098,0.097l0.097,0.098l0.096,0.099l0.095,0.101l0.093,0.101l0.092,0.103l0.091,0.104l0.09,0.105l0.089,0.106l0.087,0.107l0.086,0.108l0.085,0.109l0.083,0.11l0.082,0.111l0.081,0.113l0.08,0.113l0.078,0.114l0.077,0.115l0.075,0.116l0.074,0.118l0.073,0.118l0.071,0.119l0.07,0.12l0.069,0.121l0.067,0.121l0.066,0.123l0.064,0.123l0.063,0.125l0.061,0.125l0.06,0.126l0.058,0.127l0.057,0.128l0.056,0.128l0.053,0.13l0.053,0.13l0.051,0.131l0.049,0.132l0.047,0.132l0.046,0.133l0.045,0.134l0.043,0.135l0.041,0.135l0.039,0.136l0.038,0.137l0.037,0.137l0.034,0.138l0.033,0.139l0.032,0.14l0.029,0.14l0.028,0.14l0.026,0.141l0.025,0.142l0.022,0.143l0.021,0.143l0.02,0.143l0.017,0.144l0.016,0.145l0.013,0.145l0.012,0.146l0.011,0.146l0.008,0.147l0.007,0.147l0.004,0.147l0.003,0.148l0.001,0.149l-0.001,0.149l-0.003,0.148l-0.004,0.147l-0.007,0.147l-0.008,0.147l-0.011,0.146l-0.012,0.146l-0.013,0.145l-0.016,0.145l-0.017,0.144l-0.02,0.143l-0.021,0.143l-0.022,0.143l-0.025,0.142l-0.026,0.141l-0.028,0.14l-0.029,0.14l-0.032,0.14l-0.033,0.139l-0.034,0.138l-0.037,0.137l-0.038,0.137l-0.039,0.136l-0.041,0.135l-0.043,0.135l-0.045,0.134l-0.046,0.133l-0.047,0.132l-0.049,0.132l-0.051,0.131l-0.053,0.13l-0.053,0.13l-0.056,0.128l-0.057,0.128l-0.058,0.127l-0.06,0.126l-0.061,0.125l-0.063,0.125l-0.064,0.123l-0.066,0.123l-0.067,0.121l-0.069,0.121l-0.07,0.12l-0.071,0.119l-0.073,0.118l-0.074,0.118l-0.075,0.116l-0.077,0.115l-0.078,0.114l-0.08,0.113l-0.081,0.113l-0.082,0.111l-0.083,0.11l-0.085,0.109l-0.086,0.108l-0.087,0.107l-0.089,0.106l-0.09,0.105l-0.091,0.104l-0.092,0.103l-0.093,0.101l-0.095,0.101l-0.096,0.099l-0.097,0.098l-0.098,0.097l-0.099,0.096l-0.101,0.095l-0.101,0.093l-0.103,0.092l-0.104,0.091l-0.105,0.09l-0.106,0.089l-0.107,0.087l-0.108,0.086l-0.109,0.085l-0.11,0.083l-0.111,0.082l-0.113,0.081l-0.113,0.08l-0.114,0.078l-0.115,0.077l-0.116,0.075l-0.118,0.074l-0.118,0.073l-0.119,0.071l-0.12,0.07l-0.121,0.069l-0.121,0.067l-0.123,0.066l-0.123,0.064l-0.125,0.063l-0.125,0.061l-0.126,0.06l-0.127,0.058l-0.128,0.057l-0.128,0.056l-0.13,0.053l-0.13,0.053l-0.131,0.051l-0.132,0.049l-0.132,0.047l-0.133,0.046l-0.134,0.045l-0.135,0.043l-0.135,0.041l-0.136,0.039l-0.137,0.038l-0.137,0.037l-0.138,0.034l-0.139,0.033l-0.14,0.032l-0.14,0.029l-0.14,0.028l-0.141,0.026l-0.142,0.025l-0.143,0.022l-0.143,0.021l-0.143,0.02l-0.144,0.017l-0.145,0.016l-0.145,0.013l-0.146,0.012l-0.146,0.011l-0.147,0.008l-0.147,0.007l-0.147,0.004l-0.148,0.003l-0.149,0.001l-0.149,-0.001l-0.148,-0.003l-0.147,-0.004l-0.147,-0.007l-0.147,-0.008l-0.146,-0.011l-0.146,-0.012l-0.145,-0.013l-0.145,-0.016l-0.144,-0.017l-0.143,-0.02l-0.143,-0.021l-0.143,-0.022l-0.142,-0.025l-0.141,-0.026l-0.14,-0.028l-0.14,-0.029l-0.14,-0.032l-0.139,-0.033l-0.138,-0.034l-0.137,-0.037l-0.137,-0.038l-0.136,-0.039l-0.135,-0.041l-0.135,-0.043l-0.134,-0.045l-0.133,-0.046l-0.132,-0.047l-0.132,-0.049l-0.131,-0.051l-0.13,-0.053l-0.13,-0.053l-0.128,-0.056l-0.128,-0.057l-0.127,-0.058l-0.126,-0.06l-0.125,-0.061l-0.125,-0.063l-0.123,-0.064l-0.123,-0.066l-0.121,-0.067l-0.121,-0.069l-0.12,-0.07l-0.119,-0.071l-0.118,-0.073l-0.118,-0.074l-0.116,-0.075l-0.115,-0.077l-0.114,-0.078l-0.113,-0.08l-0.113,-0.081l-0.111,-0.082l-0.11,-0.083l-0.109,-0.085l-0.108,-0.086l-0.107,-0.087l-0.106,-0.089l-0.105,-0.09l-0.104,-0.091l-0.103,-0.092l-0.101,-0.093l-0.101,-0.095l-0.099,-0.096l-0.098,-0.097l-0.097,-0.098l-0.096,-0.099l-0.095,-0.101l-0.093,-0.101l-0.092,-0.103l-0.091,-0.104l-0.09,-0.105l-0.089,-0.106l-0.087,-0.107l-0.086,-0.108l-0.085,-0.109l-0.083,-0.11l-0.082,-0.111l-0.081,-0.113l-0.08,-0.113l-0.078,-0.114l-0.077,-0.115l-0.075,-0.116l-0.074,-0.118l-0.073,-0.118l-0.071,-0.119l-0.07,-0.12l-0.069,-0.121l-0.067,-0.121l-0.066,-0.123l-0.064,-0.123l-0.063,-0.125l-0.061,-0.125l-0.06,-0.126l-0.058,-0.127l-0.057,-0.128l-0.056,-0.128l-0.053,-0.13l-0.053,-0.13l-0.051,-0.131l-0.049,-0.132l-0.047,-0.132l-0.046,-0.133l-0.045,-0.134l-0.043,-0.135l-0.041,-0.135l-0.039,-0.136l-0.038,-0.137l-0.037,-0.137l-0.034,-0.138l-0.033,-0.139l-0.032,-0.14l-0.029,-0.14l-0.028,-0.14l-0.026,-0.141l-0.025,-0.142l-0.022,-0.143l-0.021,-0.143l-0.02,-0.143l-0.017,-0.144l-0.016,-0.145l-0.013,-0.145l-0.012,-0.146l-0.011,-0.146l-0.008,-0.147l-0.007,-0.147l-0.004,-0.147l-0.003,-0.148l-0.001,-0.149l0.001,-0.149l0.003,-0.148l0.004,-0.147l0.007,-0.147l0.008,-0.147l0.011,-0.146l0.012,-0.146l0.013,-0.145l0.016,-0.145l0.017,-0.144l0.02,-0.143l0.021,-0.143l0.022,-0.143l0.025,-0.142l0.026,-0.141l0.028,-0.14l0.029,-0.14l0.032,-0.14l0.033,-0.139l0.034,-0.138l0.037,-0.137l0.038,-0.137l0.039,-0.136l0.041,-0.135l0.043,-0.135l0.045,-0.134l0.046,-0.133l0.047,-0.132l0.049,-0.132l0.051,-0.131l0.053,-0.13l0.053,-0.13l0.056,-0.128l0.057,-0.128l0.058,-0.127l0.06,-0.126l0.061,-0.125l0.063,-0.125l0.064,-0.123l0.066,-0.123l0.067,-0.121l0.069,-0.121l0.07,-0.12l0.071,-0.119l0.073,-0.118l0.074,-0.118l0.075,-0.116l0.077,-0.115l0.078,-0.114l0.08,-0.113l0.081,-0.113l0.082,-0.111l0.083,-0.11l0.085,-0.109l0.086,-0.108l0.087,-0.107l0.089,-0.106l0.09,-0.105l0.091,-0.104l0.092,-0.103l0.093,-0.101l0.095,-0.101l0.096,-0.099l0.097,-0.098l0.098,-0.097l0.099,-0.096l0.101,-0.095l0.101,-0.093l0.103,-0.092l0.104,-0.091l0.105,-0.09l0.106,-0.089l0.107,-0.087l0.108,-0.086l0.109,-0.085l0.11,-0.083l0.111,-0.082l0.113,-0.081l0.113,-0.08l0.114,-0.078l0.115,-0.077l0.116,-0.075l0.118,-0.074l0.118,-0.073l0.119,-0.071l0.12,-0.07l0.121,-0.069l0.121,-0.067l0.123,-0.066l0.123,-0.064l0.125,-0.063l0.125,-0.061l0.126,-0.06l0.127,-0.058l0.128,-0.057l0.128,-0.056l0.13,-0.053l0.13,-0.053l0.131,-0.051l0.132,-0.049l0.132,-0.047l0.133,-0.046l0.134,-0.045l0.135,-0.043l0.135,-0.041l0.136,-0.039l0.137,-0.038l0.137,-0.037l0.138,-0.034l0.139,-0.033l0.14,-0.032l0.14,-0.029l0.14,-0.028l0.141,-0.026l0.142,-0.025l0.143,-0.022l0.143,-0.021l0.143,-0.02l0.144,-0.017l0.145,-0.016l0.145,-0.013l0.146,-0.012l0.146,-0.011l0.147,-0.008l0.147,-0.007l0.147,-0.004l0.148,-0.003l0.149,-0.001l0.149,0.001Zm-0.272,2l-0.123,0.002l-0.122,0.004l-0.122,0.005l-0.121,0.007l-0.121,0.009l-0.121,0.01l-0.12,0.011l-0.119,0.013l-0.119,0.015l-0.119,0.015l-0.118,0.018l-0.117,0.018l-0.118,0.021l-0.116,0.021l-0.116,0.023l-0.116,0.025l-0.115,0.025l-0.114,0.028l-0.114,0.028l-0.113,0.03l-0.113,0.031l-0.112,0.033l-0.112,0.034l-0.111,0.035l-0.11,0.037l-0.11,0.038l-0.109,0.039l-0.109,0.041l-0.108,0.042l-0.107,0.043l-0.107,0.044l-0.106,0.046l-0.105,0.047l-0.105,0.048l-0.104,0.049l-0.104,0.051l-0.102,0.052l-0.102,0.053l-0.102,0.054l-0.1,0.056l-0.1,0.056l-0.099,0.058l-0.098,0.059l-0.098,0.06l-0.097,0.061l-0.096,0.063l-0.095,0.063l-0.094,0.065l-0.094,0.066l-0.093,0.066l-0.092,0.068l-0.091,0.069l-0.09,0.071l-0.09,0.071l-0.088,0.072l-0.088,0.073l-0.087,0.074l-0.085,0.076l-0.085,0.076l-0.084,0.077l-0.084,0.079l-0.082,0.079l-0.081,0.08l-0.08,0.081l-0.079,0.082l-0.079,0.084l-0.077,0.084l-0.076,0.085l-0.076,0.085l-0.074,0.087l-0.073,0.088l-0.072,0.088l-0.071,0.09l-0.071,0.09l-0.069,0.091l-0.068,0.092l-0.066,0.093l-0.066,0.094l-0.065,0.094l-0.063,0.095l-0.063,0.096l-0.061,0.097l-0.06,0.098l-0.059,0.098l-0.058,0.099l-0.056,0.1l-0.056,0.1l-0.054,0.102l-0.053,0.102l-0.052,0.102l-0.051,0.104l-0.049,0.104l-0.048,0.105l-0.047,0.105l-0.046,0.106l-0.044,0.107l-0.043,0.107l-0.042,0.108l-0.041,0.109l-0.039,0.109l-0.038,0.11l-0.037,0.11l-0.035,0.111l-0.034,0.112l-0.033,0.112l-0.031,0.113l-0.03,0.113l-0.028,0.114l-0.028,0.114l-0.025,0.115l-0.025,0.116l-0.023,0.116l-0.021,0.116l-0.021,0.118l-0.018,0.117l-0.018,0.118l-0.015,0.119l-0.015,0.119l-0.013,0.119l-0.011,0.12l-0.01,0.121l-0.009,0.121l-0.007,0.121l-0.005,0.122l-0.004,0.122l-0.002,0.123l-0.001,0.123l0.001,0.123l0.002,0.123l0.004,0.122l0.005,0.122l0.007,0.121l0.009,0.121l0.01,0.121l0.011,0.12l0.013,0.119l0.015,0.119l0.015,0.119l0.018,0.118l0.018,0.117l0.021,0.118l0.021,0.116l0.023,0.116l0.025,0.116l0.025,0.115l0.028,0.114l0.028,0.114l0.03,0.113l0.031,0.113l0.033,0.112l0.034,0.112l0.035,0.111l0.037,0.11l0.038,0.11l0.039,0.109l0.041,0.109l0.042,0.108l0.043,0.107l0.044,0.107l0.046,0.106l0.047,0.105l0.048,0.105l0.049,0.104l0.051,0.104l0.052,0.102l0.053,0.102l0.054,0.102l0.056,0.1l0.056,0.1l0.058,0.099l0.059,0.098l0.06,0.098l0.061,0.097l0.063,0.096l0.063,0.095l0.065,0.094l0.066,0.094l0.066,0.093l0.068,0.092l0.069,0.091l0.071,0.09l0.071,0.09l0.072,0.088l0.073,0.088l0.074,0.087l0.076,0.085l0.076,0.085l0.077,0.084l0.079,0.084l0.079,0.082l0.08,0.081l0.081,0.08l0.082,0.079l0.084,0.079l0.084,0.077l0.085,0.076l0.085,0.076l0.087,0.074l0.088,0.073l0.088,0.072l0.09,0.071l0.09,0.071l0.091,0.069l0.092,0.068l0.093,0.066l0.094,0.066l0.094,0.065l0.095,0.063l0.096,0.063l0.097,0.061l0.098,0.06l0.098,0.059l0.099,0.058l0.1,0.056l0.1,0.056l0.102,0.054l0.102,0.053l0.102,0.052l0.104,0.051l0.104,0.049l0.105,0.048l0.105,0.047l0.106,0.046l0.107,0.044l0.107,0.043l0.108,0.042l0.109,0.041l0.109,0.039l0.11,0.038l0.11,0.037l0.111,0.035l0.112,0.034l0.112,0.033l0.113,0.031l0.113,0.03l0.114,0.028l0.114,0.028l0.115,0.025l0.116,0.025l0.116,0.023l0.117,0.021l0.117,0.021l0.117,0.018l0.118,0.018l0.119,0.015l0.119,0.015l0.119,0.013l0.12,0.011l0.121,0.01l0.121,0.009l0.121,0.007l0.122,0.005l0.122,0.004l0.123,0.002l0.123,0.001l0.123,-0.001l0.123,-0.002l0.122,-0.004l0.122,-0.005l0.121,-0.007l0.121,-0.009l0.121,-0.01l0.12,-0.011l0.119,-0.013l0.119,-0.015l0.119,-0.015l0.118,-0.018l0.117,-0.018l0.117,-0.021l0.117,-0.021l0.116,-0.023l0.116,-0.025l0.115,-0.025l0.114,-0.028l0.114,-0.028l0.113,-0.03l0.113,-0.031l0.112,-0.033l0.112,-0.034l0.111,-0.035l0.11,-0.037l0.11,-0.038l0.109,-0.039l0.109,-0.041l0.108,-0.042l0.107,-0.043l0.107,-0.044l0.106,-0.046l0.105,-0.047l0.105,-0.048l0.104,-0.049l0.104,-0.051l0.102,-0.052l0.102,-0.053l0.102,-0.054l0.1,-0.056l0.1,-0.056l0.099,-0.058l0.098,-0.059l0.098,-0.06l0.097,-0.061l0.096,-0.063l0.095,-0.063l0.094,-0.065l0.094,-0.066l0.093,-0.066l0.092,-0.068l0.091,-0.069l0.09,-0.071l0.09,-0.071l0.088,-0.072l0.088,-0.073l0.087,-0.074l0.085,-0.076l0.085,-0.076l0.084,-0.077l0.084,-0.079l0.082,-0.079l0.081,-0.08l0.08,-0.081l0.079,-0.082l0.079,-0.084l0.077,-0.084l0.076,-0.085l0.076,-0.085l0.074,-0.087l0.073,-0.088l0.072,-0.088l0.071,-0.09l0.071,-0.09l0.069,-0.091l0.068,-0.092l0.066,-0.093l0.066,-0.094l0.065,-0.094l0.063,-0.095l0.063,-0.096l0.061,-0.097l0.06,-0.098l0.059,-0.098l0.058,-0.099l0.056,-0.1l0.056,-0.1l0.054,-0.102l0.053,-0.102l0.052,-0.102l0.051,-0.104l0.049,-0.104l0.048,-0.105l0.047,-0.105l0.046,-0.106l0.044,-0.107l0.043,-0.107l0.042,-0.108l0.041,-0.109l0.039,-0.109l0.038,-0.11l0.037,-0.11l0.035,-0.111l0.034,-0.112l0.033,-0.112l0.031,-0.113l0.03,-0.113l0.028,-0.114l0.028,-0.114l0.025,-0.115l0.025,-0.116l0.023,-0.116l0.021,-0.116l0.021,-0.118l0.018,-0.117l0.018,-0.118l0.015,-0.119l0.015,-0.119l0.013,-0.119l0.011,-0.12l0.01,-0.121l0.009,-0.121l0.007,-0.121l0.005,-0.122l0.004,-0.122l0.002,-0.123l0.001,-0.123l-0.001,-0.123l-0.002,-0.123l-0.004,-0.122l-0.005,-0.122l-0.007,-0.121l-0.009,-0.121l-0.01,-0.121l-0.011,-0.12l-0.013,-0.119l-0.015,-0.119l-0.015,-0.119l-0.018,-0.118l-0.018,-0.117l-0.021,-0.118l-0.021,-0.116l-0.023,-0.116l-0.025,-0.116l-0.025,-0.115l-0.028,-0.114l-0.028,-0.114l-0.03,-0.113l-0.031,-0.113l-0.033,-0.112l-0.034,-0.112l-0.035,-0.111l-0.037,-0.11l-0.038,-0.11l-0.039,-0.109l-0.041,-0.109l-0.042,-0.108l-0.043,-0.107l-0.044,-0.107l-0.046,-0.106l-0.047,-0.105l-0.048,-0.105l-0.049,-0.104l-0.051,-0.104l-0.052,-0.102l-0.053,-0.102l-0.054,-0.102l-0.056,-0.1l-0.056,-0.1l-0.058,-0.099l-0.059,-0.098l-0.06,-0.098l-0.061,-0.097l-0.063,-0.096l-0.063,-0.095l-0.065,-0.094l-0.066,-0.094l-0.066,-0.093l-0.068,-0.092l-0.069,-0.091l-0.071,-0.09l-0.071,-0.09l-0.072,-0.088l-0.073,-0.088l-0.074,-0.087l-0.076,-0.085l-0.076,-0.085l-0.077,-0.084l-0.079,-0.084l-0.079,-0.082l-0.08,-0.081l-0.081,-0.08l-0.082,-0.079l-0.084,-0.079l-0.084,-0.077l-0.085,-0.076l-0.085,-0.076l-0.087,-0.074l-0.088,-0.073l-0.088,-0.072l-0.09,-0.071l-0.09,-0.071l-0.091,-0.069l-0.092,-0.068l-0.093,-0.066l-0.094,-0.066l-0.094,-0.065l-0.095,-0.063l-0.096,-0.063l-0.097,-0.061l-0.098,-0.06l-0.098,-0.059l-0.099,-0.058l-0.1,-0.056l-0.1,-0.056l-0.102,-0.054l-0.102,-0.053l-0.102,-0.052l-0.104,-0.051l-0.104,-0.049l-0.105,-0.048l-0.105,-0.047l-0.106,-0.046l-0.107,-0.044l-0.107,-0.043l-0.108,-0.042l-0.109,-0.041l-0.109,-0.039l-0.11,-0.038l-0.11,-0.037l-0.111,-0.035l-0.112,-0.034l-0.112,-0.033l-0.113,-0.031l-0.113,-0.03l-0.114,-0.028l-0.114,-0.028l-0.115,-0.025l-0.116,-0.025l-0.116,-0.023l-0.116,-0.021l-0.118,-0.021l-0.117,-0.018l-0.118,-0.018l-0.119,-0.015l-0.119,-0.015l-0.119,-0.013l-0.12,-0.011l-0.121,-0.01l-0.121,-0.009l-0.121,-0.007l-0.122,-0.005l-0.122,-0.004l-0.123,-0.002l-0.123,-0.001l-0.123,0.001Z" style="fill:#5b629b;"/><path d="M75.61,63.001l0.109,0.002l0.109,0.003l0.109,0.005l0.109,0.006l0.108,0.008l0.107,0.009l0.108,0.01l0.106,0.011l0.107,0.013l0.106,0.015l0.106,0.015l0.105,0.017l0.105,0.018l0.104,0.019l0.104,0.021l0.104,0.022l0.103,0.023l0.102,0.024l0.102,0.026l0.102,0.027l0.101,0.028l0.1,0.029l0.1,0.03l0.1,0.032l0.099,0.033l0.098,0.034l0.098,0.035l0.098,0.036l0.096,0.038l0.097,0.039l0.095,0.039l0.095,0.041l0.095,0.042l0.094,0.043l0.093,0.045l0.092,0.045l0.092,0.046l0.092,0.048l0.09,0.049l0.09,0.049l0.09,0.051l0.088,0.052l0.088,0.052l0.087,0.054l0.087,0.055l0.086,0.056l0.085,0.056l0.084,0.058l0.084,0.059l0.083,0.06l0.082,0.061l0.082,0.061l0.08,0.063l0.08,0.063l0.079,0.065l0.079,0.065l0.077,0.067l0.077,0.067l0.076,0.068l0.075,0.069l0.074,0.07l0.074,0.071l0.072,0.072l0.072,0.072l0.071,0.074l0.07,0.074l0.069,0.075l0.068,0.076l0.067,0.077l0.067,0.077l0.065,0.079l0.065,0.079l0.063,0.08l0.063,0.08l0.061,0.082l0.061,0.082l0.06,0.083l0.059,0.084l0.058,0.084l0.056,0.085l0.056,0.086l0.055,0.087l0.054,0.087l0.052,0.088l0.052,0.088l0.051,0.09l0.049,0.09l0.049,0.09l0.048,0.092l0.046,0.092l0.045,0.092l0.045,0.093l0.043,0.094l0.042,0.095l0.041,0.095l0.039,0.095l0.039,0.097l0.038,0.096l0.036,0.098l0.035,0.098l0.034,0.098l0.033,0.099l0.032,0.1l0.03,0.1l0.029,0.1l0.028,0.101l0.027,0.102l0.026,0.102l0.024,0.102l0.023,0.103l0.022,0.104l0.021,0.104l0.019,0.104l0.018,0.105l0.017,0.105l0.015,0.106l0.015,0.106l0.013,0.107l0.011,0.106l0.01,0.108l0.009,0.107l0.008,0.108l0.006,0.109l0.005,0.109l0.003,0.109l0.002,0.109l0.001,0.11l-0.001,0.11l-0.002,0.109l-0.003,0.109l-0.005,0.109l-0.006,0.109l-0.008,0.108l-0.009,0.107l-0.01,0.108l-0.011,0.106l-0.013,0.107l-0.015,0.106l-0.015,0.106l-0.017,0.105l-0.018,0.105l-0.019,0.104l-0.021,0.104l-0.022,0.104l-0.023,0.103l-0.024,0.102l-0.026,0.102l-0.027,0.102l-0.028,0.101l-0.029,0.1l-0.03,0.1l-0.032,0.1l-0.033,0.099l-0.034,0.098l-0.035,0.098l-0.036,0.098l-0.038,0.096l-0.039,0.097l-0.039,0.095l-0.041,0.095l-0.042,0.095l-0.043,0.094l-0.045,0.093l-0.045,0.092l-0.046,0.092l-0.048,0.092l-0.049,0.09l-0.049,0.09l-0.051,0.09l-0.052,0.088l-0.052,0.088l-0.054,0.087l-0.055,0.087l-0.056,0.086l-0.056,0.085l-0.058,0.084l-0.059,0.084l-0.06,0.083l-0.061,0.082l-0.061,0.082l-0.063,0.08l-0.063,0.08l-0.065,0.079l-0.065,0.079l-0.067,0.077l-0.067,0.077l-0.068,0.076l-0.069,0.075l-0.07,0.074l-0.071,0.074l-0.072,0.072l-0.072,0.072l-0.074,0.071l-0.074,0.07l-0.075,0.069l-0.076,0.068l-0.077,0.067l-0.077,0.067l-0.079,0.065l-0.079,0.065l-0.08,0.063l-0.08,0.063l-0.082,0.061l-0.082,0.061l-0.083,0.06l-0.084,0.059l-0.084,0.058l-0.085,0.056l-0.086,0.056l-0.087,0.055l-0.087,0.054l-0.088,0.052l-0.088,0.052l-0.09,0.051l-0.09,0.049l-0.09,0.049l-0.092,0.048l-0.092,0.046l-0.092,0.045l-0.093,0.045l-0.094,0.043l-0.095,0.042l-0.095,0.041l-0.095,0.039l-0.097,0.039l-0.096,0.038l-0.098,0.036l-0.098,0.035l-0.098,0.034l-0.099,0.033l-0.1,0.032l-0.1,0.03l-0.1,0.029l-0.101,0.028l-0.102,0.027l-0.102,0.026l-0.102,0.024l-0.103,0.023l-0.104,0.022l-0.104,0.021l-0.104,0.019l-0.105,0.018l-0.105,0.017l-0.106,0.015l-0.106,0.015l-0.107,0.013l-0.106,0.011l-0.108,0.01l-0.107,0.009l-0.108,0.008l-0.109,0.006l-0.109,0.005l-0.109,0.003l-0.109,0.002l-0.11,0.001l-0.11,-0.001l-0.109,-0.002l-0.109,-0.003l-0.109,-0.005l-0.109,-0.006l-0.108,-0.008l-0.107,-0.009l-0.108,-0.01l-0.106,-0.011l-0.107,-0.013l-0.106,-0.015l-0.106,-0.015l-0.105,-0.017l-0.105,-0.018l-0.104,-0.019l-0.104,-0.021l-0.104,-0.022l-0.103,-0.023l-0.102,-0.024l-0.102,-0.026l-0.102,-0.027l-0.101,-0.028l-0.1,-0.029l-0.1,-0.03l-0.1,-0.032l-0.099,-0.033l-0.098,-0.034l-0.098,-0.035l-0.098,-0.036l-0.096,-0.038l-0.097,-0.039l-0.095,-0.039l-0.095,-0.041l-0.095,-0.042l-0.094,-0.043l-0.093,-0.045l-0.092,-0.045l-0.092,-0.046l-0.092,-0.048l-0.09,-0.049l-0.09,-0.049l-0.09,-0.051l-0.088,-0.052l-0.088,-0.052l-0.087,-0.054l-0.087,-0.055l-0.086,-0.056l-0.085,-0.056l-0.084,-0.058l-0.084,-0.059l-0.083,-0.06l-0.082,-0.061l-0.082,-0.061l-0.08,-0.063l-0.08,-0.063l-0.079,-0.065l-0.079,-0.065l-0.077,-0.067l-0.077,-0.067l-0.076,-0.068l-0.075,-0.069l-0.074,-0.07l-0.074,-0.071l-0.072,-0.072l-0.072,-0.072l-0.071,-0.074l-0.07,-0.074l-0.069,-0.075l-0.068,-0.076l-0.067,-0.077l-0.067,-0.077l-0.065,-0.079l-0.065,-0.079l-0.063,-0.08l-0.063,-0.08l-0.061,-0.082l-0.061,-0.082l-0.06,-0.083l-0.059,-0.084l-0.058,-0.084l-0.056,-0.085l-0.056,-0.086l-0.055,-0.087l-0.054,-0.087l-0.052,-0.088l-0.052,-0.088l-0.051,-0.09l-0.049,-0.09l-0.049,-0.09l-0.048,-0.092l-0.046,-0.092l-0.045,-0.092l-0.045,-0.093l-0.043,-0.094l-0.042,-0.095l-0.041,-0.095l-0.039,-0.095l-0.039,-0.097l-0.038,-0.096l-0.036,-0.098l-0.035,-0.098l-0.034,-0.098l-0.033,-0.099l-0.032,-0.1l-0.03,-0.1l-0.029,-0.1l-0.028,-0.101l-0.027,-0.102l-0.026,-0.102l-0.024,-0.102l-0.023,-0.103l-0.022,-0.104l-0.021,-0.104l-0.019,-0.104l-0.018,-0.105l-0.017,-0.105l-0.015,-0.106l-0.015,-0.106l-0.013,-0.107l-0.011,-0.106l-0.01,-0.108l-0.009,-0.107l-0.008,-0.108l-0.006,-0.109l-0.005,-0.109l-0.003,-0.109l-0.002,-0.109l-0.001,-0.11l0.001,-0.11l0.002,-0.109l0.003,-0.109l0.005,-0.109l0.006,-0.109l0.008,-0.108l0.009,-0.107l0.01,-0.108l0.011,-0.106l0.013,-0.107l0.015,-0.106l0.015,-0.106l0.017,-0.105l0.018,-0.105l0.019,-0.104l0.021,-0.104l0.022,-0.104l0.023,-0.103l0.024,-0.102l0.026,-0.102l0.027,-0.102l0.028,-0.101l0.029,-0.1l0.03,-0.1l0.032,-0.1l0.033,-0.099l0.034,-0.098l0.035,-0.098l0.036,-0.098l0.038,-0.096l0.039,-0.097l0.039,-0.095l0.041,-0.095l0.042,-0.095l0.043,-0.094l0.045,-0.093l0.045,-0.092l0.046,-0.092l0.048,-0.092l0.049,-0.09l0.049,-0.09l0.051,-0.09l0.052,-0.088l0.052,-0.088l0.054,-0.087l0.055,-0.087l0.056,-0.086l0.056,-0.085l0.058,-0.084l0.059,-0.084l0.06,-0.083l0.061,-0.082l0.061,-0.082l0.063,-0.08l0.063,-0.08l0.065,-0.079l0.065,-0.079l0.067,-0.077l0.067,-0.077l0.068,-0.076l0.069,-0.075l0.07,-0.074l0.071,-0.074l0.072,-0.072l0.072,-0.072l0.074,-0.071l0.074,-0.07l0.075,-0.069l0.076,-0.068l0.077,-0.067l0.077,-0.067l0.079,-0.065l0.079,-0.065l0.08,-0.063l0.08,-0.063l0.082,-0.061l0.082,-0.061l0.083,-0.06l0.084,-0.059l0.084,-0.058l0.085,-0.056l0.086,-0.056l0.087,-0.055l0.087,-0.054l0.088,-0.052l0.088,-0.052l0.09,-0.051l0.09,-0.049l0.09,-0.049l0.092,-0.048l0.092,-0.046l0.092,-0.045l0.093,-0.045l0.094,-0.043l0.095,-0.042l0.095,-0.041l0.095,-0.039l0.097,-0.039l0.096,-0.038l0.098,-0.036l0.098,-0.035l0.098,-0.034l0.099,-0.033l0.1,-0.032l0.1,-0.03l0.1,-0.029l0.101,-0.028l0.102,-0.027l0.102,-0.026l0.102,-0.024l0.103,-0.023l0.104,-0.022l0.104,-0.021l0.104,-0.019l0.105,-0.018l0.105,-0.017l0.106,-0.015l0.106,-0.015l0.107,-0.013l0.106,-0.011l0.108,-0.01l0.107,-0.009l0.108,-0.008l0.109,-0.006l0.109,-0.005l0.109,-0.003l0.109,-0.002l0.11,-0.001l0.11,0.001Zm-0.194,2l-0.085,0.001l-0.083,0.003l-0.084,0.004l-0.083,0.004l-0.083,0.006l-0.082,0.007l-0.082,0.008l-0.082,0.009l-0.081,0.009l-0.082,0.011l-0.08,0.012l-0.081,0.013l-0.08,0.014l-0.079,0.014l-0.08,0.016l-0.079,0.017l-0.078,0.018l-0.079,0.018l-0.077,0.02l-0.078,0.02l-0.077,0.022l-0.077,0.022l-0.076,0.023l-0.076,0.024l-0.075,0.025l-0.075,0.026l-0.075,0.027l-0.074,0.028l-0.074,0.028l-0.074,0.03l-0.073,0.03l-0.072,0.032l-0.072,0.032l-0.072,0.033l-0.071,0.033l-0.071,0.035l-0.07,0.035l-0.07,0.037l-0.069,0.037l-0.069,0.038l-0.068,0.038l-0.068,0.04l-0.067,0.04l-0.067,0.041l-0.066,0.042l-0.066,0.043l-0.065,0.044l-0.065,0.044l-0.064,0.045l-0.063,0.046l-0.063,0.046l-0.063,0.047l-0.061,0.048l-0.062,0.049l-0.06,0.049l-0.06,0.051l-0.06,0.05l-0.059,0.052l-0.058,0.052l-0.057,0.053l-0.057,0.054l-0.056,0.054l-0.056,0.055l-0.055,0.056l-0.054,0.056l-0.054,0.057l-0.053,0.057l-0.052,0.058l-0.052,0.059l-0.05,0.06l-0.051,0.06l-0.049,0.06l-0.049,0.062l-0.048,0.061l-0.047,0.063l-0.046,0.063l-0.046,0.063l-0.045,0.064l-0.044,0.065l-0.044,0.065l-0.043,0.066l-0.042,0.066l-0.041,0.067l-0.04,0.067l-0.04,0.068l-0.038,0.068l-0.038,0.069l-0.037,0.069l-0.037,0.07l-0.035,0.07l-0.035,0.071l-0.033,0.071l-0.033,0.072l-0.033,0.072l-0.031,0.072l-0.03,0.073l-0.03,0.074l-0.028,0.074l-0.028,0.074l-0.027,0.075l-0.026,0.075l-0.025,0.075l-0.024,0.076l-0.023,0.076l-0.022,0.077l-0.022,0.077l-0.02,0.078l-0.02,0.077l-0.018,0.079l-0.018,0.078l-0.017,0.079l-0.016,0.08l-0.014,0.079l-0.014,0.08l-0.013,0.081l-0.012,0.08l-0.011,0.082l-0.009,0.081l-0.009,0.082l-0.008,0.082l-0.007,0.082l-0.006,0.083l-0.004,0.083l-0.004,0.084l-0.003,0.083l-0.001,0.085l-0.001,0.084l0.001,0.084l0.001,0.085l0.003,0.083l0.004,0.084l0.004,0.083l0.006,0.083l0.007,0.082l0.008,0.082l0.009,0.082l0.009,0.081l0.011,0.082l0.012,0.08l0.013,0.081l0.014,0.08l0.014,0.079l0.016,0.08l0.017,0.079l0.018,0.078l0.018,0.079l0.02,0.077l0.02,0.078l0.021,0.077l0.023,0.077l0.023,0.076l0.024,0.076l0.025,0.075l0.026,0.075l0.027,0.075l0.028,0.074l0.028,0.074l0.03,0.074l0.03,0.073l0.031,0.072l0.033,0.072l0.033,0.072l0.033,0.071l0.035,0.071l0.035,0.07l0.037,0.07l0.037,0.069l0.038,0.069l0.038,0.068l0.04,0.068l0.04,0.067l0.041,0.067l0.042,0.066l0.043,0.066l0.044,0.065l0.044,0.065l0.045,0.064l0.046,0.063l0.046,0.063l0.047,0.063l0.048,0.061l0.049,0.062l0.049,0.06l0.051,0.06l0.05,0.06l0.052,0.059l0.052,0.058l0.053,0.057l0.054,0.057l0.054,0.056l0.055,0.056l0.056,0.055l0.056,0.054l0.057,0.054l0.057,0.053l0.058,0.052l0.059,0.052l0.06,0.05l0.06,0.051l0.06,0.049l0.061,0.049l0.062,0.048l0.063,0.047l0.063,0.046l0.063,0.046l0.064,0.045l0.065,0.044l0.065,0.044l0.066,0.043l0.066,0.042l0.067,0.041l0.067,0.04l0.068,0.04l0.068,0.038l0.069,0.038l0.069,0.037l0.07,0.037l0.07,0.035l0.071,0.035l0.071,0.033l0.072,0.033l0.072,0.033l0.072,0.031l0.073,0.03l0.074,0.03l0.074,0.028l0.074,0.028l0.074,0.027l0.076,0.026l0.075,0.025l0.076,0.024l0.076,0.023l0.077,0.023l0.077,0.021l0.078,0.02l0.077,0.02l0.079,0.018l0.078,0.018l0.079,0.017l0.08,0.016l0.079,0.014l0.08,0.014l0.081,0.013l0.08,0.012l0.082,0.011l0.081,0.009l0.082,0.009l0.082,0.008l0.082,0.007l0.083,0.006l0.083,0.004l0.084,0.004l0.083,0.003l0.085,0.001l0.084,0.001l0.084,-0.001l0.085,-0.001l0.083,-0.003l0.084,-0.004l0.083,-0.004l0.083,-0.006l0.082,-0.007l0.082,-0.008l0.082,-0.009l0.081,-0.009l0.082,-0.011l0.08,-0.012l0.081,-0.013l0.08,-0.014l0.079,-0.014l0.08,-0.016l0.079,-0.017l0.078,-0.018l0.079,-0.018l0.077,-0.02l0.078,-0.02l0.077,-0.021l0.077,-0.023l0.076,-0.023l0.076,-0.024l0.075,-0.025l0.076,-0.026l0.074,-0.027l0.074,-0.028l0.074,-0.028l0.074,-0.03l0.073,-0.03l0.072,-0.031l0.072,-0.033l0.072,-0.033l0.071,-0.033l0.071,-0.035l0.07,-0.035l0.07,-0.037l0.069,-0.037l0.069,-0.038l0.068,-0.038l0.068,-0.04l0.067,-0.04l0.067,-0.041l0.066,-0.042l0.066,-0.043l0.065,-0.044l0.065,-0.044l0.064,-0.045l0.063,-0.046l0.063,-0.046l0.063,-0.047l0.062,-0.048l0.061,-0.049l0.06,-0.049l0.06,-0.051l0.06,-0.05l0.059,-0.052l0.058,-0.052l0.057,-0.053l0.057,-0.054l0.056,-0.054l0.056,-0.055l0.055,-0.056l0.054,-0.056l0.054,-0.057l0.053,-0.057l0.052,-0.058l0.052,-0.059l0.05,-0.06l0.051,-0.06l0.049,-0.06l0.049,-0.061l0.048,-0.062l0.047,-0.063l0.046,-0.063l0.046,-0.063l0.045,-0.064l0.044,-0.065l0.044,-0.065l0.043,-0.066l0.042,-0.066l0.041,-0.067l0.04,-0.067l0.04,-0.068l0.038,-0.068l0.038,-0.069l0.037,-0.069l0.037,-0.07l0.035,-0.07l0.035,-0.071l0.033,-0.071l0.033,-0.072l0.033,-0.072l0.031,-0.072l0.03,-0.073l0.03,-0.074l0.028,-0.074l0.028,-0.074l0.027,-0.074l0.026,-0.076l0.025,-0.075l0.024,-0.076l0.023,-0.076l0.022,-0.077l0.022,-0.077l0.02,-0.078l0.02,-0.077l0.018,-0.079l0.018,-0.078l0.017,-0.079l0.016,-0.08l0.014,-0.079l0.014,-0.08l0.013,-0.081l0.012,-0.08l0.011,-0.082l0.009,-0.081l0.009,-0.082l0.008,-0.082l0.007,-0.082l0.006,-0.083l0.004,-0.083l0.004,-0.084l0.003,-0.083l0.001,-0.085l0.001,-0.084l-0.001,-0.084l-0.001,-0.085l-0.003,-0.083l-0.004,-0.084l-0.004,-0.083l-0.006,-0.083l-0.007,-0.082l-0.008,-0.082l-0.009,-0.082l-0.009,-0.081l-0.011,-0.082l-0.012,-0.08l-0.013,-0.081l-0.014,-0.08l-0.014,-0.079l-0.016,-0.08l-0.017,-0.079l-0.018,-0.078l-0.018,-0.079l-0.02,-0.077l-0.02,-0.078l-0.022,-0.077l-0.022,-0.077l-0.023,-0.076l-0.024,-0.076l-0.025,-0.075l-0.026,-0.076l-0.027,-0.074l-0.028,-0.074l-0.028,-0.074l-0.03,-0.074l-0.03,-0.073l-0.032,-0.072l-0.032,-0.072l-0.033,-0.072l-0.033,-0.071l-0.035,-0.071l-0.035,-0.07l-0.037,-0.07l-0.037,-0.069l-0.038,-0.069l-0.038,-0.068l-0.04,-0.068l-0.04,-0.067l-0.041,-0.067l-0.042,-0.066l-0.043,-0.066l-0.044,-0.065l-0.044,-0.065l-0.045,-0.064l-0.046,-0.063l-0.046,-0.063l-0.047,-0.063l-0.048,-0.062l-0.049,-0.061l-0.049,-0.06l-0.051,-0.06l-0.05,-0.06l-0.052,-0.058l-0.052,-0.059l-0.053,-0.057l-0.054,-0.057l-0.054,-0.056l-0.055,-0.056l-0.056,-0.055l-0.056,-0.054l-0.057,-0.054l-0.057,-0.053l-0.058,-0.052l-0.059,-0.052l-0.06,-0.05l-0.06,-0.051l-0.06,-0.049l-0.062,-0.049l-0.061,-0.048l-0.063,-0.047l-0.063,-0.046l-0.063,-0.046l-0.064,-0.045l-0.065,-0.044l-0.065,-0.044l-0.066,-0.043l-0.066,-0.042l-0.067,-0.041l-0.067,-0.04l-0.068,-0.04l-0.068,-0.038l-0.069,-0.038l-0.069,-0.037l-0.07,-0.037l-0.07,-0.035l-0.071,-0.035l-0.071,-0.033l-0.072,-0.033l-0.072,-0.033l-0.072,-0.031l-0.073,-0.03l-0.074,-0.03l-0.074,-0.028l-0.074,-0.028l-0.075,-0.027l-0.075,-0.026l-0.075,-0.025l-0.076,-0.024l-0.076,-0.023l-0.077,-0.023l-0.077,-0.021l-0.078,-0.02l-0.077,-0.02l-0.079,-0.018l-0.078,-0.018l-0.079,-0.017l-0.08,-0.016l-0.079,-0.014l-0.08,-0.014l-0.081,-0.013l-0.08,-0.012l-0.082,-0.011l-0.081,-0.009l-0.082,-0.009l-0.082,-0.008l-0.082,-0.007l-0.083,-0.006l-0.083,-0.004l-0.084,-0.004l-0.083,-0.003l-0.085,-0.001l-0.084,-0.001l-0.084,0.001Z" style="fill:#5b629b;"/><path d="M100.649,34.001l0.148,0.003l0.147,0.004l0.147,0.007l0.147,0.008l0.146,0.011l0.146,0.012l0.145,0.013l0.145,0.016l0.144,0.017l0.143,0.02l0.143,0.021l0.143,0.022l0.142,0.025l0.141,0.026l0.14,0.028l0.14,0.029l0.14,0.032l0.139,0.033l0.138,0.034l0.137,0.037l0.137,0.038l0.136,0.039l0.135,0.041l0.135,0.043l0.134,0.045l0.133,0.046l0.132,0.047l0.132,0.049l0.131,0.051l0.13,0.053l0.13,0.053l0.128,0.056l0.128,0.057l0.127,0.058l0.126,0.06l0.125,0.061l0.125,0.063l0.123,0.064l0.123,0.066l0.121,0.067l0.121,0.069l0.12,0.07l0.119,0.071l0.118,0.073l0.118,0.074l0.116,0.075l0.115,0.077l0.114,0.078l0.113,0.08l0.113,0.081l0.111,0.082l0.11,0.083l0.109,0.085l0.108,0.086l0.107,0.087l0.106,0.089l0.105,0.09l0.104,0.091l0.103,0.092l0.101,0.093l0.101,0.095l0.099,0.096l0.098,0.097l0.097,0.098l0.096,0.099l0.095,0.101l0.093,0.101l0.092,0.103l0.091,0.104l0.09,0.105l0.089,0.106l0.087,0.107l0.086,0.108l0.085,0.109l0.083,0.11l0.082,0.111l0.081,0.113l0.08,0.113l0.078,0.114l0.077,0.115l0.075,0.116l0.074,0.118l0.073,0.118l0.071,0.119l0.07,0.12l0.069,0.121l0.067,0.121l0.066,0.123l0.064,0.123l0.063,0.125l0.061,0.125l0.06,0.126l0.058,0.127l0.057,0.128l0.056,0.128l0.053,0.13l0.053,0.13l0.051,0.131l0.049,0.132l0.047,0.132l0.046,0.133l0.045,0.134l0.043,0.135l0.041,0.135l0.039,0.136l0.038,0.137l0.037,0.137l0.034,0.138l0.033,0.139l0.032,0.14l0.029,0.14l0.028,0.14l0.026,0.141l0.025,0.142l0.022,0.143l0.021,0.143l0.02,0.143l0.017,0.144l0.016,0.145l0.013,0.145l0.012,0.146l0.011,0.146l0.008,0.147l0.007,0.147l0.004,0.147l0.003,0.148l0.001,0.149l-0.001,0.149l-0.003,0.148l-0.004,0.147l-0.007,0.147l-0.008,0.147l-0.011,0.146l-0.012,0.146l-0.013,0.145l-0.016,0.145l-0.017,0.144l-0.02,0.143l-0.021,0.143l-0.022,0.143l-0.025,0.142l-0.026,0.141l-0.028,0.14l-0.029,0.14l-0.032,0.14l-0.033,0.139l-0.034,0.138l-0.037,0.137l-0.038,0.137l-0.039,0.136l-0.041,0.135l-0.043,0.135l-0.045,0.134l-0.046,0.133l-0.047,0.132l-0.049,0.132l-0.051,0.131l-0.053,0.13l-0.053,0.13l-0.056,0.128l-0.057,0.128l-0.058,0.127l-0.06,0.126l-0.061,0.125l-0.063,0.125l-0.064,0.123l-0.066,0.123l-0.067,0.121l-0.069,0.121l-0.07,0.12l-0.071,0.119l-0.073,0.118l-0.074,0.118l-0.075,0.116l-0.077,0.115l-0.078,0.114l-0.08,0.113l-0.081,0.113l-0.082,0.111l-0.083,0.11l-0.085,0.109l-0.086,0.108l-0.087,0.107l-0.089,0.106l-0.09,0.105l-0.091,0.104l-0.092,0.103l-0.093,0.101l-0.095,0.101l-0.096,0.099l-0.097,0.098l-0.098,0.097l-0.099,0.096l-0.101,0.095l-0.101,0.093l-0.103,0.092l-0.104,0.091l-0.105,0.09l-0.106,0.089l-0.107,0.087l-0.108,0.086l-0.109,0.085l-0.11,0.083l-0.111,0.082l-0.113,0.081l-0.113,0.08l-0.114,0.078l-0.115,0.077l-0.116,0.075l-0.118,0.074l-0.118,0.073l-0.119,0.071l-0.12,0.07l-0.121,0.069l-0.121,0.067l-0.123,0.066l-0.123,0.064l-0.125,0.063l-0.125,0.061l-0.126,0.06l-0.127,0.058l-0.128,0.057l-0.128,0.056l-0.13,0.053l-0.13,0.053l-0.131,0.051l-0.132,0.049l-0.132,0.047l-0.133,0.046l-0.134,0.045l-0.135,0.043l-0.135,0.041l-0.136,0.039l-0.137,0.038l-0.137,0.037l-0.138,0.034l-0.139,0.033l-0.14,0.032l-0.14,0.029l-0.14,0.028l-0.141,0.026l-0.142,0.025l-0.143,0.022l-0.143,0.021l-0.143,0.02l-0.144,0.017l-0.145,0.016l-0.145,0.013l-0.146,0.012l-0.146,0.011l-0.147,0.008l-0.147,0.007l-0.147,0.004l-0.148,0.003l-0.149,0.001l-0.149,-0.001l-0.148,-0.003l-0.147,-0.004l-0.147,-0.007l-0.147,-0.008l-0.146,-0.011l-0.146,-0.012l-0.145,-0.013l-0.145,-0.016l-0.144,-0.017l-0.143,-0.02l-0.143,-0.021l-0.143,-0.022l-0.142,-0.025l-0.141,-0.026l-0.14,-0.028l-0.14,-0.029l-0.14,-0.032l-0.139,-0.033l-0.138,-0.034l-0.137,-0.037l-0.137,-0.038l-0.136,-0.039l-0.135,-0.041l-0.135,-0.043l-0.134,-0.045l-0.133,-0.046l-0.132,-0.047l-0.132,-0.049l-0.131,-0.051l-0.13,-0.053l-0.13,-0.053l-0.128,-0.056l-0.128,-0.057l-0.127,-0.058l-0.126,-0.06l-0.125,-0.061l-0.125,-0.063l-0.123,-0.064l-0.123,-0.066l-0.121,-0.067l-0.121,-0.069l-0.12,-0.07l-0.119,-0.071l-0.118,-0.073l-0.118,-0.074l-0.116,-0.075l-0.115,-0.077l-0.114,-0.078l-0.113,-0.08l-0.113,-0.081l-0.111,-0.082l-0.11,-0.083l-0.109,-0.085l-0.108,-0.086l-0.107,-0.087l-0.106,-0.089l-0.105,-0.09l-0.104,-0.091l-0.103,-0.092l-0.101,-0.093l-0.101,-0.095l-0.099,-0.096l-0.098,-0.097l-0.097,-0.098l-0.096,-0.099l-0.095,-0.101l-0.093,-0.101l-0.092,-0.103l-0.091,-0.104l-0.09,-0.105l-0.089,-0.106l-0.087,-0.107l-0.086,-0.108l-0.085,-0.109l-0.083,-0.11l-0.082,-0.111l-0.081,-0.113l-0.08,-0.113l-0.078,-0.114l-0.077,-0.115l-0.075,-0.116l-0.074,-0.118l-0.073,-0.118l-0.071,-0.119l-0.07,-0.12l-0.069,-0.121l-0.067,-0.121l-0.066,-0.123l-0.064,-0.123l-0.063,-0.125l-0.061,-0.125l-0.06,-0.126l-0.058,-0.127l-0.057,-0.128l-0.056,-0.128l-0.053,-0.13l-0.053,-0.13l-0.051,-0.131l-0.049,-0.132l-0.047,-0.132l-0.046,-0.133l-0.045,-0.134l-0.043,-0.135l-0.041,-0.135l-0.039,-0.136l-0.038,-0.137l-0.037,-0.137l-0.034,-0.138l-0.033,-0.139l-0.032,-0.14l-0.029,-0.14l-0.028,-0.14l-0.026,-0.141l-0.025,-0.142l-0.022,-0.143l-0.021,-0.143l-0.02,-0.143l-0.017,-0.144l-0.016,-0.145l-0.013,-0.145l-0.012,-0.146l-0.011,-0.146l-0.008,-0.147l-0.007,-0.147l-0.004,-0.147l-0.003,-0.148l-0.001,-0.149l0.001,-0.149l0.003,-0.148l0.004,-0.147l0.007,-0.147l0.008,-0.147l0.011,-0.146l0.012,-0.146l0.013,-0.145l0.016,-0.145l0.017,-0.144l0.02,-0.143l0.021,-0.143l0.022,-0.143l0.025,-0.142l0.026,-0.141l0.028,-0.14l0.029,-0.14l0.032,-0.14l0.033,-0.139l0.034,-0.138l0.037,-0.137l0.038,-0.137l0.039,-0.136l0.041,-0.135l0.043,-0.135l0.045,-0.134l0.046,-0.133l0.047,-0.132l0.049,-0.132l0.051,-0.131l0.053,-0.13l0.053,-0.13l0.056,-0.128l0.057,-0.128l0.058,-0.127l0.06,-0.126l0.061,-0.125l0.063,-0.125l0.064,-0.123l0.066,-0.123l0.067,-0.121l0.069,-0.121l0.07,-0.12l0.071,-0.119l0.073,-0.118l0.074,-0.118l0.075,-0.116l0.077,-0.115l0.078,-0.114l0.08,-0.113l0.081,-0.113l0.082,-0.111l0.083,-0.11l0.085,-0.109l0.086,-0.108l0.087,-0.107l0.089,-0.106l0.09,-0.105l0.091,-0.104l0.092,-0.103l0.093,-0.101l0.095,-0.101l0.096,-0.099l0.097,-0.098l0.098,-0.097l0.099,-0.096l0.101,-0.095l0.101,-0.093l0.103,-0.092l0.104,-0.091l0.105,-0.09l0.106,-0.089l0.107,-0.087l0.108,-0.086l0.109,-0.085l0.11,-0.083l0.111,-0.082l0.113,-0.081l0.113,-0.08l0.114,-0.078l0.115,-0.077l0.116,-0.075l0.118,-0.074l0.118,-0.073l0.119,-0.071l0.12,-0.07l0.121,-0.069l0.121,-0.067l0.123,-0.066l0.123,-0.064l0.125,-0.063l0.125,-0.061l0.126,-0.06l0.127,-0.058l0.128,-0.057l0.128,-0.056l0.13,-0.053l0.13,-0.053l0.131,-0.051l0.132,-0.049l0.132,-0.047l0.133,-0.046l0.134,-0.045l0.135,-0.043l0.135,-0.041l0.136,-0.039l0.137,-0.038l0.137,-0.037l0.138,-0.034l0.139,-0.033l0.14,-0.032l0.14,-0.029l0.14,-0.028l0.141,-0.026l0.142,-0.025l0.143,-0.022l0.143,-0.021l0.143,-0.02l0.144,-0.017l0.145,-0.016l0.145,-0.013l0.146,-0.012l0.146,-0.011l0.147,-0.008l0.147,-0.007l0.147,-0.004l0.148,-0.003l0.149,-0.001l0.149,0.001Zm-0.272,2l-0.123,0.002l-0.122,0.004l-0.122,0.005l-0.121,0.007l-0.121,0.009l-0.121,0.01l-0.12,0.011l-0.119,0.013l-0.119,0.015l-0.119,0.015l-0.118,0.018l-0.117,0.018l-0.117,0.021l-0.117,0.021l-0.116,0.023l-0.116,0.025l-0.114,0.025l-0.115,0.028l-0.114,0.028l-0.113,0.03l-0.113,0.031l-0.112,0.033l-0.112,0.034l-0.111,0.035l-0.11,0.037l-0.11,0.038l-0.109,0.039l-0.109,0.041l-0.108,0.042l-0.107,0.043l-0.107,0.044l-0.106,0.046l-0.105,0.047l-0.105,0.048l-0.104,0.049l-0.104,0.051l-0.102,0.052l-0.102,0.053l-0.102,0.054l-0.1,0.056l-0.1,0.056l-0.099,0.058l-0.098,0.059l-0.098,0.06l-0.097,0.061l-0.096,0.063l-0.095,0.063l-0.094,0.065l-0.094,0.066l-0.093,0.066l-0.092,0.068l-0.091,0.069l-0.09,0.071l-0.09,0.071l-0.088,0.072l-0.088,0.073l-0.087,0.074l-0.085,0.076l-0.085,0.076l-0.084,0.077l-0.084,0.079l-0.082,0.079l-0.081,0.08l-0.08,0.081l-0.079,0.082l-0.079,0.084l-0.077,0.084l-0.076,0.085l-0.076,0.085l-0.074,0.087l-0.073,0.088l-0.072,0.088l-0.071,0.09l-0.071,0.09l-0.069,0.091l-0.068,0.092l-0.066,0.093l-0.066,0.094l-0.065,0.094l-0.063,0.095l-0.063,0.096l-0.061,0.097l-0.06,0.098l-0.059,0.098l-0.058,0.099l-0.056,0.1l-0.056,0.1l-0.054,0.102l-0.053,0.102l-0.052,0.102l-0.051,0.104l-0.049,0.104l-0.048,0.105l-0.047,0.105l-0.046,0.106l-0.044,0.107l-0.043,0.107l-0.042,0.108l-0.041,0.109l-0.039,0.109l-0.038,0.11l-0.037,0.11l-0.035,0.111l-0.034,0.112l-0.033,0.112l-0.031,0.113l-0.03,0.113l-0.028,0.114l-0.028,0.115l-0.025,0.114l-0.025,0.116l-0.023,0.116l-0.021,0.116l-0.021,0.117l-0.018,0.118l-0.018,0.118l-0.016,0.119l-0.014,0.119l-0.013,0.119l-0.011,0.12l-0.01,0.121l-0.009,0.121l-0.007,0.121l-0.005,0.122l-0.004,0.122l-0.002,0.123l-0.001,0.123l0.001,0.123l0.002,0.123l0.004,0.122l0.005,0.122l0.007,0.121l0.009,0.121l0.01,0.121l0.011,0.12l0.013,0.119l0.014,0.119l0.016,0.119l0.018,0.118l0.018,0.118l0.021,0.117l0.021,0.116l0.023,0.116l0.025,0.116l0.025,0.114l0.028,0.115l0.028,0.114l0.03,0.113l0.031,0.113l0.033,0.112l0.034,0.112l0.035,0.111l0.037,0.11l0.038,0.11l0.039,0.109l0.041,0.109l0.042,0.108l0.043,0.107l0.044,0.107l0.046,0.106l0.047,0.105l0.048,0.105l0.049,0.104l0.051,0.104l0.052,0.102l0.053,0.102l0.054,0.102l0.056,0.1l0.056,0.1l0.058,0.099l0.059,0.098l0.06,0.098l0.061,0.097l0.063,0.096l0.063,0.095l0.065,0.094l0.066,0.094l0.066,0.093l0.068,0.092l0.069,0.091l0.071,0.09l0.071,0.09l0.072,0.088l0.073,0.088l0.074,0.087l0.076,0.085l0.076,0.085l0.077,0.084l0.079,0.084l0.079,0.082l0.08,0.081l0.081,0.08l0.082,0.079l0.084,0.079l0.084,0.077l0.085,0.076l0.085,0.076l0.087,0.074l0.088,0.073l0.088,0.072l0.09,0.071l0.09,0.071l0.091,0.069l0.092,0.068l0.093,0.066l0.094,0.066l0.094,0.065l0.095,0.063l0.096,0.063l0.097,0.061l0.098,0.06l0.098,0.059l0.099,0.058l0.1,0.056l0.1,0.056l0.102,0.054l0.102,0.053l0.102,0.052l0.104,0.051l0.104,0.049l0.105,0.048l0.105,0.047l0.106,0.046l0.107,0.044l0.107,0.043l0.108,0.042l0.109,0.041l0.109,0.039l0.11,0.038l0.11,0.037l0.111,0.035l0.112,0.034l0.112,0.033l0.113,0.031l0.113,0.03l0.114,0.028l0.115,0.028l0.114,0.025l0.116,0.025l0.116,0.023l0.116,0.021l0.118,0.021l0.117,0.018l0.118,0.018l0.119,0.015l0.119,0.015l0.119,0.013l0.12,0.011l0.121,0.01l0.121,0.009l0.121,0.007l0.122,0.005l0.122,0.004l0.123,0.002l0.123,0.001l0.123,-0.001l0.123,-0.002l0.122,-0.004l0.122,-0.005l0.121,-0.007l0.121,-0.009l0.121,-0.01l0.12,-0.011l0.119,-0.013l0.119,-0.015l0.119,-0.015l0.118,-0.018l0.117,-0.018l0.118,-0.021l0.116,-0.021l0.116,-0.023l0.116,-0.025l0.115,-0.025l0.114,-0.028l0.114,-0.028l0.113,-0.03l0.113,-0.031l0.112,-0.033l0.112,-0.034l0.111,-0.035l0.11,-0.037l0.11,-0.038l0.109,-0.039l0.109,-0.041l0.108,-0.042l0.107,-0.043l0.107,-0.044l0.106,-0.046l0.105,-0.047l0.105,-0.048l0.104,-0.049l0.104,-0.051l0.102,-0.052l0.102,-0.053l0.102,-0.054l0.1,-0.056l0.1,-0.056l0.099,-0.058l0.098,-0.059l0.098,-0.06l0.097,-0.061l0.096,-0.063l0.095,-0.063l0.094,-0.065l0.094,-0.066l0.093,-0.066l0.092,-0.068l0.091,-0.069l0.09,-0.071l0.09,-0.071l0.088,-0.072l0.088,-0.073l0.087,-0.074l0.085,-0.076l0.085,-0.076l0.084,-0.077l0.084,-0.079l0.082,-0.079l0.081,-0.08l0.08,-0.081l0.079,-0.082l0.079,-0.084l0.077,-0.084l0.076,-0.085l0.076,-0.085l0.074,-0.087l0.073,-0.088l0.072,-0.088l0.071,-0.09l0.071,-0.09l0.069,-0.091l0.068,-0.092l0.066,-0.093l0.066,-0.094l0.065,-0.094l0.063,-0.095l0.063,-0.096l0.061,-0.097l0.06,-0.098l0.059,-0.098l0.058,-0.099l0.056,-0.1l0.056,-0.1l0.054,-0.102l0.053,-0.102l0.052,-0.102l0.051,-0.104l0.049,-0.104l0.048,-0.105l0.047,-0.105l0.046,-0.106l0.044,-0.107l0.043,-0.107l0.042,-0.108l0.041,-0.109l0.039,-0.109l0.038,-0.11l0.037,-0.11l0.035,-0.111l0.034,-0.112l0.033,-0.112l0.031,-0.113l0.03,-0.113l0.028,-0.114l0.028,-0.115l0.025,-0.114l0.025,-0.116l0.023,-0.116l0.021,-0.116l0.021,-0.117l0.018,-0.118l0.018,-0.118l0.016,-0.119l0.014,-0.119l0.013,-0.119l0.011,-0.12l0.01,-0.121l0.009,-0.121l0.007,-0.121l0.005,-0.122l0.004,-0.122l0.002,-0.123l0.001,-0.123l-0.001,-0.123l-0.002,-0.123l-0.004,-0.122l-0.005,-0.122l-0.007,-0.121l-0.009,-0.121l-0.01,-0.121l-0.011,-0.12l-0.013,-0.119l-0.014,-0.119l-0.016,-0.119l-0.018,-0.118l-0.018,-0.118l-0.021,-0.117l-0.021,-0.116l-0.023,-0.116l-0.025,-0.116l-0.025,-0.114l-0.028,-0.115l-0.028,-0.114l-0.03,-0.113l-0.031,-0.113l-0.033,-0.112l-0.034,-0.112l-0.035,-0.111l-0.037,-0.11l-0.038,-0.11l-0.039,-0.109l-0.041,-0.109l-0.042,-0.108l-0.043,-0.107l-0.044,-0.107l-0.046,-0.106l-0.047,-0.105l-0.048,-0.105l-0.049,-0.104l-0.051,-0.104l-0.052,-0.102l-0.053,-0.102l-0.054,-0.102l-0.056,-0.1l-0.056,-0.1l-0.058,-0.099l-0.059,-0.098l-0.06,-0.098l-0.061,-0.097l-0.063,-0.096l-0.063,-0.095l-0.065,-0.094l-0.066,-0.094l-0.066,-0.093l-0.068,-0.092l-0.069,-0.091l-0.071,-0.09l-0.071,-0.09l-0.072,-0.088l-0.073,-0.088l-0.074,-0.087l-0.076,-0.085l-0.076,-0.085l-0.077,-0.084l-0.079,-0.084l-0.079,-0.082l-0.08,-0.081l-0.081,-0.08l-0.082,-0.079l-0.084,-0.079l-0.084,-0.077l-0.085,-0.076l-0.085,-0.076l-0.087,-0.074l-0.088,-0.073l-0.088,-0.072l-0.09,-0.071l-0.09,-0.071l-0.091,-0.069l-0.092,-0.068l-0.093,-0.066l-0.094,-0.066l-0.094,-0.065l-0.095,-0.063l-0.096,-0.063l-0.097,-0.061l-0.098,-0.06l-0.098,-0.059l-0.099,-0.058l-0.1,-0.056l-0.1,-0.056l-0.102,-0.054l-0.102,-0.053l-0.102,-0.052l-0.104,-0.051l-0.104,-0.049l-0.105,-0.048l-0.105,-0.047l-0.106,-0.046l-0.107,-0.044l-0.107,-0.043l-0.108,-0.042l-0.109,-0.041l-0.109,-0.039l-0.11,-0.038l-0.11,-0.037l-0.111,-0.035l-0.112,-0.034l-0.112,-0.033l-0.113,-0.031l-0.113,-0.03l-0.114,-0.028l-0.114,-0.028l-0.115,-0.025l-0.116,-0.025l-0.116,-0.023l-0.117,-0.021l-0.117,-0.021l-0.117,-0.018l-0.118,-0.018l-0.119,-0.015l-0.119,-0.015l-0.119,-0.013l-0.12,-0.011l-0.121,-0.01l-0.121,-0.009l-0.121,-0.007l-0.122,-0.005l-0.122,-0.004l-0.123,-0.002l-0.123,-0.001l-0.123,0.001Z" style="fill:#5b629b;"/><path d="M109,38c0,0 9.167,-2.145 10,4c1.018,7.513 -8,8 -8,8" style="fill:none;stroke:#5b629b;stroke-width:2px;"/><path d="M37,117l-3,-29l-6,-1c0.789,-20.526 -2.807,-28.178 11,-33l20,0c6.008,1.766 8.84,4.602 10,8l1,4" style="fill:none;stroke:#5b629b;stroke-width:2px;"/><path d="M111.878,117l2.707,-26.238l5.415,0.095c-0.712,-18.571 2.534,-25.494 -9.927,-29.857l-18.049,0c-5.422,1.598 -7.977,4.164 -9.024,7.238" style="fill:none;stroke:#5b629b;stroke-width:2px;"/><path d="M90,134l-3,-23" style="fill:none;stroke:#5b629b;stroke-width:2px;"/></g></svg>