<?xml version="1.0" encoding="UTF-8" standalone="no"?>
<!DOCTYPE svg PUBLIC "-//W3C//DTD SVG 1.1//EN" "http://www.w3.org/Graphics/SVG/1.1/DTD/svg11.dtd">
<svg width="100%" height="100%" viewBox="0 0 3816 1379" version="1.1" xmlns="http://www.w3.org/2000/svg" xmlns:xlink="http://www.w3.org/1999/xlink" xml:space="preserve" xmlns:serif="http://www.serif.com/" style="fill-rule:evenodd;clip-rule:evenodd;stroke-linejoin:round;stroke-miterlimit:1.41421;">
    <g transform="matrix(1,0,0,1,-47.1045,-370.275)">
        <g id="Capa-1" serif:id="Capa 1" transform="matrix(4.16667,0,0,4.16667,0,0)">
            <path d="M487.931,216.154L487.931,188.662C468.845,194.791 456.236,198.818 456.236,212.303C456.236,213.704 456.236,228.937 474.098,228.937C487.757,228.937 487.931,220.883 487.931,216.154M503.167,171.502L503.167,217.906C502.99,225.786 502.117,230.163 495.637,233.666C488.981,237.17 478.474,238.393 470.945,238.393C466.219,238.393 440.299,238.393 440.299,214.579C440.299,194.441 459.914,188.662 487.931,180.431L487.931,171.502C487.931,164.673 487.931,152.763 474.798,152.763C464.641,152.763 461.489,160.643 460.088,164.145C458.863,167.472 457.462,171.676 452.209,171.676C449.755,171.676 445.203,169.925 445.203,164.322C445.203,153.816 458.339,143.484 477.075,143.484C502.816,143.484 502.99,162.219 503.167,171.502M424.611,143.484L437.554,143.484L411.13,232.463L399.265,232.463L379.852,171.525L362.596,232.463L361.517,232.463L355.585,232.463L352.349,232.463L323.229,143.484L339.947,143.484L360.978,210.892L379.313,143.484L385.244,143.484L405.135,211.856L424.611,143.484ZM585.448,179.556L627.298,173.078C626.248,161.869 618.542,153.464 608.562,153.464C594.377,153.464 587.197,164.322 585.448,179.556M639.031,180.256L585.448,188.138C586.847,212.654 599.28,224.034 612.589,224.034C623.095,224.034 630.976,218.08 636.755,208.625C639.205,204.421 639.732,203.548 641.832,203.548C642.885,203.548 645.334,204.071 645.334,207.751C645.334,212.303 637.631,238.393 610.313,238.393C599.807,238.393 585.621,234.193 577.741,218.08C573.187,209.324 572.138,199.344 572.138,191.115C572.138,178.505 574.59,169.399 578.091,162.92C580.017,159.242 588.95,143.484 610.49,143.484C638.155,143.484 644.109,167.472 644.109,174.653C644.109,179.556 641.132,179.905 639.031,180.256M302.423,216.154L302.423,188.662C283.337,194.791 270.727,198.818 270.727,212.303C270.727,213.704 270.727,228.937 288.591,228.937C302.25,228.937 302.423,220.883 302.423,216.154M317.659,171.502L317.659,217.906C317.482,225.786 316.609,230.163 310.13,233.666C303.473,237.17 292.966,238.393 285.437,238.393C280.71,238.393 254.792,238.393 254.792,214.579C254.792,194.441 274.406,188.662 302.423,180.431L302.423,171.502C302.423,164.673 302.423,152.763 289.289,152.763C279.134,152.763 275.981,160.643 274.58,164.145C273.354,167.472 271.955,171.676 266.701,171.676C264.247,171.676 259.695,169.925 259.695,164.322C259.695,153.816 272.83,143.484 291.567,143.484C317.308,143.484 317.482,162.219 317.659,171.502M570.484,153.387C570.614,157.219 567.374,160.33 563.541,160.33C561.21,160.33 559.15,159.184 557.889,157.424C555.77,154.925 553.54,151.134 548.845,151.134C535.633,151.134 534.502,162.341 534.502,166.717L534.502,231.335C534.502,234.487 533.279,234.838 530.827,234.838L522.246,234.838C519.794,235.014 518.92,234.487 518.92,231.51L518.92,160.941C518.92,154.284 519.969,151.134 525.923,148.157C537.656,142.029 562.124,141.996 567.786,147.657C567.786,147.657 570.348,149.41 570.484,153.387" style="fill:rgb(125,126,187);fill-rule:nonzero;"/>
            <path d="M550.314,308.019L550.314,368.434C550.314,370.01 550.138,371.586 548.212,371.936L538.582,371.936C535.779,371.936 534.729,371.586 534.729,368.434L534.729,309.596C534.729,301.365 534.729,288.233 514.239,288.233C495.503,288.233 495.328,299.44 495.328,303.816L495.328,368.434C495.328,371.586 494.103,371.936 491.65,371.936L483.07,371.936C480.617,372.112 479.743,371.586 479.743,368.609L479.743,298.04C479.743,291.383 480.794,288.233 486.748,285.256C498.48,279.127 514.939,279.127 516.866,279.127C550.138,279.127 550.314,297.689 550.314,308.019M465.237,256.041C465.237,260.945 461.734,265.674 455.782,265.674C449.828,265.674 446.325,261.471 446.325,256.568C446.325,251.14 450.352,247.286 455.955,247.286C460.858,247.286 464.887,250.789 465.237,256.041M463.484,284.587L463.484,368.814C463.484,371.791 462.611,371.967 459.984,371.967L450.528,371.967C447.901,371.967 447.901,371.267 447.901,368.814L447.901,284.587C447.901,282.31 447.901,281.257 450.878,281.257L459.984,281.257C462.784,281.257 463.484,281.784 463.484,284.587M429.693,287.213L414.282,287.213L414.282,344.125C414.456,351.48 414.456,353.407 416.382,356.733C418.309,360.41 421.636,362.86 426.888,362.86C427.591,362.86 430.741,362.687 431.441,362.687C434.595,362.687 434.945,365.137 434.945,366.189C434.945,370.743 425.315,371.967 421.286,371.967C412.881,371.967 406.576,368.641 402.9,363.913C398.872,358.483 398.696,352.705 398.696,347.277L398.696,287.213L389.417,287.213C387.14,287.213 386.79,287.037 386.79,284.587C386.79,280.033 386.79,279.683 389.417,279.508L398.696,279.508L398.696,269C398.696,265.85 399.222,264.974 401.323,262.872L409.379,255.691C411.129,254.117 411.829,253.767 412.355,253.767C414.107,253.767 414.282,256.044 414.282,258.144L414.282,279.508L429.515,279.508C431.618,279.508 432.318,279.683 432.318,281.96C432.318,286.686 432.318,287.213 429.693,287.213M322.761,303.816L322.761,358.657C317.522,356.887 312.334,355.147 307.179,353.473L307.179,298.04C307.179,291.383 308.228,288.233 314.182,285.256C325.915,279.127 342.374,279.127 344.301,279.127C377.573,279.127 377.748,297.689 377.748,308.019L377.748,368.434C377.748,370.01 377.573,371.586 375.646,371.936L366.015,371.936C363.212,371.936 362.163,371.586 362.163,368.434L362.163,309.596C362.163,301.365 362.163,288.233 341.674,288.233C322.938,288.233 322.761,299.44 322.761,303.816M218.905,290.486C219.035,294.318 215.797,297.429 211.962,297.429C209.633,297.429 207.572,296.283 206.313,294.523C204.192,292.024 201.962,288.233 197.267,288.233C184.055,288.233 182.925,299.44 182.925,303.816L182.925,368.434C182.925,371.587 181.701,371.936 179.248,371.936L170.668,371.936C168.217,372.112 167.342,371.587 167.342,368.609L167.342,298.04C167.342,291.383 168.392,288.233 174.345,285.256C186.079,279.127 210.546,279.094 216.21,284.756C216.21,284.756 218.771,286.509 218.905,290.486M140.128,349.892L140.128,322.4C121.041,328.529 108.433,332.556 108.433,346.042C108.433,347.442 108.433,362.675 126.294,362.675C139.954,362.675 140.128,354.622 140.128,349.892M155.363,305.241L155.363,351.645C155.187,359.524 154.314,363.902 147.835,367.404C141.178,370.907 130.672,372.131 123.142,372.131C118.415,372.131 92.495,372.131 92.495,348.318C92.495,328.179 112.111,322.4 140.128,314.169L140.128,305.241C140.128,298.41 140.128,286.501 126.995,286.501C116.839,286.501 113.685,294.381 112.285,297.883C111.059,301.21 109.659,305.414 104.405,305.414C101.952,305.414 97.4,303.664 97.4,298.061C97.4,287.554 110.536,277.222 129.271,277.222C155.014,277.222 155.187,295.957 155.363,305.241M27.083,301.911L27.083,356.544C30.413,359.348 35.139,363.025 43.895,363.025C60.005,363.025 71.564,347.266 71.564,326.076C71.564,301.737 59.481,288.078 42.668,288.078C27.435,288.078 27.26,296.833 27.083,301.911M11.323,409.779L11.323,297.883C11.323,294.557 11.323,291.405 13.776,288.078C19.73,279.672 36.89,277.222 46.172,277.222C71.037,277.222 87.325,292.98 87.325,321.873C87.325,345.865 73.314,372.131 46.172,372.131C37.065,372.131 31.636,369.154 27.083,366.352L27.083,409.43C27.083,412.232 26.733,413.283 23.756,413.283L14.826,413.283C12.199,413.283 11.149,412.932 11.323,409.779M579.012,395.171C578.641,395.402 578.289,395.645 577.919,395.854L577.801,395.025L578.403,394.815C578.569,395.024 578.753,395.147 579.012,395.171M576.487,398.793C576.122,398.85 575.877,398.807 575.671,398.718C576.075,398.484 576.963,397.928 577.012,397.729L578.857,397.47C578.848,397.271 579.05,397.171 579.251,397.1C579.558,396.977 579.523,396.889 579.622,396.739L581.824,396.43C582.526,396.876 583.275,397.292 584.065,397.677C584.002,398.394 583.253,398.972 582.492,399.083L580.642,399.343C580.17,400.772 577.694,400.647 576.81,401.603L574.693,401.901C574.31,402.403 573.957,402.874 573.617,403.197C573.502,403.09 573.51,402.996 573.464,402.805L572.813,402.896C572.627,403.431 572.59,403.341 572.273,403.386C571.92,403.435 571.632,403.196 571.277,403.098C571.002,403.805 570.231,403.663 569.862,403.788C569.142,403.332 568.459,402.858 567.815,402.365C568.011,401.888 568.194,401.948 568.194,401.948C568.44,401.914 568.974,402.135 569.217,402.942L569.844,402.854C570.058,402.72 572.209,400.236 573.387,400.069C573.738,400.02 574.06,400.263 574.411,400.213C574.765,400.164 574.795,399.873 575.146,399.822C575.498,399.773 575.397,400.075 575.749,400.025C576.102,399.976 576.273,399.664 576.6,399.599L576.487,398.793ZM561.56,394.176C561.368,393.651 561.213,393.115 561.093,392.566L562.023,392.435C561.95,392.338 561.441,392.252 560.999,392.091C560.92,391.649 560.866,391.2 560.834,390.745C561.049,390.602 561.276,390.46 561.392,390.239L563.576,389.933C563.826,390.365 563.782,390.344 564.31,390.269C564.819,390.198 564.8,389.946 565.281,389.3C565.607,389.225 566.397,389.267 566.765,388.622L568.525,388.374C568.694,388.742 569.128,388.802 569.179,389.155C569.246,389.629 568.294,391.289 567.626,391.383C566.92,391.481 567.339,390.943 566.271,390.725C566.309,391.209 566.371,391.599 566.286,391.874C565.189,392.302 564.282,392.93 562.948,393.227C562.491,393.52 562.045,393.88 561.56,394.176M589.113,368.461C582.037,371.675 577.135,376.747 575.602,382.113L575.294,383.696C575.05,384.184 573.928,383.084 573.887,383.621L572.531,385.246C572.233,385.012 571.941,384.603 571.585,384.505C571.294,385.263 571.479,384.702 571.116,384.774C571.18,385.39 569.761,385.101 569.689,385.517C569.185,385.858 568.226,386.135 567.532,386.546C567.564,386.868 566.598,385.988 566.598,385.988C566.462,385.876 565.789,386.189 565.789,386.189C565.883,387.016 564.953,387.228 564.71,387.336C564.294,387.594 564.031,386.888 563.767,386.932L562.217,387.201C562.078,387.594 561.222,387.446 561.07,387.471C561.475,380.46 568.012,372.727 579.406,367.653C579.406,367.653 567.911,366.264 566.733,357.137C565.739,349.436 574.358,341.963 582.891,335.563C572.794,330.545 565.924,320.656 565.924,309.276C565.924,292.822 580.29,279.482 598.011,279.482C604.621,279.482 610.763,281.338 615.868,284.519L639.804,281.1L640.612,288.65L623.075,290.673C627.468,295.771 630.098,302.239 630.098,309.276C630.098,325.732 615.732,339.071 598.011,339.071C595.297,339.071 592.665,338.759 590.15,338.171C584.93,341.875 580.122,346.532 580.753,352.014C581.638,359.684 596.123,357.406 596.123,357.406C619.28,355.554 650.319,355.519 644.657,383.097C642.335,394.409 625.886,408.284 602.729,410.136C593.79,410.851 585.503,409.934 578.699,407.785C578.967,407.649 579.233,407.534 579.435,407.532C579.414,407.193 579.371,406.943 579.44,406.68C580.036,406.796 580.512,405.643 580.824,405.332L582.68,405.072C582.691,404.729 582.947,403.465 583.614,403.372C583.967,403.322 584.167,403.724 584.482,403.671C584.683,403.26 584.419,402.827 585.104,402.731C585.157,402.724 585.228,402.627 585.618,403.08L586.251,402.992C586.543,402.463 586.838,401.841 587.38,401.668C587.351,401.339 587.309,401.089 587.383,400.82L587.872,400.751C588.041,401.12 588.544,401.378 588.896,401.477C589.193,400.856 589.947,400.518 590.227,399.811C594.233,400.739 598.813,401.035 603.674,400.548C619.459,398.97 631.984,391.38 632.253,379.948C632.569,366.575 603.944,369.001 589.113,368.461M579.406,308.872C579.406,320.637 588.036,330.173 598.685,330.173C609.333,330.173 617.963,320.637 617.963,308.872C617.963,297.108 609.333,287.572 598.685,287.572C588.036,287.572 579.406,297.108 579.406,308.872" style="fill:rgb(125,126,187);fill-rule:nonzero;"/>
            <path d="M784.396,100.803C788.465,105.542 810.559,123.314 820.602,145.411C829.496,164.979 829.258,183.66 822.037,200.505C815.594,215.54 806.188,231.101 788.34,241.696C784.213,235.546 782.038,231.957 778.501,225.449C766.866,204.047 755.359,190.923 757.416,166.65C759.197,145.621 775.793,138.423 781.092,117.999C782.808,111.389 779.804,95.457 784.396,100.803" style="fill:rgb(255,220,0);fill-rule:nonzero;"/>
            <path d="M772.75,256.392C762.317,265.053 760.837,264.617 751.866,273.225C737.144,287.354 713.254,299.462 698.394,293.149C692.822,290.782 693.888,289.89 686.809,282.817C683.421,279.433 683.621,272.705 685.324,268.23C688.9,258.833 699.435,252.943 711.535,250.234C727.03,246.765 737.266,246.408 750.006,247.915C759.384,249.024 764.522,251.711 772.75,256.392" style="fill:rgb(251,195,0);fill-rule:nonzero;"/>
            <path d="M792.876,273.746C802.712,282.221 807.312,289.082 811.41,301.402C815.016,312.244 817.776,319.85 813.893,330.596C810.911,338.842 808.473,346.489 799.867,348.165C794.885,349.136 791.716,347.774 787.092,345.684C778.319,341.72 773.673,336.044 771.302,326.715C768.472,315.589 770.922,301.841 777.891,291.837C784.817,281.898 784.896,282.808 792.876,273.746" style="fill:rgb(242,147,0);fill-rule:nonzero;"/>
            <path d="M811.997,262.342C820.558,258.497 825.595,256.694 834.651,254.232C842.647,252.057 847.214,249.663 855.489,250.088C861.804,250.411 865.297,251.77 871.239,253.93C883.19,258.272 890.54,261.758 898.694,271.515C903.005,276.675 905.031,280.083 907.507,286.335C899.927,279.623 893.794,276.944 883.72,275.942C878.228,275.395 875.12,276.769 869.602,276.923C862.937,277.109 859.174,276.767 852.509,276.544C847.552,276.378 844.7,276.797 839.803,276.01C834.458,275.155 831.428,274.3 826.489,272.084C820.277,269.296 816.925,267.043 811.997,262.342" style="fill:rgb(240,139,79);fill-rule:nonzero;"/>
            <path d="M547.413,411.953L548.202,411.842C548.676,412.366 549.196,412.405 549.249,412.397L550.264,411.992C549.86,412.666 549.426,413.239 548.884,413.729L547.684,413.897C547.617,413.56 547.287,413.247 547.237,412.895C547.187,412.543 547.44,412.293 547.413,411.953M531.051,417.635L531.711,417.542L531.766,417.925L531.104,418.018L531.051,417.635ZM532.97,417.1C533.169,417.028 533.503,417.002 533.69,417.199C533.49,417.27 533.157,417.297 532.97,417.1M514.43,418.682L515.232,418.569L515.285,418.952L514.484,419.065L514.43,418.682ZM553.965,410.327L555.048,410.175L555.102,410.558L554.02,410.711L553.965,410.327ZM550.727,410.783L551.528,410.67L551.582,411.053L550.781,411.165L550.727,410.783ZM558.553,409.251L559.636,409.1L559.689,409.483L558.606,409.635L558.553,409.251ZM557.427,409.411L558.087,409.317L558.142,409.7L557.48,409.792L557.427,409.411ZM555.876,409.628L556.539,409.534L556.653,410.338L555.988,410.432L555.876,409.628ZM568.607,406.788L569.442,406.889C569.275,406.974 568.85,406.813 568.628,407.467L567.961,407.56C568.207,407.145 568.478,407.126 568.607,406.788M573.176,404.851C572.916,405.147 572.495,405.465 572.415,405.775L571.741,405.87C572.68,405.442 572.069,404.68 573.176,404.851M559.746,389.94L560.547,389.828L560.601,390.211L559.8,390.324L559.746,389.94ZM737.153,231.222L738.379,231.048C738.446,231.377 738.043,231.578 738.069,231.912L737.266,232.025L737.153,231.222ZM719.371,232.858L719.487,233.682C719.004,232.987 719.197,232.862 719.371,232.858M667.859,266.215L669.085,266.042C669.152,266.37 668.749,266.571 668.774,266.904L667.971,267.018L667.859,266.215ZM568.741,393.884C568.767,394.224 568.517,394.475 568.565,394.827C568.615,395.179 568.947,395.491 569.014,395.828L570.212,395.66C570.755,395.171 571.189,394.597 571.594,393.922L570.893,394.021C570.525,394.336 570.005,394.298 569.531,393.773L568.741,393.884ZM577.221,391.529C576.464,391.634 576.123,392.4 575.019,392.576L575.174,393.667L576.668,393.456C576.895,392.846 577.711,393.159 578.14,392.884C577.879,392.277 579.049,392.487 579.243,392.364L579.092,391.286C578.545,392.455 577.396,391.504 577.221,391.529M593.036,384.876C593.061,385.21 592.8,385.39 592.866,385.72L593.953,385.567L593.839,384.764L593.036,384.876ZM601.83,382.06C601.856,382.394 601.595,382.575 601.639,382.746L602.743,382.591C602.391,382.399 602.159,381.993 601.83,382.06M603.568,376.936C603.322,377.41 603.107,377.859 602.853,378.245C603.332,378.429 603.357,378.773 603.399,378.931L604.614,378.759C604.739,378.432 604.882,378.379 604.832,378.028C604.808,377.851 604.48,377.252 604.632,376.786L603.568,376.936ZM631.533,368.658C633.699,369.534 635.29,370.682 636.322,372.151C635.934,372.828 635.807,373.798 635.332,374.116C632.833,374.344 633.205,376.068 631.128,376.368C631.045,376.604 630.785,376.781 630.661,377.115C630.343,377.17 629.949,376.889 629.78,376.517L629.16,376.604C629.147,377.727 628.089,378.064 627.725,378.828C627.372,378.729 626.868,378.471 626.7,378.102L626.211,378.17C626.135,378.44 626.177,378.689 626.206,379.019C625.666,379.19 625.371,379.815 625.079,380.343L624.446,380.432C624.054,379.977 623.985,380.075 623.932,380.082C623.246,380.179 623.51,380.611 623.309,381.022C622.995,381.075 622.795,380.672 622.442,380.722C621.774,380.815 621.52,382.08 621.509,382.422L619.652,382.682C619.34,382.994 618.864,384.147 618.269,384.031C618.199,384.294 618.241,384.543 618.263,384.883C617.827,384.887 617.086,385.422 616.695,385.542C616.15,384.575 616.295,384.745 615.485,384.859C614.341,385.02 615.263,385.462 614.002,385.908C614.052,384.865 613.326,384.941 612.838,384.512C612.62,384.679 612.499,384.84 612.256,384.991L612.576,387.257C612.418,387.301 611.603,387.121 611.732,387.743C611.411,387.906 611.024,388.759 610.747,389.54L609.245,389.751L609.142,389.019C608.723,388.763 608.504,389.085 608.122,388.629C607.91,388.798 607.808,389.1 607.572,389.249C607.597,389.351 607.749,389.568 608.098,389.88C607.368,390.102 606.808,390.426 606.13,390.864C605.472,391.19 604.902,392.161 604.444,392.225C603.88,392.305 603.439,391.887 602.913,391.283C602.226,391.504 601.88,391.403 601.593,391.04L600.99,391.251L601.178,392.578C601.65,392.772 601.851,392.827 602.439,393.324C602.239,393.396 602.038,393.496 602.045,393.695L600.201,393.954C600.139,394.207 598.719,395.041 598.665,395.048C598.455,395.078 598.249,395.126 598.069,394.69L596.309,394.937C596.065,395.317 595.815,395.449 595.709,395.463C595.356,395.513 595.085,395.12 594.734,395.17C594.382,395.219 594.055,396.105 593.67,396.601L591.77,396.869C591.541,396.431 591.26,396.354 591.008,396.122C590.942,396.693 590.804,397.107 590.685,397.737L588.005,398.113C587.927,398.384 587.22,396.834 587.054,397.264C585.631,397.383 584.537,399.224 583.911,400.114C583.726,400.202 582.584,400.038 582.865,400.665C582.541,400.835 581.941,400.971 581.336,401.346C578.949,401.935 578.474,402.953 577.524,403.086C576.995,403.161 577.041,403.183 576.813,402.754C576.482,403.146 576.176,403.707 575.612,403.787C575.049,403.865 574.789,403.768 574.397,403.084L573.485,403.212C573.408,403.482 573.45,403.731 573.476,404.071L572.687,404.182C572.295,403.734 572.225,403.831 572.173,403.838C571.821,403.888 571.761,403.985 571.725,404.258C571.18,404.461 570.079,404.521 570.052,405.274L568.205,405.533C567.764,406.299 567.159,406.134 566.43,406.598C566.139,406.73 565.537,406.866 564.937,407.24C564.127,407.535 562.651,406.574 562.153,407.083C561.855,407.219 561.004,406.979 560.728,407.762L557.354,408.237C557.306,408.724 557.144,408.709 556.881,408.747C556.669,408.776 556.753,408.544 556.312,408.428C556.048,408.413 555.505,408.585 555.125,408.13C554.751,408.427 553.955,408.368 554.042,409.135L549.135,409.825L548.349,410.221L548.254,409.547C548.443,409.501 548.537,409.51 548.645,409.374L548.553,408.721C548.412,408.623 548.464,408.637 548.112,408.686C547.708,408.744 547.384,409.632 547.428,410.045C546.995,410.276 546.57,410.483 546.049,410.541C546.006,411.083 546.081,411.613 546.278,412.222L544.449,412.472L544.273,414.43L542.323,414.498C542.218,414.619 543.988,416.799 542.264,414.899L540.421,415.158C540.343,415.432 540.08,415.613 539.957,415.939L539.304,416.031C539.234,415.663 538.684,414.556 538.296,414.611C538.016,414.65 537.633,415.512 537.676,415.968L536.45,416.141C536.403,415.953 536.411,415.86 536.275,415.751L534.92,415.941C534.82,416.082 534.873,416.312 534.9,416.654L531.382,414.615C531.283,414.764 531.317,414.852 531.323,415.051L530.675,415.142C530.351,414.795 529.259,414.639 529.187,414.644L528.255,414.775C528.176,415.038 528.209,415.217 528.259,415.569C528.374,416.397 529.705,417.382 530.847,416.739C530.617,417.359 530.345,417.645 530.134,417.675C529.783,417.725 528.819,416.997 528.466,417.048C528.114,417.098 528.059,417.37 527.869,417.559C527.664,416.954 527.28,416.903 526.887,416.552C526.814,416.684 526.848,416.773 526.897,417.125C526.947,417.477 527.256,417.689 527.444,418.025L525.503,418.298C525.437,417.976 525.85,417.847 525.801,417.495C525.695,416.737 524.917,416.828 524.495,416.888C523.316,417.054 523.414,417.758 522.975,417.82C522.623,417.869 522.301,417.627 521.95,417.676C521.297,417.768 520.9,417.063 520.937,417.327C521.001,417.785 521.496,418.11 521.882,418.077L521.976,418.746L520.484,418.956C520.09,418.508 520.071,417.49 520.018,417.497C520.018,417.497 517.677,419.151 517.572,418.412C517.522,418.061 516.887,419.465 516.842,419.112L516.52,416.82L514.13,417.679L512.972,419.427L509.657,418.811C507.29,418.893 505.813,419.649 503.47,419.675C416.869,420.648 349.259,377.536 293.137,357.318C293.723,356.279 294.242,355.255 294.699,354.265C354.281,369.659 403.513,402.021 500.338,398.64L501.267,398.624C502.086,399.172 502.798,398.397 503.501,398.298C503.59,398.286 505.989,399.176 506.042,399.173L509.059,398.232C509.493,398.72 509.751,398.56 509.787,398.557C509.823,398.551 510.186,398.666 510.395,398.045L514.927,397.777L515.862,397.367L515.945,397.956C516.628,398.245 517.151,397.95 517.943,398.16C518.363,398.152 518.732,397.307 519.29,397.281C519.556,397.854 519.777,397.879 520.164,397.824C520.517,397.775 520.969,397.424 521.322,397.373C521.815,397.305 522.996,397.228 523.429,397.811L526.815,396.618C526.863,396.811 529.402,397.044 529.538,397.153C529.651,397.132 529.853,397.032 529.827,396.698L530.492,396.605C530.399,395.204 530.529,396.886 530.665,396.996L533.985,396.53C534.113,396.232 534.619,395.572 534.813,395.545C534.989,395.52 535.091,395.588 535.398,395.9L536.328,395.769C536.424,395.626 536.371,395.397 536.346,395.059L538.889,394.702C538.957,394.223 539.438,395.485 539.361,394.187C539.34,393.833 540.156,395.425 540.508,395.375C540.561,395.368 540.692,395.479 540.907,394.906L541.559,394.815C542.234,396.171 541.597,395.1 541.732,395.209L545.517,393.979C545.616,393.837 545.583,393.749 545.576,393.551L548.195,393.182C548.569,393.615 548.658,393.533 548.71,393.524C548.763,393.517 548.894,393.628 549.113,393.045C549.389,393.036 550.739,393.528 551.143,393.47C551.496,393.421 552.013,393.06 552.54,392.944C552.629,392.721 552.888,392.549 553.023,392.112C553.197,392.019 553.822,392.164 554.058,391.487L556.982,391.076L558.77,390.554C557.689,392.275 555.383,393.242 553.72,394.508C553.765,394.753 554.055,394.824 554.205,395.056L559.929,394.251C560.399,393.987 560.416,393.122 561.368,393.33C561.661,392.619 561.612,392.715 561.734,391.992L563.581,391.732C564.209,390.883 565.431,390.536 565.894,389.827L566.528,389.738C567.03,390.47 566.992,390.525 567.661,390.431C567.943,390.391 568.965,389.493 568.874,388.698L569.527,388.606C569.937,389.182 570.094,389.227 570.499,389.171C570.641,389.15 572.319,388.197 572.371,388.189C572.724,388.14 572.956,388.545 573.508,388.751C573.798,388.041 573.931,388.042 573.817,387.157C573.993,387.034 574.682,387.206 574.904,386.557L576.12,386.386C576.213,386.913 576.624,387.203 576.847,387.568L577.769,387.439C577.868,387.295 577.853,387.348 577.804,386.995C577.755,386.642 577.313,386.562 577.295,386.218C577.694,386.28 578.306,385.964 578.317,385.364L579.545,385.19L579.638,385.841C579.204,386.213 579.287,386.302 579.294,386.354C579.375,386.936 580.257,387.082 580.337,387.644C580.415,388.208 579.616,388.643 579.68,389.1C579.729,389.453 580.211,389.815 580.563,389.767C580.915,389.717 580.905,389.647 580.879,389.313L581.688,389.2L581.907,390.757C582.312,390.816 582.963,391.008 583.316,390.959C584.442,390.801 585.269,390.01 586.137,389.452C587.471,389.155 588.377,388.527 589.474,388.099C589.56,387.824 589.497,387.434 589.459,386.95C590.527,387.168 590.11,387.706 590.814,387.608C591.483,387.514 592.434,385.854 592.368,385.38C592.317,385.027 591.883,384.967 591.713,384.599L589.954,384.847C589.586,385.492 588.795,385.45 588.47,385.525C587.988,386.171 588.008,386.423 587.498,386.494C586.971,386.568 587.015,386.59 586.765,386.157L584.582,386.464C584.304,386.986 583.414,387.068 583.514,387.772C583.595,388.353 585.084,388.488 585.212,388.66L584.18,388.806C583.601,388.909 583.08,388.265 582.343,388.361C582.045,388.076 581.79,387.722 581.464,387.226C581.487,386.501 580.798,386.035 580.37,385.731L580.279,385.083L581.501,384.912C581.928,385.598 583.747,385.729 583.8,385.722C584.117,385.677 584.152,385.747 584.338,385.22L586.61,384.901C586.873,384.859 587.395,384.307 587.812,384.049C588.053,383.942 589.052,384.265 588.957,383.439L589.621,383.346C589.667,383.533 589.659,383.627 589.795,383.739L590.719,383.608C590.796,383.343 590.754,383.093 590.721,382.771C591.413,382.36 592.374,382.082 592.879,381.742C592.95,381.326 592.87,380.785 592.805,380.17C593.168,380.098 594.027,380.266 594.321,379.508C594.676,379.606 595.017,379.858 595.313,380.094L597.075,379.846C597.117,379.309 597.045,378.723 597.288,378.235L598.484,378.067C598.897,378.535 599.088,378.404 599.351,378.366C599.422,378.357 599.899,378.364 600.119,377.83C600.631,378.017 600.971,378.14 601.323,378.09C601.816,378.02 603.395,376.463 603.459,376.221L606.844,375.746C606.922,375.475 607.182,375.306 607.285,374.828L610.331,374.4L610.386,374.795L609.8,374.878C609.702,375.024 609.716,374.972 609.766,375.324C609.815,375.676 610.104,375.746 610.255,375.981L611.319,375.831C611.417,375.687 611.413,375.81 611.364,375.458C611.315,375.106 611.244,375.116 610.911,375.142L610.797,374.336C610.984,374.291 611.213,374.442 611.366,374.684L613.491,374.385C613.538,374.578 613.403,374.791 613.292,374.927L613.362,375.43C614.211,375.693 614.298,376.302 615.315,376.144L615.429,376.949C615.101,377.015 614.93,377.327 614.577,377.376C614.226,377.426 614.326,377.124 613.975,377.172C613.622,377.223 613.591,377.515 613.24,377.564C612.888,377.613 612.566,377.371 612.214,377.421C611.035,377.587 608.885,380.071 608.673,380.205L608.043,380.292C607.802,379.486 607.268,379.265 607.021,379.299C607.021,379.299 606.825,379.234 606.622,379.769L605.97,379.861C605.925,379.669 605.933,379.575 605.802,379.466C605.106,379.658 605.222,381.02 604.566,381.337C604.612,381.575 605.048,381.636 605.218,382.003L606.84,381.775C606.938,381.629 606.906,381.541 606.913,381.333C607.523,381.573 607.446,381.681 607.992,381.603C608.045,381.596 609.034,381.643 608.616,381.169C608.944,380.989 609.811,381.207 610.105,380.449C610.459,380.547 610.749,380.785 611.101,380.736C611.417,380.692 611.455,380.781 611.64,380.247L612.292,380.156C612.338,380.347 612.33,380.441 612.445,380.548C612.783,380.224 613.138,379.753 613.52,379.251L615.639,378.954C616.522,377.998 618.997,378.123 619.469,376.693L621.32,376.432C622.34,376.285 623.338,375.296 622.695,374.258C623.031,374.178 623.132,373.876 623.483,373.827C623.836,373.776 623.908,373.931 624.038,374.038L624.647,373.83L624.58,373.349C623.989,373.174 622.793,373.216 622.326,372.405C622.119,372.574 621.827,372.766 621.44,372.81C621.361,373.08 621.404,373.329 621.431,373.671L618.45,374.089C618.351,374.24 618.386,374.328 618.391,374.521C618.203,374.569 617.975,374.418 617.825,374.183L616.056,374.431C615.957,374.576 615.992,374.664 615.997,374.857L615.192,374.97C615.146,374.783 615.046,374.582 614.852,374.587C614.785,374.259 615.047,374.078 615.024,373.742C616.436,373.687 617.293,372.759 618.305,372.501C618.544,371.934 619.091,371.06 619.481,370.416C619.65,370.329 620.807,370.457 620.529,369.865C620.687,369.771 621.482,369.919 621.319,369.316C621.999,369.011 622.696,368.768 623.363,368.631C623.452,368.409 623.71,368.237 623.851,367.794C625.159,367.418 625.075,367.14 626.439,366.954C628.306,367.368 630.02,367.89 631.517,368.546L631.533,368.658ZM282.494,353.733C268.757,349.46 255.714,346.902 243.247,347.123L245.06,346.621C259.049,347.23 271.99,349.102 284.367,351.8C283.76,352.477 283.136,353.123 282.494,353.733M555.184,396.511C555.208,396.849 555.007,396.949 554.822,396.994L554.935,397.802C556.067,397.535 556.408,398.726 556.765,399.559L557.973,399.39C558.208,398.701 558.811,398.854 559.054,398.801L558.942,398.004C558.466,397.902 558.164,397.8 557.758,397.741L557.599,396.605C556.538,396.732 555.98,396.434 555.184,396.511M824.76,254.098C824.807,254.278 824.959,254.493 825.146,254.7L824.046,254.854C824.001,254.678 823.711,254.607 823.523,254.271L824.76,254.098ZM828.603,253.551L829.827,253.379L829.881,253.763L828.657,253.934L828.603,253.551ZM784.055,251.338C784.421,252.081 783.787,252.921 782.97,252.772L783.061,253.42C784.319,254.594 785.871,255.655 786.51,257.343C787.37,258.01 788.517,258.525 788.809,259.535C790.353,259.335 790.288,261.01 791.478,261.905C792.166,261.367 792.798,260.855 793.637,260.426L793.527,259.646C793.059,259.382 791.278,257.859 791.176,257.139C791.126,256.786 791.539,256.656 791.472,256.328C790.167,256.471 789.163,255.733 788.766,254.747C788.015,254.226 787.371,253.74 786.64,253.288C786.339,252.366 785.705,251.875 785.134,251.185L784.055,251.338ZM779.275,100.652C778.91,101.293 779.033,102.129 778.659,102.675C779.195,102.886 779.124,102.922 779.168,103.239C779.218,103.59 778.835,103.931 778.884,104.283C778.934,104.635 779.376,104.716 779.426,105.069C779.475,105.421 779.114,106.143 778.793,106.378C779.305,108.682 777.693,109.851 777.898,111.945C777.771,112.417 777.134,113.542 776.212,113.475C776.51,114.326 776.168,115.724 775.429,116.02C775.054,116.937 774.986,117.84 774.167,118.624L774.258,119.272C774.597,119.246 774.697,119.447 774.72,119.554C773.831,120.334 773.213,121.649 772.203,122.055C772.323,122.468 772.154,122.747 771.937,122.998C772.032,123.983 771.89,125.006 771.977,125.975C771.314,126.909 770.601,128.024 770.073,129.148C769.93,129.949 769.894,129.985 769.665,130.375C769.136,130.497 768.717,130.702 768.286,130.929C768.39,133.573 766.151,134.763 764.946,136.639C763.478,136.999 762.116,139.005 762.391,140.532C761.956,140.998 761.445,141.51 761.114,142.041C761.11,142.311 761.17,142.73 761.167,142.986C760.844,143.153 760.777,143.59 760.505,143.677C760.021,145.245 759.059,147.308 757.819,148.494L758.122,150.657C758.167,151.01 757.935,151.351 757.857,151.62C757.33,151.684 757.107,152.146 756.49,152.253L756.968,155.649L755.816,156.668C755.725,158.267 755.844,159.93 754.86,160.861C754.86,161.194 755.207,161.902 754.62,162.44L754.789,163.65C754.989,163.644 755.211,163.684 755.237,163.785C754.652,164.128 755.264,166.046 753.994,166.099C754.096,167 753.779,167.416 753.838,168.091C754.175,168.066 754.275,168.267 754.296,168.381C754.188,168.516 754.094,168.508 753.899,168.556L754.16,170.404C753.79,170.717 753.683,172.228 753.732,172.581C753.781,172.932 754.073,172.962 754.122,173.315C754.172,173.666 753.9,173.776 753.941,174.058C754.672,179.269 754.725,179.497 754.625,179.64C754.228,179.689 753.66,179.769 753.237,179.885C753.221,180.181 752.77,180.038 752.831,180.389L752.977,181.427C753.809,181.257 754.435,181.35 755.023,181.691L755.369,184.153C754.933,184.333 754.982,184.538 755.011,184.749C755.045,184.996 755.205,185.508 755.856,185.606L756.111,187.413C756.154,187.766 755.86,187.718 755.909,188.07C755.934,188.245 756.255,189.048 756.82,189.337L757.138,191.609C757.339,191.602 757.428,191.569 757.576,191.667L757.837,193.521C758.179,193.494 758.279,193.696 758.305,193.798C758.068,193.949 757.916,194.178 757.944,194.343C758.266,194.624 759.188,195.058 759.31,195.92C759.36,196.273 759.147,196.805 759.197,197.157C759.337,198.161 759.74,197.607 760.537,198.427L760.915,201.13C761.259,201.103 761.407,201.363 761.678,201.44L761.934,203.275C762.417,203.378 762.582,203.635 762.812,203.732C764.049,205.712 764.646,208.008 766.134,209.7L766.392,211.542C767.355,212.096 767.628,213.505 768.671,213.686C769.161,214.35 769.49,215.088 769.813,216.181C770.6,216.682 770.84,217.972 771.729,218.131C771.8,218.374 771.859,218.795 771.935,219.036C772.401,219.47 772.774,220.004 773.167,220.221C773.401,220.674 773.248,221.086 773.824,221.41L774.124,223.549C775.04,223.143 775.308,223.788 775.767,224.099C775.488,224.144 775.055,225.191 775.119,225.649C775.168,226.001 775.66,226.435 775.745,226.901C777.489,226.859 777.702,228.737 778.636,229.755C778.915,229.78 779.213,230.016 779.438,230.108C780.148,232.171 780.487,233.999 782.424,235.003C783.199,236.757 784.494,238.567 785.271,240.296C785.711,240.452 785.886,240.711 786.109,240.8C786.226,241.326 786.432,241.745 786.661,242.177L787.873,242.006C787.973,241 788.842,240.238 789.215,239.423C789.81,239.486 790.275,238.336 790.602,238.08C790.866,238.011 791.173,237.957 791.264,237.881C791.656,237.153 792.152,236.662 792.607,236.097C792.633,235.841 792.588,235.579 792.68,235.334C793.415,234.993 793.602,234.247 794.288,233.87C795.043,232.112 796.871,230.667 797.491,228.946C797.736,228.266 797.974,228.182 798.177,227.703C798.443,226.909 798.834,226.229 799.439,225.531C800.739,223.513 802.169,221.072 803.707,219.027C803.822,217.628 805.756,216.436 805.782,215.11C806.02,215.059 806.113,214.76 806.433,214.703C806.982,212.546 807.533,210.613 808.833,209.18C809.525,206.896 810.47,205.084 811.47,202.7C811.278,201.058 812.581,199.478 812.457,197.891C813.07,197.29 814.265,195.874 814.056,194.928C814.494,194.316 814.814,193.557 815.269,192.99C815.308,192.066 815.462,191.613 815.902,190.937L815.584,188.676C815.502,188.077 816.384,186.909 816.466,186.853L816.209,185.017C816.448,184.867 816.549,184.566 816.834,184.357L816.419,181.403C816.788,181.233 816.71,180.669 817.14,180.441L816.968,179.223C816.772,179.229 816.551,179.188 816.53,179.075C816.639,178.939 816.733,178.948 816.924,178.901L816.547,176.213C817.005,175.96 816.965,176.007 816.891,175.479C816.877,175.373 816.779,175.116 816.37,174.877L815.902,171.553C816.013,171.417 816.106,171.425 816.299,171.377L815.822,167.984C816.064,167.833 816.164,167.532 816.457,167.321L815.928,163.552L815.077,159.541C814.551,159.373 814.556,158.862 814.547,158.792C814.509,158.528 814.396,158.334 814.842,157.926L814.752,157.282C813.763,157.198 814.417,156.026 813.651,155.585L813.351,153.453C813.15,153.459 813.062,153.494 812.917,153.394L812.659,151.553C812.172,151.38 811.778,150.332 811.763,150.263L811.344,147.286C810.439,146.957 810.442,145.82 810.063,144.765C809.65,144.393 809.338,144.214 809.283,143.862L809.024,142.012C808.308,141.763 808.48,141.192 808.4,141.005C808.087,140.312 807.64,140.183 807.276,139.149C806.792,138.402 804.673,136.558 804.515,135.431C804.462,135.063 804.415,134.799 805.098,134.61L804.986,133.81C803.105,133.746 802.401,132.411 801.784,130.727C800.971,129.701 800.034,128.334 799.68,127C798.987,126.362 798.657,125.249 798.019,124.483C797.275,124.13 796.906,123.203 796.573,122.266C796.144,121.829 795.394,121.784 795.549,120.783C794.625,120.882 794.17,120.076 793.437,119.79C793.358,119.403 793.295,118.972 793.201,118.717C791.967,117.671 791.141,116.163 790.293,114.385C789.85,113.969 789.366,113.603 788.935,113.254C788.809,112.578 788.448,112.05 788.307,111.503C787.569,111.117 786.926,110.508 786.468,110.009C786.198,109.34 785.942,108.527 785.785,107.841C785.191,107.436 784.565,107.09 784,106.765C783.76,104.874 781.774,104.287 781.436,102.428C780.844,101.863 780.104,101.214 779.919,100.563L779.275,100.652ZM827.109,250.87C827.044,251.672 826.689,252.043 826.383,252.987L823.067,253.453C822.93,253.343 822.938,253.248 822.893,253.061L822.227,253.154C822.246,253.435 822.083,255.594 821.133,255.727C820.781,255.777 820.693,255.811 820.554,255.717C820.604,255.045 819.65,254.885 819.486,254.394L818.842,254.485C818.598,254.967 818.398,255.402 818.112,255.682L819.399,255.501L819.524,256.391L817.564,256.667C817.455,256.967 816.749,257.492 816.434,257.537C816.081,257.586 816.306,257.268 815.955,257.322L814.104,257.582C813.981,257.921 813.828,257.903 813.475,257.952C813.124,258.001 811.968,257.446 811.616,257.496C811.264,257.545 808.519,259.08 808.466,259.087C807.92,259.165 807.997,259.057 807.403,258.808C806.936,260.023 806.195,260.502 804.928,260.901L805.135,262.383C807.156,263.917 809.306,265.916 811.365,267.259C811.55,267.873 812.227,267.964 812.332,268.574C813.941,268.441 814.483,270.376 815.87,270.232C816.156,271.528 817.939,271.407 818.511,272.396C819.195,272.441 819.604,272.889 819.875,273.041C819.867,273.029 820.41,273.181 820.661,273.387C822.181,274.058 824.734,273.938 825.429,275.925C826.673,275.932 828.338,276.795 829.282,277.356C830.608,277.174 831.744,277.487 832.935,278.044L834.752,277.787C835.763,279.035 837.79,278.016 839.064,278.761L840.885,278.506C841.282,278.962 841.825,278.791 842.077,278.803C842.538,279.122 842.74,279.905 843.15,280.135C843.504,280.354 843.863,280.493 844.11,280.859C845.113,281.038 845.14,281.073 845.315,281.046L847.1,280.794C847.236,280.902 847.228,280.995 847.276,281.189L850.397,280.752C850.535,280.869 850.526,280.962 850.575,281.157L853.555,280.738C853.692,280.855 853.684,280.949 853.731,281.143L856.705,280.725C856.871,280.934 858.759,281.169 859.093,281.123C859.445,281.073 860.109,280.693 860.461,280.643C860.813,280.594 861.275,280.816 861.628,280.766C861.979,280.717 861.676,280.472 862.028,280.423L864.615,280.059L869.345,279.679C869.48,279.785 869.473,279.879 869.521,280.074L878.838,278.765C878.974,278.882 878.966,278.975 879.012,279.162L879.677,279.069C879.671,278.877 879.637,278.788 879.736,278.647L881.515,278.397C881.65,278.506 881.643,278.599 881.69,278.793L883.607,278.523C883.719,278.233 884.51,277.55 884.722,277.52C885.074,277.472 885.112,277.708 885.185,277.817C886.405,277.822 887.097,277.729 887.681,278.393L889.529,278.133C889.616,278.125 889.911,278.042 890.62,278.638C890.841,278.668 891.282,278.397 891.779,278.955L892.426,278.865C892.43,278.474 892.666,277.984 893.176,277.912C893.247,277.902 893.322,277.84 893.693,278.259L896.22,277.903C896.391,278.273 896.826,278.333 896.875,278.685C896.925,279.037 896.677,279.164 896.549,279.401C896.936,279.43 898.086,280.525 898.561,280.458C898.913,280.409 899.275,279.927 899.628,279.877C899.98,279.827 900.924,280.413 901.276,280.365C901.627,280.315 901.87,279.993 902.205,279.927L902.096,279.147C901.411,278.504 900.743,277.611 899.862,277.291C899.803,277.044 899.743,276.616 899.643,276.356C898.58,275.663 898.003,275.152 896.986,273.847C896.018,273.292 895.05,272.594 894.389,272.036C894.343,271.915 894.295,271.62 894.213,271.507C893.643,271.269 893.302,270.414 892.583,270.83C892.567,269.998 892.047,269.868 891.892,268.924C891.136,269.009 890.533,268.806 889.923,268.913C889.949,269.247 890.002,269.476 889.924,269.609C889.289,269.212 889.097,269.203 889.123,268.6C888.643,268.641 888.233,268.7 887.966,268.69C886.599,267.657 885.563,265.556 883.461,266.096C884.011,264.204 882.282,265.309 881.615,264.116C881.722,263.993 881.816,264 882,263.953L881.788,262.44C880.327,262.973 880.21,261.734 879.149,261.545C878.566,261.308 877.732,261.512 877.568,261.021L875.728,261.28C875.577,261.04 875.267,260.828 875.191,260.494C874.438,260.841 873.121,260.509 873.074,259.652L871.844,259.824C871.871,260.157 871.669,260.257 871.567,260.282C871.416,260.044 871.137,260.044 871.087,259.692L871.233,258.761L870.137,258.914C870.163,259.248 870.216,259.476 869.887,259.6C869.403,259.231 869.126,259.261 868.53,259.014L868.426,258.282C867.656,258.745 867.358,258.024 867.141,257.78C866.735,257.792 866.319,257.85 866.058,257.845C865.908,257.654 865.603,257.448 865.532,257.118C863.682,257.484 863.775,256.196 862.156,256.424C861.804,256.474 861.983,256.735 861.632,256.785C860.788,256.903 859.479,255.862 859.222,255.591C858.512,255.591 857.444,255.149 856.836,255.18C856.839,255.376 856.872,255.465 856.773,255.609L855.007,255.857C854.854,255.607 853.763,254.301 853.111,254.392C852.758,254.442 852.748,254.874 852.396,254.924C852.026,254.976 851.284,254.347 851.011,253.986L850.359,254.078C850.386,254.416 850.184,254.516 850.075,254.539C849.422,253.932 848.858,253.57 848.098,253.128C847.144,253.114 846.1,253.143 845.657,252.719L843.117,253.076C842.981,252.966 842.989,252.871 842.941,252.676L841.087,252.936C840.95,252.82 840.958,252.726 840.91,252.528L839.046,252.791C838.763,252.819 836.939,252.358 836.887,252.364C836.535,252.413 836.454,252.857 836.101,252.907C836.048,252.913 835.959,252.996 835.588,252.558L834.95,252.648C834.764,253.17 834.728,253.099 834.411,253.143C834.358,253.151 834.207,253.311 833.753,252.812L831.913,253.071C831.264,252.635 830.649,251.662 829.84,251.775C829.487,251.825 829.387,252.126 829.034,252.176C828.682,252.226 828.524,252.269 828.383,252.172C828.37,251.416 827.557,251.225 827.109,250.87M792.008,271.03L792.069,271.464L790.797,271.642C790.807,272.261 790.071,272.409 789.817,272.525C789.379,273.229 789.075,274.144 788.075,274.343C787.53,274.952 787.243,276.519 786.102,276.629C785.677,277.098 785.655,277.963 785.29,278.386C784.075,279.27 782.466,280.728 782.325,282.321C780.996,283.458 779.996,285.209 778.471,286.16C778.355,287.101 777.593,288.003 776.819,288.435C776.563,289.935 775.04,290.853 774.86,292.562C773.037,294.416 772.378,296.584 771.071,298.757C771.475,299.562 770.79,300.451 770.231,300.852C770.176,301.19 770.138,301.52 769.92,301.771C770.015,302.881 769.774,303.892 768.997,304.328C768.921,306.958 767.542,309.545 767.711,312.246C767.249,312.955 767.102,314.081 767.3,315.475L766.883,316.968L767.198,319.211C767.057,319.351 766.962,319.343 766.774,319.39L767.759,326.39C767.952,326.384 768.039,326.351 768.181,326.45L768.477,328.561C768.943,328.967 768.668,329.105 769.326,329.453L769.643,331.713C770.392,331.957 770.094,332.896 770.298,333.215C770.991,333.366 771.885,334.026 771.684,335.008C772.873,335.256 773.857,336.599 774.118,337.771C774.797,338.288 775.157,338.957 775.28,339.907C776.531,340.6 777.212,341.645 777.997,342.839C778.602,343.249 779.379,343.708 779.931,344.167C780.87,344.169 782.193,345.453 782.506,346.237C783.403,346.2 784.349,346.908 785.09,347.038C785.419,347.047 786.073,346.674 786.653,347.296L789.399,346.909C789.689,345.975 790.122,346.681 790.54,345.887L792.298,345.64C792.476,346.076 792.682,346.027 792.894,345.997C793.246,345.948 793.468,345.486 793.936,345.4L793.779,344.281L794.971,344.113C795.108,344.23 795.1,344.324 795.144,344.504L795.82,344.409C795.369,343.747 796.218,343.29 796.418,343.06C796.708,343.419 797.282,343.37 797.334,343.364C798.338,343.223 797.751,343.407 798.413,342.393C798.201,342.38 797.979,342.339 797.958,342.226C798.415,342.31 798.844,342.361 798.91,342.685L799.581,342.591C799.088,341.427 799.538,340.085 800.834,340.42C800.808,339.596 801.982,338.629 801.802,337.968C803.1,337.562 803.552,336.584 803.899,335.676L804.62,335.575C804.375,334.202 805.897,332.786 806.507,331.932C806.575,331.096 807.058,330.132 807.842,329.953C808.113,328.643 808.191,327.253 809.311,326.376C809.383,325.531 809.399,324.671 809.74,324.301C809.829,323.333 809.779,322.601 810.267,321.93C810.555,320.728 810.459,319.586 810.944,318.516C810.927,317.982 810.847,317.416 810.802,316.868C811.101,315.267 811.545,314.209 811.372,313.013L811.123,311.236C811.354,311.087 811.504,310.857 811.47,310.682C810.891,310.468 811,310.336 810.993,310.283C810.987,310.23 810.904,310.141 811.342,309.769L811.251,309.133C810.674,308.918 810.784,308.787 810.776,308.735C810.727,308.382 811.13,308.182 811.061,307.853C810.869,307.86 810.781,307.893 810.634,307.793L810.118,304.117C809.377,303.998 809.88,302.808 809.153,302.398L808.795,299.843C807.892,299.985 808.537,299.296 807.818,298.993L807.56,297.159C807.075,296.985 806.764,296.536 806.745,296.431L806.326,293.455C805.61,293.206 805.517,292.657 805.158,291.654C804.162,290.49 803.75,289.418 803.052,287.927C802.492,287.296 801.966,286.056 801.534,285.275C801.23,284.638 800.705,284.342 800.421,283.549C799.609,283.141 799.636,281.961 799.361,281.238C798.723,281.404 798.926,280.634 798.849,280.479C798.372,279.787 798.632,279.727 797.87,279.286L797.611,277.448C796.804,277.159 796.438,276.2 796.104,275.263C794.859,273.988 793.99,271.903 792.008,271.03M649.108,357.752C649.059,358.858 647.463,359.201 646.943,359.799L647.035,360.449L648.254,360.277C648.614,359.325 649.533,359.751 650.423,359.24L650.253,358.023C650.056,358.03 649.955,357.828 649.909,357.64L649.108,357.752ZM649.914,355.344L650.007,356.007L650.81,355.893L650.718,355.231L649.914,355.344ZM665.091,351.911C665.11,352.252 664.708,352.453 664.757,352.805C664.785,352.999 666.366,354.159 666.736,354.106C667.492,353.999 666.764,353.671 667.708,353.52L667.615,352.855C666.595,352.977 665.92,351.998 665.091,351.911M691.622,328.221C691.65,328.563 691.388,328.744 691.437,329.096C691.487,329.447 692.211,330.507 692.498,331.373L693.283,331.263C693.528,330.781 693.885,330.169 693.823,329.819L693.679,328.796C692.821,329.1 692.845,328.415 692.405,328.112L691.622,328.221ZM680.975,343.782C680.768,343.97 680.526,344.292 680.401,344.542L681.069,344.448L680.975,343.782ZM885.729,264.62C885.756,264.954 885.554,265.055 885.366,265.1L885.48,265.904L886.284,265.792C886.258,265.458 886.66,265.258 886.592,264.93C886.259,264.955 886.058,264.553 885.729,264.62M900.71,274.146L900.822,274.95L901.486,274.857L901.373,274.054L900.71,274.146ZM649.227,366.018C647.72,362.629 645.147,360.102 641.854,358.24C642.13,358.103 642.368,357.931 642.327,357.554L644.166,357.295C644.226,356.888 644.468,356.59 644.421,356.108L646.27,355.848C646.473,355.44 646.698,355.342 646.945,355.308C647.702,355.202 647.233,355.699 647.99,355.593C648.57,355.511 648.893,354.614 649.514,354.128C649.958,353.918 650.635,353.739 650.954,353.213C651.259,353.071 652.125,353.29 652.405,352.538L654.247,352.279C654.345,352.135 654.312,352.047 654.306,351.854L656.419,351.556C656.257,350.426 657.27,350.286 657.954,350.128C658.042,349.905 658.278,349.612 658.292,349.321C659.111,349.005 659.752,348.485 660.407,348.207C660.501,347.98 660.758,347.809 660.895,347.37C661.625,347.02 662.538,346.303 663.149,345.892C663.944,345.51 664.176,345.5 664.571,344.834C665.288,344.636 666.576,344.649 666.712,343.827C666.976,343.7 667.367,343.653 667.942,343.208C668.637,342.963 668.936,342.692 669.329,342.119L669.958,342.03C670.39,342.514 670.648,342.355 670.683,342.351C671.687,342.21 671.538,340.833 671.782,340.195C672.605,340.143 672.867,339.612 673.28,339.299C674.207,338.932 675.417,338.608 675.394,337.401C676.341,337.177 676.739,336.85 677.269,336.26L679.104,336.001C681.173,334.015 683.95,332.773 685.663,330.381C686.437,330.211 687.468,329.157 688.181,328.728C689.415,328.698 689.925,327.892 690.391,327.278C691.094,326.939 691.1,326.669 691.402,326.273C692.311,325.958 692.9,325.417 693.141,324.459C693.907,324.084 694.637,324.392 694.736,323.515C695.615,323.339 698.263,320.956 699.037,320.848C699.213,320.823 699.314,320.873 699.597,321.2C699.882,320.818 700.51,320.686 700.06,319.875C700.988,319.677 703.194,319.506 702.662,317.912L704.524,317.65C705.253,316.866 706.567,316.564 706.618,315.346L707.75,315.186C707.809,314.782 707.911,314.48 708.013,314.005L709.551,313.789C708.954,312.089 710.923,312.277 711.198,311.111L713.027,310.853C713.155,309.655 714.631,308.828 715.24,307.841C716.442,307.829 717.014,306.677 717.895,306.171C718.832,306.184 719.548,305.352 719.962,304.744C720.7,304.38 720.704,303.874 721.408,303.775C721.76,303.725 721.871,303.997 722.222,303.947C722.681,303.883 724.176,301.375 725.32,301.226C725.399,300.956 725.356,300.707 725.325,300.384C726.053,299.968 727.198,299.049 728.138,298.821C728.22,298.55 728.178,298.3 728.152,297.966C729.22,297.795 730.646,296.446 731.807,296.293C731.886,296.023 731.844,295.774 731.809,295.455C732.989,294.581 735.005,294.763 735.064,292.969C735.248,292.927 735.477,293.078 735.628,293.318L736.232,293.233L736.015,291.687C737.213,291.646 737.047,290.094 738.611,290.447C738.798,290.002 738.961,289.692 739.036,289.287C739.454,289.177 740.015,289.098 740.402,289.001C740.616,288.509 741.193,287.343 741.444,286.932C742.723,286.636 743.162,286.071 744.675,285.67C744.899,285.245 745.619,284.775 746.108,284.664C746.191,284.392 746.135,284.025 745.935,283.552L747.61,283.316L747.433,282.057C747.995,281.664 748.666,281.281 749.183,281.021C749.572,280.194 750.627,279.064 751.731,278.706C751.815,278.432 751.773,278.183 751.741,277.857C752.721,277.406 753.672,276.984 754.603,276.67C754.949,275.57 756.111,275.206 757.205,274.782C757.271,274.372 757.219,273.994 757.018,273.522L758.272,273.347L758.114,272.224C759.016,271.679 760.142,270.866 760.571,269.898C761.23,269.275 762.872,268.908 762.66,267.547C763.143,267.672 763.373,266.9 763.749,266.702C764.14,266.609 764.703,266.531 765.238,266.408C765.525,266.039 765.768,264.857 766.611,264.978C766.665,264.579 766.768,264.272 766.904,263.834C767.764,263.393 768.762,262.391 769.458,261.453C770.437,261.219 771.224,260.315 772.199,259.338C772.186,258.936 772.108,258.382 772.074,257.894C774.05,258.547 773.671,256.426 774.627,255.859C773.789,255.251 772.683,254.061 771.549,253.874C771.028,253.563 770.502,252.915 770.053,252.599C769.268,252.803 768.571,251.977 768.417,251.344C766.664,251.68 765.336,250.067 763.789,249.791C763.404,249.455 763.059,249.07 762.749,248.738C762.212,248.786 761.754,248.564 761.137,248.628C760.995,247.502 759.765,248.004 759.002,247.568C758.863,247.021 758.037,246.986 757.382,247.103C755.389,246.474 753.587,245.961 752.187,245.057C751.07,245.129 749.532,244.902 748.51,244.391L746.674,244.648C745.548,243.932 743.895,244.695 743.203,243.544L738.967,244.139C738.92,243.946 738.927,243.853 738.79,243.74L735.397,244.218C735.166,243.78 734.829,243.445 734.477,243.494C734.124,243.544 734.134,243.615 734.161,243.955L728.727,244.718C728.273,244.227 728.121,244.388 728.069,244.395C727.753,244.439 727.716,244.369 727.531,244.893L722.875,245.548C722.63,245.925 722.379,246.056 722.273,246.071C721.746,246.145 721.79,246.167 721.539,245.727L715.754,246.54C715.706,246.348 715.715,246.254 715.58,246.144C715.466,246.166 715.265,246.266 715.291,246.604L712.748,246.961C712.681,247.44 712.558,247.436 712.276,247.476C712.064,247.506 711.859,247.555 711.679,247.114C711.582,247.142 711.381,247.259 711.35,247.527C710.809,247.84 710.167,247.838 709.56,248.226C708.885,248.384 708.686,247.981 708.333,248.031C707.981,248.08 707.921,248.176 707.888,248.447C707.69,248.548 707.116,248.357 706.869,249.092L703.892,249.51C703.364,249.59 702.065,250.61 701.94,250.936C701.419,250.713 701.08,250.742 700.663,250.255C699.933,250.94 698.136,251.249 697.752,252.669L695.199,253.028C694.694,253.507 694.243,254.059 693.631,254.49C693.402,254.578 692.97,254.641 692.58,254.722C691.938,255.994 691.126,256.55 689.741,256.986C689.532,257.392 689.306,257.86 688.996,258.301C687.985,258.266 687.563,259.46 687.257,260.117C686.371,260.395 685.788,261.589 685.137,262.427C684.294,262.803 683.517,263.679 683.521,264.701C682.44,265.288 681.731,265.774 681.814,267.159C681.544,267.947 681.123,269.218 680.716,269.96C680.722,270.228 680.782,270.652 680.771,271.065C679.399,271.854 679.934,273.532 679.322,274.603L679.888,278.633C680.39,278.914 680.321,279.391 680.516,279.828C681.26,280.245 681.422,280.887 682.225,281.353C682.383,282.042 682.865,282.408 682.99,283.081C683.495,283.456 686.336,285.011 687.604,284.837L689.453,284.578C689.907,285.079 690.323,284.809 690.783,284.828C691.456,285.524 690.879,285.664 691.849,285.528C691.883,285.524 692.232,285.657 692.474,285.013C692.954,285.204 693.296,285.209 693.769,285.693L696.396,285.323C696.784,285.265 697.997,285.405 698.242,285.788L701.195,285.373C701.649,285.87 701.8,285.709 701.852,285.701C702.503,285.611 702.815,285.101 703.187,284.655L705.677,284.305L710.056,283.4C710.407,283.35 710.394,283.64 710.746,283.59C711.644,283.464 711.422,282.777 712.407,282.639C712.477,282.628 713.016,282.6 713.344,282.945L715.535,282.637C716.334,281.235 717.92,281.344 718.924,280.149L720.749,279.892C721.194,279.029 722.596,279.17 723.105,278.266L726.78,277.75C727.378,277.662 728.094,276.956 728.293,276.396L730.124,276.138C730.203,275.869 730.464,275.692 730.61,275.244C732.096,275.169 732.623,274.349 733.557,273.676C733.802,273.569 734.153,273.469 734.772,273.073C735.457,272.885 736.566,272.516 736.911,272.061C737.044,271.999 737.839,272.147 737.677,271.546C737.997,271.381 738.865,271.599 739.145,270.848L740.986,270.589C741.084,270.444 741.052,270.333 741.086,270.193C743.26,269.116 744.664,267.915 746.856,266.566C746.934,266.202 747.498,266.118 747.638,265.676C748.38,265.468 749.375,265.145 749.912,264.596L751.725,264.341C751.785,263.943 752.191,263.733 752.387,263.38L752.56,264.615C750.705,265.781 749.31,267.368 747.929,268.821C747.319,269.252 746.5,269.66 745.842,269.922C744.968,271.748 743.984,271.554 742.937,273.11C742.439,273.473 741.227,273.797 741.13,274.505C740.683,274.73 739.968,275.166 739.763,275.315C739.792,275.708 739.872,276.276 739.863,276.686C737.264,278.438 735.41,280.854 732.732,282.455C731.767,282.592 731.436,283.187 730.891,283.572C730.648,283.68 730.038,283.543 729.691,284.167C729.162,284.305 728.635,284.666 727.954,284.794C727.314,285.36 726.302,286.182 725.748,286.729C723.984,288.127 721.296,288.626 720.325,290.709L718.487,290.967C718.064,291.603 716.28,291.798 715.832,292.49L713.58,292.806C713.137,293.566 712.311,292.986 712.016,293.889L709.796,294.201C709.132,294.587 709.233,294.285 708.881,294.335L703.92,295.308L701.084,295.419C701.037,295.222 701.045,295.128 700.908,295.017L698.647,295.334C698.001,294.612 697.853,295.349 697.263,294.672L695.484,294.921C694.921,295.004 691.35,294.339 690.377,293.662C689.007,293.717 687.894,293.204 686.701,292.928C686.454,292.563 685.999,292.351 685.689,292.021C683.251,292.211 682.469,290.377 680.331,289.843L680.252,289.275C679.417,289.009 678.901,288.733 678.49,288.25C678.122,288.171 677.673,288.087 677.233,287.933C676.887,287.222 676.605,286.622 676.165,286.473C675.752,286.497 675.424,286.392 674.985,286.239C674.766,285.797 674.508,285.109 674.044,284.764C674.211,283.641 673.051,283.786 672.5,282.97C672.381,282.27 671.704,281.37 671.116,281.183C670.77,280.489 670.085,279.508 669.612,278.981L669.259,276.469C668.523,276.401 668.636,276.186 667.912,276.083L667.587,273.769C667.53,273.418 667.249,273.182 666.804,273.023C666.68,272.484 666.919,271.179 666.87,270.826C666.717,269.734 666.486,270.787 667.01,269.349C667.564,269.566 667.528,269.703 668.074,269.627C668.11,269.622 668.721,268.717 668.97,268.068C669.194,268.201 669.059,269.489 669.394,269.463C669.44,269.651 669.289,269.879 669.053,270.03C669.078,270.132 669.189,270.332 669.459,270.347C669.56,270.526 670.047,271.79 670.522,271.724C670.874,271.675 671.106,271.26 671.225,270.768C671.974,271.064 672.771,270.609 672.965,271.394L674.434,271.188C674.736,270.466 674.59,269.802 675.013,269.419C674.819,269.061 674.53,268.977 674.227,268.664C674.151,268.425 674.094,268.004 674.013,267.75C673.216,267.217 672.212,266.849 671.682,265.949C671.44,265.995 671.359,266.436 671.006,266.486C670.655,266.536 670.455,266.133 670.114,266.16L669.509,261.853C669.904,261.484 670.288,261.143 670.657,260.83L670.338,258.562C672.149,258.069 670.468,255.918 672.329,255.551L672.47,256.563C672.621,256.66 672.496,256.657 672.849,256.607C673.553,256.508 673.396,254.994 673.411,254.575C673.689,254.479 673.74,254.056 674.051,253.746C674.884,253.92 675.147,252.794 675.466,252.537C675.474,251.9 675.91,251.147 676.016,250.616C676.845,250.285 677.569,249.204 678.108,248.272L678.755,248.182C678.801,248.375 678.793,248.47 678.929,248.58L679.572,248.489C679.648,248.224 679.606,247.974 679.58,247.64C680.19,247.534 680.714,247.174 681.373,247.099C681.241,245.046 684.529,245.459 685.436,244.069C686.14,244.375 686.321,244.661 686.883,244.582C688.345,244.378 688.791,243.467 688.702,242.039L689.455,241.933C689.805,241.875 689.455,241.411 689.459,241.134C689.815,240.741 690.167,240.276 690.412,239.787C690.726,239.735 690.926,240.138 691.278,240.088C691.736,240.024 692.063,239.547 692.027,239.137L692.677,239.045C693.048,239.478 693.155,239.394 693.19,239.389C693.823,239.3 693.662,238.858 693.809,238.451C693.986,238.415 694.216,238.566 694.336,238.797C694.692,238.196 695.673,237.669 696.051,236.99L700.357,236.385C700.406,236.579 700.255,236.809 700.02,236.958L700.091,237.462C700.235,237.557 700.112,237.555 700.464,237.505C700.815,237.455 701.21,236.682 701.562,236.632C701.913,236.583 702.505,237.217 702.857,237.168C703.649,237.058 703.966,235.75 704.34,235.423C704.498,235.344 705.124,235.49 705.363,234.825L706.933,234.603C706.945,235.098 707.001,235.496 707.101,235.867L707.795,235.769C707.871,235.498 707.83,235.249 707.802,234.909L708.872,234.759C709.197,235.106 709.494,235.087 709.652,235.085C709.72,235.414 709.747,235.665 709.897,235.905L711.014,235.747C711.005,235.366 710.95,234.966 710.828,234.492L714.803,233.933C714.85,234.119 714.842,234.213 714.978,234.325L717.525,233.968C718.015,234.721 717.991,234.754 718.66,234.661C718.995,234.614 718.851,234.442 719.257,234.184C720.467,233.904 721.862,232.918 722.424,232.84C723.039,232.753 723.266,233.582 724.092,233.466C724.41,233.422 724.447,233.511 724.631,232.971C724.807,232.934 725.033,233.081 725.182,233.271C725.818,233.278 726.704,232.94 727.257,233.753L727.859,233.67L727.703,232.55L728.103,232.495C728.152,232.717 728.452,233.572 728.909,233.508C729.876,233.371 729.597,232.519 729.633,231.838L732.388,231.451C732.821,231.931 732.993,231.785 733.257,231.748C733.326,231.738 733.804,231.745 734.006,231.221L734.643,231.132C734.947,231.471 735.17,231.552 735.57,231.452C735.545,231.625 735.228,232.56 734.657,232.411C734.568,232.547 734.572,232.425 734.621,232.776C734.676,233.164 735.17,233.489 735.434,233.452C735.787,233.402 735.847,233.312 735.857,233.023C736.038,232.922 736.662,233.068 736.9,232.402L737.693,232.289C737.777,232.745 738.398,233.466 738.662,233.429C739.119,233.364 739.317,232.474 739.881,232.395C740.233,232.347 740.573,232.729 740.926,232.68C740.978,232.672 741.111,232.783 741.324,232.203C741.501,232.168 741.729,232.32 741.88,232.555L744.405,232.199C744.911,232.572 745.41,233.074 746.027,233.496C746.297,233.506 746.717,233.447 746.983,233.458C747.278,233.873 748.34,234.117 748.698,234.371C749.117,234.672 749.578,235.081 749.887,235.396C750.996,235.321 752.245,235.938 753.457,236.117C753.516,236.439 753.822,236.645 753.958,236.831C754.643,236.534 755.603,237.551 756.077,237.679C756.917,237.612 757.538,237.956 758.362,237.883C759.996,239.14 762.486,239.364 764.111,240.577C764.379,240.586 764.788,240.527 765.265,240.481C765.33,240.81 765.652,241.052 765.692,241.435C767.236,241.694 770.418,245.336 771.475,245.188C771.828,245.139 771.817,245.068 771.797,244.726C774.482,245 776.389,247.736 778.679,248.53C779.215,248.855 779.78,249.621 780.132,249.572C780.414,249.531 781.771,248.036 781.991,247.906C781.966,247.806 781.746,247.765 781.559,247.776C780.659,245.765 778.853,244.224 777.549,242.652C777.202,241.358 776.273,239.92 775.442,238.92C775.414,238.092 775.06,237.318 774.338,237.094C773.94,236.025 773.607,235.236 772.862,234.842C772.895,234.079 772.421,233.046 771.465,233.116C770.915,232.451 770.278,231.259 769.813,230.527C769.296,229.031 768.164,227.168 767.169,226.016C766.944,224.827 765.934,223.93 765.187,223.141C765.113,222.901 765.054,222.481 764.966,222.217C763.438,219.999 761.516,217.436 760.091,215.517C759.92,213.925 759.044,212.821 757.994,211.803C757.817,211.219 757.482,210.401 757.014,209.933C756.952,209.786 757.06,208.617 756.455,208.888C756.426,207.588 755.489,207.213 754.969,206.629C754.909,206.482 754.92,205.858 754.397,205.574C754.283,205.336 754.249,204.925 753.786,204.349C753.551,203.598 753.252,203.406 752.726,202.927C752.115,201.291 751.277,199.91 750.517,198.481C749.86,195.35 748.205,193.39 747.127,190.965L746.874,189.15C745.968,188.458 746.112,186.991 745.212,186.519L744.946,184.62L744.348,182.331C743.549,181.913 744.218,181.485 743.322,181.189C743.286,181.013 743.437,180.784 743.674,180.633C743.649,180.531 743.549,180.329 743.211,180.356L742.636,176.264C742.156,176.196 742.161,176.073 742.121,175.792C742.092,175.579 742.043,175.374 742.478,175.196L742.23,173.432C742.084,173.334 741.997,173.368 741.803,173.373C741.755,173.187 741.902,172.962 742.091,172.813C742.059,172.276 741.979,171.714 741.954,171.136C742.233,171.037 742.303,170.955 742.254,170.604C742.182,170.093 741.71,169.853 741.301,169.851L740.992,167.659C741.58,167.12 741.212,166.504 741.213,165.94C741.52,165.589 741.534,165.48 741.502,165.252C741.457,164.935 741.528,164.9 741.013,164.712L740.92,164.061C741.113,164.014 741.206,164.022 741.32,163.886L740.883,160.771C741.484,160.518 741.245,159.339 741.778,158.932L741.518,157.085C741.852,157.018 741.912,156.583 742.277,156.413L741.983,154.325C741.969,154.273 742.137,153.561 742.556,153.223L742.296,151.375C743.412,151.235 742.927,150.003 743.331,149.257C744.065,148.536 744.32,148.004 744.129,146.868C744.548,146.389 744.391,145.766 744.637,145.188C744.906,145.101 744.973,144.666 745.293,144.507C744.95,143.164 745.582,141.949 746.407,141.189C746.413,140.927 746.353,140.512 746.341,140.086C746.957,139.581 747.876,138.291 747.993,137.559C748.706,136.444 749.359,134.929 750.244,133.758C750.272,133.624 750.232,133.345 750.276,133.193C750.889,133.15 751.596,132.446 751.123,131.489C752.308,130.818 753.017,130.119 753.913,129.224C753.901,128.822 753.823,128.262 753.806,127.846C754.086,127.445 754.864,127.34 754.456,126.559C754.651,126.5 754.909,126.468 755.028,126.407C756.586,124.044 758.956,121.801 760.197,119.022C760.853,118.686 760.986,117.874 762.007,117.874L761.908,117.171C762.516,117.067 762.878,116.584 763.404,116.524C763.463,116.12 763.404,115.721 763.358,115.246C763.546,115.198 763.608,115.48 764.012,115.565C764.102,115.429 764.048,115.19 764.061,114.897C764.808,114.592 765.151,113.194 764.843,112.361C764.978,112.272 765.202,112.156 765.223,111.852C766.017,111.872 766.779,110.863 766.536,110.12C767.142,109.536 767.811,108.884 767.787,107.867C770.878,108.121 769.808,104.872 770.517,103.494C771.713,103.227 771.892,102.109 772.192,101.267C772.707,100.646 773.347,100.137 773.892,99.703C773.927,98.631 774.51,98.111 774.735,97.588C774.767,97.2 774.407,96.451 774.995,95.964L774.747,94.198C773.955,93.779 774.625,93.351 773.724,93.056L773.407,90.792C773.262,90.693 773.174,90.725 772.988,90.732L772.775,89.212C773.276,89.394 773.794,89.344 774.225,89.865C774.533,89.695 774.893,88.905 775.139,88.87C775.491,88.821 775.701,89.223 775.981,89.244C776.312,91.47 778.042,92.339 779.742,93.465C780.023,94.255 780.672,94.573 781.08,94.85C782.211,96.587 783.864,97.221 784.91,99.009C785.157,99.103 785.453,99.341 785.719,99.352C786.939,101.109 791.469,105.961 791.548,106.524C791.767,108.074 790.017,106.865 790.246,108.502C790.331,109.101 790.205,109.011 790.914,109.494L791.554,109.404C791.593,108.87 791.796,108.285 791.732,107.666C792.743,107.577 792.725,109.109 793.946,109.377C794.006,109.697 794.063,110.113 794.147,110.507C794.921,111.024 796.023,112.483 796.86,113.045C796.768,113.798 797.421,113.741 797.846,114.03C798.488,114.847 798.674,115.886 799.736,116.211C799.863,116.895 800.565,117.863 801.141,118.025C801.261,119.054 802.037,120.182 803.069,120.153C803.114,121.26 803.528,121.743 804.148,122.053C804.399,122.743 804.673,123.898 805.217,124.17L805.473,125.991C806.441,126.044 806.425,126.547 806.514,127.181C806.523,127.251 806.552,127.789 806.209,128.109C806.618,128.958 807.457,128.89 808.386,129.324C808.439,129.639 808.037,129.839 808.086,130.192C808.145,130.613 809.429,131.371 809.865,132.032C810.578,133.39 811.052,135.139 812.421,135.967C812.582,136.286 812.698,136.873 813.075,137.479C813.18,138.089 813.268,139.533 814.444,139.255C814.73,139.938 814.431,141.253 815.63,141.07L815.89,142.918C816.332,143.117 816.673,143.5 817.155,143.745L817.463,145.94C817.27,145.988 817.176,145.981 817.068,146.092C817.637,146.554 817.909,148.161 819.079,148.2L819.345,150.1C819.071,150.607 818.616,150.969 818.715,151.673C818.76,151.99 818.689,152.025 819.22,152.225C819.122,152.581 818.883,152.87 818.933,153.222C819.107,154.454 820.28,154.203 821.111,154.419C820.82,154.672 820.73,155.119 820.361,155.289L820.608,157.045C821.046,157.245 821.527,157.607 822.018,157.852L822.375,160.394C822.518,160.493 822.747,160.439 823.08,160.414L823.195,161.224L822.62,161.305C822.456,161.98 821.779,163.073 821.25,163.624L821.381,164.556C821.523,164.654 821.401,164.649 821.752,164.601C822.105,164.551 822.094,164.481 822.071,164.161L823.155,164.008C822.61,164.645 823.371,165.378 823.429,165.801C823.478,166.153 823.226,166.403 823.276,166.755C823.322,167.09 823.939,167.691 824.102,167.943C824.185,168.135 824.014,168.706 824.73,168.965C824.608,169.627 824.091,170.026 823.366,170.515L823.495,171.438C823.64,171.536 824.01,171.463 824.203,171.457C824.27,171.785 823.997,171.896 824.048,172.247C824.097,172.599 824.389,172.63 824.438,172.982C824.488,173.334 824.179,173.181 824.228,173.533L824.478,175.31C824.498,176.274 823.986,176.431 823.393,176.829L823.763,179.45C823.869,180.171 821.945,182.828 822.071,183.726C822.12,184.078 822.471,184.531 822.521,184.882C822.565,185.2 821.565,186.248 822.773,186.825L821.778,186.965C821.72,187.387 821.358,187.847 821.407,188.2C821.456,188.551 821.919,188.773 821.969,189.124C822.067,189.829 821.341,189.77 821.512,190.985C821.56,191.336 821.759,191.779 821.952,192.088C820.875,193.177 819.871,194.388 820.239,196.384C819.055,196.516 818.913,197.54 818.13,197.841C818.023,197.987 818.056,198.075 818.105,198.427C818.15,198.744 818.08,198.78 818.607,198.973C818.53,200.053 817.943,200.587 818.086,201.78C817.719,202.232 817.766,202.976 817.228,203.261C817.26,203.649 817.339,204.217 817.328,204.63C816.851,204.899 815.553,205.804 815.664,206.596C815.713,206.948 816.145,206.96 816.196,207.311C816.223,207.505 815.713,208.112 815.512,208.371C815.539,208.774 815.619,209.341 815.611,209.747C814.541,210.709 814.04,212.012 812.554,212.26C812.493,212.665 812.573,213.205 812.634,213.826C811.39,213.82 811.582,215.277 811.362,216.014C810.32,216.464 810.104,218.273 808.955,218.371C808.675,219.242 808.631,220.543 807.658,220.424C807.395,221.253 807.069,221.56 807.107,222.503L806.39,222.604C806.139,223.421 806.392,224.151 805.735,224.667C805.052,224.507 804.97,225.477 804.689,226.082C804.388,226.419 803.339,227.001 803.841,227.834C802.832,227.71 802.965,228.7 802.814,229.072C801.69,230.457 799.815,232.034 799.541,234.042C799.113,234.264 798.835,234.45 798.448,234.529C798.361,234.768 798.124,235.068 798.077,235.353C797.018,235.241 796.968,236.617 796.766,237.094C796.372,237.992 794.544,238.96 794.829,240.292C793.197,241.197 792.308,243.139 790.543,243.682C789.893,244.92 789.788,244.193 789.955,245.391C789.982,245.584 791.274,247.73 792.295,248.214C793.147,250.109 795.078,250.421 795.707,252.439C795.948,252.528 796.116,252.785 796.598,252.887L796.855,254.722C797.784,255.013 798.621,255.153 799.526,255.608C799.645,255.588 799.686,255.367 799.677,255.179C800.764,254.822 800.913,254.262 801.951,254.115C802.163,254.086 802.871,254.273 802.924,254.267L803.868,254.136C803.966,253.997 803.963,254.12 803.913,253.768C803.864,253.415 803.431,253.405 803.405,253.071C803.54,253.03 803.973,253.115 804.239,252.502C804.486,252.794 804.934,252.884 805.104,253.258L805.837,253.155L805.661,251.902C806.174,251.555 807.248,251.629 807.565,250.891L809.413,250.631C810.04,250.117 810.652,249.561 811.389,249.093C811.923,248.981 812.491,248.9 813.028,248.831C813.128,248.688 813.076,248.46 813.048,248.127C814.014,247.897 814.361,247.536 814.953,247.021C815.215,246.822 816.183,246.891 816.576,246.465L819.531,246.05C819.63,245.908 819.597,245.82 819.59,245.619L821.444,245.357C821.542,245.208 821.509,245.12 821.501,244.92L826.449,244.225C826.653,243.818 826.946,243.71 827.052,243.695C827.563,243.623 827.681,243.798 828.259,244.395C828.368,244.372 828.57,244.272 828.542,243.932L830.457,243.663C830.87,244.125 831.044,243.996 831.325,243.957C831.396,243.946 831.872,243.953 832.076,243.43C832.251,243.395 832.481,243.547 832.63,243.782L834.253,243.554C834.604,242.914 835.352,243.105 835.871,242.903C835.956,242.628 835.901,242.259 835.7,241.783L837.344,241.552C837.552,241.828 837.696,242.063 838.118,242.203C838.25,242.537 838.47,243.177 838.918,243.613L839.849,243.482C839.947,243.34 839.943,243.463 839.893,243.111C839.842,242.741 839.341,242.417 839.096,242.41C839.032,242.084 839.435,241.883 839.408,241.548L840.071,241.455C840.262,242.154 841.016,242.514 841.729,243.216L842.339,243.007C842.308,242.916 842.087,242.874 841.894,242.881L841.782,242.092L844.153,241.758C843.754,242.197 843.381,242.529 843.153,242.801C843.69,243.286 843.382,243.411 843.945,243.331C843.999,243.324 844.113,243.434 844.358,242.846C844.713,242.944 845.002,243.183 845.354,243.134C845.671,243.089 845.708,243.178 845.908,242.628C846.634,242.911 846.504,243.402 847.385,243.28C847.702,243.234 847.739,243.324 847.947,242.77C848.332,243.023 848.815,243.386 849.249,243.735C849.993,242.98 849.655,242.959 850.694,242.814C851.416,242.712 851.254,243.257 852.399,243.318C852.441,243.501 852.29,243.731 852.059,243.862C852.471,244.302 853.112,245.203 853.904,245.093L854.848,244.961C854.946,244.822 854.913,244.733 854.863,244.382C854.794,243.889 854.221,243.054 853.959,243.025C854.086,242.788 854.335,242.661 854.307,242.32L854.948,242.23C855.303,242.453 855.878,243.433 856.671,243.138C856.773,243.665 857.183,243.954 857.406,244.322L858.038,244.233C858.114,243.965 858.072,243.716 858.057,243.369C858.745,243.556 859.268,244.439 859.398,245.068C860.423,245.403 861.357,245.221 862.083,245.971L863.94,245.71C863.764,246.816 865.115,246.878 865.709,247.055C865.786,247.514 865.838,247.915 865.981,248.278C866.161,247.985 866.543,247.644 866.871,247.295L867.046,248.536C866.869,248.582 866.775,248.574 866.667,248.71C866.688,248.823 866.909,248.864 867.103,248.857C867.169,249.186 867.198,249.437 867.347,249.672L868.271,249.541C868.369,249.398 868.335,249.309 868.286,248.957C868.237,248.606 868.265,248.522 867.937,248.398L867.826,247.6L868.479,247.509C868.851,247.942 868.94,247.86 868.992,247.853C869.045,247.846 869.177,247.955 869.416,247.363C869.987,247.789 870.646,248.108 871.486,248.264C871.098,249.474 872.5,250.053 873.303,249.998L873.464,251.147C873.612,251.245 873.701,251.211 874.053,251.162C874.37,251.118 874.408,251.207 874.609,250.656C876.25,251.441 877.176,253.092 879.273,252.742C879.609,253.671 880.663,253.963 881.545,254.456C881.576,254.628 881.425,254.858 881.186,255.009L881.313,255.914C883.533,256.06 881.788,257.542 883.671,257.277C884.024,257.228 884.265,256.907 884.618,256.857C885.727,256.702 885.984,258.538 886.075,258.848C886.388,259.11 886.99,259.14 887.778,259.577C887.82,259.185 887.745,258.661 887.528,258.048L888.327,257.935C888.534,258.213 888.915,258.66 889.571,258.475L889.675,259.216C889.738,259.566 889.418,259.342 889.468,259.694C889.591,260.574 894.705,264.012 895.961,264.515C896.404,265.28 897.289,266.046 898.261,266.168L898.618,268.706C899.022,268.766 899.403,269.172 899.705,269.532C900.063,269.338 900.26,268.896 900.576,268.549C900.641,268.696 900.462,269.529 901.087,269.385C901.227,269.807 901.307,270.373 901.376,270.75C902.275,270.693 902.522,272.003 902.748,272.573C903.025,272.658 903.274,272.616 903.606,272.588C904.187,275.157 906.143,276.027 907.868,277.645C908.584,279.136 909.489,280.391 910.785,281.098C912.905,283.864 915.241,287.259 917.556,289.352C917.65,289.607 917.712,290.038 917.797,290.431C918.944,291.182 920.235,291.671 921.506,292.074C922.227,292.663 922.865,293.144 923.622,293.677C923.643,294.82 924.691,294.792 925.172,295.481C925.19,296.631 926.1,297.455 926.734,298.087L927,299.976C926.302,300.564 926.503,300.861 926.5,301.649L925.721,301.759C925.204,301.411 923.936,301.302 923.578,300.825C922.854,299.268 921.431,298.694 919.983,297.734C920.058,296.753 918.889,296.602 918.182,296.338C917.97,295.691 917.777,295.609 917.486,295.342C915.985,295.13 913.353,295.029 912.882,293.353C912.475,293.289 911.928,293.37 911.365,293.388C910.974,293.048 910.628,292.661 910.321,292.332C909.41,292.503 907.447,292.093 907.353,290.823C905.551,290.511 904.808,289.919 903.858,290.052C903.84,290.055 903.459,289.943 903.249,290.557L902.61,290.648C901.777,289.609 899.896,289.895 898.686,289.187L896.407,289.507C896.358,289.312 896.329,289.1 895.977,289.15C895.624,289.199 895.635,289.286 895.601,289.557C895.336,289.686 894.337,289.36 894.455,290.21L893.804,290.301C893.396,289.857 893.22,289.968 892.938,290.008C892.585,290.057 891.941,290.578 891.589,290.628C890.481,290.784 888.595,289.756 887.468,289.915C886.923,289.992 886.86,289.826 886.641,290.88C886.355,290.932 885.345,290.644 885.441,291.472C885.252,291.519 885.023,291.367 884.873,291.133L881.979,291.54C881.88,291.684 881.883,291.84 881.553,292.027C881.471,291.691 881.163,291.48 881.012,291.243L878.41,291.608C878.331,291.878 878.071,292.048 877.958,292.537C877.811,292.523 876.808,291.844 876.333,291.911C876.333,291.911 876.137,291.846 875.934,292.382L873.312,292.75C873.203,292.118 872.687,292.02 872.672,291.372C872.531,291.275 872.654,291.278 872.302,291.328C871.862,291.39 871.695,292.633 871.725,292.964C870.25,293.393 871.193,293.782 870.084,293.938C869.732,293.987 868.577,293.431 868.225,293.48C867.873,293.53 867.791,293.973 867.439,294.021C867.228,294.052 867.025,294.118 866.842,293.661C866.746,293.688 866.705,293.91 866.712,294.108L865.215,294.318C864.721,293.535 864.804,293.531 864.011,293.642C863.976,293.646 863.615,293.551 863.403,294.148C863.226,294.183 863.134,293.889 863,293.779C862.769,293.835 861.543,294.85 861.385,294.872C860.856,294.947 860.904,294.987 860.649,294.529L858.096,294.887L857.895,293.45C857.746,293.352 857.587,293.395 857.235,293.446C857.2,293.45 856.835,293.336 856.625,293.946L855.973,294.037C855.892,293.599 855.338,292.85 854.934,292.907C854.423,292.98 854.184,293.45 854.169,293.868C853.577,293.701 853.725,293.508 853.233,293.578C853.197,293.583 852.833,293.467 852.624,294.084L849.595,294.51C849.309,294.185 848.973,294.176 848.808,294.178L848.705,293.453C848.122,293.151 847.066,293.342 847.266,292.492C847.13,292.403 847.041,292.437 846.689,292.487C846.372,292.531 846.337,292.46 846.151,292.977L844.232,293.246C844.185,293.054 844.192,292.96 844.057,292.85L842.224,293.108C841.689,292.662 841.364,292.444 840.536,292.471C840.314,291.814 840.082,291.764 839.829,291.431L837.295,291.787C837.011,291.481 836.782,291.365 836.375,291.476C836.326,291.029 835.128,289.66 834.318,289.773C834.283,289.779 833.918,289.664 833.709,290.283L833.087,290.37C831.817,289.865 831.775,288.354 829.962,288.788L829.882,288.214C828.941,288.158 828.488,287.989 827.588,287.923C826.851,286.907 825.272,287.483 825.267,286.001C822.496,287.037 822.612,283.017 820.108,283.868C818.602,282.441 817.139,281.21 815.332,280.45C813.682,278.734 811.431,276.736 809.019,275.763C809.233,274.731 807.693,275.02 807.913,274.042C807.776,273.954 807.547,274.007 807.227,274.04C805.924,272.112 803.702,271.115 802.461,269.241C801.325,268.713 800.17,267.474 799.677,266.462C799.528,266.353 799.298,266.407 798.967,266.434C798.839,265.938 798.383,265.551 798.261,265.394L796.078,265.702C795.998,265.969 795.599,266.138 795.649,266.489C795.714,266.947 796.207,267.272 796.607,267.249C796.518,267.619 796.28,267.909 796.329,268.26C796.427,268.964 797.044,269.145 796.968,269.791C797.232,269.864 797.481,269.821 797.797,269.785C798.166,270.188 798.283,270.926 798.402,271.592C798.64,271.679 798.815,271.939 799.241,272.083C799.444,273.059 800.356,274.443 800.406,274.795C800.456,275.146 800.134,274.905 800.184,275.257C800.328,276.278 801.305,275.357 801.836,276.185C802.699,278.35 804.411,280.296 804.852,282.748C805.09,282.834 805.233,283.091 805.566,283.064C805.876,284.468 806.718,285.304 807.633,286.396L807.89,288.22C808.031,288.32 808.145,288.287 808.266,288.324C809.484,290.999 810.334,293.802 812.259,295.795L812.574,298.036L813.173,300.258C813.311,300.357 813.399,300.324 813.6,300.317L813.862,302.171C814.012,302.27 814.1,302.236 814.3,302.228L814.896,306.476C815.047,306.576 815.135,306.542 815.336,306.535L815.813,309.938C815.964,310.037 816.053,310.003 816.246,309.996L817.783,320.939C817.596,320.986 817.501,320.979 817.385,321.115L817.645,322.971C817.45,323.017 817.357,323.01 817.242,323.146L817.501,324.995C816.69,325.295 817.326,326.227 817.277,326.827C816.908,327.344 816.994,328.339 816.909,329.322C816.609,329.703 816.628,329.935 816.67,330.235C816.72,330.587 816.737,330.768 816.887,331.004C817.13,330.96 817.185,330.686 817.402,330.496L817.507,331.248C817.614,331.843 816.813,332.575 816.679,333.126C816.579,334.713 815.309,335.897 815.2,337.606C814.744,338.066 814.225,338.901 814.402,339.795C813.26,339.869 813.779,341.206 813.361,341.882C813.299,342.168 812.952,342.376 812.808,343.123C812.383,343.361 811.979,343.87 811.906,344.813C809.88,347.467 807.822,350.198 805.697,352.891C804.917,353.419 803.741,354.295 803.302,355.235C802.321,355.797 801.183,356.542 800.408,357.23C800.162,357.341 799.794,357.461 799.196,357.834C799.023,357.913 797.881,357.75 798.161,358.379C797.334,358.708 796.004,358.925 795.616,359.531L787.37,360.689C787.321,360.495 787.328,360.4 787.194,360.294L784.985,360.604C784.739,360.642 783.96,360.474 783.572,360.115C782.363,360.149 782.498,360.004 781.279,359.915C780.891,359.578 780.423,359.349 780.126,358.991C779.913,359.159 779.923,359.452 779.581,359.472C779.726,358.167 778.26,358.357 777.489,358.441C776.431,357.586 774.416,358.204 773.978,356.384C773.571,356.32 773.032,356.4 772.424,356.471C771.636,354.748 770.311,353.903 769.057,352.843C768.579,351.402 766.998,349.994 765.441,349.823C765.483,348.777 764.767,348.886 764.393,348.309C764.332,346.863 763.424,345.422 762.689,344.591L762.314,341.922C762.173,341.821 762.084,341.855 761.883,341.863L761.523,339.305C761.374,339.205 761.286,339.239 761.082,339.246L760.813,337.331L760.166,334.757C760.018,334.658 759.929,334.69 759.735,334.697L758.752,327.697C758.939,327.65 759.033,327.659 759.14,327.523L758.763,324.84L758.677,322.108C759.013,321.528 758.934,320.967 758.916,320.56C759.845,318.19 760,315.386 760.261,312.757C762.255,306.869 763.093,300.113 766.427,294.9C766.596,293.973 767.272,293.193 767.235,292.047C768.062,291.674 768.648,290.716 768.686,289.871C769.741,289.146 770.057,287.66 770.505,286.456C772.896,283.491 774.706,280.338 776.41,277.284C776.529,277.221 776.832,277.175 777.078,277.15C777.157,276.882 777.114,276.623 777.12,276.347C777.595,275.792 778.074,275.158 778.466,274.555C779.89,273.611 780.638,272.467 781.559,270.955C782.58,270.641 782.673,269.911 783.308,269.134C784.913,267.988 786.064,266.404 787.52,265.632C787.63,265.483 787.598,265.394 787.548,265.042C787.484,264.585 784.878,262.725 784.345,262.383C784.143,261.251 782.831,260.947 782.066,260.417C781.649,259.801 780.885,259.354 780.276,258.941C780.035,258.437 779.923,258.052 779.578,258.011C779.157,257.962 778.827,257.652 778.475,257.702C778.123,257.752 778.062,257.848 778.027,258.123C777.629,258.252 777.073,258.328 776.567,258.516L776.655,259.142C776.925,259.22 777.369,259.171 777.558,259.384L776.401,259.546C776.272,259.965 776.446,260.548 775.946,260.872C775.718,260.959 775.288,261.021 775.05,261.07C775.066,262.444 773.761,264.179 772.371,264.619C771.656,265.533 770.813,266.651 770.165,267.713C769.091,267.834 768.113,268.779 767.377,268.869C767.317,269.273 767.396,269.813 767.453,270.439C766.531,270.234 766.24,271.208 766.034,271.864C764.97,272.816 764.012,274.435 762.602,274.706C762.533,275.45 762.312,275.284 762.203,276.065C761.84,275.972 761.338,275.714 761.181,275.347C760.793,275.618 760.851,276.511 760.775,277.34C759.293,278.34 758.667,280.5 756.547,280.771C755.219,283.146 755.352,284.501 752.642,284.882C752.079,284.962 750.998,284.974 750.543,284.453L749.797,284.684L749.992,286.071C750.378,286.062 750.778,286.007 751.251,285.884L751.375,286.768L750.239,286.928C750.144,287.326 750.462,287.63 749.88,287.711C749.528,287.76 749.51,287.58 749.377,287.347C748.394,288.126 749.273,289.297 748.424,289.871C747.041,290.103 746.43,291.782 745.733,292.738L745.105,292.826C744.674,292.341 744.414,292.5 744.38,292.506C743.482,292.631 743.467,293.646 743.168,294.188C742.561,294.48 742.273,294.959 742.005,295.222C741.342,295.372 740.671,295.755 740.009,295.832C739.967,296.373 740.046,296.92 740.111,297.536C739.572,297.632 738.959,297.988 738.313,298.081C738.252,298.487 738.311,298.887 738.359,299.36C737.947,299.458 736.78,299.351 736.909,300.288L735.066,300.547C734.976,300.875 734.157,302.27 733.417,302.374C733.066,302.424 733.378,302.092 733.025,302.132L731.893,302.292L732.11,303.831C731.022,303.986 731.094,304.871 730.316,305.197C728.96,305.118 728.969,306.303 728.654,307.056C728.48,307.089 728.25,306.937 728.12,306.706C727.903,306.925 727.512,307.365 727.468,308.003C727.133,308.408 726.78,308.875 726.51,309.376C726.129,309.121 725.662,308.766 724.946,308.446C724.863,308.582 724.916,308.81 725.16,310.693L724.447,310.842C724.116,311.408 723.77,312.036 723.355,312.626C722.988,312.811 722.065,312.953 721.911,313.543C721.517,313.668 720.943,313.748 720.556,313.792C720.477,314.06 720.539,314.451 720.585,314.927C720.398,314.974 720.184,314.838 720.048,314.723L718.991,314.871L719.151,315.998C718.159,315.823 717.485,316.626 717.334,317.401L715.503,317.658C715.296,318.926 713.389,320.41 713.336,320.418C713.143,320.445 712.497,319.982 712.267,319.693L711.663,319.777L711.899,321.461C711.554,321.529 711.524,321.822 711.171,321.87C710.82,321.92 711.043,321.601 710.691,321.645L709.621,321.795C709.561,322.191 709.642,322.739 709.656,323.284C709.269,323.719 708.541,324.181 708.303,324.706C707.988,324.759 707.857,324.347 707.506,324.396C706.942,324.474 705.803,326.205 705.806,326.558C705.705,326.649 705.47,326.78 705.423,327.066C704.71,326.995 704.628,327.593 704.477,328.113C704.018,328.189 703.459,328.268 702.922,328.373C702.693,328.645 702.476,329.1 702.181,329.532C700.912,330.095 700.129,331.929 698.227,331.724C698.155,331.989 698.197,332.238 698.223,332.573C698.035,332.62 697.833,332.72 697.84,332.913C697.652,332.96 697.58,332.806 697.452,332.698C696.724,332.999 696.284,333.582 696.182,334.447L694.556,334.677C694.101,334.182 693.951,334.343 693.898,334.35C693.23,334.444 692.752,335.447 693.121,335.989C692.207,336.644 691.015,337.349 690.141,337.98C689.767,338.089 689.2,338.169 688.822,338.24C688.815,339.312 687.276,339.589 686.576,339.673C686.515,340.077 686.574,340.476 686.623,340.948C685.859,341.186 685.793,341.807 685.193,341.891C684.842,341.94 684.769,341.787 684.648,341.68C684.276,341.925 683.321,342.537 683.808,343.346C682.517,343.542 682.087,344.441 681.55,345.212C680.629,345.564 680.162,346.188 679.422,346.293C679.07,346.342 679.171,346.041 678.82,346.09C678.626,346.117 678.28,346.849 678.328,347.276C676.754,348.188 675.541,348.575 674.635,349.829L674.006,349.917C673.615,349.462 673.545,349.559 673.493,349.567C673.211,349.606 672.851,350.106 672.877,350.3C672.853,351.242 672.431,351.003 672.173,351.758C671.817,351.661 671.313,351.405 671.144,351.039L670.2,351.172C669.849,351.227 670.2,351.698 670.174,351.954C669.98,352.195 669.794,352.511 669.921,352.92C669.052,352.845 668.814,353.948 668.447,354.238C668.072,354.349 667.504,354.429 667.113,354.512C666.418,355.669 665.185,356.148 664.074,356.865C663.703,356.974 663.129,357.055 662.733,357.104C662.633,357.247 662.685,357.475 662.712,357.81C661.925,357.941 661.74,358.514 661.547,358.849L659.434,359.145C659.235,359.58 658.996,360.064 658.596,360.417L656.763,360.676C656.71,360.685 655.949,360.504 655.861,360.517C655.438,360.577 655.057,360.534 654.706,361.064L654.811,361.817L656.068,361.641L656.125,362.041C655.938,362.086 655.737,362.186 655.744,362.379C655.413,362.447 655.093,362.204 654.742,362.254C654.389,362.304 653.865,362.664 653.482,362.704C653.421,363.109 653.481,363.508 653.527,363.983C653.375,364.026 652.566,364.13 652.835,364.432C651.726,364.835 649.65,364.622 649.227,366.018" style="fill:rgb(125,126,187);fill-rule:nonzero;"/>
            <path d="M286.889,313.994L233.305,321.876C234.705,346.392 247.138,357.772 260.447,357.772C270.953,357.772 278.834,351.818 284.612,342.363C287.064,338.159 287.59,337.286 289.69,337.286C290.743,337.286 293.192,337.809 293.192,341.489C293.192,346.042 285.489,372.131 258.171,372.131C247.665,372.131 233.479,367.931 225.599,351.818C221.045,343.062 219.995,333.083 219.995,324.852C219.995,312.243 222.448,303.137 225.949,296.657C227.875,292.98 236.808,277.222 258.347,277.222C286.013,277.222 291.966,301.21 291.966,308.391C291.966,313.293 288.99,313.643 286.889,313.994M233.305,313.293L275.157,306.816C274.106,295.607 266.401,287.202 256.42,287.202C242.234,287.202 235.055,298.06 233.305,313.293" style="fill:rgb(125,126,187);fill-rule:nonzero;"/>
        </g>
    </g>
</svg>
