<?xml version="1.0" encoding="UTF-8" standalone="no"?><!DOCTYPE svg PUBLIC "-//W3C//DTD SVG 1.1//EN" "http://www.w3.org/Graphics/SVG/1.1/DTD/svg11.dtd"><svg width="100%" height="100%" viewBox="0 0 150 150" version="1.1" xmlns="http://www.w3.org/2000/svg" xmlns:xlink="http://www.w3.org/1999/xlink" xml:space="preserve" xmlns:serif="http://www.serif.com/" style="fill-rule:evenodd;clip-rule:evenodd;stroke-linejoin:round;stroke-miterlimit:1.41421;"><g><path d="M49.045,19.559l-0.01,0c-7.479,0.002 -13.539,6.282 -13.537,14.028c0.003,7.744 6.068,14.021 13.546,14.018l0.011,0c4.853,0.023 9.347,-2.645 11.78,-6.996c2.433,-4.349 2.43,-9.714 -0.004,-14.063c-2.436,-4.347 -6.931,-7.013 -11.786,-6.986l0,-0.001Zm5.426,19.615c-1.435,1.492 -3.388,2.329 -5.421,2.326l-0.006,0c-4.222,-0.002 -7.648,-3.54 -7.662,-7.913c0.002,-4.378 3.431,-7.927 7.659,-7.924l0.005,0c4.224,0 7.652,3.538 7.664,7.913c0.006,2.101 -0.799,4.118 -2.239,5.598Z" style="fill:#5b629b;fill-rule:nonzero;"/><path d="M113.675,29.98l-4.203,0c-2.438,-2.121 -5.519,-3.282 -8.703,-3.28l-0.011,0c-7.478,0.003 -13.538,6.283 -13.536,14.027c0.003,7.744 6.068,14.02 13.547,14.018l0.009,0c4.928,-0.005 9.465,-2.773 11.858,-7.233l1.039,0c3.037,0.019 5.852,-1.648 7.376,-4.367c1.524,-2.72 1.524,-6.077 0,-8.797c-1.524,-2.721 -4.339,-4.387 -7.376,-4.368Zm-7.481,16.335c-1.435,1.493 -3.386,2.33 -5.42,2.325l-0.007,0c-4.222,0 -7.65,-3.539 -7.662,-7.912c0.002,-4.378 3.431,-7.925 7.658,-7.923l0.007,0c4.223,0 7.65,3.538 7.663,7.911c0.006,2.101 -0.8,4.118 -2.239,5.599Zm8.122,-4.994c0.008,-0.203 0.015,-0.404 0.015,-0.61c-0.002,-1.576 -0.26,-3.141 -0.767,-4.627l0.113,0c1.294,0 2.387,0.996 2.549,2.326c0.162,1.329 -0.656,2.577 -1.91,2.909l0,0.002Z" style="fill:#5b629b;fill-rule:nonzero;"/><path d="M148.884,43.059c-4.453,-22.855 -20.409,-37.623 -40.649,-37.623c-10.584,0 -22.032,4.213 -33.22,12.204c-11.341,-8.348 -22.586,-12.578 -33.448,-12.578c-20.358,0 -36.245,14.93 -40.475,38.024c-6.178,33.345 13.382,77.587 71.005,101.263c0.051,0.021 0.102,0.04 0.155,0.058c1.762,0.708 3.715,0.708 5.477,0c0.06,-0.019 0.118,-0.042 0.175,-0.067c26.417,-11.085 46.913,-27.335 59.269,-47.003c10.871,-17.3 15.032,-36.569 11.715,-54.258c-0.001,-0.005 -0.002,-0.014 -0.004,-0.02Zm-108.714,75.921l-1.71,-31.989c-0.087,-1.618 -1.38,-2.883 -2.943,-2.883l-0.003,0l-4.597,0.004l-0.008,-15.533c0.011,-6.396 5.018,-11.579 11.195,-11.584l14.033,-0.009l0.007,0c3.721,0.007 7.199,1.924 9.282,5.119c0.083,0.125 0.16,0.258 0.238,0.388c-1.325,3.437 -0.917,7.332 1.093,10.395c2.007,3.063 5.351,4.893 8.926,4.885l0.007,0c5.797,0.001 10.556,-4.748 10.769,-10.746c0.123,-0.111 0.246,-0.222 0.373,-0.328c1.978,-1.662 4.448,-2.567 6.995,-2.562l14.033,-0.009l0.007,0c6.173,0 11.183,5.172 11.203,11.564l0.006,11.963l-4.6,0.003c-1.563,0.001 -2.854,1.267 -2.941,2.883l-1.517,28.037c-5.544,4.447 -11.42,8.424 -17.577,11.899l-1.23,-16.587l0.151,0c1.628,0 2.948,-1.369 2.947,-3.055l-0.007,-12.687c-0.025,-9.662 -7.595,-17.481 -16.925,-17.484l-0.013,0l-3.396,0.011c-9.329,0.024 -16.884,7.848 -16.908,17.509l0.008,12.687c-0.003,1.184 0.662,2.263 1.7,2.759l-1.099,17.066c-6.13,-3.403 -11.983,-7.319 -17.499,-11.705c0,-0.004 0,-0.009 0,-0.011Zm35.512,-57.414l0.002,0c2.694,-0.001 4.882,2.255 4.891,5.047c-0.002,2.793 -2.19,5.055 -4.887,5.052l-0.003,0c-1.752,0.016 -3.378,-0.943 -4.258,-2.511c-0.881,-1.568 -0.882,-3.506 -0.001,-5.074c0.879,-1.57 2.503,-2.53 4.256,-2.515l0,0.001Zm10.265,61.052l0.811,10.925c-0.575,0.294 -1.153,0.587 -1.733,0.877l0.922,-11.802Zm-21.288,-8.703l0.105,0l1.784,21.348c-1.07,-0.507 -2.124,-1.022 -3.163,-1.547l1.274,-19.801Zm11.129,24.729c-0.256,0.088 -0.518,0.151 -0.784,0.19c-0.278,-0.036 -0.55,-0.1 -0.814,-0.194c-0.504,-0.207 -0.998,-0.419 -1.495,-0.63l-2.29,-27.412c-0.132,-1.578 -1.407,-2.79 -2.937,-2.79l-0.002,0l-4.505,0.003l-0.005,-9.634c0.025,-6.291 4.948,-11.382 11.023,-11.398l3.397,-0.011l0.007,0c6.077,0 11.006,5.092 11.025,11.383l0.005,9.634l-4.503,0.003c-1.535,0.001 -2.813,1.223 -2.935,2.808l-2.087,26.703c-1.026,0.455 -2.062,0.903 -3.102,1.345l0.002,0Zm56.444,-44.635c-4.512,7.091 -9.897,13.545 -16.018,19.196l1.051,-19.444l4.763,-0.003c1.626,-0.002 2.945,-1.367 2.945,-3.053l-0.008,-15.015c-0.024,-9.762 -7.672,-17.663 -17.098,-17.667l-0.012,0l-14.032,0.01c-3.181,0.009 -6.297,0.935 -8.998,2.674c-1.972,-3.262 -5.426,-5.242 -9.142,-5.244l-0.008,0c-2.226,0 -4.397,0.716 -6.211,2.05c-3.24,-4.186 -8.138,-6.626 -13.32,-6.632l-0.012,0l-14.032,0.011c-9.43,0.011 -17.074,7.925 -17.086,17.691l0.009,18.585c0,1.685 1.319,3.052 2.947,3.052l0.002,0l4.755,-0.003l1.254,23.445c-23.317,-21.625 -31.071,-48.005 -27.099,-69.431c1.831,-9.996 6.07,-18.372 12.259,-24.228c6.111,-5.781 13.867,-8.837 22.426,-8.837c10.119,0 20.772,4.266 31.661,12.679c1.034,0.798 2.45,0.807 3.494,0.023c10.729,-8.066 21.626,-12.327 31.512,-12.327c8.539,0 16.306,3.043 22.46,8.801c6.198,5.799 10.489,14.067 12.409,23.913c3.02,16.124 -0.842,33.792 -10.871,49.754Z" style="fill:#5b629b;fill-rule:nonzero;"/></g></svg>