<?xml version="1.0" encoding="UTF-8" standalone="no"?><!DOCTYPE svg PUBLIC "-//W3C//DTD SVG 1.1//EN" "http://www.w3.org/Graphics/SVG/1.1/DTD/svg11.dtd"><svg width="100%" height="100%" viewBox="0 0 150 150" version="1.1" xmlns="http://www.w3.org/2000/svg" xmlns:xlink="http://www.w3.org/1999/xlink" xml:space="preserve" xmlns:serif="http://www.serif.com/" style="fill-rule:evenodd;clip-rule:evenodd;stroke-linejoin:round;stroke-miterlimit:1.41421;"><path d="M147.162,36.468c-1.132,-0.901 -2.468,-1.27 -3.814,-1.074c-0.33,-0.031 -0.958,-0.658 -0.991,-0.94l0.262,-1.826c0.241,-1.671 -0.439,-3.494 -1.818,-4.871c-1.379,-1.379 -3.2,-2.067 -4.871,-1.821l-1.781,0.259c-0.33,-0.03 -0.957,-0.655 -0.99,-0.939l0.261,-1.826c0.242,-1.671 -0.439,-3.495 -1.818,-4.871c-1.379,-1.382 -3.197,-2.075 -4.871,-1.821l-1.78,0.259c-0.33,-0.031 -0.958,-0.655 -0.991,-0.94l0.262,-1.826c0.241,-1.671 -0.44,-3.494 -1.819,-4.871c-1.379,-1.381 -3.205,-2.064 -4.871,-1.821l-1.78,0.259c-0.33,-0.03 -0.957,-0.655 -0.99,-0.939l0.045,-0.32c0.196,-1.356 -0.162,-2.659 -1.038,-3.761c-1.412,-1.781 -3.83,-2.586 -5.62,-2.743c-2.306,-0.206 -4.442,0.518 -6.187,2.09c-1.971,1.775 -3.096,4.399 -3.507,5.887c-1.214,2.133 -7.868,14.572 -10.59,34.401l-4.051,-4.05c-4.442,-4.439 -11.365,-4.861 -16.322,-1.336l-0.13,-0.173l-1.506,1.509l-27.512,27.517c-4.949,4.949 -4.949,13.005 0,17.955l2.88,2.88c-7.72,0.828 -21.82,3.441 -33.535,11.733c-5.136,1.861 -7.99,5.338 -7.647,9.341c0.16,1.851 0.985,4.35 2.824,5.813c1.13,0.899 2.463,1.272 3.814,1.074c0.331,0.03 0.958,0.655 0.991,0.94l-0.262,1.826c-0.238,1.673 0.442,3.494 1.821,4.873c1.377,1.379 3.2,2.039 4.874,1.819l1.772,-0.262c0.331,0.03 0.96,0.658 0.993,0.942l-0.261,1.824c-0.239,1.671 0.439,3.492 1.818,4.871c1.377,1.381 3.205,2.047 4.876,1.823l1.773,-0.262c0.33,0.031 0.96,0.658 0.993,0.943l-0.262,1.823c-0.241,1.671 0.44,3.492 1.816,4.871c1.379,1.379 3.2,2.057 4.876,1.824l1.778,-0.262c0.33,0.03 0.957,0.655 0.99,0.94l-0.045,0.32c-0.196,1.358 0.165,2.661 1.038,3.763c1.412,1.778 3.828,2.583 5.618,2.741c0.257,0.023 0.508,0.035 0.759,0.035c1.989,0 3.833,-0.708 5.372,-2.072c2.072,-1.839 3.164,-4.488 3.563,-5.938c1.211,-2.131 7.865,-14.572 10.587,-34.407l3.698,3.698c2.476,2.476 5.727,3.713 8.978,3.713c3.253,0 6.504,-1.237 8.98,-3.713l0.043,-0.043l22.245,-22.245l5.226,-5.226c4.95,-4.95 4.95,-13.006 0,-17.955l-2.527,-2.527c7.718,-0.828 21.821,-3.441 33.539,-11.733c5.137,-1.854 7.989,-5.331 7.646,-9.339c-0.157,-1.851 -0.982,-4.35 -2.824,-5.813Zm-62.734,67.087l-32.616,-43.961l11.809,-11.812l3.172,-3.174l32.617,43.963l-14.982,14.984Zm-37.396,36.21l-0.335,0.566l-0.012,0.371c-0.252,0.861 -1.496,4.457 -4.358,4.277c-1.057,-0.094 -1.961,-0.612 -2.078,-0.727l0.046,-0.32c0.241,-1.671 -0.439,-3.494 -1.819,-4.871c-1.196,-1.198 -2.725,-1.866 -4.203,-1.866c-0.226,0 -0.449,0.018 -0.673,0.048l-1.775,0.262c-0.33,-0.031 -0.957,-0.658 -0.993,-0.943l0.262,-1.823c0.239,-1.671 -0.44,-3.492 -1.819,-4.871c-1.379,-1.379 -3.202,-2.055 -4.876,-1.823l-1.772,0.261c-0.33,-0.03 -0.96,-0.658 -0.993,-0.942l0.261,-1.823c0.239,-1.672 -0.439,-3.492 -1.818,-4.871c-1.379,-1.38 -3.197,-2.05 -4.876,-1.824l-1.775,0.262c-0.331,-0.031 -0.958,-0.658 -0.991,-0.94l0.262,-1.826c0.241,-1.671 -0.44,-3.492 -1.819,-4.871c-1.376,-1.384 -3.197,-2.06 -4.805,-1.811c-0.284,-0.137 -0.871,-1.115 -0.972,-2.303c-0.211,-2.441 3.728,-3.929 4.52,-4.203l0.437,-0.153l0.297,-0.216c13.455,-9.665 31.164,-11.126 35.593,-11.342l2.811,2.812c-0.287,0.15 -0.553,0.35 -0.774,0.614c-3.236,3.828 -5.42,3.904 -9.765,4.054c-1.552,0.053 -3.312,0.117 -5.343,0.37c-1.392,0.173 -2.38,1.443 -2.205,2.835c0.16,1.285 1.255,2.224 2.517,2.224c0.107,0 0.211,-0.007 0.317,-0.02c1.806,-0.226 3.373,-0.279 4.889,-0.333c1.963,-0.068 3.815,-0.157 5.646,-0.609c-4.429,5.899 -6.715,13.881 -5.75,21.594c0.16,1.285 1.255,2.225 2.517,2.225c0.107,0 0.211,-0.008 0.317,-0.02c1.392,-0.173 2.38,-1.443 2.205,-2.835c-1.148,-9.173 3.423,-19.133 10.628,-23.163c0.378,-0.214 0.653,-0.524 0.871,-0.866l2.778,2.778c-2.349,22.6 -10.491,36.52 -10.575,36.662Zm33.191,-32.007c-2.972,2.969 -7.804,2.971 -10.776,0l-6.557,-6.557l-14.882,-14.882l-6.075,-6.075c-2.969,-2.972 -2.969,-7.802 0,-10.773l6.245,-6.248l32.619,43.961l-0.574,0.574Zm27.514,-27.514l-4.696,4.696l-32.532,-43.85c1.298,-0.899 2.809,-1.363 4.33,-1.363c1.95,0 3.901,0.741 5.386,2.227l27.515,27.514c1.429,1.43 2.219,3.342 2.219,5.387c0,2.044 -0.79,3.959 -2.222,5.389Zm32.665,-33.328l-0.729,0.366c-13.455,9.671 -31.169,11.129 -35.595,11.344l-2.758,-2.758c0.33,-0.149 0.634,-0.373 0.886,-0.67c3.235,-3.83 5.417,-3.903 9.762,-4.053c1.554,-0.054 3.314,-0.115 5.346,-0.371c1.392,-0.173 2.38,-1.443 2.204,-2.834c-0.175,-1.392 -1.462,-2.362 -2.834,-2.205c-1.805,0.226 -3.375,0.28 -4.891,0.333c-1.963,0.066 -3.812,0.155 -5.643,0.61c4.429,-5.9 6.715,-13.882 5.75,-21.592c-0.173,-1.395 -1.466,-2.367 -2.835,-2.205c-1.391,0.173 -2.379,1.443 -2.204,2.834c1.145,9.174 -3.423,19.131 -10.628,23.164c-0.419,0.237 -0.706,0.59 -0.927,0.978l-2.885,-2.89c2.349,-22.6 10.491,-36.52 10.575,-36.662l0.345,-0.582l0.005,-0.365c0.264,-0.876 1.557,-4.493 4.353,-4.267c1.054,0.094 1.961,0.612 2.077,0.726l-0.045,0.32c-0.242,1.672 0.439,3.495 1.818,4.871c1.377,1.38 3.195,2.055 4.871,1.821l1.78,-0.259c0.331,0.031 0.958,0.656 0.991,0.94l-0.259,1.829c-0.241,1.671 0.439,3.494 1.818,4.871c1.379,1.381 3.2,2.062 4.871,1.82l1.78,-0.259c0.331,0.031 0.958,0.656 0.991,0.94l-0.262,1.826c-0.241,1.671 0.44,3.495 1.819,4.871c1.379,1.379 3.197,2.067 4.871,1.821l1.78,-0.259c0.33,0.03 0.957,0.655 0.99,0.94l-0.261,1.826c-0.239,1.673 0.442,3.494 1.821,4.873c1.379,1.377 3.207,2.052 4.805,1.803c0.284,0.137 0.871,1.113 0.97,2.304c0.211,2.445 -3.731,3.929 -4.523,4.2Z" style="fill:#5b629b;fill-rule:nonzero;"/></svg>