<?xml version="1.0" encoding="UTF-8" standalone="no"?><!DOCTYPE svg PUBLIC "-//W3C//DTD SVG 1.1//EN" "http://www.w3.org/Graphics/SVG/1.1/DTD/svg11.dtd"><svg width="100%" height="100%" viewBox="0 0 150 150" version="1.1" xmlns="http://www.w3.org/2000/svg" xmlns:xlink="http://www.w3.org/1999/xlink" xml:space="preserve" xmlns:serif="http://www.serif.com/" style="fill-rule:evenodd;clip-rule:evenodd;stroke-linecap:round;stroke-linejoin:round;stroke-miterlimit:1.5;"><g id="estres"><g><path d="M91.259,2.031l0.259,0.032l0.258,0.033l0.258,0.034l0.257,0.035l0.257,0.036l0.256,0.037l0.256,0.038l0.255,0.039l0.255,0.041l0.254,0.041l0.254,0.042l0.253,0.044l0.253,0.044l0.252,0.045l0.252,0.047l0.251,0.047l0.25,0.049l0.25,0.049l0.25,0.051l0.249,0.051l0.249,0.052l0.248,0.054l0.247,0.054l0.247,0.056l0.247,0.056l0.246,0.057l0.245,0.058l0.245,0.06l0.244,0.06l0.244,0.061l0.244,0.062l0.243,0.063l0.242,0.064l0.242,0.065l0.241,0.066l0.241,0.067l0.24,0.068l0.24,0.069l0.239,0.069l0.239,0.071l0.238,0.072l0.237,0.072l0.237,0.073l0.237,0.075l0.236,0.075l0.235,0.076l0.235,0.077l0.235,0.078l0.234,0.078l0.233,0.08l0.233,0.08l0.232,0.082l0.232,0.082l0.231,0.083l0.231,0.084l0.23,0.085l0.23,0.086l0.229,0.087l0.229,0.087l0.228,0.088l0.227,0.089l0.227,0.09l0.227,0.091l0.226,0.092l0.225,0.092l0.225,0.094l0.224,0.094l0.224,0.095l0.223,0.096l0.223,0.096l0.222,0.098l0.222,0.098l0.221,0.099l0.22,0.1l0.22,0.101l0.22,0.101l0.219,0.102l0.218,0.103l0.218,0.104l0.217,0.105l0.217,0.105l0.216,0.106l0.216,0.107l0.215,0.108l0.215,0.108l0.214,0.11l0.213,0.11l0.213,0.11l0.212,0.112l0.212,0.112l0.211,0.113l0.211,0.114l0.21,0.114l0.21,0.115l0.209,0.116l0.209,0.117l0.208,0.117l0.207,0.118l0.207,0.119l0.206,0.119l0.206,0.12l0.205,0.121l0.205,0.122l0.204,0.122l0.203,0.123l0.203,0.123l0.203,0.125l0.202,0.125l0.201,0.125l0.201,0.127l0.2,0.127l0.2,0.127l0.199,0.129l0.198,0.129l0.198,0.129l0.198,0.131l0.196,0.131l0.197,0.131l0.195,0.132l0.196,0.133l0.194,0.134l0.194,0.134l0.194,0.134l0.192,0.136l0.193,0.136l0.192,0.136l0.191,0.138l0.19,0.137l0.19,0.139l0.19,0.139l0.189,0.139l0.188,0.141l0.188,0.14l0.187,0.142l0.187,0.142l0.186,0.142l0.186,0.143l0.184,0.144l0.185,0.144l0.184,0.145l0.183,0.146l0.183,0.146l0.182,0.146l0.181,0.147l0.181,0.148l0.18,0.148l0.18,0.148l0.179,0.15l0.179,0.149l0.178,0.151l0.178,0.15l0.176,0.152l0.177,0.152l0.176,0.152l0.175,0.153l0.174,0.153l0.174,0.154l0.174,0.154l0.173,0.155l0.172,0.156l0.171,0.155l0.342,0.314l0.339,0.315l0.337,0.316l0.335,0.319l0.332,0.321l0.33,0.322l0.328,0.324l0.325,0.326l0.323,0.328l0.32,0.329l0.318,0.331l0.316,0.333l0.313,0.334l0.311,0.336l0.309,0.337l0.306,0.339l0.304,0.34l0.301,0.342l0.299,0.343l0.297,0.344l0.294,0.346l0.292,0.347l0.289,0.349l0.287,0.35l0.285,0.351l0.282,0.352l0.28,0.354l0.277,0.354l0.275,0.356l0.272,0.357l0.27,0.358l0.268,0.359l0.265,0.36l0.262,0.361l0.26,0.362l0.258,0.363l0.255,0.363l0.253,0.365l0.25,0.366l0.248,0.366l0.245,0.367l0.243,0.368l0.24,0.369l0.238,0.369l0.236,0.37l0.232,0.371l0.231,0.371l0.228,0.372l0.225,0.372l0.223,0.373l0.22,0.374l0.218,0.373l0.215,0.375l0.213,0.375l0.21,0.375l0.208,0.375l0.205,0.376l0.202,0.376l0.2,0.377l0.198,0.376l0.194,0.377l0.193,0.377l0.19,0.378l0.187,0.377l0.184,0.377l0.182,0.378l0.18,0.377l0.177,0.378l0.174,0.377l0.172,0.378l0.169,0.377l0.166,0.378l0.164,0.377l0.162,0.377l0.158,0.377l0.156,0.376l0.154,0.377l0.151,0.376l0.148,0.376l0.145,0.375l0.143,0.375l0.141,0.375l0.137,0.374l0.135,0.374l0.133,0.373l0.129,0.373l0.128,0.372l0.124,0.372l0.122,0.371l0.119,0.371l0.116,0.37l0.114,0.369l0.111,0.369l0.108,0.367l0.106,0.367l0.103,0.367l0.1,0.365l0.098,0.364l0.095,0.364l0.092,0.363l0.09,0.362l0.086,0.36l0.085,0.36l0.081,0.359l0.079,0.358l0.075,0.357l0.074,0.355l0.07,0.355l0.068,0.353l0.065,0.352l0.062,0.351l0.059,0.349l0.057,0.349l0.054,0.347l0.051,0.345l0.049,0.345l0.045,0.342l0.043,0.342l0.04,0.34l0.038,0.338l0.034,0.337l0.032,0.336l0.029,0.334l0.026,0.332l0.023,0.331l0.021,0.329l0.018,0.327l0.015,0.326l0.012,0.324l0.009,0.322l0.007,0.32l0.003,0.318l0.001,0.317l-0.002,0.315l-0.005,0.312l-0.007,0.311l-0.011,0.309l-0.013,0.307l-0.017,0.305l-0.019,0.303l-0.01,0.15l-0.012,0.15l-0.012,0.15l-0.012,0.149l-0.014,0.148l-0.014,0.148l-0.015,0.148l-0.016,0.147l-0.016,0.146l-0.017,0.146l-0.018,0.145l-0.018,0.144l-0.02,0.144l-0.019,0.144l-0.021,0.143l-0.022,0.142l-0.022,0.142l-0.022,0.141l-0.024,0.141l-0.024,0.14l-0.025,0.139l-0.026,0.139l-0.027,0.138l-0.027,0.138l-0.028,0.137l-0.028,0.136l-0.03,0.136l-0.03,0.135l-0.031,0.135l-0.031,0.133l-0.032,0.134l-0.033,0.132l-0.034,0.132l-0.035,0.132l-0.035,0.13l-0.036,0.13l-0.036,0.13l-0.038,0.129l-0.038,0.128l-0.039,0.127l-0.039,0.127l-0.041,0.126l-0.041,0.125l-0.042,0.125l-0.042,0.124l-0.043,0.124l-0.044,0.122l-0.045,0.122l-0.046,0.122l-0.046,0.12l-0.047,0.12l-0.047,0.119l-0.049,0.119l-0.049,0.118l-0.05,0.117l-0.051,0.116l-0.051,0.116l-0.052,0.114l-0.053,0.115l-0.054,0.113l-0.054,0.113l-0.055,0.112l-0.056,0.111l-0.057,0.11l-0.057,0.11l-0.058,0.109l-0.059,0.108l-0.06,0.107l-0.06,0.107l-0.061,0.106l0.037,0.198l0.037,0.197l0.035,0.197l0.035,0.196l0.034,0.195l0.032,0.194l0.032,0.194l0.031,0.192l0.03,0.193l0.029,0.191l0.028,0.191l0.027,0.189l0.026,0.19l0.026,0.188l0.024,0.188l0.023,0.187l0.023,0.186l0.022,0.185l0.02,0.185l0.02,0.184l0.019,0.183l0.018,0.183l0.017,0.182l0.016,0.181l0.015,0.18l0.015,0.18l0.013,0.178l0.013,0.179l0.011,0.177l0.011,0.177l0.01,0.176l0.009,0.175l0.008,0.175l0.007,0.174l0.006,0.173l0.005,0.172l0.005,0.172l0.003,0.171l0.003,0.17l0.002,0.17l0,0.169l0,0.168l-0.001,0.167l-0.002,0.167l-0.002,0.166l-0.004,0.166l-0.004,0.164l-0.006,0.164l-0.006,0.163l-0.007,0.163l-0.008,0.162l-0.009,0.161l-0.01,0.16l-0.011,0.16l-0.011,0.159l-0.013,0.159l-0.013,0.157l-0.014,0.157l-0.015,0.156l-0.016,0.156l-0.017,0.155l-0.018,0.154l-0.018,0.154l-0.02,0.152l-0.02,0.153l-0.021,0.151l-0.022,0.151l-0.023,0.15l-0.024,0.149l-0.025,0.149l-0.025,0.148l-0.026,0.147l-0.028,0.147l-0.028,0.146l-0.029,0.146l-0.029,0.144l-0.031,0.144l-0.031,0.143l-0.033,0.143l-0.033,0.142l-0.034,0.141l-0.035,0.141l-0.036,0.14l-0.036,0.139l-0.038,0.139l-0.038,0.138l-0.039,0.137l-0.04,0.137l-0.041,0.136l-0.041,0.135l-0.043,0.135l-0.043,0.134l-0.044,0.133l-0.045,0.133l-0.046,0.132l-0.047,0.131l-0.047,0.131l-0.049,0.13l-0.049,0.129l-0.05,0.129l-0.051,0.128l-0.051,0.127l-0.053,0.127l-0.053,0.126l-0.054,0.126l-0.055,0.125l-0.056,0.124l-0.057,0.124l-0.057,0.123l-0.058,0.122l-0.059,0.121l-0.06,0.121l-0.061,0.121l-0.061,0.12l-0.063,0.119l-0.063,0.118l-0.064,0.118l-0.065,0.117l-0.065,0.117l-0.067,0.116l-0.067,0.115l-0.068,0.114l-0.069,0.115l-0.069,0.113l-0.071,0.113l-0.071,0.112l-0.072,0.111l-0.073,0.111l-0.073,0.111l-0.075,0.109l-0.075,0.109l-0.076,0.109l-0.077,0.107l-0.077,0.108l-0.079,0.106l-0.079,0.106l-0.08,0.105l-0.081,0.105l-0.081,0.104l-0.082,0.104l-0.084,0.103l-0.083,0.102l-0.085,0.102l-0.086,0.101l-0.086,0.1l-0.087,0.1l-0.088,0.099l-0.088,0.099l-0.09,0.098l-0.09,0.097l-0.091,0.097l-0.092,0.096l-0.092,0.096l-0.093,0.095l-0.094,0.094l-0.095,0.094l-0.096,0.093l-0.096,0.093l-0.097,0.092l-0.098,0.091l-0.099,0.091l-0.099,0.091l-0.1,0.089l-0.101,0.089l-0.102,0.089l-0.102,0.088l-0.104,0.087l-0.104,0.087l-0.104,0.086l-0.106,0.086l-0.106,0.085l-0.107,0.084l-0.108,0.084l-0.108,0.083l-0.109,0.083l-0.11,0.082l-0.111,0.081l-0.112,0.081l-0.112,0.081l-0.113,0.08l-0.114,0.079l-0.114,0.078l-0.115,0.079l-0.116,0.077l-0.117,0.077l-0.117,0.076l-0.119,0.076l-0.119,0.076l-0.119,0.074l-0.121,0.074l-0.121,0.074l-0.122,0.073l-0.122,0.072l-0.123,0.072l-0.124,0.072l-0.125,0.07l-0.126,0.071l-0.126,0.069l-0.127,0.069l-0.128,0.069l-0.128,0.068l-0.129,0.067l-0.13,0.067l-0.13,0.067l-0.132,0.065l-0.132,0.066l-0.132,0.064l-0.134,0.065l-0.134,0.063l-0.135,0.063l-0.135,0.063l-0.137,0.062l-0.137,0.061l-0.137,0.061l-0.139,0.061l-0.139,0.059l-0.14,0.06l-0.14,0.059l-0.141,0.058l-0.142,0.058l-0.143,0.057l-0.143,0.056l-0.289,0.112l-0.292,0.11l-0.294,0.107l-0.297,0.105l-0.3,0.104l-0.303,0.101l-0.305,0.099l-0.308,0.097l-0.311,0.095l-0.314,0.093l-0.316,0.091l-0.319,0.089l-0.321,0.087l-0.325,0.085l-0.327,0.082l-0.33,0.081l-0.332,0.079l-0.163,0.001l-0.162,0l-0.162,-0.001l-0.162,-0.001l-0.162,-0.003l-0.162,-0.004l-0.161,-0.005l-0.161,-0.006l-0.161,-0.006l-0.161,-0.008l-0.16,-0.009l-0.161,-0.01l-0.16,-0.011l-0.16,-0.012l-0.159,-0.013l-0.16,-0.014l-0.16,-0.015l-0.159,-0.017l-0.159,-0.017l-0.159,-0.019l-0.159,-0.019l-0.159,-0.021l-0.159,-0.021l-0.158,-0.023l-0.159,-0.024l-0.158,-0.026l-0.159,-0.026l-0.158,-0.027l-0.158,-0.029l-0.158,-0.029l-0.158,-0.031l-0.158,-0.032l-0.158,-0.034l-0.158,-0.034l-0.158,-0.036l-0.157,-0.036l-0.158,-0.038l-0.158,-0.04l-0.158,-0.04l-0.157,-0.042l-0.158,-0.043l-0.158,-0.044l-0.158,-0.045l-0.157,-0.047l-0.158,-0.047l-0.158,-0.05l-0.158,-0.05l-0.158,-0.052l-0.158,-0.053l-0.158,-0.054l-0.158,-0.055l-0.158,-0.057l-0.159,-0.058l-0.158,-0.06l-0.158,-0.06l-0.159,-0.062l-0.159,-0.064l-0.158,-0.065l-0.159,-0.066l-0.159,-0.067l-0.159,-0.069l-0.16,-0.07l-0.159,-0.072l-0.16,-0.073l-0.159,-0.074l-0.16,-0.076l-0.16,-0.077l-0.161,-0.078l-0.16,-0.08l-0.161,-0.082l-0.16,-0.082l-0.161,-0.085l-0.162,-0.085l-0.161,-0.087l-0.162,-0.089l-0.162,-0.09l-0.162,-0.091l-0.162,-0.093l-0.163,-0.095l-0.163,-0.096l-0.163,-0.097l-0.163,-0.099l-0.164,-0.1l-0.164,-0.102l-0.164,-0.104l-0.164,-0.105l-0.165,-0.106l-0.165,-0.108l-0.166,-0.11l-0.165,-0.111l-0.167,-0.113l-0.166,-0.114l-0.167,-0.116l-0.167,-0.117l-0.167,-0.119l-0.168,-0.121l-0.168,-0.122l-0.169,-0.124l-0.169,-0.125l-0.169,-0.127l-0.17,-0.129l-0.17,-0.13l-0.17,-0.132l-0.171,-0.133l-0.171,-0.135l-0.172,-0.137l-0.172,-0.139l-0.173,-0.14l-0.173,-0.142l-0.173,-0.143l-0.174,-0.146l-0.175,-0.146l-0.175,-0.149l-0.175,-0.15l-0.176,-0.152l-0.176,-0.154l-0.177,-0.156l-0.177,-0.157l-0.178,-0.159l-0.178,-0.161l-0.179,-0.162l-0.179,-0.164l-0.18,-0.166l-0.181,-0.168l-0.181,-0.17l-0.181,-0.171l-0.182,-0.173l-0.183,-0.175l0,51l-14,0l-0.009,-0.589l-0.006,-0.584l-0.004,-0.579l-0.002,-0.574l0,-0.57l0.002,-0.564l0.002,-0.561l0.004,-0.555l0.008,-1.098l0.009,-1.079l0.004,-0.534l0.003,-0.529l0.002,-0.524l0,-0.521l-0.001,-0.517l-0.003,-0.512l-0.005,-0.509l-0.007,-0.504l-0.01,-0.501l-0.007,-0.248l-0.007,-0.248l-0.007,-0.247l-0.009,-0.246l-0.01,-0.245l-0.01,-0.244l-0.012,-0.244l-0.012,-0.242l-0.014,-0.241l-0.014,-0.241l-0.016,-0.239l-0.017,-0.239l-0.018,-0.238l-0.019,-0.237l-0.02,-0.236l-0.022,-0.235l-0.023,-0.235l-0.024,-0.233l-0.026,-0.233l-0.027,-0.232l-0.029,-0.231l-0.03,-0.23l-0.031,-0.229l-0.034,-0.229l-0.034,-0.227l-0.037,-0.227l-0.038,-0.227l-0.04,-0.225l-0.041,-0.225l-0.043,-0.224l-0.045,-0.223l-0.047,-0.222l-0.049,-0.222l-0.05,-0.22l-0.053,-0.221l-0.055,-0.219l-0.056,-0.219l-0.059,-0.218l-0.06,-0.217l-0.063,-0.216l-0.065,-0.216l-0.067,-0.215l-0.07,-0.215l-0.071,-0.214l-0.074,-0.213l-0.076,-0.212l-0.079,-0.212l-0.081,-0.211l-0.083,-0.211l-0.086,-0.21l-0.089,-0.209l-0.09,-0.209l-0.094,-0.208l-0.096,-0.208l-0.099,-0.206l-0.101,-0.207l-0.104,-0.205l-0.107,-0.205l-0.11,-0.205l-0.112,-0.204l-0.115,-0.203l-0.118,-0.203l-0.122,-0.203l-0.124,-0.201l-0.127,-0.202l-0.13,-0.2l-0.133,-0.201l-0.136,-0.199l-0.139,-0.199l-0.143,-0.199l-0.145,-0.198l-0.149,-0.198l-0.152,-0.197l-0.156,-0.197l-0.159,-0.196l-0.162,-0.196l-0.166,-0.196l-0.169,-0.195l-0.172,-0.194l-0.176,-0.194l-0.18,-0.194l-0.183,-0.193l-0.187,-0.193l-0.19,-0.192l-0.194,-0.192l-0.198,-0.192l-0.147,-0.066l-0.147,-0.064l-0.147,-0.063l-0.146,-0.063l-0.147,-0.061l-0.147,-0.06l-0.147,-0.06l-0.147,-0.058l-0.147,-0.058l-0.147,-0.056l-0.148,-0.056l-0.147,-0.055l-0.294,-0.108l-0.295,-0.104l-0.295,-0.103l-0.295,-0.099l-0.296,-0.097l-0.296,-0.096l-0.296,-0.093l-0.297,-0.092l-0.297,-0.09l-0.298,-0.09l-0.297,-0.088l-0.299,-0.088l-0.598,-0.174l-0.601,-0.174l-0.603,-0.176l-0.303,-0.089l-0.303,-0.09l-0.304,-0.091l-0.304,-0.093l-0.306,-0.095l-0.306,-0.097l-0.307,-0.099l-0.308,-0.101l-0.308,-0.104l-0.31,-0.107l-0.31,-0.11l-0.312,-0.113l-0.156,-0.058l-0.156,-0.058l-0.156,-0.06l-0.157,-0.061l-0.157,-0.062l-0.158,-0.062l-0.157,-0.064l-0.158,-0.065l-0.158,-0.066l-0.158,-0.067l-0.159,-0.069l-0.159,-0.069l-0.159,-0.071l-0.159,-0.072l-0.16,-0.073l-0.16,-0.074l-0.16,-0.076l-0.161,-0.077l-0.161,-0.079l-0.161,-0.08l-0.162,-0.081l-0.161,-0.083l-0.162,-0.085l-0.163,-0.086l-0.163,-0.087l-0.163,-0.089l-0.163,-0.091l-0.164,-0.092l-0.164,-0.094l-0.164,-0.096l-0.165,-0.097l-0.165,-0.099l-0.165,-0.101l-0.166,-0.103l-0.166,-0.104l-0.166,-0.107l-0.167,-0.108l-0.167,-0.11l-0.167,-0.112l-0.168,-0.115l-0.168,-0.116l-0.169,-0.118l-0.169,-0.12l-0.169,-0.122l-0.17,-0.125l-0.17,-0.126l-0.17,-0.129l-0.171,-0.131l-0.171,-0.133l-0.172,-0.135l-0.172,-0.138l-0.172,-0.14l-0.173,-0.142l-0.173,-0.145l-0.174,-0.147l-0.174,-0.149l-0.129,-0.072l-0.128,-0.074l-0.127,-0.074l-0.125,-0.076l-0.124,-0.077l-0.122,-0.079l-0.121,-0.079l-0.12,-0.081l-0.118,-0.082l-0.118,-0.084l-0.115,-0.084l-0.115,-0.086l-0.113,-0.087l-0.112,-0.088l-0.11,-0.09l-0.109,-0.09l-0.108,-0.092l-0.107,-0.093l-0.105,-0.094l-0.104,-0.096l-0.103,-0.096l-0.101,-0.098l-0.1,-0.099l-0.099,-0.1l-0.098,-0.101l-0.096,-0.102l-0.095,-0.104l-0.094,-0.105l-0.092,-0.105l-0.092,-0.107l-0.09,-0.108l-0.089,-0.11l-0.087,-0.11l-0.087,-0.112l-0.085,-0.112l-0.084,-0.114l-0.083,-0.115l-0.081,-0.116l-0.081,-0.117l-0.079,-0.118l-0.078,-0.119l-0.077,-0.12l-0.075,-0.122l-0.075,-0.122l-0.073,-0.124l-0.072,-0.124l-0.071,-0.126l-0.07,-0.127l-0.069,-0.128l-0.067,-0.128l-0.067,-0.13l-0.065,-0.131l-0.064,-0.132l-0.063,-0.133l-0.062,-0.134l-0.061,-0.135l-0.059,-0.136l-0.059,-0.138l-0.057,-0.138l-0.056,-0.139l-0.056,-0.14l-0.054,-0.141l-0.053,-0.142l-0.052,-0.143l-0.051,-0.144l-0.049,-0.146l-0.049,-0.146l-0.048,-0.147l-0.047,-0.148l-0.045,-0.149l-0.045,-0.15l-0.043,-0.15l-0.043,-0.152l-0.041,-0.153l-0.041,-0.154l-0.039,-0.154l-0.038,-0.156l-0.038,-0.157l-0.036,-0.157l-0.035,-0.158l-0.035,-0.16l-0.033,-0.16l-0.032,-0.161l-0.032,-0.162l-0.03,-0.163l-0.03,-0.164l-0.028,-0.165l-0.028,-0.165l-0.026,-0.167l-0.026,-0.167l-0.024,-0.168l-0.024,-0.169l-0.023,-0.17l-0.022,-0.171l-0.02,-0.172l-0.02,-0.172l-0.019,-0.174l-0.019,-0.174l-0.017,-0.175l-0.016,-0.176l-0.015,-0.176l-0.015,-0.178l-0.013,-0.178l-0.013,-0.18l-0.012,-0.18l-0.011,-0.18l-0.01,-0.182l-0.009,-0.182l-0.009,-0.183l-0.007,-0.184l-0.007,-0.185l-0.005,-0.186l-0.005,-0.186l-0.004,-0.187l-0.004,-0.188l-0.002,-0.189l-0.002,-0.189l0,-0.19l0,-0.191l0,-0.192l0.002,-0.192l0.003,-0.193l0.003,-0.194l0.004,-0.195l0.005,-0.195l0.005,-0.196l0.007,-0.197l0.007,-0.197l-19,0l-0.158,-0.017l-0.157,-0.019l-0.157,-0.021l-0.155,-0.021l-0.154,-0.024l-0.154,-0.025l-0.152,-0.026l-0.152,-0.028l-0.15,-0.03l-0.15,-0.031l-0.148,-0.032l-0.148,-0.034l-0.146,-0.036l-0.146,-0.037l-0.145,-0.038l-0.144,-0.041l-0.142,-0.041l-0.142,-0.043l-0.141,-0.045l-0.14,-0.046l-0.139,-0.048l-0.137,-0.05l-0.137,-0.051l-0.136,-0.052l-0.135,-0.054l-0.134,-0.056l-0.133,-0.057l-0.132,-0.058l-0.131,-0.061l-0.13,-0.061l-0.129,-0.064l-0.128,-0.064l-0.127,-0.067l-0.126,-0.068l-0.125,-0.069l-0.123,-0.071l-0.123,-0.073l-0.122,-0.074l-0.121,-0.076l-0.12,-0.077l-0.119,-0.079l-0.118,-0.081l-0.117,-0.082l-0.116,-0.083l-0.115,-0.086l-0.114,-0.086l-0.112,-0.089l-0.112,-0.09l-0.111,-0.091l-0.11,-0.093l-0.108,-0.095l-0.108,-0.096l-0.107,-0.098l-0.106,-0.099l-0.104,-0.101l-0.104,-0.103l-0.102,-0.104l-0.102,-0.106l-0.1,-0.107l-0.1,-0.109l-0.098,-0.111l-0.098,-0.112l-0.096,-0.114l-0.095,-0.115l-0.094,-0.117l-0.094,-0.119l-0.092,-0.12l-0.091,-0.122l-0.09,-0.123l-0.089,-0.125l-0.088,-0.127l-0.087,-0.128l-0.085,-0.13l-0.085,-0.131l-0.084,-0.133l-0.083,-0.135l-0.081,-0.136l-0.081,-0.138l-0.079,-0.14l-0.078,-0.141l-0.078,-0.143l-0.076,-0.145l-0.075,-0.146l-0.074,-0.147l-0.073,-0.15l-0.072,-0.151l-0.071,-0.152l-0.07,-0.155l-0.069,-0.155l-0.067,-0.158l-0.067,-0.159l-0.065,-0.161l-0.065,-0.163l-0.063,-0.164l-0.062,-0.165l-0.061,-0.168l-0.06,-0.169l-0.059,-0.171l-0.058,-0.172l-0.057,-0.174l-0.055,-0.176l-0.055,-0.177l-0.053,-0.179l-0.052,-0.181l-0.052,-0.182l-0.05,-0.184l-0.049,-0.186l-0.048,-0.187l-0.046,-0.189l-0.046,-0.191l-0.045,-0.192l-0.043,-0.194l-0.042,-0.196l-0.041,-0.197l-0.041,-0.199l-0.038,-0.201l-0.038,-0.202l-0.037,-0.204l-0.036,-0.206l-0.034,-0.208l-0.033,-0.209l-0.033,-0.211l-0.031,-0.212l-0.03,-0.214l-0.028,-0.216l-0.028,-0.218l-0.027,-0.219l-0.025,-0.221l-0.033,0.021l-0.089,0.056l-0.062,0.038l-0.072,0.041l-0.079,0.045l-0.086,0.046l-0.091,0.046l-0.047,0.023l-0.048,0.022l-0.048,0.021l-0.048,0.02l-0.048,0.02l-0.048,0.018l-0.048,0.016l-0.048,0.015l-0.046,0.014l-0.046,0.011l-0.045,0.009l-0.043,0.006l-0.042,0.005l-0.04,0.001l-0.084,0l-0.086,0.002l-0.089,0.003l-0.092,0.003l-0.095,0.004l-0.098,0.006l-0.203,0.013l-0.214,0.017l-0.224,0.019l-0.233,0.023l-0.243,0.026l-0.252,0.027l-0.261,0.031l-0.269,0.032l-0.278,0.034l-0.577,0.074l-0.606,0.078l-0.631,0.082l-0.654,0.083l-0.334,0.042l-0.34,0.042l-0.343,0.041l-0.348,0.041l-0.351,0.04l-0.355,0.039l-0.357,0.038l-0.361,0.037l-0.362,0.034l-0.365,0.033l-0.366,0.031l-0.367,0.029l-0.369,0.026l-0.368,0.024l-0.37,0.021l-0.184,0.009l-0.185,0.008l-0.184,0.008l-0.185,0.007l-0.184,0.006l-0.184,0.005l-0.183,0.004l-0.183,0.003l-0.183,0.002l-0.183,0.001l-0.182,0l-0.182,0l-0.181,-0.002l-0.18,-0.003l-0.18,-0.005l-0.179,-0.005l-0.179,-0.006l-0.178,-0.008l-0.177,-0.009l-0.176,-0.01l-0.175,-0.012l-0.175,-0.013l-0.173,-0.014l-0.173,-0.015l-0.171,-0.017l-0.17,-0.018l-0.17,-0.02l-0.168,-0.021l-0.167,-0.023l-0.165,-0.024l-0.165,-0.026l-0.163,-0.027l-0.161,-0.029l-0.16,-0.031l-0.159,-0.032l-0.157,-0.034l-0.156,-0.035l-0.154,-0.037l-0.153,-0.039l-0.15,-0.041l-0.15,-0.043l-0.147,-0.044l-0.145,-0.046l-0.144,-0.048l-0.142,-0.05l-0.14,-0.052l-0.138,-0.054l-0.136,-0.056l-0.134,-0.058l-0.131,-0.06l-0.13,-0.062l-0.127,-0.064l-0.126,-0.066l-0.123,-0.068l-0.06,-0.035l-0.06,-0.036l-0.06,-0.036l-0.059,-0.036l-0.058,-0.037l-0.058,-0.038l-0.057,-0.038l-0.056,-0.039l-0.128,-0.09l-0.126,-0.091l-0.126,-0.091l-0.124,-0.093l-0.123,-0.094l-0.121,-0.095l-0.121,-0.095l-0.119,-0.097l-0.119,-0.097l-0.117,-0.098l-0.116,-0.1l-0.114,-0.1l-0.114,-0.101l-0.112,-0.102l-0.111,-0.103l-0.11,-0.104l-0.109,-0.105l-0.108,-0.106l-0.107,-0.106l-0.105,-0.108l-0.104,-0.108l-0.103,-0.109l-0.102,-0.11l-0.101,-0.111l-0.1,-0.112l-0.098,-0.113l-0.098,-0.114l-0.096,-0.114l-0.095,-0.115l-0.094,-0.116l-0.093,-0.117l-0.091,-0.118l-0.091,-0.119l-0.089,-0.119l-0.089,-0.12l-0.087,-0.121l-0.086,-0.122l-0.085,-0.123l-0.083,-0.124l-0.083,-0.124l-0.081,-0.125l-0.081,-0.126l-0.079,-0.126l-0.078,-0.128l-0.077,-0.128l-0.076,-0.129l-0.075,-0.13l-0.074,-0.13l-0.072,-0.132l-0.072,-0.132l-0.07,-0.132l-0.07,-0.134l-0.068,-0.134l-0.067,-0.135l-0.066,-0.136l-0.065,-0.136l-0.064,-0.137l-0.062,-0.138l-0.062,-0.139l-0.06,-0.139l-0.06,-0.14l-0.058,-0.141l-0.058,-0.141l-0.056,-0.142l-0.055,-0.143l-0.054,-0.144l-0.053,-0.144l-0.052,-0.145l-0.051,-0.145l-0.049,-0.146l-0.049,-0.147l-0.048,-0.147l-0.046,-0.149l-0.046,-0.148l-0.044,-0.15l-0.043,-0.15l-0.043,-0.15l-0.041,-0.152l-0.04,-0.152l-0.039,-0.152l-0.038,-0.153l-0.037,-0.154l-0.036,-0.154l-0.035,-0.155l-0.034,-0.156l-0.033,-0.156l-0.032,-0.157l-0.03,-0.157l-0.03,-0.158l-0.029,-0.158l-0.027,-0.159l-0.027,-0.16l-0.025,-0.16l-0.025,-0.161l-0.023,-0.161l-0.023,-0.162l-0.021,-0.162l-0.021,-0.163l-0.019,-0.164l-0.019,-0.164l-0.017,-0.164l-0.016,-0.165l-0.016,-0.166l-0.014,-0.166l-0.013,-0.166l-0.013,-0.167l-0.011,-0.168l-0.01,-0.168l-0.009,-0.168l-0.009,-0.169l-0.007,-0.17l-0.006,-0.17l-0.006,-0.17l-0.004,-0.171l-0.003,-0.172l-0.002,-0.171l-0.002,-0.173l0,-0.172l0.001,-0.174l0.001,-0.173l0.003,-0.174l0.004,-0.175l0.004,-0.175l0.006,-0.175l0.006,-0.176l0.008,-0.176l0.008,-0.176l0.01,-0.177l0.01,-0.178l0.012,-0.177l0.012,-0.178l0.014,-0.179l0.014,-0.179l0.015,-0.179l0.016,-0.18l0.018,-0.18l0.018,-0.18l0.019,-0.181l0.02,-0.181l0.021,-0.182l0.022,-0.181l0.023,-0.182l0.024,-0.183l0.025,-0.183l0.025,-0.183l0.027,-0.183l0.028,-0.184l0.028,-0.184l0.03,-0.185l0.03,-0.184l0.032,-0.185l0.032,-0.186l0.033,-0.185l0.034,-0.186l0.036,-0.186l0.036,-0.187l0.036,-0.186l0.038,-0.187l0.039,-0.188l0.04,-0.187l0.04,-0.188l0.042,-0.188l0.042,-0.188l0.044,-0.189l0.044,-0.188l0.045,-0.189l0.046,-0.189l0.047,-0.19l0.048,-0.19l0.049,-0.189l0.05,-0.19l0.05,-0.191l0.052,-0.19l0.052,-0.191l0.053,-0.191l0.055,-0.191l0.055,-0.191l0.056,-0.191l0.056,-0.192l0.058,-0.192l0.059,-0.192l0.059,-0.192l0.06,-0.192l0.062,-0.193l0.062,-0.192l0.063,-0.193l0.064,-0.193l0.064,-0.193l0.066,-0.193l0.066,-0.193l0.068,-0.193l0.068,-0.194l0.069,-0.193l0.07,-0.194l0.071,-0.194l0.071,-0.194l0.073,-0.194l0.073,-0.194l0.074,-0.194l0.075,-0.194l0.076,-0.194l0.077,-0.195l0.077,-0.194l0.079,-0.195l0.079,-0.194l0.08,-0.195l0.081,-0.195l0.082,-0.194l0.082,-0.195l0.084,-0.195l0.169,-0.39l0.173,-0.389l0.175,-0.39l0.18,-0.39l0.182,-0.39l0.186,-0.39l0.189,-0.389l0.192,-0.39l0.195,-0.389l0.199,-0.39l0.202,-0.388l0.205,-0.389l0.208,-0.389l0.211,-0.388l0.215,-0.387l0.217,-0.388l0.221,-0.386l0.224,-0.387l0.226,-0.386l0.23,-0.385l0.233,-0.385l0.236,-0.384l0.239,-0.383l0.242,-0.383l0.245,-0.382l0.248,-0.381l0.251,-0.38l0.254,-0.38l0.256,-0.379l0.26,-0.377l0.263,-0.377l0.265,-0.376l0.269,-0.375l0.271,-0.373l0.274,-0.373l0.277,-0.372l0.28,-0.37l0.283,-0.369l0.285,-0.368l0.288,-0.367l0.291,-0.365l0.147,-0.182l0.147,-0.182l0.148,-0.182l0.149,-0.181l0.149,-0.181l0.15,-0.18l0.15,-0.18l0.152,-0.18l0.152,-0.179l0.153,-0.179l0.153,-0.179l0.154,-0.178l0.155,-0.178l0.155,-0.177l0.156,-0.177l0.157,-0.176l0.157,-0.177l0.158,-0.175l0.159,-0.176l0.159,-0.175l0.16,-0.174l0.161,-0.174l0.161,-0.174l0.162,-0.173l0.163,-0.173l0.163,-0.172l0.164,-0.172l0.164,-0.172l0.165,-0.171l0.166,-0.17l0.167,-0.17l0.167,-0.17l0.167,-0.169l0.169,-0.168l0.169,-0.168l0.169,-0.168l0.171,-0.167l0.171,-0.167l0.171,-0.166l0.172,-0.165l0.173,-0.165l0.173,-0.165l0.174,-0.164l0.175,-0.163l0.175,-0.163l0.176,-0.163l0.177,-0.162l0.177,-0.161l0.177,-0.161l0.179,-0.16l0.178,-0.16l0.18,-0.159l0.18,-0.158l0.181,-0.158l0.181,-0.158l0.182,-0.156l0.182,-0.157l0.183,-0.155l0.184,-0.155l0.184,-0.155l0.185,-0.153l0.186,-0.154l0.186,-0.152l0.186,-0.152l0.187,-0.152l0.188,-0.15l0.188,-0.15l0.189,-0.15l0.19,-0.149l0.19,-0.148l0.191,-0.147l0.191,-0.147l0.192,-0.146l0.192,-0.146l0.193,-0.145l0.193,-0.144l0.194,-0.144l0.195,-0.142l0.195,-0.143l0.196,-0.141l0.196,-0.141l0.197,-0.14l0.197,-0.139l0.198,-0.139l0.198,-0.138l0.199,-0.137l0.2,-0.137l0.2,-0.136l0.2,-0.135l0.202,-0.134l0.201,-0.134l0.203,-0.132l0.202,-0.133l0.204,-0.131l0.203,-0.13l0.205,-0.13l0.205,-0.129l0.205,-0.129l0.206,-0.127l0.206,-0.127l0.207,-0.126l0.208,-0.125l0.208,-0.124l0.208,-0.124l0.209,-0.123l0.21,-0.122l0.21,-0.121l0.21,-0.12l0.211,-0.12l0.212,-0.118l0.212,-0.118l0.213,-0.117l0.213,-0.117l0.213,-0.115l0.214,-0.114l0.215,-0.114l0.215,-0.113l0.215,-0.112l0.216,-0.111l0.217,-0.11l0.217,-0.109l0.217,-0.109l0.218,-0.107l0.219,-0.107l0.219,-0.106l0.219,-0.105l0.22,-0.104l0.22,-0.103l0.221,-0.102l0.221,-0.101l0.222,-0.101l0.222,-0.099l0.223,-0.099l0.223,-0.097l0.224,-0.097l0.224,-0.095l0.224,-0.095l0.225,-0.094l0.226,-0.093l0.225,-0.092l0.227,-0.091l0.227,-0.09l0.227,-0.089l0.228,-0.088l0.228,-0.087l0.228,-0.086l0.229,-0.085l0.23,-0.084l0.23,-0.083l0.23,-0.082l0.231,-0.081l0.231,-0.08l0.231,-0.079l0.232,-0.078l0.233,-0.077l0.233,-0.076l0.233,-0.075l0.234,-0.074l0.234,-0.072l0.235,-0.072l0.235,-0.071l0.235,-0.07l0.236,-0.068l0.236,-0.068l0.237,-0.066l0.237,-0.065l0.237,-0.065l0.238,-0.063l0.238,-0.062l0.239,-0.061l0.239,-0.06l0.24,-0.059l0.239,-0.058l0.241,-0.056l0.24,-0.056l0.241,-0.054l0.242,-0.053l0.242,-0.053l0.242,-0.051l0.243,-0.049l0.242,-0.049l0.244,-0.048l0.244,-0.046l0.244,-0.045l0.244,-0.044l0.245,-0.043l0.245,-0.042l0.246,-0.041l0.246,-0.039l0.246,-0.038l0.247,-0.037l0.247,-0.036l0.247,-0.035l0.248,-0.033l0.248,-0.033l0.249,-0.031l0.249,-0.029l0.249,-0.029l0.25,-0.027l0.25,-0.027l0.25,-0.025l0.25,-0.023l0.251,-0.023l0.252,-0.021l0.251,-0.02l0.252,-0.019l0.253,-0.017l0.252,-0.016l0.253,-0.015l0.254,-0.014l0.253,-0.012l0.254,-0.011l0.255,-0.01l0.254,-0.008l0.255,-0.008l0.256,-0.005l0.255,-0.005l0.256,-0.003l0.256,-0.002l0.257,-0.001l31,0l0.259,0.031Zm-31.256,1.969l-0.249,0.001l-0.246,0.002l-0.246,0.003l-0.245,0.004l-0.245,0.006l-0.245,0.007l-0.245,0.008l-0.244,0.009l-0.243,0.011l-0.244,0.012l-0.243,0.013l-0.243,0.014l-0.243,0.016l-0.242,0.016l-0.242,0.018l-0.241,0.019l-0.241,0.021l-0.241,0.021l-0.241,0.023l-0.24,0.024l-0.24,0.025l-0.24,0.026l-0.239,0.028l-0.239,0.029l-0.239,0.029l-0.238,0.031l-0.238,0.032l-0.238,0.034l-0.237,0.034l-0.237,0.036l-0.237,0.036l-0.236,0.038l-0.236,0.039l-0.235,0.04l-0.236,0.042l-0.234,0.042l-0.235,0.044l-0.234,0.044l-0.234,0.046l-0.234,0.047l-0.233,0.048l-0.233,0.049l-0.232,0.05l-0.232,0.051l-0.232,0.052l-0.231,0.054l-0.231,0.054l-0.231,0.055l-0.23,0.057l-0.23,0.058l-0.23,0.058l-0.229,0.06l-0.229,0.061l-0.228,0.062l-0.228,0.063l-0.228,0.064l-0.227,0.065l-0.227,0.066l-0.227,0.067l-0.226,0.068l-0.226,0.069l-0.225,0.07l-0.225,0.071l-0.225,0.072l-0.224,0.073l-0.224,0.074l-0.223,0.075l-0.223,0.077l-0.223,0.077l-0.222,0.078l-0.222,0.079l-0.222,0.08l-0.221,0.081l-0.22,0.082l-0.221,0.083l-0.22,0.083l-0.219,0.085l-0.219,0.086l-0.219,0.087l-0.218,0.087l-0.218,0.089l-0.217,0.09l-0.217,0.09l-0.217,0.091l-0.216,0.093l-0.216,0.093l-0.215,0.094l-0.215,0.095l-0.214,0.096l-0.214,0.097l-0.214,0.098l-0.213,0.098l-0.213,0.1l-0.212,0.1l-0.212,0.102l-0.211,0.102l-0.211,0.103l-0.211,0.104l-0.21,0.105l-0.21,0.105l-0.209,0.107l-0.208,0.107l-0.209,0.108l-0.208,0.109l-0.207,0.11l-0.207,0.111l-0.206,0.111l-0.206,0.113l-0.206,0.113l-0.205,0.114l-0.205,0.115l-0.204,0.115l-0.203,0.117l-0.204,0.117l-0.202,0.118l-0.202,0.119l-0.202,0.119l-0.201,0.121l-0.201,0.121l-0.201,0.122l-0.199,0.122l-0.2,0.124l-0.199,0.124l-0.198,0.125l-0.198,0.126l-0.197,0.126l-0.197,0.127l-0.197,0.128l-0.195,0.129l-0.196,0.129l-0.195,0.13l-0.194,0.131l-0.194,0.132l-0.193,0.132l-0.193,0.133l-0.192,0.134l-0.192,0.134l-0.192,0.135l-0.19,0.136l-0.191,0.137l-0.189,0.137l-0.19,0.138l-0.188,0.138l-0.188,0.14l-0.188,0.139l-0.187,0.141l-0.187,0.141l-0.186,0.142l-0.185,0.142l-0.185,0.144l-0.185,0.143l-0.183,0.145l-0.184,0.145l-0.183,0.146l-0.182,0.146l-0.181,0.147l-0.182,0.147l-0.18,0.148l-0.18,0.149l-0.18,0.149l-0.179,0.15l-0.178,0.151l-0.178,0.151l-0.177,0.152l-0.176,0.152l-0.177,0.153l-0.175,0.153l-0.175,0.154l-0.174,0.155l-0.174,0.155l-0.173,0.156l-0.173,0.156l-0.172,0.156l-0.171,0.158l-0.171,0.158l-0.171,0.158l-0.169,0.159l-0.169,0.159l-0.169,0.16l-0.168,0.161l-0.167,0.16l-0.167,0.162l-0.166,0.162l-0.165,0.162l-0.165,0.163l-0.164,0.164l-0.164,0.163l-0.163,0.165l-0.163,0.165l-0.161,0.165l-0.162,0.166l-0.16,0.166l-0.16,0.166l-0.16,0.168l-0.158,0.167l-0.158,0.168l-0.158,0.169l-0.157,0.168l-0.156,0.17l-0.156,0.169l-0.154,0.171l-0.155,0.17l-0.153,0.171l-0.153,0.171l-0.153,0.172l-0.152,0.172l-0.151,0.173l-0.15,0.173l-0.15,0.173l-0.149,0.174l-0.149,0.174l-0.147,0.174l-0.148,0.175l-0.146,0.175l-0.146,0.175l-0.145,0.176l-0.145,0.176l-0.144,0.177l-0.143,0.177l-0.141,0.176l-0.284,0.356l-0.281,0.357l-0.277,0.358l-0.275,0.359l-0.272,0.36l-0.27,0.361l-0.266,0.363l-0.264,0.363l-0.261,0.364l-0.258,0.366l-0.255,0.366l-0.253,0.367l-0.25,0.368l-0.246,0.369l-0.244,0.37l-0.241,0.37l-0.238,0.371l-0.235,0.372l-0.232,0.373l-0.229,0.373l-0.227,0.373l-0.223,0.374l-0.22,0.375l-0.217,0.375l-0.214,0.375l-0.211,0.376l-0.208,0.376l-0.205,0.377l-0.202,0.377l-0.199,0.376l-0.195,0.378l-0.193,0.377l-0.189,0.377l-0.187,0.377l-0.183,0.378l-0.179,0.377l-0.177,0.378l-0.173,0.377l-0.171,0.377l-0.167,0.377l-0.164,0.378l-0.08,0.187l-0.08,0.188l-0.079,0.188l-0.078,0.188l-0.077,0.188l-0.077,0.188l-0.075,0.188l-0.075,0.188l-0.074,0.187l-0.074,0.188l-0.072,0.187l-0.071,0.188l-0.071,0.187l-0.07,0.187l-0.069,0.187l-0.068,0.186l-0.068,0.187l-0.066,0.187l-0.066,0.186l-0.065,0.186l-0.064,0.186l-0.063,0.186l-0.062,0.186l-0.061,0.185l-0.061,0.185l-0.06,0.186l-0.058,0.185l-0.058,0.184l-0.058,0.185l-0.056,0.184l-0.055,0.184l-0.055,0.184l-0.054,0.184l-0.052,0.184l-0.052,0.183l-0.051,0.183l-0.051,0.183l-0.049,0.182l-0.048,0.182l-0.048,0.182l-0.047,0.182l-0.045,0.182l-0.045,0.181l-0.045,0.181l-0.043,0.181l-0.042,0.18l-0.041,0.18l-0.041,0.18l-0.04,0.179l-0.038,0.18l-0.038,0.178l-0.037,0.179l-0.036,0.178l-0.036,0.178l-0.034,0.178l-0.033,0.177l-0.033,0.177l-0.032,0.177l-0.03,0.176l-0.03,0.176l-0.029,0.175l-0.028,0.175l-0.027,0.175l-0.026,0.174l-0.026,0.174l-0.024,0.174l-0.024,0.173l-0.022,0.173l-0.022,0.173l-0.021,0.172l-0.02,0.171l-0.019,0.171l-0.018,0.171l-0.017,0.171l-0.016,0.169l-0.015,0.17l-0.015,0.169l-0.013,0.168l-0.013,0.169l-0.012,0.167l-0.01,0.167l-0.01,0.167l-0.009,0.166l-0.008,0.166l-0.007,0.166l-0.006,0.164l-0.006,0.165l-0.004,0.164l-0.003,0.163l-0.003,0.163l-0.001,0.162l-0.001,0.162l0,0.161l0.002,0.161l0.002,0.16l0.003,0.16l0.004,0.159l0.005,0.158l0.005,0.158l0.007,0.158l0.008,0.157l0.008,0.156l0.01,0.156l0.01,0.155l0.012,0.155l0.012,0.154l0.013,0.153l0.015,0.153l0.015,0.152l0.016,0.152l0.017,0.151l0.017,0.15l0.019,0.15l0.02,0.149l0.021,0.149l0.021,0.148l0.023,0.147l0.023,0.147l0.024,0.146l0.026,0.145l0.026,0.145l0.027,0.144l0.028,0.144l0.029,0.143l0.03,0.142l0.031,0.141l0.031,0.141l0.033,0.14l0.034,0.139l0.034,0.139l0.035,0.138l0.037,0.138l0.037,0.136l0.038,0.136l0.039,0.136l0.04,0.134l0.041,0.134l0.042,0.134l0.043,0.132l0.044,0.132l0.044,0.131l0.046,0.13l0.046,0.13l0.048,0.129l0.048,0.128l0.049,0.128l0.05,0.126l0.051,0.127l0.052,0.125l0.053,0.124l0.054,0.124l0.055,0.123l0.055,0.123l0.057,0.121l0.058,0.121l0.058,0.121l0.059,0.119l0.061,0.119l0.061,0.118l0.062,0.117l0.063,0.116l0.064,0.116l0.065,0.115l0.066,0.114l0.067,0.114l0.067,0.112l0.069,0.112l0.07,0.111l0.07,0.111l0.072,0.11l0.072,0.109l0.073,0.108l0.075,0.107l0.075,0.107l0.076,0.106l0.077,0.105l0.079,0.104l0.079,0.104l0.08,0.103l0.081,0.102l0.082,0.101l0.083,0.101l0.084,0.1l0.085,0.099l0.086,0.098l0.087,0.098l0.088,0.097l0.089,0.096l0.09,0.095l0.091,0.095l0.091,0.093l0.093,0.093l0.094,0.093l0.096,0.091l0.096,0.091l0.097,0.09l0.098,0.089l0.099,0.088l0.1,0.088l0.102,0.087l0.102,0.086l0.103,0.085l0.105,0.085l0.106,0.083l0.106,0.083l0.108,0.082l0.109,0.082l0.11,0.08l0.111,0.08l0.111,0.078l0.038,0.026l0.038,0.025l0.038,0.025l0.039,0.025l0.04,0.025l0.04,0.024l0.041,0.025l0.037,0.021l0.091,0.05l0.089,0.047l0.091,0.046l0.095,0.045l0.097,0.045l0.1,0.043l0.103,0.042l0.106,0.042l0.108,0.04l0.112,0.039l0.114,0.038l0.116,0.037l0.119,0.036l0.122,0.035l0.124,0.033l0.126,0.033l0.129,0.031l0.131,0.03l0.134,0.028l0.135,0.028l0.138,0.026l0.14,0.025l0.141,0.024l0.144,0.022l0.146,0.022l0.147,0.02l0.149,0.018l0.151,0.018l0.153,0.016l0.154,0.015l0.156,0.014l0.157,0.013l0.158,0.012l0.16,0.01l0.162,0.01l0.162,0.008l0.164,0.007l0.165,0.006l0.166,0.005l0.167,0.004l0.168,0.003l0.169,0.002l0.17,0l0.171,0l0.171,-0.001l0.172,-0.002l0.173,-0.003l0.174,-0.004l0.174,-0.004l0.175,-0.006l0.175,-0.007l0.175,-0.007l0.176,-0.008l0.174,-0.009l0.356,-0.02l0.353,-0.022l0.355,-0.025l0.354,-0.028l0.354,-0.03l0.353,-0.032l0.352,-0.034l0.351,-0.035l0.349,-0.037l0.346,-0.038l0.344,-0.039l0.341,-0.041l0.339,-0.04l0.334,-0.041l0.33,-0.042l0.65,-0.083l0.629,-0.082l0.609,-0.078l0.583,-0.074l0.284,-0.035l0.277,-0.034l0.269,-0.031l0.264,-0.029l0.256,-0.027l0.25,-0.024l0.243,-0.021l0.236,-0.019l0.226,-0.015l0.117,-0.006l0.111,-0.005l0.111,-0.004l0.089,-0.003l0.048,-0.024l0.049,-0.026l0.048,-0.027l0.045,-0.026l0.034,-0.021l0.059,-0.037l0.017,-0.011l0.298,-0.16l0.321,-0.108l0.335,-0.052l0.339,0.005l0.333,0.062l0.317,0.118l0.294,0.169l0.26,0.217l0.22,0.257l0.174,0.291l0.122,0.316l0.067,0.332l0.025,0.215l0.025,0.207l0.026,0.205l0.027,0.204l0.028,0.202l0.029,0.2l0.031,0.198l0.031,0.196l0.032,0.195l0.034,0.192l0.034,0.191l0.035,0.189l0.036,0.187l0.038,0.185l0.038,0.184l0.039,0.181l0.041,0.18l0.041,0.178l0.042,0.176l0.043,0.174l0.044,0.172l0.045,0.171l0.046,0.169l0.047,0.167l0.048,0.165l0.048,0.163l0.05,0.162l0.051,0.159l0.051,0.158l0.052,0.156l0.054,0.154l0.054,0.153l0.055,0.151l0.056,0.148l0.056,0.147l0.058,0.146l0.058,0.143l0.059,0.142l0.06,0.14l0.061,0.138l0.062,0.136l0.063,0.135l0.063,0.133l0.064,0.131l0.065,0.13l0.066,0.127l0.066,0.126l0.067,0.124l0.068,0.123l0.069,0.121l0.07,0.119l0.07,0.118l0.071,0.115l0.072,0.114l0.072,0.113l0.074,0.111l0.074,0.109l0.074,0.108l0.076,0.106l0.076,0.104l0.077,0.103l0.077,0.101l0.079,0.1l0.079,0.098l0.079,0.096l0.081,0.095l0.081,0.094l0.082,0.092l0.083,0.09l0.083,0.089l0.084,0.088l0.085,0.086l0.085,0.085l0.086,0.083l0.087,0.082l0.088,0.08l0.088,0.079l0.09,0.078l0.09,0.076l0.09,0.075l0.092,0.074l0.092,0.072l0.093,0.071l0.094,0.069l0.095,0.069l0.095,0.067l0.096,0.066l0.098,0.064l0.098,0.063l0.098,0.062l0.1,0.061l0.101,0.059l0.101,0.058l0.102,0.057l0.104,0.056l0.104,0.054l0.105,0.054l0.106,0.052l0.107,0.051l0.108,0.049l0.109,0.049l0.11,0.047l0.111,0.046l0.112,0.045l0.112,0.043l0.114,0.043l0.115,0.041l0.116,0.04l0.117,0.038l0.118,0.038l0.12,0.036l0.12,0.035l0.121,0.034l0.123,0.033l0.123,0.031l0.125,0.031l0.125,0.029l0.127,0.027l0.128,0.027l0.129,0.025l0.13,0.024l0.131,0.023l0.133,0.021l0.133,0.021l0.135,0.019l0.136,0.017l0.137,0.017l0.039,0.004l18.891,0l0.32,0.026l0.312,0.076l0.295,0.126l0.272,0.171l0.241,0.213l0.203,0.248l0.162,0.278l0.114,0.3l0.066,0.314l0.014,0.321l-0.007,0.193l-0.007,0.189l-0.005,0.189l-0.005,0.187l-0.003,0.187l-0.004,0.186l-0.002,0.184l-0.002,0.185l0,0.183l0,0.182l0,0.182l0.002,0.18l0.002,0.18l0.003,0.179l0.004,0.178l0.005,0.177l0.005,0.176l0.007,0.175l0.007,0.174l0.007,0.174l0.009,0.172l0.01,0.172l0.01,0.171l0.011,0.169l0.012,0.169l0.013,0.168l0.014,0.166l0.014,0.166l0.015,0.165l0.016,0.164l0.017,0.163l0.018,0.162l0.019,0.161l0.019,0.16l0.02,0.158l0.021,0.158l0.022,0.157l0.023,0.156l0.024,0.155l0.024,0.154l0.026,0.152l0.026,0.152l0.027,0.151l0.028,0.149l0.029,0.149l0.029,0.147l0.031,0.147l0.031,0.145l0.032,0.144l0.033,0.143l0.034,0.142l0.035,0.141l0.036,0.14l0.036,0.139l0.038,0.138l0.038,0.136l0.039,0.136l0.04,0.134l0.04,0.133l0.042,0.132l0.043,0.131l0.043,0.13l0.044,0.129l0.045,0.127l0.046,0.127l0.047,0.125l0.047,0.124l0.049,0.123l0.049,0.122l0.051,0.121l0.051,0.12l0.051,0.118l0.053,0.118l0.054,0.116l0.054,0.115l0.056,0.114l0.056,0.113l0.057,0.111l0.058,0.111l0.059,0.109l0.059,0.109l0.061,0.107l0.061,0.106l0.063,0.105l0.063,0.104l0.064,0.103l0.065,0.101l0.065,0.101l0.067,0.099l0.068,0.099l0.068,0.097l0.07,0.096l0.07,0.095l0.071,0.094l0.072,0.093l0.073,0.092l0.074,0.091l0.075,0.09l0.076,0.089l0.076,0.087l0.078,0.087l0.079,0.086l0.08,0.085l0.08,0.083l0.082,0.083l0.083,0.082l0.083,0.08l0.085,0.08l0.086,0.079l0.087,0.077l0.088,0.077l0.089,0.076l0.09,0.075l0.091,0.073l0.092,0.073l0.094,0.072l0.094,0.071l0.096,0.07l0.097,0.069l0.098,0.068l0.1,0.067l0.1,0.067l0.102,0.065l0.103,0.064l0.105,0.063l0.106,0.063l0.107,0.061l0.118,0.066l0.17,0.107l0.159,0.123l0.169,0.145l0.163,0.138l0.162,0.135l0.162,0.134l0.162,0.131l0.161,0.129l0.161,0.127l0.16,0.124l0.159,0.122l0.16,0.12l0.158,0.119l0.159,0.116l0.157,0.114l0.158,0.112l0.157,0.11l0.156,0.108l0.156,0.106l0.156,0.104l0.155,0.102l0.155,0.101l0.155,0.099l0.154,0.097l0.154,0.095l0.153,0.094l0.153,0.092l0.153,0.09l0.153,0.089l0.152,0.087l0.152,0.086l0.151,0.084l0.151,0.082l0.151,0.082l0.151,0.079l0.151,0.079l0.15,0.077l0.15,0.075l0.15,0.075l0.149,0.073l0.15,0.072l0.149,0.07l0.149,0.07l0.149,0.068l0.148,0.067l0.149,0.066l0.148,0.065l0.148,0.064l0.149,0.062l0.148,0.062l0.148,0.061l0.147,0.06l0.148,0.059l0.148,0.058l0.148,0.057l0.147,0.056l0.148,0.056l0.145,0.054l0.297,0.108l0.295,0.104l0.295,0.102l0.295,0.099l0.295,0.098l0.296,0.095l0.296,0.093l0.296,0.092l0.296,0.091l0.297,0.089l0.298,0.088l0.297,0.088l0.599,0.174l0.6,0.174l0.602,0.176l0.304,0.089l0.303,0.09l0.305,0.091l0.305,0.093l0.306,0.095l0.307,0.097l0.308,0.099l0.309,0.101l0.309,0.105l0.311,0.107l0.311,0.111l0.31,0.113l0.158,0.059l0.157,0.06l0.156,0.06l0.157,0.061l0.158,0.063l0.157,0.063l0.157,0.065l0.158,0.066l0.158,0.067l0.158,0.068l0.158,0.069l0.153,0.069l0.207,0.107l0.193,0.13l0.177,0.152l0.205,0.199l0.209,0.207l0.206,0.208l0.201,0.208l0.198,0.209l0.195,0.21l0.191,0.211l0.187,0.211l0.184,0.212l0.18,0.212l0.177,0.214l0.173,0.214l0.17,0.215l0.166,0.215l0.163,0.217l0.16,0.217l0.156,0.218l0.153,0.218l0.149,0.219l0.147,0.22l0.142,0.221l0.14,0.221l0.137,0.222l0.133,0.223l0.13,0.223l0.127,0.224l0.124,0.225l0.12,0.225l0.118,0.226l0.115,0.227l0.111,0.227l0.109,0.228l0.106,0.228l0.103,0.229l0.1,0.229l0.097,0.23l0.094,0.231l0.092,0.231l0.088,0.232l0.087,0.232l0.083,0.233l0.081,0.233l0.078,0.234l0.076,0.234l0.073,0.235l0.071,0.235l0.068,0.236l0.066,0.236l0.064,0.236l0.061,0.237l0.059,0.238l0.057,0.238l0.055,0.238l0.052,0.239l0.051,0.239l0.048,0.24l0.046,0.24l0.045,0.241l0.042,0.241l0.041,0.241l0.039,0.242l0.037,0.243l0.035,0.243l0.033,0.243l0.032,0.244l0.03,0.244l0.029,0.245l0.027,0.245l0.026,0.246l0.024,0.246l0.023,0.247l0.021,0.247l0.02,0.248l0.019,0.248l0.018,0.249l0.016,0.249l0.015,0.25l0.014,0.251l0.013,0.251l0.012,0.251l0.011,0.253l0.009,0.252l0.009,0.254l0.008,0.254l0.008,0.254l0.006,0.257l0.01,0.511l0.008,0.515l0.005,0.517l0.003,0.521l0.001,0.523l0,0.526l-0.002,0.53l-0.003,0.532l-0.004,0.536l-0.009,1.08l-0.008,1.096l-0.004,0.552l-0.002,0.556l-0.002,0.561l0,0.563l0.001,0.33l10.02,0l0,-49l0.028,-0.332l0.082,-0.323l0.135,-0.304l0.184,-0.278l0.227,-0.244l0.264,-0.203l0.295,-0.155l0.316,-0.105l0.329,-0.051l0.333,0.004l0.328,0.06l0.313,0.113l0.29,0.164l0.259,0.21l0.18,0.172l0.177,0.168l0.176,0.166l0.176,0.165l0.175,0.163l0.174,0.16l0.174,0.159l0.173,0.157l0.172,0.156l0.172,0.153l0.171,0.152l0.171,0.15l0.17,0.149l0.169,0.146l0.169,0.145l0.168,0.143l0.168,0.141l0.167,0.14l0.167,0.137l0.166,0.136l0.165,0.135l0.165,0.132l0.164,0.131l0.164,0.13l0.163,0.127l0.163,0.126l0.162,0.125l0.162,0.122l0.161,0.121l0.161,0.119l0.16,0.118l0.16,0.116l0.159,0.115l0.159,0.112l0.159,0.112l0.157,0.109l0.158,0.108l0.157,0.107l0.156,0.105l0.156,0.103l0.156,0.102l0.155,0.1l0.155,0.099l0.154,0.097l0.154,0.096l0.154,0.094l0.153,0.093l0.153,0.091l0.152,0.09l0.152,0.088l0.152,0.087l0.151,0.085l0.151,0.084l0.15,0.082l0.15,0.081l0.15,0.08l0.15,0.078l0.149,0.077l0.149,0.076l0.148,0.074l0.149,0.072l0.148,0.072l0.147,0.07l0.148,0.068l0.147,0.067l0.147,0.066l0.147,0.065l0.146,0.063l0.146,0.062l0.146,0.061l0.146,0.06l0.146,0.058l0.145,0.057l0.145,0.055l0.146,0.055l0.144,0.053l0.145,0.052l0.145,0.051l0.144,0.049l0.145,0.049l0.144,0.047l0.144,0.046l0.144,0.045l0.144,0.043l0.144,0.043l0.144,0.041l0.143,0.04l0.144,0.039l0.144,0.038l0.143,0.037l0.144,0.036l0.144,0.034l0.143,0.034l0.144,0.032l0.144,0.032l0.144,0.03l0.144,0.029l0.144,0.028l0.144,0.027l0.144,0.026l0.144,0.025l0.144,0.024l0.145,0.023l0.144,0.022l0.145,0.021l0.145,0.02l0.145,0.019l0.145,0.018l0.146,0.016l0.145,0.016l0.146,0.015l0.146,0.014l0.146,0.013l0.147,0.012l0.147,0.011l0.146,0.01l0.148,0.009l0.147,0.008l0.148,0.008l0.148,0.006l0.149,0.005l0.149,0.005l0.149,0.003l0.149,0.003l0.15,0.002l0.15,0l0.082,0l0.103,-0.024l0.315,-0.077l0.312,-0.079l0.309,-0.081l0.306,-0.083l0.304,-0.084l0.3,-0.087l0.298,-0.088l0.294,-0.09l0.292,-0.092l0.288,-0.094l0.286,-0.095l0.283,-0.098l0.28,-0.099l0.277,-0.101l0.273,-0.103l0.273,-0.105l0.132,-0.053l0.134,-0.053l0.133,-0.054l0.132,-0.054l0.131,-0.055l0.13,-0.056l0.13,-0.056l0.129,-0.056l0.128,-0.057l0.128,-0.057l0.127,-0.057l0.126,-0.058l0.125,-0.059l0.124,-0.059l0.124,-0.06l0.123,-0.059l0.122,-0.061l0.121,-0.061l0.121,-0.061l0.12,-0.062l0.119,-0.062l0.118,-0.063l0.118,-0.063l0.117,-0.064l0.116,-0.064l0.115,-0.064l0.115,-0.065l0.113,-0.065l0.113,-0.066l0.113,-0.067l0.111,-0.067l0.111,-0.067l0.11,-0.068l0.109,-0.068l0.109,-0.068l0.107,-0.069l0.107,-0.07l0.106,-0.07l0.106,-0.071l0.104,-0.07l0.104,-0.072l0.103,-0.072l0.103,-0.072l0.102,-0.073l0.1,-0.073l0.101,-0.074l0.099,-0.074l0.099,-0.075l0.097,-0.075l0.097,-0.075l0.097,-0.076l0.095,-0.077l0.095,-0.077l0.094,-0.077l0.094,-0.078l0.092,-0.078l0.092,-0.079l0.092,-0.08l0.09,-0.08l0.09,-0.08l0.088,-0.08l0.089,-0.082l0.087,-0.081l0.087,-0.083l0.086,-0.082l0.085,-0.083l0.085,-0.084l0.083,-0.084l0.083,-0.085l0.083,-0.085l0.081,-0.086l0.081,-0.086l0.08,-0.086l0.08,-0.087l0.079,-0.088l0.078,-0.088l0.077,-0.089l0.076,-0.089l0.076,-0.089l0.075,-0.091l0.075,-0.09l0.073,-0.091l0.073,-0.092l0.072,-0.092l0.072,-0.093l0.071,-0.093l0.07,-0.094l0.069,-0.094l0.069,-0.095l0.068,-0.096l0.067,-0.096l0.067,-0.096l0.066,-0.097l0.065,-0.098l0.064,-0.098l0.064,-0.099l0.063,-0.099l0.062,-0.1l0.062,-0.1l0.061,-0.101l0.06,-0.102l0.06,-0.102l0.058,-0.103l0.059,-0.103l0.057,-0.104l0.057,-0.104l0.056,-0.105l0.055,-0.106l0.055,-0.106l0.054,-0.107l0.053,-0.108l0.052,-0.108l0.052,-0.109l0.051,-0.109l0.051,-0.11l0.049,-0.111l0.049,-0.111l0.048,-0.112l0.048,-0.112l0.047,-0.114l0.046,-0.113l0.045,-0.115l0.045,-0.115l0.044,-0.116l0.043,-0.116l0.043,-0.117l0.042,-0.118l0.041,-0.118l0.04,-0.12l0.04,-0.119l0.039,-0.121l0.038,-0.121l0.038,-0.122l0.036,-0.122l0.036,-0.124l0.036,-0.124l0.034,-0.124l0.034,-0.125l0.033,-0.126l0.033,-0.127l0.031,-0.128l0.031,-0.128l0.03,-0.128l0.03,-0.13l0.028,-0.13l0.028,-0.131l0.027,-0.132l0.026,-0.133l0.026,-0.133l0.025,-0.134l0.024,-0.134l0.023,-0.136l0.023,-0.136l0.022,-0.137l0.021,-0.137l0.02,-0.139l0.019,-0.139l0.019,-0.14l0.018,-0.141l0.017,-0.141l0.016,-0.142l0.016,-0.143l0.014,-0.144l0.014,-0.144l0.013,-0.145l0.013,-0.146l0.011,-0.147l0.011,-0.147l0.01,-0.149l0.009,-0.148l0.008,-0.15l0.008,-0.151l0.007,-0.151l0.005,-0.152l0.005,-0.153l0.005,-0.154l0.003,-0.154l0.003,-0.155l0.001,-0.156l0.001,-0.157l0,-0.158l0,-0.158l-0.002,-0.159l-0.002,-0.16l-0.004,-0.161l-0.004,-0.161l-0.005,-0.163l-0.006,-0.163l-0.006,-0.164l-0.008,-0.164l-0.008,-0.166l-0.01,-0.166l-0.01,-0.167l-0.011,-0.168l-0.012,-0.169l-0.012,-0.169l-0.014,-0.17l-0.014,-0.171l-0.016,-0.172l-0.016,-0.173l-0.017,-0.173l-0.018,-0.175l-0.019,-0.175l-0.019,-0.176l-0.021,-0.176l-0.022,-0.178l-0.022,-0.178l-0.023,-0.179l-0.024,-0.18l-0.025,-0.181l-0.026,-0.181l-0.027,-0.182l-0.028,-0.184l-0.029,-0.184l-0.029,-0.184l-0.031,-0.186l-0.031,-0.186l-0.032,-0.187l-0.034,-0.188l-0.034,-0.189l-0.035,-0.19l-0.036,-0.194l-0.033,-0.282l0.007,-0.283l0.048,-0.28l0.087,-0.27l0.124,-0.255l0.057,-0.099l0.052,-0.092l0.051,-0.093l0.051,-0.093l0.05,-0.095l0.05,-0.095l0.049,-0.096l0.049,-0.097l0.048,-0.098l0.048,-0.098l0.046,-0.099l0.047,-0.1l0.046,-0.101l0.045,-0.102l0.044,-0.102l0.044,-0.103l0.044,-0.104l0.042,-0.105l0.043,-0.105l0.041,-0.106l0.041,-0.107l0.041,-0.108l0.039,-0.109l0.04,-0.109l0.038,-0.11l0.038,-0.111l0.038,-0.112l0.036,-0.112l0.037,-0.113l0.035,-0.114l0.035,-0.114l0.034,-0.116l0.034,-0.116l0.033,-0.117l0.033,-0.117l0.032,-0.118l0.031,-0.119l0.03,-0.12l0.03,-0.12l0.03,-0.121l0.028,-0.122l0.028,-0.123l0.028,-0.123l0.027,-0.124l0.026,-0.124l0.025,-0.126l0.025,-0.126l0.025,-0.126l0.023,-0.128l0.023,-0.128l0.022,-0.129l0.022,-0.129l0.021,-0.13l0.021,-0.131l0.019,-0.131l0.019,-0.132l0.019,-0.133l0.018,-0.133l0.017,-0.134l0.016,-0.134l0.016,-0.136l0.015,-0.135l0.015,-0.137l0.014,-0.137l0.013,-0.138l0.012,-0.138l0.012,-0.139l0.011,-0.139l0.011,-0.14l0.01,-0.139l0.018,-0.285l0.015,-0.286l0.012,-0.287l0.01,-0.291l0.008,-0.292l0.004,-0.294l0.002,-0.297l-0.001,-0.299l-0.003,-0.3l-0.006,-0.303l-0.009,-0.305l-0.012,-0.307l-0.014,-0.309l-0.017,-0.311l-0.019,-0.312l-0.022,-0.315l-0.025,-0.316l-0.028,-0.318l-0.03,-0.32l-0.033,-0.322l-0.036,-0.323l-0.038,-0.325l-0.041,-0.327l-0.044,-0.328l-0.046,-0.33l-0.049,-0.331l-0.052,-0.333l-0.055,-0.334l-0.057,-0.336l-0.059,-0.337l-0.063,-0.339l-0.065,-0.339l-0.068,-0.341l-0.07,-0.343l-0.073,-0.343l-0.076,-0.345l-0.079,-0.346l-0.081,-0.347l-0.083,-0.348l-0.087,-0.35l-0.089,-0.35l-0.092,-0.351l-0.094,-0.353l-0.097,-0.353l-0.099,-0.354l-0.103,-0.355l-0.105,-0.356l-0.107,-0.357l-0.11,-0.358l-0.113,-0.358l-0.116,-0.359l-0.118,-0.36l-0.12,-0.36l-0.123,-0.361l-0.126,-0.362l-0.129,-0.362l-0.131,-0.363l-0.133,-0.363l-0.137,-0.364l-0.138,-0.364l-0.142,-0.365l-0.144,-0.365l-0.146,-0.365l-0.149,-0.366l-0.152,-0.366l-0.154,-0.367l-0.157,-0.366l-0.16,-0.367l-0.162,-0.367l-0.164,-0.367l-0.167,-0.367l-0.17,-0.368l-0.172,-0.367l-0.175,-0.368l-0.177,-0.367l-0.179,-0.367l-0.183,-0.368l-0.184,-0.367l-0.188,-0.367l-0.189,-0.367l-0.193,-0.367l-0.194,-0.366l-0.198,-0.367l-0.199,-0.366l-0.203,-0.366l-0.204,-0.365l-0.208,-0.365l-0.209,-0.365l-0.212,-0.364l-0.215,-0.364l-0.217,-0.363l-0.22,-0.363l-0.222,-0.362l-0.224,-0.362l-0.227,-0.361l-0.229,-0.361l-0.232,-0.36l-0.234,-0.359l-0.237,-0.358l-0.239,-0.358l-0.241,-0.357l-0.244,-0.356l-0.246,-0.356l-0.249,-0.354l-0.251,-0.354l-0.254,-0.352l-0.255,-0.352l-0.259,-0.351l-0.26,-0.35l-0.263,-0.348l-0.266,-0.348l-0.267,-0.347l-0.27,-0.345l-0.273,-0.344l-0.275,-0.343l-0.277,-0.342l-0.279,-0.341l-0.282,-0.339l-0.284,-0.339l-0.287,-0.336l-0.289,-0.336l-0.291,-0.334l-0.293,-0.333l-0.296,-0.331l-0.298,-0.33l-0.3,-0.328l-0.303,-0.327l-0.305,-0.325l-0.307,-0.323l-0.31,-0.322l-0.311,-0.321l-0.314,-0.318l-0.317,-0.317l-0.318,-0.316l-0.321,-0.313l-0.323,-0.312l-0.326,-0.31l-0.327,-0.308l-0.33,-0.307l-0.333,-0.305l-0.166,-0.15l-0.167,-0.151l-0.168,-0.151l-0.169,-0.15l-0.169,-0.149l-0.17,-0.149l-0.17,-0.149l-0.171,-0.148l-0.171,-0.148l-0.172,-0.147l-0.172,-0.146l-0.173,-0.146l-0.174,-0.145l-0.174,-0.145l-0.175,-0.145l-0.175,-0.144l-0.175,-0.143l-0.177,-0.143l-0.176,-0.142l-0.178,-0.142l-0.178,-0.141l-0.178,-0.141l-0.179,-0.14l-0.18,-0.139l-0.18,-0.139l-0.181,-0.138l-0.181,-0.138l-0.181,-0.137l-0.183,-0.137l-0.182,-0.136l-0.184,-0.136l-0.184,-0.134l-0.184,-0.135l-0.185,-0.133l-0.186,-0.134l-0.186,-0.132l-0.186,-0.132l-0.187,-0.131l-0.188,-0.131l-0.188,-0.13l-0.189,-0.13l-0.189,-0.128l-0.19,-0.129l-0.19,-0.127l-0.191,-0.127l-0.192,-0.126l-0.191,-0.126l-0.193,-0.125l-0.193,-0.125l-0.193,-0.123l-0.194,-0.123l-0.195,-0.123l-0.195,-0.122l-0.196,-0.121l-0.196,-0.12l-0.197,-0.12l-0.197,-0.119l-0.198,-0.119l-0.198,-0.117l-0.199,-0.117l-0.199,-0.117l-0.2,-0.116l-0.2,-0.115l-0.201,-0.114l-0.202,-0.114l-0.202,-0.112l-0.202,-0.113l-0.203,-0.111l-0.204,-0.111l-0.204,-0.11l-0.204,-0.109l-0.205,-0.109l-0.206,-0.108l-0.206,-0.107l-0.207,-0.107l-0.207,-0.105l-0.208,-0.105l-0.208,-0.105l-0.209,-0.103l-0.209,-0.103l-0.21,-0.102l-0.21,-0.101l-0.211,-0.1l-0.211,-0.1l-0.212,-0.099l-0.212,-0.098l-0.213,-0.098l-0.213,-0.096l-0.214,-0.096l-0.215,-0.095l-0.215,-0.094l-0.215,-0.094l-0.216,-0.093l-0.217,-0.091l-0.216,-0.092l-0.218,-0.09l-0.218,-0.089l-0.218,-0.089l-0.22,-0.088l-0.219,-0.087l-0.22,-0.086l-0.221,-0.086l-0.221,-0.084l-0.221,-0.084l-0.222,-0.083l-0.223,-0.082l-0.223,-0.081l-0.224,-0.08l-0.224,-0.08l-0.224,-0.079l-0.226,-0.078l-0.225,-0.077l-0.226,-0.076l-0.227,-0.075l-0.227,-0.074l-0.228,-0.074l-0.228,-0.072l-0.229,-0.072l-0.229,-0.071l-0.229,-0.07l-0.231,-0.069l-0.23,-0.069l-0.232,-0.067l-0.231,-0.066l-0.233,-0.066l-0.232,-0.064l-0.233,-0.064l-0.234,-0.063l-0.234,-0.062l-0.235,-0.061l-0.235,-0.06l-0.236,-0.059l-0.236,-0.058l-0.237,-0.058l-0.237,-0.056l-0.238,-0.055l-0.238,-0.055l-0.239,-0.053l-0.239,-0.053l-0.24,-0.052l-0.24,-0.05l-0.241,-0.05l-0.242,-0.049l-0.241,-0.047l-0.243,-0.047l-0.242,-0.046l-0.244,-0.045l-0.243,-0.044l-0.245,-0.043l-0.244,-0.042l-0.246,-0.041l-0.246,-0.04l-0.246,-0.038l-0.247,-0.038l-0.247,-0.037l-0.248,-0.036l-0.248,-0.035l-0.249,-0.034l-0.249,-0.033l-0.25,-0.032l-0.25,-0.031l-0.137,-0.016l-30.879,0Z" style="fill:#5b629b;"/><path d="M114,12c-1.048,2.942 -3.986,4.971 -9,6l-7,0" style="fill:none;stroke:#5b629b;stroke-width:2px;"/><path d="M102,82l12,0" style="fill:none;stroke:#5b629b;stroke-width:2px;"/><path d="M102,89l17,0" style="fill:none;stroke:#5b629b;stroke-width:2px;"/><path d="M146,89l-20,0" style="fill:none;stroke:#5b629b;stroke-width:2px;"/><path d="M123,97l6,0" style="fill:none;stroke:#5b629b;stroke-width:2px;"/><path d="M68,60l0,9c-0.594,3.99 -3.02,6.235 -7,7l-7,0c-2.715,-0.092 -4.006,1.286 -4,4l0,8" style="fill:none;stroke:#5b629b;stroke-width:2px;"/><path d="M15,75l0,-14c0,-5.692 5.46,-11.168 14,-11c5.425,0.107 11,-6.006 11,-12l0,-9" style="fill:none;stroke:#5b629b;stroke-width:2px;"/><path d="M29,74c2.552,-7.183 5.973,-13.194 14,-13l9,0" style="fill:none;stroke:#5b629b;stroke-width:2px;"/><path d="M28,31c0.404,-17.923 28.61,-17.898 30,0c0,0 0,3.333 0,5" style="fill:none;stroke:#5b629b;stroke-width:2px;"/><path d="M68,3c-0.203,8.677 2.328,11.844 9,12c10.319,0.241 10.579,18.022 0,18c-9.354,-0.019 -10.381,17 0,17l12,0" style="fill:none;stroke:#5b629b;stroke-width:2px;"/><path d="M61,89c16.85,-2.6 22.236,-11.826 44,-13c24.127,-1.301 32.449,8.158 41,1" style="fill:none;stroke:#5b629b;stroke-width:2px;"/><path d="M102,77l0,13c0.907,3.061 3.02,4.583 6,5" style="fill:none;stroke:#5b629b;stroke-width:2px;"/><path d="M95,62c-13.161,0.039 -15.429,8.479 -15,19" style="fill:none;stroke:#5b629b;stroke-width:2px;"/><path d="M133,47c-0.237,10.468 6.858,12.348 15,13" style="fill:none;stroke:#5b629b;stroke-width:2px;"/><path d="M125,77c0.419,-7.567 -0.941,-11.848 -10,-12c-10.225,-0.171 -9.644,-18.006 0,-18c9.517,0.006 9.01,-17 0,-17l-11,0" style="fill:none;stroke:#5b629b;stroke-width:2px;"/></g><rect x="6" y="83" width="3" height="3" style="fill:#5b629b;"/><rect x="24" y="103" width="3" height="3" style="fill:#5b629b;"/><rect x="21" y="129" width="3" height="3" style="fill:#5b629b;"/><rect x="36" y="143" width="3" height="3" style="fill:#5b629b;"/><rect x="64" y="121" width="3" height="3" style="fill:#5b629b;"/><rect x="76" y="138" width="3" height="3" style="fill:#5b629b;"/><rect x="116" y="114" width="3" height="3" style="fill:#5b629b;"/><rect x="131" y="121" width="3" height="3" style="fill:#5b629b;"/><rect x="146" y="141" width="3" height="3" style="fill:#5b629b;"/><g><rect x="34" y="103" width="3" height="3" style="fill:#5b629b;"/><rect x="37" y="100" width="3" height="3" style="fill:#5b629b;"/><rect x="37" y="106" width="3" height="3" style="fill:#5b629b;"/><rect x="40" y="103" width="3" height="3" style="fill:#5b629b;"/></g><g><rect x="128" y="141" width="3" height="3" style="fill:#5b629b;"/><rect x="131" y="138" width="3" height="3" style="fill:#5b629b;"/><rect x="131" y="144" width="3" height="3" style="fill:#5b629b;"/><rect x="134" y="141" width="3" height="3" style="fill:#5b629b;"/></g><g><rect x="3" y="129" width="3" height="3" style="fill:#5b629b;"/><rect x="6" y="126" width="3" height="3" style="fill:#5b629b;"/><rect x="6" y="132" width="3" height="3" style="fill:#5b629b;"/><rect x="9" y="129" width="3" height="3" style="fill:#5b629b;"/></g></g></svg>