<?xml version="1.0" encoding="UTF-8" standalone="no"?><!DOCTYPE svg PUBLIC "-//W3C//DTD SVG 1.1//EN" "http://www.w3.org/Graphics/SVG/1.1/DTD/svg11.dtd"><svg width="100%" height="100%" viewBox="0 0 255 75" version="1.1" xmlns="http://www.w3.org/2000/svg" xmlns:xlink="http://www.w3.org/1999/xlink" xml:space="preserve" xmlns:serif="http://www.serif.com/" style="fill-rule:evenodd;clip-rule:evenodd;stroke-linejoin:round;stroke-miterlimit:2;"><g><g><path d="M76.872,9.478c-2.59,-0.836 -3.398,-1.114 -3.593,-2.284c0,-1.337 1.031,-1.811 2.423,-1.867c0.641,0.056 2.73,-0.055 4.235,4.457c0.139,0.529 0.668,0.418 0.612,-0.028l-0.195,-4.707c-0.807,0.195 -2.813,-0.53 -4.652,-0.53c-2.172,-0.027 -3.649,0.864 -3.788,0.975c-2.646,1.477 -2.646,5.572 -0.501,7.048c0.863,0.696 2.646,1.476 5.153,2.34c2.869,1.198 1.643,4.067 -0.78,3.844c-2.228,-0.139 -4.178,-1.866 -4.93,-5.153c-0.14,-0.752 -0.753,-0.446 -0.669,0.055l0.334,4.987c0.725,0.222 3.287,0.863 5.126,0.779c3.983,0.028 6.044,-1.866 6.044,-5.376c-0.083,-2.312 -1.615,-3.677 -4.819,-4.54" style="fill:#00c5c3;fill-rule:nonzero;"/><path d="M90.299,10.536c-0,0 0.418,0.056 0.418,-0.362l-0,-1.225c-0,-0 0.083,-2.842 -1.811,-3.009c-0.223,0 -1.894,-0.251 -1.922,3.844c0,0 0,0.78 0,0.724l3.315,0m-2.925,0.892c0,-0 -0.418,-0 -0.418,0.529c0,0 -0.362,4.234 3.371,4.819c2.646,0.39 3.621,-1.588 3.76,-2.117c0.084,-0.306 0.474,-0.306 0.502,0.056c-0.92,4.958 -5.126,4.958 -5.878,4.958c-1.393,0.056 -6.797,-0.501 -6.713,-7.577c-0,-1.838 0.836,-6.796 6.713,-6.852c0.641,0.028 5.85,-0.195 6.101,6.184l-7.438,-0Z" style="fill:#00c5c3;fill-rule:nonzero;"/><path d="M100.522,17.5c-0,0.585 0.613,1.031 1.142,1.031c0.641,-0.056 0.613,0.724 0,0.696l-7.242,0c-0.613,0.056 -0.53,-0.724 -0,-0.696c0.501,-0 1.197,-0.446 1.197,-1.031l0,-9.499c0,-0.779 -0.418,-1.281 -1.197,-1.337c-0.613,0 -0.585,-0.78 -0,-0.78l1.197,-0.083c1.588,-0.139 3.204,-0.502 4.875,-1.226c-0.167,0.947 -0.223,2.452 -0.195,2.897c1.003,-2.061 2.535,-3.231 4.373,-3.064c0.92,0.056 1.477,0.306 2.034,0.78c0.641,0.613 0.947,2.034 -0.585,3.51c-1.254,1.086 -2.145,0.919 -2.507,0.78c-0.585,-0.251 -0.919,-1.059 -1.17,-1.393c-0.669,-0.975 -1.866,-0.111 -1.894,1.114l-0,8.301" style="fill:#00c5c3;fill-rule:nonzero;"/></g><path d="M238.45,40.1c-8.7,-2.8 -11.4,-3.8 -12.1,-7.8c-0,-4.6 3.4,-6.2 8.2,-6.4c2.2,0.2 9.2,-0.2 14.3,15.3c0.5,1.8 2.2,1.5 2.1,-0.1l-0.7,-16.2c-2.8,0.6 -9.5,-1.8 -15.7,-1.8c-7.3,-0.1 -12.3,2.9 -12.8,3.3c-8.9,5.1 -9,19.2 -1.7,24.2c3,2.4 8.9,5.1 17.4,8c9.7,4.1 5.5,14 -2.6,13.2c-7.7,-0.4 -14.2,-6.2 -16.7,-17.5c-0.5,-2.6 -2.6,-1.5 -2.2,0.2l1.1,17.1c2.4,0.8 11.1,2.9 17.3,2.7c13.4,0.1 20.4,-6.4 20.4,-18.5c-0.4,-8 -5.5,-12.7 -16.3,-15.7" style="fill:#00c5c3;fill-rule:nonzero;"/><path d="M119.15,33.6c-0,-3.4 -1.3,-8.2 -6.4,-8c-4.9,0.3 -8.3,7.4 -8.2,20.6c-0.2,13.6 3.2,20.9 9.6,21.1c1.6,0.1 5,-0.2 5,-3.1l-0,-30.6m17.6,-33.6l-0,62.9c-0,3.2 0.6,4 3,4.3c2.6,-0.1 2.8,3.1 -0,3c-5.9,0.3 -15.1,1.9 -20.5,4.3l-0,-6.4c-4.4,4.9 -9.6,6.3 -14.8,6.4c-11.7,-0.1 -17.9,-8.1 -17.6,-22.6c-0.1,-20 9.7,-28.9 24.7,-28.9c2.5,-0 4.9,0.5 7.6,1.4l-0,-11.9c-0.1,-2.2 -2.4,-3.9 -4.4,-4c-2.4,-0 -2.2,-3 -0,-3c1.8,-0.1 2.3,-0.1 4.4,-0.3c6.7,-0.7 11.4,-2.6 17.6,-5.2Z" style="fill:#00c5c3;fill-rule:nonzero;"/><path d="M198.15,41.9c-0,0 1.5,0.2 1.5,-1.2l-0,-4.3c-0,0 0.2,-10.1 -6.5,-10.7c-0.8,0 -6.7,-0.8 -6.9,13.7c-0,0 -0,2.8 -0,2.6l11.9,-0.1m-10.4,3.1c-0,0 -1.5,0 -1.5,1.9c-0,0 -1.3,15.1 12,17.2c9.4,1.4 12.9,-5.7 13.4,-7.6c0.3,-1.1 1.7,-1.1 1.7,0.2c-3.4,17.6 -18.3,17.6 -21,17.6c-4.9,0.2 -24.1,-1.8 -23.9,-26.9c0.1,-6.6 3,-24.2 23.9,-24.4c2.2,0.1 20.8,-0.7 21.7,22l-26.3,0Z" style="fill:#00c5c3;fill-rule:nonzero;"/><path d="M66.35,44.2c-1,0.3 -9.7,1.9 -9.4,14.2c0.1,5.4 2.8,8.1 5.7,8.5c0.8,0.1 3.7,0 3.7,-2.9l-0,-19.8m0.2,-12.6c0.1,-2.1 -1.3,-4.5 -4.7,-3.8c0.1,-0.9 0.2,-2.5 -0,-4.3c2.2,-0.5 3.3,-0.9 7,-1c11.3,-0.4 15,7.6 14.9,13.6l-0,30.6c0.1,2.6 1.5,3.4 3.3,2.5c1.5,-0.7 2.3,0.8 0.9,2c-1.8,1.4 -4.1,2.9 -10.2,3c-3.3,0.1 -7.5,-0.2 -10.4,-5.7c-3.4,4.8 -7.2,6.1 -14,5.7c-7.2,-0.4 -12.3,-4.9 -12.5,-14.5c0.4,-12 8.4,-14.6 13.5,-16c2,-0.7 3.9,-0.9 8.8,-2.4c3.7,-1.1 3.3,-1.9 3.3,-4l0.1,-5.7Z" style="fill:#00c5c3;fill-rule:nonzero;"/><path d="M26.25,14.3l-0,23.7c-0,2.4 2,2.2 3.4,2.4c14.4,0.9 13.1,-15.1 13.1,-15.1c0.1,-16 -10.8,-15.4 -10.8,-15.4c-3.6,0 -5.7,1.3 -5.7,4.4m-17.4,2.4c-0,0 0.4,-7.2 -7.5,-8c-1.8,0 -1.8,-2.5 -0,-2.5l36,0c23.4,0.2 23.2,14.9 23.7,18.5c-0,3.2 -0,20.2 -24.1,19.5c-2.2,0.1 -7.6,0.2 -10.7,0l-0,18.9c-0,6.1 4.4,8.3 8.2,8.3c1.9,0 1.9,2.6 -0,2.6l-33.1,0c-1.8,0 -1.8,-2.7 -0,-2.7c3.2,0 7.5,-2.6 7.5,-8l-0,-46.6Z" style="fill:#00c5c3;fill-rule:nonzero;"/><path d="M161.75,67.8c-0,2.1 2.2,3.7 4,3.7c2.2,-0.2 2.1,2.6 -0,2.4l-25.7,0c-2.2,0.2 -1.9,-2.6 -0,-2.4c1.7,0 4.3,-1.6 4.3,-3.7l-0,-33.7c-0,-2.8 -1.5,-4.6 -4.3,-4.7c-2.2,0 -2,-2.8 -0,-2.7l4.3,-0.3c5.6,-0.5 11.4,-1.8 17.3,-4.4c-0.6,3.3 -0.8,8.8 -0.7,10.3c3.5,-7.3 9.3,-11.7 15.9,-11.2c2.9,0.2 5.1,1 6.7,2.4c-4.9,1.6 -10.8,5.2 -13.9,13.4c-0.7,-0.8 -1.1,-1.6 -1.5,-2.1c-2,-3 -6.1,-0.7 -6.4,3.6l-0,29.4" style="fill:#00c5c3;fill-rule:nonzero;"/></g></svg>