<?xml version="1.0" encoding="UTF-8" standalone="no"?><!DOCTYPE svg PUBLIC "-//W3C//DTD SVG 1.1//EN" "http://www.w3.org/Graphics/SVG/1.1/DTD/svg11.dtd"><svg width="100%" height="100%" viewBox="0 0 150 150" version="1.1" xmlns="http://www.w3.org/2000/svg" xmlns:xlink="http://www.w3.org/1999/xlink" xml:space="preserve" xmlns:serif="http://www.serif.com/" style="fill-rule:evenodd;clip-rule:evenodd;stroke-linecap:round;stroke-linejoin:round;stroke-miterlimit:1.5;"><g><path d="M81.863,39.027c-3.79,-3.79 -9.944,-3.79 -13.734,0l-28.117,28.117c-3.79,3.79 -3.79,9.944 0,13.734l28.117,28.117c3.79,3.79 9.944,3.79 13.734,0l28.116,-28.117c3.79,-3.79 3.79,-9.944 0,-13.734l-28.116,-28.117Z" style="fill:none;stroke:#5b629b;stroke-width:2px;"/><path d="M89.792,46.391c-0.743,-14.179 15.289,-53.293 19.729,-42.417c1.145,2.807 1.808,4.439 3.946,5.919c1.968,1.362 5.589,-0.494 6.905,0.986c1.315,1.48 -0.329,6.576 0.986,7.892c1.315,1.315 6.412,-0.494 7.891,0.986c1.48,1.48 -0.657,6.412 0.987,7.891c1.644,1.48 6.412,-0.493 7.891,0.987c1.48,1.48 -0.493,5.918 0.987,7.891c1.479,1.973 4.415,0.407 6.905,1.973c9.272,5.833 -31.22,23.846 -41.43,22.688" style="fill:none;stroke:#5b629b;stroke-width:2px;"/><path d="M59.57,100.785c0.743,14.179 -15.289,53.293 -19.728,42.417c-1.146,-2.807 -1.809,-4.439 -3.946,-5.919c-1.968,-1.362 -5.59,0.494 -6.905,-0.986c-1.315,-1.48 0.329,-6.576 -0.987,-7.891c-1.315,-1.316 -6.411,0.493 -7.891,-0.987c-1.48,-1.479 0.658,-6.412 -0.986,-7.891c-1.644,-1.48 -6.412,0.493 -7.892,-0.987c-1.48,-1.479 0.493,-5.918 -0.986,-7.891c-1.48,-1.973 -4.416,-0.407 -6.905,-1.973c-9.272,-5.833 31.219,-23.846 41.43,-22.688" style="fill:none;stroke:#5b629b;stroke-width:2px;"/></g><path d="M109,25c1.265,9.867 -0.229,20.152 -12,28c0,0 5.108,-3.277 8,-4c3.333,-0.833 12,-1 12,-1" style="fill:none;stroke:#5b629b;stroke-width:2px;"/><path d="M41,122c-1.265,-9.867 0.229,-20.152 12,-28c0,0 -5.108,3.277 -8,4c-3.333,0.833 -12,1 -12,1" style="fill:none;stroke:#5b629b;stroke-width:2px;"/><path d="M49,60l35,46" style="fill:none;stroke:#5b629b;stroke-width:2px;"/><path d="M67,42l35,46" style="fill:none;stroke:#5b629b;stroke-width:2px;"/></svg>