<?xml version="1.0" standalone="no"?>
<!DOCTYPE svg PUBLIC "-//W3C//DTD SVG 20010904//EN"
 "http://www.w3.org/TR/2001/REC-SVG-20010904/DTD/svg10.dtd">
<svg version="1.0" xmlns="http://www.w3.org/2000/svg"
 width="1133.000000pt" height="1133.000000pt" viewBox="0 0 1133.000000 1133.000000"
 preserveAspectRatio="xMidYMid meet">
<metadata>
Created by potrace 1.11, written by Peter Selinger 2001-2013
</metadata>
<g transform="translate(0.000000,1133.000000) scale(0.100000,-0.100000)"
fill="#000000" stroke="none">
<path d="M4738 11314 c-13 -14 -22 -15 -47 -6 -29 10 -31 9 -31 -13 0 -13 7
-30 15 -39 8 -8 15 -27 15 -43 0 -15 7 -41 16 -58 46 -84 46 -83 36 -142 -15
-86 -33 -126 -80 -177 -23 -25 -42 -52 -42 -60 0 -9 -13 -25 -30 -37 -22 -17
-31 -33 -35 -68 -14 -99 -34 -131 -84 -131 -12 0 -21 -6 -21 -14 0 -7 -11 -29
-23 -48 -13 -19 -27 -45 -30 -59 -4 -13 -20 -32 -37 -41 -25 -14 -30 -23 -30
-56 0 -38 -40 -109 -53 -95 -4 3 -7 -6 -7 -21 0 -22 -7 -30 -30 -39 -18 -7
-30 -19 -30 -29 0 -10 -6 -18 -13 -18 -17 0 -71 -57 -91 -98 -20 -40 -174
-244 -193 -255 -7 -4 -13 -14 -13 -21 0 -8 -7 -19 -15 -26 -8 -7 -15 -28 -15
-46 0 -29 -8 -40 -55 -77 -43 -32 -55 -48 -55 -69 0 -17 -8 -31 -20 -38 -11
-6 -20 -15 -20 -20 0 -4 -20 -43 -45 -84 -25 -42 -51 -91 -59 -109 -7 -17 -23
-41 -35 -51 -12 -11 -21 -31 -21 -48 0 -16 -9 -41 -21 -57 -11 -15 -23 -48
-26 -72 -3 -24 -11 -51 -18 -59 -7 -8 -17 -44 -24 -79 -6 -35 -17 -71 -26 -81
-8 -9 -18 -32 -21 -51 -4 -19 -13 -39 -21 -46 -11 -9 -14 -22 -9 -48 5 -23 3
-42 -5 -51 -8 -9 -10 -34 -6 -70 4 -44 3 -56 -9 -61 -11 -4 -15 -18 -13 -47 3
-43 -7 -93 -23 -112 -5 -7 -5 -38 1 -75 7 -42 7 -65 1 -67 -15 -5 -12 -28 5
-42 8 -7 12 -17 8 -23 -4 -6 -6 -26 -5 -43 2 -18 -1 -35 -6 -38 -17 -10 4 -94
28 -114 15 -12 20 -23 15 -32 -10 -16 -13 -92 -4 -105 11 -16 14 -69 5 -83 -4
-7 -2 -19 5 -28 7 -9 19 -52 26 -97 7 -45 15 -89 16 -98 2 -8 12 -29 23 -45
19 -27 35 -75 49 -150 5 -29 45 -114 63 -138 5 -6 12 -28 16 -49 4 -21 36 -97
72 -169 35 -72 64 -137 64 -144 0 -19 91 -200 128 -255 17 -24 40 -64 53 -89
13 -25 31 -52 40 -60 9 -8 26 -33 37 -55 60 -122 78 -153 103 -182 16 -18 34
-51 41 -74 6 -23 58 -105 115 -183 56 -77 103 -148 103 -157 0 -8 12 -26 26
-40 14 -13 35 -42 46 -64 12 -22 34 -59 50 -82 15 -23 40 -66 54 -95 43 -86
84 -147 105 -153 11 -4 25 -19 32 -33 6 -15 22 -40 34 -55 13 -16 23 -34 23
-41 0 -7 14 -27 30 -44 17 -18 30 -38 30 -47 0 -8 18 -42 40 -76 22 -34 40
-68 40 -76 0 -7 24 -39 53 -71 29 -31 68 -80 87 -107 19 -28 38 -52 43 -54 10
-4 -52 -71 -66 -71 -5 0 -67 39 -138 86 -126 85 -201 122 -207 103 -8 -21 -41
-5 -136 65 -56 41 -110 84 -122 95 -12 12 -31 21 -43 21 -12 0 -39 9 -59 20
-70 37 -210 91 -258 99 -53 9 -144 47 -144 60 0 4 -33 15 -73 24 -47 10 -97
31 -140 57 -37 22 -76 40 -88 40 -12 0 -33 10 -49 23 -23 20 -37 23 -93 21
-37 -2 -71 -5 -77 -9 -6 -3 -20 -3 -31 0 -14 5 -28 0 -46 -17 l-25 -23 -21 27
c-22 27 -22 27 -57 10 -19 -9 -36 -20 -38 -24 -6 -13 -29 -9 -42 7 -11 13 -10
18 8 31 12 8 22 19 22 24 0 12 -57 23 -72 13 -7 -4 -45 -8 -85 -9 -84 -3 -93
-7 -93 -40 0 -35 -28 -43 -51 -13 -16 21 -19 22 -24 7 -4 -9 -3 -22 1 -29 5
-9 -1 -10 -22 -5 -68 16 -114 22 -114 14 0 -11 -48 -10 -55 2 -11 18 -42 11
-118 -25 -80 -38 -102 -42 -110 -21 -4 10 -17 11 -58 5 -29 -5 -56 -5 -59 0
-3 4 -41 3 -85 -3 -77 -11 -80 -12 -83 -39 -4 -32 -24 -35 -52 -7 -11 11 -33
20 -50 20 -23 0 -30 -4 -30 -20 0 -11 -7 -20 -15 -20 -9 0 -15 10 -15 26 0 23
-3 25 -30 19 -38 -8 -90 -34 -90 -44 0 -5 -11 -20 -24 -34 -22 -23 -27 -25
-55 -14 -25 9 -33 8 -49 -6 -26 -24 -45 -22 -37 3 8 24 -7 25 -105 9 -54 -8
-71 -16 -102 -46 -20 -19 -41 -32 -46 -29 -6 3 -13 -3 -17 -14 -6 -17 -12 -20
-41 -14 -26 5 -34 3 -34 -9 0 -18 -24 -29 -45 -21 -19 8 -54 -33 -55 -62 0
-13 -8 -24 -20 -27 -14 -4 -20 -14 -20 -35 0 -48 -59 -84 -101 -61 -18 9 -28
8 -58 -9 -20 -11 -53 -25 -74 -32 -26 -8 -45 -23 -58 -45 -13 -21 -30 -35 -49
-39 -22 -4 -30 -11 -30 -26 0 -18 -4 -20 -35 -14 -22 4 -35 2 -35 -4 0 -6 -20
-33 -45 -59 -25 -26 -48 -59 -51 -73 -9 -41 -30 -74 -58 -88 -15 -8 -28 -24
-31 -40 -11 -53 -20 -75 -32 -80 -8 -2 -13 5 -13 17 0 12 -6 21 -15 21 -18 0
-35 -31 -35 -64 0 -15 -9 -34 -19 -43 -16 -13 -19 -25 -14 -62 4 -38 2 -49
-16 -65 -24 -22 -25 -29 -10 -130 9 -60 15 -77 31 -82 10 -3 25 -1 32 5 10 8
17 7 27 -5 8 -9 31 -27 51 -40 21 -14 38 -29 38 -36 0 -6 7 -19 16 -29 13 -14
13 -24 4 -59 -12 -46 -7 -45 -107 -24 -25 5 -33 2 -42 -15 -7 -12 -17 -18 -27
-14 -18 7 -49 62 -46 84 2 8 -1 26 -6 40 l-9 24 -17 -34 c-14 -27 -22 -32 -41
-27 -28 7 -32 -3 -34 -85 -1 -44 3 -59 19 -74 11 -10 20 -31 20 -46 0 -44 17
-76 43 -83 20 -5 25 -13 30 -56 5 -38 16 -63 49 -105 24 -31 56 -74 71 -96 16
-21 37 -44 48 -49 10 -6 19 -16 19 -23 0 -28 50 -84 79 -90 20 -4 35 -16 45
-36 10 -19 26 -32 45 -36 16 -3 35 -13 42 -21 6 -8 18 -14 25 -14 8 0 19 -9
26 -20 7 -11 16 -20 21 -20 4 0 38 -18 74 -40 37 -22 82 -43 102 -46 20 -4 46
-15 59 -25 13 -10 49 -23 80 -29 31 -6 86 -20 122 -30 36 -10 76 -22 89 -26
24 -6 152 -15 261 -17 30 -1 58 -6 62 -11 4 -6 42 -5 105 3 54 7 154 17 223
21 287 20 518 86 838 240 337 163 646 376 952 660 196 182 245 222 455 380
224 168 405 311 405 319 0 3 -64 41 -143 83 -393 213 -608 269 -1152 298 -398
22 -909 -36 -1341 -150 -656 -174 -1044 -543 -1044 -993 0 -152 40 -262 131
-361 l54 -59 -57 5 c-74 6 -168 53 -187 94 -7 16 -32 49 -55 74 -56 61 -62 75
-76 163 -13 89 -1 174 31 219 10 15 19 36 19 47 0 11 8 42 19 68 10 26 21 65
25 85 5 27 17 45 41 64 19 15 35 33 35 41 0 8 17 32 38 54 20 21 55 59 77 85
74 87 151 161 183 178 17 9 42 30 54 46 12 17 27 30 34 30 7 0 33 15 57 34 29
22 62 37 92 41 30 5 51 14 58 27 7 10 34 33 61 49 44 27 52 29 73 18 19 -10
28 -11 41 -1 56 41 80 51 138 57 35 4 64 10 64 14 0 13 53 33 95 36 22 1 54 8
70 15 17 7 35 12 41 11 6 0 24 6 40 14 16 8 43 15 61 15 17 0 35 5 38 10 4 6
11 8 16 5 5 -4 58 1 118 10 60 9 121 13 135 9 15 -3 32 -1 40 5 7 6 51 16 97
22 46 7 94 18 106 25 12 8 29 11 38 8 21 -8 235 17 235 28 0 11 37 10 44 -1 7
-10 204 -7 279 4 35 5 56 3 83 -10 22 -10 70 -19 123 -21 108 -5 205 -21 251
-41 67 -29 174 -63 200 -63 14 0 35 -7 46 -15 10 -8 29 -15 42 -15 12 0 31 -9
42 -20 11 -11 32 -20 47 -20 15 0 38 -10 52 -23 32 -29 159 -87 190 -87 13 0
32 -11 43 -25 11 -14 27 -25 37 -25 10 0 26 -9 37 -21 10 -12 37 -30 59 -41
22 -12 56 -33 75 -48 41 -32 193 -110 215 -110 8 0 36 -21 62 -46 27 -26 66
-58 89 -73 22 -14 58 -44 80 -66 22 -22 56 -52 77 -68 67 -51 66 -54 -39 -143
-51 -43 -94 -82 -94 -86 0 -4 -17 -24 -37 -44 -20 -21 -54 -59 -74 -87 -20
-27 -46 -55 -57 -63 -11 -7 -32 -35 -47 -61 -15 -27 -38 -57 -50 -68 -13 -11
-64 -90 -113 -175 -104 -182 -160 -273 -202 -331 -16 -23 -30 -47 -30 -54 0
-7 -11 -23 -24 -37 -14 -13 -28 -37 -31 -53 -4 -17 -33 -84 -65 -151 -87 -181
-211 -600 -235 -794 -8 -63 -22 -140 -31 -170 -25 -83 -24 -279 3 -500 9 -73
21 -129 29 -136 7 -5 20 -47 29 -93 10 -46 23 -95 31 -109 8 -15 14 -41 14
-59 0 -17 5 -33 11 -35 6 -2 15 -28 20 -57 4 -30 20 -71 33 -92 14 -21 31 -58
37 -84 6 -25 20 -50 30 -56 11 -5 19 -16 19 -24 0 -8 19 -23 43 -33 23 -10 56
-36 72 -56 17 -21 56 -64 89 -95 32 -31 64 -68 72 -83 11 -22 22 -28 46 -28
20 0 39 -9 53 -24 23 -25 113 -56 163 -56 20 0 36 -8 46 -21 8 -12 19 -18 26
-14 6 4 21 -2 33 -13 23 -21 80 -31 198 -36 36 -2 70 -5 75 -8 16 -10 337 42
379 61 22 10 48 21 58 24 9 4 17 11 17 17 0 5 11 10 24 10 31 0 166 92 242
166 68 66 286 345 310 396 8 18 26 50 38 72 13 21 27 55 30 76 3 21 13 40 21
44 8 3 15 14 15 25 0 11 7 32 15 48 8 15 29 66 46 113 17 47 39 104 50 127 20
45 17 75 -7 66 -17 -6 -17 3 -3 87 6 36 11 80 10 98 -1 18 1 38 5 44 4 6 8 45
9 87 1 42 4 81 7 86 9 16 -56 455 -68 463 -7 4 -15 36 -19 71 -4 36 -13 70
-20 77 -7 7 -16 44 -20 81 -3 37 -13 78 -21 90 -8 12 -14 32 -14 44 0 12 -7
30 -16 40 -8 9 -23 55 -32 102 -13 63 -27 98 -54 138 -21 30 -56 97 -79 149
-23 52 -48 102 -55 111 -8 8 -14 28 -14 43 0 16 -16 48 -40 80 -22 29 -40 58
-40 64 0 6 -11 21 -24 34 -13 13 -27 37 -31 53 -11 47 -116 236 -134 241 -32
10 -46 22 -43 36 3 21 -44 125 -61 135 -8 4 -20 25 -26 46 -8 24 -19 37 -31
37 -20 0 -46 53 -42 87 2 12 -4 25 -13 31 -33 18 -13 46 39 56 45 9 50 8 64
-12 8 -12 18 -22 22 -22 8 0 181 -161 288 -268 29 -28 56 -52 61 -52 5 0 24
-17 43 -39 18 -21 49 -46 68 -56 49 -25 129 -86 170 -130 19 -20 55 -47 80
-60 25 -12 72 -45 104 -71 38 -32 69 -49 89 -50 21 -1 43 -15 75 -48 35 -36
51 -46 77 -46 20 0 35 -6 39 -15 3 -9 21 -22 40 -30 19 -8 37 -19 41 -25 3 -5
24 -10 45 -10 21 0 45 -7 54 -15 8 -8 23 -15 34 -15 11 0 39 -16 62 -35 47
-40 53 -41 74 -20 17 17 53 8 76 -21 33 -39 67 -51 123 -43 49 8 53 7 70 -16
10 -14 27 -25 37 -25 10 0 22 -5 26 -11 4 -7 23 -9 50 -5 24 3 46 1 49 -4 6
-9 77 -1 85 10 13 17 37 17 48 -1 7 -10 21 -19 32 -19 11 0 20 -4 20 -9 0 -5
7 -17 16 -26 13 -13 28 -15 73 -10 31 4 66 13 78 21 14 9 33 12 48 8 18 -4 25
-2 25 9 0 35 50 23 62 -15 3 -9 13 -8 38 4 40 19 50 16 50 -19 0 -24 2 -25 53
-22 28 2 58 0 65 -4 7 -5 27 1 49 14 20 13 44 24 52 25 9 1 25 5 37 9 13 4 25
1 33 -9 15 -18 66 -22 76 -6 4 6 10 8 15 5 5 -3 19 0 33 6 16 7 35 8 60 1 31
-9 40 -7 69 14 18 14 35 36 38 51 7 37 26 39 44 5 15 -28 16 -29 66 -21 29 4
58 13 64 19 9 7 23 7 45 -1 27 -10 34 -9 45 6 16 23 109 33 131 15 11 -9 18
-10 29 -1 8 7 44 13 80 14 36 1 66 5 66 10 0 4 11 7 24 7 15 0 26 7 29 20 6
25 35 26 123 4 61 -16 68 -16 101 0 19 9 44 14 55 10 10 -3 36 2 56 12 68 33
202 23 304 -22 33 -15 39 -15 52 -2 15 16 24 15 124 -7 18 -4 37 -16 43 -26
13 -25 61 -49 97 -49 16 0 37 -9 47 -20 11 -12 31 -20 50 -20 20 0 35 -6 39
-15 9 -26 67 -54 125 -61 44 -5 62 -13 83 -35 15 -16 34 -29 42 -29 9 0 23
-11 32 -24 8 -14 37 -39 64 -56 27 -17 60 -47 75 -66 27 -36 81 -64 121 -64
20 0 24 5 24 28 0 15 5 33 10 38 16 16 -4 88 -34 124 -14 18 -26 38 -26 47 0
8 -16 29 -35 46 -19 17 -35 36 -35 42 0 11 -93 85 -106 85 -4 0 -38 14 -76 31
-50 23 -68 37 -68 51 0 11 -24 45 -54 76 -29 31 -93 109 -142 173 -49 64 -106
131 -127 149 -21 18 -49 52 -63 76 -14 23 -45 59 -70 80 -69 56 -94 85 -116
132 -13 28 -25 42 -38 42 -11 0 -20 7 -20 15 0 9 -11 27 -25 41 -14 14 -28 36
-31 49 -3 14 -10 25 -15 25 -5 0 -9 7 -9 17 0 15 -2 15 -19 -1 -18 -17 -21
-17 -45 -1 -15 10 -26 27 -26 40 0 44 -13 85 -26 85 -8 0 -31 15 -51 33 -21
19 -65 50 -98 70 -65 38 -175 122 -187 140 -4 7 -8 24 -8 40 0 15 -5 27 -12
27 -6 0 -19 7 -28 15 -26 24 -50 9 -43 -26 5 -28 5 -29 -26 -18 -23 8 -36 23
-51 56 -21 48 -28 50 -97 28 -18 -6 -25 -2 -32 19 -6 15 -21 28 -37 32 -23 6
-25 10 -20 40 6 27 3 34 -14 39 -11 3 -32 17 -48 29 -15 13 -43 26 -62 30 -19
3 -62 24 -95 46 -39 26 -63 36 -69 30 -17 -17 -35 -11 -42 14 -4 16 -15 26
-35 30 -22 4 -34 15 -44 40 -15 36 -34 46 -107 52 -52 4 -60 -7 -35 -46 10
-17 9 -22 -3 -30 -8 -5 -18 -10 -21 -10 -8 0 -19 38 -19 68 0 23 -14 30 -25
12 -10 -17 -25 -11 -25 10 0 14 -10 22 -32 28 -18 4 -37 17 -43 28 -7 14 -21
19 -55 20 -77 3 -133 23 -155 57 -23 35 -45 46 -45 23 0 -20 -29 -21 -37 -1
-3 9 -20 22 -37 30 -17 8 -39 20 -49 27 -15 11 -20 10 -32 -6 -12 -16 -12 -20
0 -32 54 -54 2 -101 -59 -53 -19 15 -25 27 -21 40 5 14 1 19 -14 19 -11 0 -23
5 -27 11 -8 13 -53 3 -74 -16 -13 -12 -19 -11 -39 5 -19 14 -29 15 -42 7 -13
-8 -25 -8 -44 1 -15 7 -31 9 -37 6 -5 -4 -30 -8 -54 -10 -48 -4 -55 7 -26 39
17 20 16 20 -17 14 -18 -4 -40 -7 -48 -7 -11 0 -14 -7 -11 -25 7 -34 -2 -32
-45 10 -20 19 -43 35 -51 35 -23 0 -23 -33 -1 -55 l20 -20 -25 -4 c-16 -2 -28
3 -35 14 -5 10 -20 29 -32 42 -18 20 -27 23 -57 18 -30 -6 -35 -10 -30 -29 4
-17 -2 -23 -33 -35 -21 -8 -56 -15 -78 -16 -22 -2 -44 -4 -50 -6 -5 -1 -38 -3
-73 -3 -40 -1 -66 -6 -71 -14 -6 -10 -10 -10 -21 3 -14 17 -41 20 -57 4 -5 -5
-54 -17 -109 -25 -54 -8 -101 -18 -104 -23 -3 -4 -22 -11 -42 -15 -21 -4 -38
-11 -38 -15 0 -5 -25 -12 -57 -16 -31 -4 -68 -11 -82 -17 -65 -25 -130 -64
-134 -80 -4 -12 -15 -18 -35 -18 -18 0 -45 -13 -72 -34 -27 -21 -60 -37 -87
-41 -24 -3 -43 -10 -43 -15 0 -5 -16 -14 -35 -20 -29 -10 -35 -16 -35 -41 0
-33 -2 -34 -33 -15 -19 13 -25 13 -41 1 -15 -12 -17 -17 -7 -29 16 -19 2 -26
-50 -24 -33 1 -55 -5 -87 -25 l-43 -28 -54 17 c-51 16 -55 20 -55 48 0 19 -9
40 -25 56 -59 59 -231 253 -242 273 -18 31 -16 65 5 82 9 9 54 47 99 87 45 39
84 81 87 94 3 12 24 44 46 69 22 25 40 53 40 62 0 17 58 76 92 94 10 5 18 15
18 21 0 6 55 68 123 137 265 271 480 578 666 950 186 371 286 667 336 991 25
167 31 477 11 650 -42 365 -145 708 -315 1048 -199 401 -493 791 -951 1265
-52 54 -97 105 -98 113 -6 25 -94 111 -99 96 -9 -24 -22 -1 -17 31 5 29 -5 45
-116 177 -67 80 -125 146 -131 148 -5 2 -69 63 -141 135 -73 73 -152 147 -176
166 -24 19 -53 53 -65 79 -24 51 -43 61 -69 36z m245 -510 c18 -20 37 -47 43
-61 14 -33 10 -487 -5 -573 -22 -116 -93 -312 -166 -455 -79 -155 -143 -257
-278 -445 -305 -423 -396 -578 -474 -805 -59 -174 -84 -350 -84 -596 1 -540
114 -887 521 -1594 73 -126 227 -396 342 -600 116 -203 257 -442 313 -529 62
-97 101 -166 98 -176 -3 -10 -16 -20 -30 -23 -19 -4 -26 1 -34 22 -6 14 -19
33 -29 41 -11 8 -44 61 -75 117 -30 57 -74 122 -98 145 -29 30 -49 63 -65 110
-14 38 -31 70 -40 73 -10 3 -30 27 -47 53 -17 26 -44 54 -62 62 -43 20 -57 52
-42 97 12 38 3 53 -32 53 -19 0 -29 20 -29 56 0 27 -19 61 -62 112 -15 18 -28
36 -28 41 0 4 -16 26 -37 47 -20 21 -47 62 -59 90 -13 29 -32 58 -42 66 -41
28 -92 100 -92 129 0 16 -12 46 -27 68 -16 21 -48 79 -73 129 -24 51 -52 94
-61 97 -11 4 -20 21 -24 45 -4 22 -13 44 -21 48 -8 4 -18 32 -23 62 -6 40 -15
59 -35 75 -20 16 -26 30 -26 61 0 30 -6 46 -25 64 -14 13 -24 28 -23 34 0 6
-4 24 -10 39 -7 16 -12 37 -12 48 0 10 -4 19 -9 19 -6 0 -13 21 -17 46 -4 26
-14 55 -23 65 -9 12 -16 40 -17 73 -1 40 -7 59 -23 75 -23 23 -26 37 -11 46 8
5 7 28 -6 92 -3 18 -14 24 -45 29 -22 4 -43 13 -46 21 -8 19 14 41 45 45 32 4
31 -9 8 191 -10 81 -14 157 -10 169 8 28 12 128 4 128 -12 0 2 75 16 86 18 14
35 92 22 100 -13 8 -1 104 18 149 8 19 14 54 14 79 0 33 7 52 26 76 26 30 26
34 17 100 l-9 69 28 12 c34 14 42 38 33 96 -6 38 -3 49 20 79 15 19 42 68 61
109 19 41 39 77 44 80 6 3 10 19 10 34 0 16 10 37 25 51 14 13 25 34 25 47 0
38 38 102 72 123 31 18 113 108 146 158 8 13 18 40 21 60 5 29 13 40 38 51 21
10 34 23 38 42 3 15 22 53 42 86 32 50 37 69 43 141 5 72 10 86 31 105 13 12
37 36 53 53 24 28 26 34 15 52 -11 17 -11 24 3 39 8 10 20 33 26 51 6 18 20
45 32 59 11 14 20 41 20 59 0 24 5 34 15 34 19 0 55 57 55 88 0 13 9 55 21 93
12 38 18 76 15 85 -3 8 1 29 9 45 12 22 13 34 4 50 -6 11 -8 31 -5 44 3 13 2
27 -4 30 -6 3 -7 18 -4 33 17 76 21 77 67 26z m1985 -6261 c18 -25 22 -26 46
-15 36 16 40 16 75 -13 24 -20 39 -25 74 -24 24 2 49 -1 56 -5 7 -5 20 -1 32
10 14 12 23 14 30 7 7 -7 19 -7 38 0 17 6 41 7 66 1 37 -9 30 -12 -166 -68
-278 -79 -399 -119 -564 -183 -136 -53 -346 -141 -354 -149 -7 -6 119 -119
203 -182 182 -138 489 -284 716 -342 214 -55 340 -67 765 -77 516 -12 802 -9
925 10 258 39 462 28 711 -40 l56 -15 -23 -26 c-21 -21 -28 -24 -47 -14 -30
14 -72 23 -132 27 -27 2 -72 8 -100 14 -45 9 -53 7 -80 -12 -25 -19 -41 -22
-101 -20 -54 2 -75 -1 -84 -12 -8 -10 -17 -12 -24 -6 -7 6 -76 0 -186 -15 -96
-14 -189 -22 -206 -19 -35 6 -244 -10 -308 -24 -139 -31 -152 -32 -192 -23
-26 6 -64 6 -99 0 -36 -5 -61 -5 -64 1 -4 5 -29 5 -65 0 -34 -6 -63 -6 -68 -1
-5 5 -30 6 -56 2 -26 -4 -74 -6 -107 -4 -33 2 -70 3 -82 4 -12 0 -42 20 -68
46 l-46 46 -102 4 c-118 4 -174 12 -183 25 -3 6 -24 7 -47 4 -27 -4 -58 -1
-86 9 -24 9 -59 16 -78 16 -18 0 -56 11 -83 25 -27 14 -58 25 -68 25 -10 0
-35 15 -54 34 -26 25 -59 42 -119 61 -46 14 -102 37 -124 50 -22 14 -58 34
-80 46 -22 12 -46 30 -53 40 -7 11 -19 19 -26 19 -7 0 -30 14 -51 30 -21 17
-44 30 -52 30 -7 0 -32 19 -56 43 -23 23 -88 78 -145 121 -115 89 -117 91
-126 128 -5 24 -2 29 30 44 19 9 42 28 51 40 10 16 25 24 42 24 15 0 54 14 85
31 54 30 62 31 105 21 30 -7 50 -7 58 -1 6 6 37 12 68 13 33 2 63 10 74 20 10
9 28 16 42 16 34 0 53 15 46 35 -5 11 -13 14 -27 10 -23 -7 -25 -2 -10 26 15
26 29 24 65 -11 29 -28 32 -29 53 -14 13 9 24 30 28 54 4 21 13 41 20 44 8 3
14 1 14 -5 0 -10 17 -9 117 8 28 4 35 11 45 44 13 46 29 49 56 12z m-1764 -14
c14 -17 26 -34 26 -38 0 -5 18 -20 40 -35 22 -14 54 -42 71 -61 19 -20 45 -37
64 -41 27 -5 31 -9 28 -28 -4 -18 8 -36 46 -74 28 -28 51 -55 51 -60 0 -9 -76
-62 -90 -62 -4 0 -24 20 -44 45 -21 25 -44 45 -52 45 -8 0 -17 7 -20 15 -3 8
-24 28 -45 44 -22 16 -53 49 -70 74 -16 25 -50 62 -74 82 -41 33 -58 65 -36
65 17 0 42 32 37 46 -11 28 42 15 68 -17z m322 -841 c53 -56 97 -114 119 -158
10 -19 26 -43 37 -54 11 -10 17 -20 14 -23 -3 -3 -46 33 -96 81 -50 47 -95 86
-100 86 -8 0 -222 -232 -349 -379 -75 -88 -254 -328 -315 -423 -126 -198 -229
-483 -267 -743 -20 -132 -17 -428 4 -540 88 -452 299 -732 683 -906 77 -35 91
-45 75 -51 -73 -27 -245 11 -289 64 -13 16 -48 40 -76 53 -29 14 -66 39 -82
56 -16 18 -48 52 -72 78 -24 25 -50 59 -58 76 -38 80 -74 132 -102 150 -17 11
-31 26 -32 33 0 7 -12 25 -27 40 -36 36 -61 85 -69 138 -3 23 -15 51 -25 60
-10 9 -19 28 -19 42 0 13 -7 38 -15 56 -20 42 -55 287 -43 303 5 6 7 26 3 45
-10 59 26 335 60 458 8 30 15 68 15 84 0 16 7 38 16 48 10 10 20 40 25 66 4
27 19 66 33 87 15 21 24 45 21 53 -6 16 70 164 113 221 14 19 41 64 60 100 19
36 41 80 50 96 8 17 24 36 34 43 10 7 27 30 37 50 11 20 53 70 95 111 46 46
78 86 82 104 3 16 35 59 70 97 35 37 64 72 64 78 0 6 17 29 38 51 20 23 57 63
82 91 86 96 105 110 160 119 3 1 24 -18 46 -41z m4494 -93 c0 -8 -2 -15 -4
-15 -2 0 -6 7 -10 15 -3 8 -1 15 4 15 6 0 10 -7 10 -15z m-147 -217 c23 -11
37 -23 31 -25 -11 -4 -84 34 -84 43 0 8 11 4 53 -18z"/>
<path d="M7008 4473 c-19 -5 -25 -23 -9 -23 17 0 41 12 41 21 0 9 -4 10 -32 2z"/>
<path d="M6798 4443 c-20 -5 -23 -18 -8 -28 15 -9 52 5 47 18 -4 13 -16 16
-39 10z"/>
<path d="M3198 5403 c-10 -2 -18 -13 -18 -23 0 -14 5 -18 18 -13 17 7 32 22
32 36 0 7 -4 7 -32 0z"/>
<path d="M303 3943 c-20 -8 -15 -33 6 -33 16 0 31 18 31 36 0 5 -21 4 -37 -3z"/>
</g>
</svg>
