<?xml version="1.0" encoding="UTF-8" standalone="no"?><!DOCTYPE svg PUBLIC "-//W3C//DTD SVG 1.1//EN" "http://www.w3.org/Graphics/SVG/1.1/DTD/svg11.dtd"><svg width="100%" height="100%" viewBox="0 0 150 150" version="1.1" xmlns="http://www.w3.org/2000/svg" xmlns:xlink="http://www.w3.org/1999/xlink" xml:space="preserve" xmlns:serif="http://www.serif.com/" style="fill-rule:evenodd;clip-rule:evenodd;stroke-linejoin:round;stroke-miterlimit:1.41421;"><g><path d="M149,105.621l0,5.103c-0.008,2.815 -2.288,5.095 -5.103,5.104l-137.794,0c-2.815,-0.009 -5.095,-2.289 -5.103,-5.104l0,-5.103l148,0Z" style="fill:none;stroke:#fff;stroke-width:1.97px;"/><path d="M149,105.621l-148,0l0,-76.552l51.034,0l0,22.965c-0.012,3.457 0.866,6.858 2.552,9.876c2.265,4.099 5.868,7.297 10.207,9.058c2.435,0.975 5.033,1.477 7.655,1.48l5.104,0c2.622,-0.003 5.22,-0.505 7.655,-1.48c7.711,-3.125 12.757,-10.613 12.759,-18.934l0,-22.965l51.034,0l0,76.552Z" style="fill:none;stroke:#fff;stroke-width:1.97px;"/><path d="M52.034,29.069l-51.034,0l0,-15.31c0.008,-2.815 2.288,-5.095 5.103,-5.104l47.98,0c-1.303,2.252 -2.049,4.867 -2.049,7.655l0,12.759Zm96.966,0l-51.034,0l0,-12.759c0,-2.788 -0.746,-5.403 -2.049,-7.655l47.98,0c2.815,0.009 5.095,2.289 5.103,5.104l0,15.31Zm-66.314,-14.327c0.507,7.997 7.154,14.327 15.28,14.327c-8.126,0 -14.773,-6.33 -15.28,-14.327Zm-27.978,14.327l-0.007,0l0.026,0l-0.019,0Zm0.09,-0.001l-0.013,0l0.031,0l-0.018,0Zm0.091,0l-0.018,0l0.03,-0.001l-0.012,0.001Zm0.09,-0.002l-0.019,0.001l0.025,-0.001l-0.006,0Zm0.091,-0.001l-0.001,0l0.01,0l-0.009,0Zm0.09,-0.001l-0.008,0l0.028,-0.001l-0.02,0.001Zm0.091,-0.002l-0.014,0l0.03,-0.001l-0.016,0.001Zm0.09,-0.003l-0.019,0.001l0.03,-0.001l-0.011,0Zm0.09,-0.002l-0.018,0l0.023,0l-0.005,0Zm0.09,-0.003l-0.002,0l0.016,0l-0.014,0Zm0.09,-0.003l-0.009,0l0.029,-0.001l-0.02,0.001Zm0.09,-0.003l-0.015,0l0.031,-0.001l-0.016,0.001Zm0.09,-0.004l-0.019,0.001l0.029,-0.001l-0.01,0Zm0.09,-0.004l-0.017,0.001l0.021,-0.001l-0.004,0Zm0.09,-0.004l-0.004,0l0.02,-0.001l-0.016,0.001Zm0.089,-0.004l-0.009,0l0.029,-0.001l-0.02,0.001Zm0.09,-0.005l-0.016,0.001l0.031,-0.002l-0.015,0.001Zm0.09,-0.005l-0.02,0.001l0.029,-0.002l-0.009,0.001Zm0.089,-0.005l-0.014,0l0.017,-0.001l-0.003,0.001Zm0.089,-0.006l-0.004,0l0.023,-0.001l-0.019,0.001Zm0.09,-0.006l-0.011,0.001l0.03,-0.002l-0.019,0.001Zm0.089,-0.006l-0.016,0.001l0.03,-0.002l-0.014,0.001Zm0.089,-0.006l-0.019,0.001l0.027,-0.002l-0.008,0.001Zm0.089,-0.007l-0.01,0.001l0.012,-0.001l-0.002,0Zm0.089,-0.007l-0.005,0l0.024,-0.002l-0.019,0.002Zm0.089,-0.007l-0.012,0.001l0.03,-0.003l-0.018,0.002Zm0.089,-0.008l-0.017,0.002l0.03,-0.003l-0.013,0.001Zm0.089,-0.008l-0.02,0.002l0.027,-0.002l-0.007,0Zm0.089,-0.008l-0.003,0.001l0.003,-0.001Zm0.088,-0.008l-0.006,0.001l0.025,-0.003l-0.019,0.002Zm0.089,-0.009l-0.013,0.002l0.03,-0.003l-0.017,0.001Zm0.088,-0.008l-0.018,0.001l0.03,-0.003l-0.012,0.002Zm0.088,-0.01l-0.019,0.002l0.025,-0.002l-0.006,0Zm0.089,-0.009l-0.001,0l0.008,-0.001l-0.007,0.001Zm0.088,-0.01l-0.008,0.001l0.027,-0.003l-0.019,0.002Zm0.088,-0.01l-0.013,0.002l0.03,-0.004l-0.017,0.002Zm0.088,-0.01l-0.018,0.002l0.029,-0.003l-0.011,0.001Zm0.088,-0.01l-0.018,0.002l0.023,-0.003l-0.005,0.001Zm0.088,-0.011l-0.002,0l0.015,-0.002l-0.013,0.002Zm0.088,-0.011l-0.009,0.001l0.028,-0.004l-0.019,0.003Zm0.087,-0.012l-0.014,0.002l0.03,-0.004l-0.016,0.002Zm0.088,-0.011l-0.019,0.002l0.029,-0.004l-0.01,0.002Zm0.088,-0.012l-0.017,0.002l0.02,-0.003l-0.003,0.001Zm0.087,-0.012l-0.003,0l0.019,-0.003l-0.016,0.003Zm0.087,-0.013l-0.009,0.002l0.028,-0.004l-0.019,0.002Zm0.088,-0.012l-0.015,0.002l0.03,-0.005l-0.015,0.003Zm0.087,-0.013l-0.019,0.002l0.028,-0.004l-0.009,0.002Zm0.087,-0.014l-0.015,0.003l0.018,-0.003l-0.003,0Zm0.087,-0.013l-0.004,0.001l0.021,-0.004l-0.017,0.003Zm0.087,-0.014l-0.01,0.002l0.028,-0.005l-0.018,0.003Zm0.087,-0.014l-0.016,0.003l0.03,-0.005l-0.014,0.002Zm0.087,-0.014l-0.02,0.003l0.028,-0.004l-0.008,0.001Zm0.086,-0.015l-0.01,0.002l0.012,-0.002l-0.002,0Zm0.087,-0.014l-0.005,0l0.023,-0.004l-0.018,0.004Zm0.086,-0.016l-0.011,0.002l0.029,-0.005l-0.018,0.003Zm0.087,-0.015l-0.017,0.003l0.03,-0.005l-0.013,0.002Zm0.086,-0.015l-0.019,0.003l0.026,-0.005l-0.007,0.002Zm0.086,-0.016l-0.004,0l0.005,0l-0.001,0Zm0.086,-0.016l-0.006,0.001l0.025,-0.005l-0.019,0.004Zm0.086,-0.017l-0.012,0.002l0.029,-0.005l-0.017,0.003Zm0.086,-0.017l-0.017,0.004l0.029,-0.006l-0.012,0.002Zm0.086,-0.016l-0.019,0.003l0.025,-0.005l-0.006,0.002Zm0.086,-0.018l-0.001,0.001l0.007,-0.002l-0.006,0.001Zm0.085,-0.017l-0.007,0.001l0.026,-0.005l-0.019,0.004Zm0.086,-0.018l-0.013,0.003l0.029,-0.006l-0.016,0.003Zm0.085,-0.018l-0.017,0.004l0.028,-0.006l-0.011,0.002Zm0.086,-0.018l-0.018,0.004l0.023,-0.005l-0.005,0.001Zm0.085,-0.018l-0.002,0l0.014,-0.003l-0.012,0.003Zm0.085,-0.019l-0.008,0.002l0.027,-0.006l-0.019,0.004Zm0.085,-0.019l-0.014,0.003l0.03,-0.007l-0.016,0.004Zm0.085,-0.019l-0.018,0.004l0.028,-0.007l-0.01,0.003Zm0.085,-0.02l-0.017,0.004l0.021,-0.005l-0.004,0.001Zm0.085,-0.02l-0.003,0.001l0.018,-0.004l-0.015,0.003Zm0.085,-0.02l-0.01,0.003l0.028,-0.007l-0.018,0.004Zm0.084,-0.02l-0.015,0.004l0.03,-0.007l-0.015,0.003Zm0.085,-0.02l-0.019,0.004l0.028,-0.007l-0.009,0.003Zm0.084,-0.021l-0.015,0.003l0.018,-0.004l-0.003,0.001Zm0.084,-0.021l-0.004,0.001l0.021,-0.005l-0.017,0.004Zm0.084,-0.021l-0.01,0.002l0.028,-0.007l-0.018,0.005Zm0.084,-0.022l-0.015,0.004l0.029,-0.008l-0.014,0.004Zm0.084,-0.022l-0.018,0.005l0.026,-0.007l-0.008,0.002Zm0.084,-0.022l-0.011,0.003l0.013,-0.003l-0.002,0Zm0.084,-0.022l-0.005,0.001l0.023,-0.006l-0.018,0.005Zm0.084,-0.023l-0.011,0.003l0.028,-0.007l-0.017,0.004Zm0.083,-0.022l-0.016,0.004l0.029,-0.008l-0.013,0.004Zm0.084,-0.024l-0.019,0.006l0.026,-0.007l-0.007,0.001Zm0.083,-0.023l-0.006,0.002l0.007,-0.002l-0.001,0Zm0.083,-0.023l-0.005,0.001l0.024,-0.007l-0.019,0.006Zm0.083,-0.024l-0.011,0.003l0.028,-0.008l-0.017,0.005Zm0.084,-0.024l-0.017,0.005l0.028,-0.009l-0.011,0.004Zm0.082,-0.025l-0.018,0.006l0.024,-0.007l-0.006,0.001Zm0.083,-0.024l0.005,-0.002l-0.005,0.002Zm0.083,-0.025l-0.007,0.002l0.025,-0.007l-0.018,0.005Zm0.083,-0.025l-0.013,0.004l0.029,-0.009l-0.016,0.005Zm0.082,-0.025l-0.017,0.005l0.028,-0.009l-0.011,0.004Zm0.083,-0.026l-0.018,0.006l0.022,-0.007l-0.004,0.001Zm0.082,-0.026l-0.002,0.001l0.013,-0.004l-0.011,0.003Zm0.082,-0.026l-0.008,0.003l0.026,-0.008l-0.018,0.005Zm0.082,-0.026l-0.013,0.004l0.028,-0.009l-0.015,0.005Zm0.082,-0.026l-0.018,0.005l0.028,-0.009l-0.01,0.004Zm0.082,-0.027l-0.017,0.005l0.021,-0.006l-0.004,0.001Zm0.082,-0.027l-0.003,0.001l0.017,-0.006l-0.014,0.005Zm0.081,-0.027l-0.008,0.002l0.026,-0.008l-0.018,0.006Zm0.082,-0.028l-0.014,0.005l0.028,-0.01l-0.014,0.005Zm0.081,-0.028l-0.018,0.006l0.027,-0.009l-0.009,0.003Zm0.081,-0.028l-0.015,0.006l0.018,-0.007l-0.003,0.001Zm0.082,-0.028l-0.004,0.001l0.02,-0.007l-0.016,0.006Zm0.081,-0.028l-0.01,0.003l0.027,-0.009l-0.017,0.006Zm0.081,-0.029l-0.015,0.005l0.028,-0.01l-0.013,0.005Zm0.08,-0.029l-0.018,0.007l0.026,-0.01l-0.008,0.003Zm0.081,-0.029l-0.012,0.004l0.014,-0.005l-0.002,0.001Zm0.081,-0.03l-0.005,0.002l0.022,-0.008l-0.017,0.006Zm0.08,-0.029l-0.01,0.004l0.027,-0.011l-0.017,0.007Zm0.081,-0.03l-0.016,0.006l0.028,-0.011l-0.012,0.005Zm0.08,-0.03l-0.018,0.007l0.025,-0.01l-0.007,0.003Zm0.08,-0.031l-0.008,0.003l0.009,-0.003l-0.001,0Zm0.08,-0.03l-0.005,0.002l0.023,-0.009l-0.018,0.007Zm0.08,-0.031l-0.011,0.004l0.027,-0.01l-0.016,0.006Zm0.08,-0.031l-0.016,0.006l0.027,-0.011l-0.011,0.005Zm0.079,-0.031l-0.018,0.007l0.024,-0.01l-0.006,0.003Zm0.08,-0.032l0.004,-0.002l-0.004,0.002Zm0.079,-0.032l-0.006,0.003l0.024,-0.01l-0.018,0.007Zm0.08,-0.032l-0.012,0.005l0.027,-0.011l-0.015,0.006Zm0.079,-0.032l-0.017,0.007l0.028,-0.012l-0.011,0.005Zm0.079,-0.033l-0.018,0.008l0.023,-0.01l-0.005,0.002Zm0.079,-0.032l-0.001,0l0.011,-0.005l-0.01,0.005Zm0.079,-0.033l-0.008,0.003l0.026,-0.011l-0.018,0.008Zm0.078,-0.034l-0.012,0.006l0.027,-0.012l-0.015,0.006Zm0.079,-0.033l-0.017,0.007l0.027,-0.011l-0.01,0.004Zm0.079,-0.034l-0.017,0.008l0.021,-0.009l-0.004,0.001Zm0.078,-0.034l-0.003,0.002l0.017,-0.008l-0.014,0.006Zm0.078,-0.034l-0.008,0.004l0.026,-0.011l-0.018,0.007Zm0.078,-0.034l-0.013,0.006l0.027,-0.012l-0.014,0.006Zm0.078,-0.035l-0.017,0.008l0.026,-0.012l-0.009,0.004Zm0.078,-0.034l-0.016,0.007l0.019,-0.009l-0.003,0.002Zm0.078,-0.035l-0.004,0.001l0.02,-0.009l-0.016,0.008Zm0.077,-0.036l-0.009,0.004l0.027,-0.012l-0.018,0.008Zm0.078,-0.035l-0.015,0.006l0.028,-0.012l-0.013,0.006Zm0.077,-0.036l-0.018,0.008l0.026,-0.012l-0.008,0.004Zm0.077,-0.036l-0.013,0.006l0.015,-0.007l-0.002,0.001Zm0.077,-0.036l-0.004,0.002l0.021,-0.01l-0.017,0.008Zm0.077,-0.036l-0.01,0.004l0.027,-0.012l-0.017,0.008Zm0.077,-0.037l-0.015,0.007l0.028,-0.013l-0.013,0.006Zm0.077,-0.037l-0.018,0.009l0.025,-0.012l-0.007,0.003Zm0.076,-0.037l-0.009,0.005l0.011,-0.006l-0.002,0.001Zm0.077,-0.037l-0.005,0.002l0.023,-0.011l-0.018,0.009Zm0.076,-0.038l-0.011,0.005l0.027,-0.013l-0.016,0.008Zm0.076,-0.038l-0.015,0.008l0.027,-0.013l-0.012,0.005Zm0.076,-0.038l-0.017,0.009l0.024,-0.012l-0.007,0.003Zm0.076,-0.038l-0.003,0.002l0.003,-0.002l0.004,-0.002l-0.004,0.002Zm0.076,-0.038l-0.006,0.003l0.024,-0.012l-0.018,0.009Zm0.076,-0.039l-0.012,0.006l0.027,-0.014l-0.015,0.008Zm0.075,-0.039l-0.016,0.008l0.027,-0.013l-0.011,0.005Zm0.076,-0.039l-0.018,0.009l0.023,-0.012l-0.005,0.003Zm0.075,-0.039l-0.001,0l0.012,-0.006l-0.011,0.006Zm0.075,-0.04l-0.007,0.004l0.025,-0.013l-0.018,0.009Zm0.075,-0.04l-0.012,0.007l0.027,-0.014l-0.015,0.007Zm0.075,-0.04l-0.017,0.009l0.027,-0.014l-0.01,0.005Zm0.075,-0.04l-0.018,0.009l0.022,-0.011l-0.004,0.002Zm0.074,-0.04l-0.002,0.001l0.016,-0.009l-0.014,0.008Zm0.075,-0.041l-0.008,0.005l0.025,-0.014l-0.017,0.009Zm0.074,-0.041l-0.013,0.008l0.027,-0.015l-0.014,0.007Zm0.074,-0.041l-0.017,0.01l0.026,-0.015l-0.009,0.005Zm0.074,-0.041l-0.016,0.009l0.019,-0.011l-0.003,0.002Zm0.074,-0.042l-0.003,0.002l0.019,-0.011l-0.016,0.009Zm0.074,-0.041l-0.009,0.005l0.026,-0.015l-0.017,0.01Zm0.073,-0.042l-0.014,0.008l0.028,-0.016l-0.014,0.008Zm0.074,-0.042l-0.018,0.01l0.026,-0.015l-0.008,0.005Zm0.073,-0.043l-0.015,0.009l0.018,-0.01l-0.003,0.001Zm0.073,-0.042l-0.004,0.002l0.022,-0.012l-0.018,0.01Zm0.073,-0.043l-0.009,0.006l0.026,-0.016l-0.017,0.01Zm0.073,-0.043l-0.014,0.008l0.027,-0.015l-0.013,0.007Zm0.073,-0.043l-0.018,0.01l0.025,-0.015l-0.007,0.005Zm0.073,-0.044l-0.012,0.007l0.013,-0.008l-0.001,0.001Zm0.072,-0.043l-0.005,0.003l0.023,-0.014l-0.018,0.011Zm0.073,-0.044l-0.011,0.006l0.027,-0.016l-0.016,0.01Zm0.072,-0.044l-0.015,0.009l0.026,-0.016l-0.011,0.007Zm0.072,-0.045l-0.018,0.011l0.024,-0.015l-0.006,0.004Zm0.072,-0.044l-0.008,0.004l0.008,-0.004l0.005,-0.003l-0.005,0.003Zm0.072,-0.045l-0.007,0.004l0.024,-0.015l-0.017,0.011Zm0.071,-0.045l-0.011,0.007l0.026,-0.016l-0.015,0.009Zm0.072,-0.045l-0.016,0.01l0.026,-0.017l-0.01,0.007Zm0.071,-0.045l-0.018,0.011l0.023,-0.015l-0.005,0.004Zm0.071,-0.046l-0.001,0.001l0.013,-0.008l-0.012,0.007Zm0.071,-0.046l-0.007,0.005l0.025,-0.016l-0.018,0.011Zm0.071,-0.046l-0.012,0.008l0.027,-0.017l-0.015,0.009Zm0.071,-0.046l-0.016,0.011l0.026,-0.017l-0.01,0.006Zm0.07,-0.046l-0.017,0.012l0.022,-0.015l-0.005,0.003Zm0.071,-0.047l-0.002,0.002l0.017,-0.012l-0.015,0.01Zm0.07,-0.046l-0.008,0.005l0.026,-0.017l-0.018,0.012Zm0.07,-0.047l-0.012,0.008l0.026,-0.018l-0.014,0.01Zm0.07,-0.048l-0.016,0.012l0.025,-0.018l-0.009,0.006Zm0.07,-0.047l-0.017,0.012l0.021,-0.015l-0.004,0.003Zm0.07,-0.048l-0.003,0.003l0.02,-0.014l-0.017,0.011Zm0.07,-0.047l-0.009,0.005l0.026,-0.017l-0.017,0.012Zm0.069,-0.048l-0.014,0.009l0.027,-0.019l-0.013,0.01Zm0.069,-0.049l-0.017,0.012l0.025,-0.017l-0.008,0.005Zm0.069,-0.048l-0.016,0.011l0.019,-0.013l-0.003,0.002Zm0.069,-0.049l-0.004,0.003l0.022,-0.015l-0.018,0.012Zm0.069,-0.049l-0.009,0.007l0.026,-0.018l-0.017,0.011Zm0.069,-0.049l-0.015,0.011l0.027,-0.019l-0.012,0.008Zm0.068,-0.049l-0.018,0.013l0.026,-0.018l-0.008,0.005Zm0.069,-0.049l-0.015,0.01l0.017,-0.012l-0.002,0.002Zm0.068,-0.05l-0.005,0.004l0.023,-0.017l-0.018,0.013Zm0.068,-0.05l-0.011,0.008l0.027,-0.019l-0.016,0.011Zm0.068,-0.05l-0.015,0.011l0.026,-0.019l-0.011,0.008Zm0.067,-0.05l-0.018,0.013l0.025,-0.018l-0.007,0.005Zm0.068,-0.05l-0.012,0.008l0.012,-0.009l0.007,-0.005l-0.007,0.006Zm0.067,-0.051l-0.006,0.004l0.024,-0.018l-0.018,0.014Zm0.068,-0.051l-0.012,0.009l0.027,-0.02l-0.015,0.011Zm0.067,-0.051l-0.016,0.012l0.026,-0.02l-0.01,0.008Zm0.067,-0.051l-0.019,0.014l0.024,-0.018l-0.005,0.004Zm0.066,-0.051l-0.005,0.004l0.004,-0.004l0.015,-0.011l-0.014,0.011Zm0.067,-0.052l-0.007,0.005l0.025,-0.019l-0.018,0.014Zm0.066,-0.052l-0.011,0.009l0.026,-0.02l-0.015,0.011Zm0.067,-0.052l-0.016,0.013l0.026,-0.021l-0.01,0.008Zm0.066,-0.052l-0.019,0.014l0.024,-0.018l-0.005,0.004Zm0.066,-0.052l-0.003,0.002l0.019,-0.015l-0.016,0.013Zm0.066,-0.053l-0.008,0.006l0.025,-0.02l-0.017,0.014Zm0.065,-0.053l-0.012,0.01l0.026,-0.021l-0.014,0.011Zm0.066,-0.053l-0.017,0.014l0.026,-0.021l-0.009,0.007Zm0.065,-0.053l-0.018,0.015l0.022,-0.018l-0.004,0.003Zm0.065,-0.053l-0.003,0.003l0.021,-0.018l-0.018,0.015Zm0.065,-0.054l-0.008,0.007l0.025,-0.021l-0.017,0.014Zm0.065,-0.054l-0.013,0.012l0.026,-0.022l-0.013,0.01Zm0.065,-0.053l-0.018,0.014l0.026,-0.021l-0.008,0.007Zm0.064,-0.055l-0.018,0.015l0.022,-0.017l-0.004,0.002Zm0.065,-0.054l-0.005,0.004l0.023,-0.02l-0.018,0.016Zm0.064,-0.054l-0.01,0.008l0.026,-0.023l-0.016,0.015Zm0.064,-0.055l-0.014,0.012l0.026,-0.023l-0.012,0.011Zm0.064,-0.055l-0.018,0.015l0.025,-0.021l-0.007,0.006Zm0.063,-0.055l-0.017,0.015l0.02,-0.017l-0.003,0.002Zm0.064,-0.055l-0.005,0.004l0.023,-0.021l-0.018,0.017Zm0.063,-0.056l-0.01,0.009l0.026,-0.023l-0.016,0.014Zm0.063,-0.055l-0.014,0.013l0.026,-0.024l-0.012,0.011Zm0.063,-0.056l-0.018,0.016l0.025,-0.022l-0.007,0.006Zm0.063,-0.056l-0.016,0.014l0.017,-0.015l0.011,-0.009l-0.012,0.01Zm0.063,-0.056l-0.006,0.005l0.024,-0.022l-0.018,0.017Zm0.062,-0.057l-0.011,0.01l0.027,-0.023l-0.016,0.013Zm0.063,-0.056l-0.016,0.014l0.027,-0.024l-0.011,0.01Zm0.062,-0.057l-0.019,0.017l0.025,-0.022l-0.006,0.005Zm0.062,-0.057l-0.013,0.012l0.012,-0.011l0.017,-0.016l-0.016,0.015Zm0.062,-0.057l-0.007,0.006l0.025,-0.023l-0.018,0.017Zm0.061,-0.057l-0.011,0.011l0.026,-0.025l-0.015,0.014Zm0.062,-0.058l-0.016,0.015l0.026,-0.024l-0.01,0.009Zm0.061,-0.057l-0.019,0.018l0.024,-0.023l-0.005,0.005Zm0.061,-0.058l-0.006,0.006l0.004,-0.004l0.021,-0.02l-0.019,0.018Zm0.061,-0.058l-0.008,0.007l0.026,-0.024l-0.018,0.017Zm0.061,-0.058l-0.012,0.012l0.026,-0.026l-0.014,0.014Zm0.06,-0.059l-0.016,0.016l0.026,-0.025l-0.01,0.009Zm0.061,-0.058l-0.019,0.019l0.023,-0.023l-0.004,0.004Zm0.06,-0.059l-0.003,0.004l0.022,-0.023l-0.019,0.019Zm0.06,-0.059l-0.008,0.009l0.026,-0.026l-0.018,0.017Zm0.06,-0.059l-0.013,0.013l0.026,-0.026l-0.013,0.013Zm0.06,-0.059l-0.017,0.017l0.025,-0.026l-0.008,0.009Zm0.059,-0.059l-0.019,0.019l0.023,-0.023l-0.004,0.004Zm0.06,-0.06l-0.005,0.004l0.024,-0.024l-0.019,0.02Zm0.059,-0.06l-0.009,0.009l0.026,-0.026l-0.017,0.017Zm0.059,-0.06l-0.014,0.014l0.026,-0.027l-0.012,0.013Zm0.059,-0.06l-0.018,0.018l0.026,-0.026l-0.008,0.008Zm0.058,-0.06l-0.019,0.02l0.022,-0.023l0.006,-0.006l-0.009,0.009Zm0.059,-0.061l-0.005,0.006l0.025,-0.026l-0.02,0.02Zm0.058,-0.06l-0.01,0.01l0.026,-0.027l-0.016,0.017Zm0.058,-0.061l-0.014,0.015l0.026,-0.028l-0.012,0.013Zm0.058,-0.061l-0.018,0.019l0.025,-0.027l-0.007,0.008Zm0.058,-0.062l-0.02,0.021l0.021,-0.022l0.016,-0.017l-0.017,0.018Zm0.058,-0.061l-0.006,0.006l0.025,-0.027l-0.019,0.021Zm0.057,-0.061l-0.011,0.011l0.026,-0.028l-0.015,0.017Zm0.057,-0.062l-0.015,0.016l0.026,-0.028l-0.011,0.012Zm0.057,-0.062l-0.019,0.021l0.026,-0.028l-0.007,0.007Zm0.057,-0.062l-0.019,0.021l0.019,-0.021l0.02,-0.022l-0.02,0.022Zm0.057,-0.062l-0.007,0.007l0.026,-0.028l-0.019,0.021Zm0.056,-0.063l-0.011,0.013l0.026,-0.029l-0.015,0.016Zm0.057,-0.062l-0.016,0.017l0.026,-0.029l-0.01,0.012Zm0.056,-0.063l-0.02,0.022l0.025,-0.028l-0.005,0.006Zm0.056,-0.063l-0.018,0.02l0.016,-0.018l0.023,-0.026l-0.021,0.024Zm0.055,-0.063l-0.007,0.009l0.026,-0.03l-0.019,0.021Zm0.056,-0.063l-0.012,0.014l0.026,-0.03l-0.014,0.016Zm0.055,-0.064l-0.016,0.019l0.026,-0.03l-0.01,0.011Zm0.055,-0.063l-0.02,0.023l0.025,-0.029l-0.005,0.006Zm0.055,-0.064l-0.012,0.014l0.009,-0.01l0.025,-0.029l-0.022,0.025Zm0.055,-0.064l-0.008,0.01l0.026,-0.03l-0.018,0.02Zm0.055,-0.064l-0.013,0.015l0.026,-0.031l-0.013,0.016Zm0.054,-0.064l-0.017,0.02l0.026,-0.03l-0.009,0.01Zm0.054,-0.064l-0.021,0.025l0.026,-0.031l-0.005,0.006Zm0.054,-0.065l-0.004,0.005l0.025,-0.03l-0.021,0.025Zm0.054,-0.065l-0.009,0.011l0.026,-0.031l-0.017,0.02Zm0.054,-0.065l-0.014,0.017l0.026,-0.032l-0.012,0.015Zm0.053,-0.065l-0.018,0.022l0.026,-0.032l-0.008,0.01Zm0.054,-0.065l-0.022,0.027l0.024,-0.03l0.019,-0.024l-0.021,0.027Zm0.053,-0.065l-0.005,0.006l0.025,-0.032l-0.02,0.026Zm0.053,-0.066l-0.01,0.012l0.026,-0.032l-0.016,0.02Zm0.052,-0.066l-0.014,0.018l0.026,-0.032l-0.012,0.014Zm0.053,-0.065l-0.019,0.023l0.026,-0.033l-0.007,0.01Zm0.052,-0.066l-0.023,0.028l0.024,-0.03l0.023,-0.029l-0.024,0.031Zm0.052,-0.067l-0.006,0.008l0.026,-0.033l-0.02,0.025Zm0.052,-0.066l-0.01,0.013l0.026,-0.033l-0.016,0.02Zm0.052,-0.067l-0.015,0.02l0.026,-0.034l-0.011,0.014Zm0.051,-0.066l-0.019,0.025l0.026,-0.034l-0.007,0.009Zm0.052,-0.067l-0.024,0.032l0.024,-0.032l0.024,-0.032l-0.024,0.032Zm0.051,-0.067l-0.007,0.009l0.026,-0.034l-0.019,0.025Zm0.051,-0.067l-0.011,0.015l0.026,-0.035l-0.015,0.02Zm0.051,-0.067l-0.016,0.02l0.026,-0.034l-0.01,0.014Zm0.05,-0.068l-0.02,0.027l0.026,-0.035l-0.006,0.008Zm0.051,-0.068l-0.027,0.036l0.025,-0.034l0.025,-0.034l-0.023,0.032Zm0.05,-0.067l-0.008,0.01l0.026,-0.035l-0.018,0.025Zm0.05,-0.068l-0.012,0.016l0.026,-0.035l-0.014,0.019Zm0.049,-0.068l-0.016,0.022l0.026,-0.035l-0.01,0.013Zm0.05,-0.069l-0.021,0.03l0.026,-0.037l-0.005,0.007Zm0.049,-0.068l-0.033,0.046l0.03,-0.042l0.026,-0.036l-0.023,0.032Zm0.049,-0.068l-0.008,0.011l0.026,-0.036l-0.018,0.025Zm0.049,-0.069l-0.012,0.017l0.026,-0.036l-0.014,0.019Zm0.049,-0.069l-0.017,0.024l0.026,-0.037l-0.009,0.013Zm0.119,-0.17c-0.031,0.044 -0.061,0.088 -0.092,0.132c0.031,-0.044 0.061,-0.088 0.092,-0.132Zm0.026,-0.037l-0.009,0.012l0.026,-0.037l-0.017,0.025Zm0.048,-0.07l-0.013,0.019l0.026,-0.037l-0.013,0.018Zm0.048,-0.07l-0.018,0.026l0.026,-0.037l-0.008,0.011Zm0.047,-0.069l-0.023,0.034l0.026,-0.038l0.038,-0.056l-0.041,0.06Zm0.048,-0.07l-0.006,0.008l0.027,-0.04l-0.021,0.032Zm0.047,-0.07l-0.01,0.014l0.026,-0.038l-0.016,0.024Zm0.047,-0.071l-0.014,0.021l0.025,-0.038l-0.011,0.017Zm0.046,-0.07l-0.018,0.028l0.026,-0.039l-0.008,0.011Zm0.047,-0.07l-0.025,0.038l0.026,-0.041l0.031,-0.046l-0.032,0.049Zm0.046,-0.071l-0.006,0.009l0.027,-0.04l-0.021,0.031Zm0.046,-0.071l-0.01,0.016l0.026,-0.04l-0.016,0.024Zm0.046,-0.071l-0.014,0.023l0.025,-0.04l-0.011,0.017Zm0.046,-0.071l-0.019,0.03l0.026,-0.04l-0.007,0.01Zm0.045,-0.071l-0.027,0.044l0.028,-0.044l0.028,-0.045l-0.029,0.045Zm0.046,-0.071l-0.007,0.01l0.026,-0.041l-0.019,0.031Zm0.045,-0.072l-0.011,0.017l0.025,-0.04l-0.014,0.023Zm0.045,-0.072l-0.016,0.024l0.026,-0.04l-0.01,0.016Zm0.044,-0.072l-0.02,0.033l0.026,-0.042l-0.006,0.009Zm0.045,-0.071l-0.033,0.053l0.031,-0.052l0.028,-0.045l-0.026,0.044Zm0.044,-0.073l-0.007,0.012l0.025,-0.042l-0.018,0.03Zm0.044,-0.072l-0.012,0.019l0.025,-0.042l-0.013,0.023Zm0.044,-0.072l-0.016,0.026l0.025,-0.042l-0.009,0.016Zm0.111,-0.187c-0.029,0.05 -0.059,0.1 -0.089,0.15c0.03,-0.05 0.06,-0.1 0.089,-0.15Zm0.019,-0.031l-0.008,0.013l0.025,-0.043l-0.017,0.03Zm0.043,-0.073l-0.012,0.02l0.024,-0.042l-0.012,0.022Zm0.042,-0.073l-0.016,0.028l0.025,-0.043l-0.009,0.015Zm0.108,-0.187c-0.029,0.051 -0.058,0.101 -0.088,0.152c0.03,-0.051 0.059,-0.101 0.088,-0.152Zm0.019,-0.034l-0.008,0.015l0.025,-0.044l-0.017,0.029Zm0.042,-0.073l-0.012,0.022l0.024,-0.044l-0.012,0.022Zm0.042,-0.074l-0.017,0.03l0.025,-0.044l-0.008,0.014Zm3.611,-0.052l0.003,0.048l-0.003,-0.048Zm-3.507,-0.135c-0.029,0.052 -0.058,0.104 -0.087,0.156c0.029,-0.052 0.058,-0.104 0.087,-0.156Zm3.504,0.086l0.003,0.046l-0.003,-0.046Zm-0.002,-0.049l0.002,0.044l-0.002,-0.044Zm-0.003,-0.049l0.002,0.041l-0.002,-0.041Zm-3.48,-0.023l-0.009,0.016l0.025,-0.045l-0.016,0.029Zm3.478,-0.025l0.002,0.038l-0.002,-0.038Zm-0.003,-0.049l0.002,0.036l-0.002,-0.036Zm-3.434,-0.001l-0.013,0.024l0.024,-0.044l-0.011,0.02Zm3.432,-0.048l0.002,0.035l-0.002,-0.035Zm-3.391,-0.026l-0.018,0.033l0.025,-0.047l-0.007,0.014Zm3.389,-0.024l0.002,0.034l-0.002,-0.034Zm-3.288,-0.164c-0.029,0.054 -0.058,0.108 -0.087,0.162c0.029,-0.054 0.058,-0.108 0.087,-0.162Zm3.287,0.115l0.001,0.032l-0.001,-0.032Zm-0.002,-0.049l0.001,0.03l-0.001,-0.03Zm-0.002,-0.049l0.001,0.029l-0.001,-0.029Zm-0.001,-0.049l0.001,0.027l-0.001,-0.027Zm-3.263,-0.004l-0.01,0.018l0.025,-0.046l-0.015,0.028Zm3.262,-0.045l0.001,0.026l-0.001,-0.026Zm-3.222,-0.03l-0.014,0.026l0.024,-0.046l-0.01,0.02Zm3.221,-0.02l0.001,0.026l-0.001,-0.026Zm-3.182,-0.055l-0.019,0.035l0.026,-0.048l-0.007,0.013Zm3.181,0.006l0.001,0.024l-0.001,-0.024Zm-3.083,-0.195c-0.03,0.057 -0.059,0.114 -0.088,0.17c0.029,-0.056 0.059,-0.113 0.088,-0.17Zm3.082,0.146l0.001,0.023l-0.001,-0.023Zm0,-0.05l0,0.022l0,-0.022Zm-0.001,-0.049l0.001,0.02l-0.001,-0.02Zm0,-0.05l0,0.017l0,-0.017Zm-3.062,-0.035l-0.01,0.02l0.024,-0.047l-0.014,0.027Zm0.039,-0.075l-0.014,0.027l0.024,-0.047l-0.01,0.02Zm0.105,-0.209c-0.029,0.057 -0.058,0.114 -0.086,0.171c0.028,-0.057 0.057,-0.114 0.086,-0.171Zm0.009,-0.019l-0.007,0.014l0.025,-0.051l-0.018,0.037Zm0.038,-0.077l-0.011,0.022l0.024,-0.048l-0.013,0.026Zm0.037,-0.076l-0.015,0.03l0.024,-0.049l-0.009,0.019Zm0.1,-0.206c-0.027,0.057 -0.055,0.115 -0.083,0.172c0.028,-0.057 0.056,-0.115 0.083,-0.172Zm0.011,-0.024l-0.007,0.016l0.024,-0.051l-0.017,0.035Zm0.037,-0.077l-0.011,0.024l0.023,-0.05l-0.012,0.026Zm0.036,-0.077l-0.015,0.033l0.024,-0.05l-0.009,0.017Zm0.095,-0.204c-0.026,0.058 -0.053,0.116 -0.081,0.174c0.028,-0.058 0.055,-0.116 0.081,-0.174Zm0.013,-0.027l-0.008,0.017l0.024,-0.052l-0.016,0.035Zm0.035,-0.078l-0.011,0.026l0.023,-0.051l-0.012,0.025Zm0.035,-0.077l-0.016,0.035l0.024,-0.053l-0.008,0.018Zm0.091,-0.204c-0.026,0.059 -0.052,0.119 -0.079,0.178c0.027,-0.059 0.053,-0.119 0.079,-0.178Zm0.014,-0.03l-0.009,0.019l0.023,-0.053l-0.014,0.034Zm0.034,-0.078l-0.012,0.027l0.022,-0.052l-0.01,0.025Zm0.034,-0.078l-0.017,0.038l0.024,-0.055l-0.007,0.017Zm0.087,-0.204c-0.026,0.062 -0.053,0.123 -0.079,0.185c0.026,-0.062 0.053,-0.123 0.079,-0.185Zm0.014,-0.032l-0.009,0.021l0.022,-0.054l-0.013,0.033Zm0.033,-0.079l-0.013,0.03l0.023,-0.053l-0.01,0.023Zm0.116,-0.281c-0.033,0.081 -0.067,0.163 -0.101,0.244c0.034,-0.081 0.068,-0.163 0.101,-0.244Zm0.014,-0.035l-0.009,0.023l0.022,-0.055l-0.013,0.032Zm0.032,-0.079l-0.013,0.032l0.022,-0.055l-0.009,0.023Zm0.111,-0.282c-0.032,0.083 -0.065,0.165 -0.098,0.248c0.033,-0.083 0.066,-0.165 0.098,-0.248Zm0.014,-0.037l-0.009,0.025l0.021,-0.056l-0.012,0.031Zm0.031,-0.08l-0.013,0.035l0.021,-0.057l-0.008,0.022Zm0.106,-0.282c-0.031,0.084 -0.062,0.168 -0.094,0.252c0.032,-0.084 0.063,-0.168 0.094,-0.252Zm0.015,-0.039l-0.01,0.027l0.021,-0.057l-0.011,0.03Zm0.029,-0.08l-0.014,0.037l0.022,-0.058l-0.008,0.021Zm0.102,-0.283c-0.031,0.086 -0.061,0.172 -0.092,0.257c0.031,-0.085 0.061,-0.171 0.092,-0.257Zm0.014,-0.04l-0.01,0.028l0.02,-0.058l-0.01,0.03Zm0.104,-0.302c-0.029,0.087 -0.059,0.174 -0.09,0.261c0.031,-0.087 0.061,-0.174 0.09,-0.261Zm0.008,-0.024l-0.007,0.022l0.02,-0.061l-0.013,0.039Zm0.028,-0.081l-0.011,0.031l0.02,-0.059l-0.009,0.028Zm0.098,-0.301c-0.028,0.088 -0.057,0.176 -0.086,0.263c0.029,-0.087 0.058,-0.175 0.086,-0.263Zm0.009,-0.026l-0.008,0.023l0.02,-0.062l-0.012,0.039Zm0.026,-0.082l-0.011,0.033l0.02,-0.061l-0.009,0.028Zm0.093,-0.3c-0.027,0.088 -0.054,0.177 -0.082,0.265c0.028,-0.088 0.055,-0.177 0.082,-0.265Zm0.009,-0.03l-0.008,0.026l0.019,-0.063l-0.011,0.037Zm0.025,-0.083l-0.011,0.037l0.019,-0.063l-0.008,0.026Zm0.088,-0.299c-0.026,0.09 -0.052,0.179 -0.079,0.269c0.027,-0.09 0.053,-0.179 0.079,-0.269Zm0.009,-0.032l-0.008,0.028l0.019,-0.064l-0.011,0.036Zm0.024,-0.083l-0.011,0.039l0.018,-0.065l-0.007,0.026Z" style="fill:none;stroke:#fff;stroke-width:1.97px;"/><path d="M100.517,143.897l0,5.103l-10.207,0l-30.62,0l-10.207,0l0,-5.103l10.207,-5.104l0,-22.965l30.62,0l0,22.965l10.207,5.104Z" style="fill:none;stroke:#fff;stroke-width:1.97px;"/><path d="M52.009,36.724l0,10.207l-6.788,0c-1.868,-0.021 -3.38,-2.294 -3.393,-5.103c0.005,-2.816 1.521,-5.096 3.393,-5.104l6.788,0Z" style="fill:none;stroke:#fff;stroke-width:1.97px;"/><path d="M64.793,70.968c2.435,0.975 5.033,1.477 7.655,1.48l5.104,0c2.622,-0.003 5.22,-0.505 7.655,-1.48l0,9.135c-0.898,1.347 -2.054,2.502 -3.4,3.4c-5.637,3.76 -13.254,2.238 -17.014,-3.4l0,-9.135Z" style="fill:none;stroke:#fff;stroke-width:1.97px;"/><path d="M104.141,36.724c2.224,0.008 4.025,2.288 4.031,5.104c-0.016,2.809 -1.812,5.082 -4.031,5.103l-6.048,0l0,-10.207l6.048,0Z" style="fill:none;stroke:#fff;stroke-width:1.97px;"/><rect x="13.759" y="77.475" width="17.862" height="28.146" style="fill:none;stroke:#fff;stroke-width:1.97px;"/><path d="M118.379,105.621l-86.758,0c0,-14.093 11.424,-25.518 25.517,-25.518l7.655,0c3.76,5.638 11.377,7.16 17.014,3.4c1.346,-0.898 2.502,-2.053 3.4,-3.4l7.655,0c14.093,0 25.517,11.425 25.517,25.518Z" style="fill:none;stroke:#fff;stroke-width:1.97px;"/><path d="M97.966,16.31l0,12.759c-8.456,0 -15.311,-6.855 -15.311,-15.31l0,-12.759c8.456,0 15.311,6.855 15.311,15.31Z" style="fill:none;stroke:#fff;stroke-width:1.97px;"/><path d="M72.448,1l10.207,0c0.009,15.494 -12.544,28.061 -28.038,28.069c-0.01,0 -0.021,0 -0.031,0l-2.552,0l0,-12.759c0,-8.455 6.855,-15.31 15.311,-15.31l5.103,0Z" style="fill:none;stroke:#fff;stroke-width:1.97px;"/><path d="M82.655,13.759c0,8.455 6.855,15.31 15.311,15.31l0,22.965c-0.002,8.321 -5.048,15.809 -12.759,18.934c-2.435,0.975 -5.033,1.477 -7.655,1.48l-5.104,0c-2.622,-0.003 -5.22,-0.505 -7.655,-1.48c-4.339,-1.761 -7.942,-4.959 -10.207,-9.058c-1.686,-3.018 -2.564,-6.419 -2.552,-9.876l0,-22.965l2.583,0c15.494,-0.008 28.047,-12.575 28.038,-28.069l0,12.759Z" style="fill:none;stroke:#fff;stroke-width:1.97px;"/><path d="M31.621,77.552l-17.862,0l0,-29.345c0,-4.933 3.998,-8.931 8.931,-8.931c4.922,0.023 8.907,4.008 8.931,8.931l0,11.18l9.066,-4.533l2.281,4.568l-11.347,5.673l0,12.457Z" style="fill:none;stroke:#fff;stroke-width:1.97px;"/><path d="M83.931,34.172c2.114,0 3.828,1.714 3.828,3.828c0,2.114 -1.714,3.828 -3.828,3.828c-2.114,0 -3.828,-1.714 -3.828,-3.828c0,-2.114 1.714,-3.828 3.828,-3.828Z" style="fill:#fff;fill-rule:nonzero;"/><path d="M66.069,34.172c2.114,0 3.828,1.714 3.828,3.828c0,2.114 -1.714,3.828 -3.828,3.828c-2.114,0 -3.828,-1.714 -3.828,-3.828c0,-2.114 1.714,-3.828 3.828,-3.828Z" style="fill:#fff;fill-rule:nonzero;"/></g></svg>